%TF.GenerationSoftware,KiCad,Pcbnew,7.0.8*%
%TF.CreationDate,2023-10-22T18:36:15+02:00*%
%TF.ProjectId,Second test with RGB LEDs,5365636f-6e64-4207-9465-737420776974,rev?*%
%TF.SameCoordinates,Original*%
%TF.FileFunction,Copper,L2,Bot*%
%TF.FilePolarity,Positive*%
%FSLAX46Y46*%
G04 Gerber Fmt 4.6, Leading zero omitted, Abs format (unit mm)*
G04 Created by KiCad (PCBNEW 7.0.8) date 2023-10-22 18:36:15*
%MOMM*%
%LPD*%
G01*
G04 APERTURE LIST*
%TA.AperFunction,ComponentPad*%
%ADD10C,2.400000*%
%TD*%
%TA.AperFunction,ComponentPad*%
%ADD11R,1.700000X1.700000*%
%TD*%
%TA.AperFunction,ComponentPad*%
%ADD12O,1.700000X1.700000*%
%TD*%
%TA.AperFunction,ViaPad*%
%ADD13C,0.800000*%
%TD*%
%TA.AperFunction,Conductor*%
%ADD14C,0.250000*%
%TD*%
G04 APERTURE END LIST*
D10*
%TO.P,KEY4,1,1*%
%TO.N,Net-(U1-D)*%
X130810000Y-49530000D03*
%TO.P,KEY4,2,2*%
%TO.N,+3V3*%
X124459988Y-46989994D03*
%TD*%
%TO.P,KEY1,1,1*%
%TO.N,Net-(U1-A)*%
X180340007Y-49529995D03*
%TO.P,KEY1,2,2*%
%TO.N,+3V3*%
X173989995Y-46989989D03*
%TD*%
%TO.P,KEY8,1,1*%
%TO.N,Net-(U1-H)*%
X180340000Y-66040000D03*
%TO.P,KEY8,2,2*%
%TO.N,+3V3*%
X173989988Y-63499994D03*
%TD*%
%TO.P,KEY3,1,1*%
%TO.N,Net-(U1-C)*%
X147320007Y-49529995D03*
%TO.P,KEY3,2,2*%
%TO.N,+3V3*%
X140969995Y-46989989D03*
%TD*%
%TO.P,KEY7,1,1*%
%TO.N,Net-(U1-G)*%
X163830000Y-66040000D03*
%TO.P,KEY7,2,2*%
%TO.N,+3V3*%
X157479988Y-63499994D03*
%TD*%
%TO.P,KEY5,1,1*%
%TO.N,Net-(U1-E)*%
X130810000Y-66040000D03*
%TO.P,KEY5,2,2*%
%TO.N,+3V3*%
X124459988Y-63499994D03*
%TD*%
%TO.P,KEY2,1,1*%
%TO.N,Net-(U1-B)*%
X163830008Y-49529996D03*
%TO.P,KEY2,2,2*%
%TO.N,+3V3*%
X157479996Y-46989990D03*
%TD*%
%TO.P,KEY6,1,1*%
%TO.N,Net-(U1-F)*%
X147320000Y-66040000D03*
%TO.P,KEY6,2,2*%
%TO.N,+3V3*%
X140969988Y-63499994D03*
%TD*%
D11*
%TO.P,J1,1,Pin_1*%
%TO.N,+5V*%
X190241000Y-59944000D03*
D12*
%TO.P,J1,2,Pin_2*%
%TO.N,Net-(J1-Pin_2)*%
X192781000Y-59944000D03*
%TO.P,J1,3,Pin_3*%
%TO.N,+3V3*%
X190241000Y-62484000D03*
%TO.P,J1,4,Pin_4*%
%TO.N,Net-(J1-Pin_4)*%
X192781000Y-62484000D03*
%TO.P,J1,5,Pin_5*%
%TO.N,GND*%
X190241000Y-65024000D03*
%TO.P,J1,6,Pin_6*%
%TO.N,Net-(J1-Pin_6)*%
X192781000Y-65024000D03*
%TO.P,J1,7,Pin_7*%
%TO.N,Net-(D1-DIN)*%
X190241000Y-67564000D03*
%TO.P,J1,8,Pin_8*%
%TO.N,Net-(J1-Pin_8)*%
X192781000Y-67564000D03*
%TO.P,J1,9,Pin_9*%
%TO.N,Net-(D8-DOUT)*%
X190241000Y-70104000D03*
%TO.P,J1,10,Pin_10*%
%TO.N,Net-(J1-Pin_10)*%
X192781000Y-70104000D03*
%TO.P,J1,11,Pin_11*%
%TO.N,unconnected-(J1-Pin_11-Pad11)*%
X190241000Y-72644000D03*
%TO.P,J1,12,Pin_12*%
%TO.N,Net-(J1-Pin_12)*%
X192781000Y-72644000D03*
%TO.P,J1,13,Pin_13*%
%TO.N,unconnected-(J1-Pin_13-Pad13)*%
X190241000Y-75184000D03*
%TO.P,J1,14,Pin_14*%
%TO.N,unconnected-(J1-Pin_14-Pad14)*%
X192781000Y-75184000D03*
%TD*%
D13*
%TO.N,+5V*%
X186436000Y-59944000D03*
%TO.N,GND*%
X186144500Y-55245000D03*
X182880000Y-53975000D03*
X150114000Y-77978000D03*
X155194000Y-67564000D03*
X137414000Y-68326000D03*
%TO.N,Net-(D1-DIN)*%
X181610000Y-57150000D03*
%TO.N,+5V*%
X183074799Y-57590201D03*
%TO.N,Net-(J1-Pin_2)*%
X198120000Y-53340000D03*
%TO.N,+3V3*%
X187216690Y-62865000D03*
X184785000Y-66040000D03*
X121285000Y-59055000D03*
X193040000Y-46990000D03*
X180105201Y-61360201D03*
%TO.N,Net-(J1-Pin_6)*%
X194855500Y-59055000D03*
%TO.N,Net-(J1-Pin_8)*%
X194945000Y-55245000D03*
X192405000Y-57785000D03*
%TD*%
D14*
%TO.N,+5V*%
X185428598Y-59944000D02*
X186436000Y-59944000D01*
X186436000Y-59944000D02*
X190241000Y-59944000D01*
%TO.N,GND*%
X182880000Y-53975000D02*
X184150000Y-55245000D01*
X184150000Y-55245000D02*
X186144500Y-55245000D01*
%TO.N,Net-(D1-DIN)*%
X181610000Y-57150000D02*
X185420000Y-60960000D01*
X185420000Y-64770000D02*
X188214000Y-67564000D01*
X185420000Y-60960000D02*
X185420000Y-64770000D01*
X188214000Y-67564000D02*
X190241000Y-67564000D01*
%TO.N,+5V*%
X183074799Y-57590201D02*
X185428598Y-59944000D01*
%TO.N,Net-(J1-Pin_2)*%
X198120000Y-54605000D02*
X192781000Y-59944000D01*
X198120000Y-53340000D02*
X198120000Y-54605000D01*
%TO.N,+3V3*%
X121285000Y-59055000D02*
X121285000Y-60325006D01*
X187597690Y-62484000D02*
X190241000Y-62484000D01*
X187216690Y-62865000D02*
X187597690Y-62484000D01*
X121285000Y-60325006D02*
X124459988Y-63499994D01*
X191606000Y-48424000D02*
X191606000Y-61119000D01*
X180105201Y-61360201D02*
X184785000Y-66040000D01*
X191606000Y-61119000D02*
X190241000Y-62484000D01*
X193040000Y-46990000D02*
X191606000Y-48424000D01*
%TO.N,Net-(J1-Pin_6)*%
X194855500Y-62949500D02*
X192781000Y-65024000D01*
X194855500Y-59055000D02*
X194855500Y-62949500D01*
%TO.N,Net-(J1-Pin_8)*%
X192405000Y-57785000D02*
X194945000Y-55245000D01*
%TD*%
%TA.AperFunction,Conductor*%
%TO.N,GND*%
G36*
X188833540Y-60589185D02*
G01*
X188879295Y-60641989D01*
X188890501Y-60693500D01*
X188890501Y-60841876D01*
X188896908Y-60901483D01*
X188947202Y-61036328D01*
X188947206Y-61036335D01*
X189033452Y-61151544D01*
X189033455Y-61151547D01*
X189148664Y-61237793D01*
X189148671Y-61237797D01*
X189280081Y-61286810D01*
X189336015Y-61328681D01*
X189360432Y-61394145D01*
X189345580Y-61462418D01*
X189324430Y-61490673D01*
X189202503Y-61612600D01*
X189067348Y-61805623D01*
X189012771Y-61849248D01*
X188965773Y-61858500D01*
X187680427Y-61858500D01*
X187664810Y-61856776D01*
X187664783Y-61857062D01*
X187657021Y-61856327D01*
X187587893Y-61858500D01*
X187558340Y-61858500D01*
X187557619Y-61858590D01*
X187551447Y-61859369D01*
X187545635Y-61859826D01*
X187499062Y-61861290D01*
X187499059Y-61861291D01*
X187479816Y-61866881D01*
X187460773Y-61870825D01*
X187440894Y-61873336D01*
X187440893Y-61873337D01*
X187397568Y-61890490D01*
X187392042Y-61892382D01*
X187347298Y-61905383D01*
X187347294Y-61905385D01*
X187330055Y-61915580D01*
X187312588Y-61924137D01*
X187293960Y-61931512D01*
X187281149Y-61940820D01*
X187215342Y-61964298D01*
X187208266Y-61964500D01*
X187122044Y-61964500D01*
X187089587Y-61971398D01*
X186936887Y-62003855D01*
X186936882Y-62003857D01*
X186763960Y-62080848D01*
X186763955Y-62080851D01*
X186610819Y-62192111D01*
X186484156Y-62332785D01*
X186389511Y-62496715D01*
X186389508Y-62496722D01*
X186331017Y-62676740D01*
X186331016Y-62676744D01*
X186311230Y-62865000D01*
X186331016Y-63053256D01*
X186331017Y-63053259D01*
X186389508Y-63233277D01*
X186389511Y-63233284D01*
X186484157Y-63397216D01*
X186576699Y-63499994D01*
X186610819Y-63537888D01*
X186763955Y-63649148D01*
X186763960Y-63649151D01*
X186936882Y-63726142D01*
X186936887Y-63726144D01*
X187122044Y-63765500D01*
X187122045Y-63765500D01*
X187311334Y-63765500D01*
X187311336Y-63765500D01*
X187496493Y-63726144D01*
X187669420Y-63649151D01*
X187822561Y-63537888D01*
X187949223Y-63397216D01*
X188043869Y-63233284D01*
X188056249Y-63195183D01*
X188095686Y-63137507D01*
X188160044Y-63110308D01*
X188174180Y-63109500D01*
X188965773Y-63109500D01*
X189032812Y-63129185D01*
X189067348Y-63162377D01*
X189201557Y-63354048D01*
X189202505Y-63355401D01*
X189369599Y-63522495D01*
X189550482Y-63649151D01*
X189555594Y-63652730D01*
X189599219Y-63707307D01*
X189606413Y-63776805D01*
X189574890Y-63839160D01*
X189555595Y-63855880D01*
X189369922Y-63985890D01*
X189369920Y-63985891D01*
X189202891Y-64152920D01*
X189202886Y-64152926D01*
X189067400Y-64346420D01*
X189067399Y-64346422D01*
X188967570Y-64560507D01*
X188967567Y-64560513D01*
X188910364Y-64773999D01*
X188910364Y-64774000D01*
X189807314Y-64774000D01*
X189781507Y-64814156D01*
X189741000Y-64952111D01*
X189741000Y-65095889D01*
X189781507Y-65233844D01*
X189807314Y-65274000D01*
X188910364Y-65274000D01*
X188967567Y-65487486D01*
X188967570Y-65487492D01*
X189067399Y-65701578D01*
X189202894Y-65895082D01*
X189369917Y-66062105D01*
X189555595Y-66192119D01*
X189599219Y-66246696D01*
X189606412Y-66316195D01*
X189574890Y-66378549D01*
X189555595Y-66395269D01*
X189369594Y-66525508D01*
X189202505Y-66692597D01*
X189067348Y-66885623D01*
X189012771Y-66929248D01*
X188965773Y-66938500D01*
X188524452Y-66938500D01*
X188457413Y-66918815D01*
X188436771Y-66902181D01*
X186081819Y-64547228D01*
X186048334Y-64485905D01*
X186045500Y-64459547D01*
X186045500Y-61042742D01*
X186047224Y-61027122D01*
X186046939Y-61027095D01*
X186047673Y-61019333D01*
X186045500Y-60950172D01*
X186045500Y-60934741D01*
X186065185Y-60867702D01*
X186117989Y-60821947D01*
X186187147Y-60812003D01*
X186195266Y-60813448D01*
X186341354Y-60844500D01*
X186341355Y-60844500D01*
X186530644Y-60844500D01*
X186530646Y-60844500D01*
X186715803Y-60805144D01*
X186888730Y-60728151D01*
X187041871Y-60616888D01*
X187044788Y-60613647D01*
X187047600Y-60610526D01*
X187107087Y-60573879D01*
X187139748Y-60569500D01*
X188766501Y-60569500D01*
X188833540Y-60589185D01*
G37*
%TD.AperFunction*%
%TA.AperFunction,Conductor*%
G36*
X206190539Y-40025185D02*
G01*
X206236294Y-40077989D01*
X206247500Y-40129500D01*
X206247500Y-79885500D01*
X206227815Y-79952539D01*
X206175011Y-79998294D01*
X206123500Y-80009500D01*
X109852500Y-80009500D01*
X109785461Y-79989815D01*
X109739706Y-79937011D01*
X109728500Y-79885500D01*
X109728500Y-75614903D01*
X111641793Y-75614903D01*
X111651672Y-75922970D01*
X111651672Y-75922975D01*
X111651673Y-75922978D01*
X111700867Y-76227261D01*
X111745137Y-76376419D01*
X111788571Y-76522763D01*
X111913333Y-76804601D01*
X111913337Y-76804609D01*
X112073123Y-77068193D01*
X112073127Y-77068198D01*
X112073133Y-77068207D01*
X112265297Y-77309174D01*
X112265299Y-77309176D01*
X112265303Y-77309180D01*
X112265304Y-77309181D01*
X112486724Y-77523614D01*
X112653862Y-77648352D01*
X112733741Y-77707968D01*
X112733743Y-77707969D01*
X112733747Y-77707972D01*
X113002318Y-77859228D01*
X113143057Y-77916207D01*
X113288018Y-77974897D01*
X113288023Y-77974898D01*
X113288025Y-77974899D01*
X113586179Y-78053084D01*
X113891883Y-78092500D01*
X113891890Y-78092500D01*
X114122980Y-78092500D01*
X114221814Y-78086154D01*
X114353601Y-78077693D01*
X114656151Y-78018772D01*
X114948683Y-77921644D01*
X114948689Y-77921640D01*
X114948693Y-77921640D01*
X115139571Y-77829717D01*
X115226393Y-77787907D01*
X115484720Y-77619754D01*
X115719424Y-77419948D01*
X115926650Y-77191769D01*
X116102996Y-76938963D01*
X116245567Y-76665683D01*
X116352020Y-76376415D01*
X116420609Y-76075908D01*
X116450206Y-75769098D01*
X116440327Y-75461022D01*
X116391133Y-75156739D01*
X116303431Y-74861244D01*
X116303429Y-74861239D01*
X116303428Y-74861236D01*
X116178666Y-74579398D01*
X116178663Y-74579391D01*
X116018877Y-74315807D01*
X116018870Y-74315799D01*
X116018866Y-74315792D01*
X115826702Y-74074825D01*
X115826700Y-74074823D01*
X115765521Y-74015575D01*
X115605276Y-73860386D01*
X115439996Y-73737034D01*
X115358258Y-73676031D01*
X115358253Y-73676028D01*
X115329794Y-73660000D01*
X125779658Y-73660000D01*
X125798197Y-73871905D01*
X125798199Y-73871915D01*
X125853251Y-74077374D01*
X125853253Y-74077378D01*
X125853254Y-74077382D01*
X125913625Y-74206848D01*
X125943153Y-74270171D01*
X125943155Y-74270175D01*
X126065164Y-74444422D01*
X126215577Y-74594835D01*
X126389824Y-74716844D01*
X126389826Y-74716845D01*
X126389829Y-74716847D01*
X126582618Y-74806746D01*
X126616952Y-74815945D01*
X126620051Y-74816864D01*
X126623717Y-74818055D01*
X126623724Y-74818058D01*
X126631210Y-74819766D01*
X126788090Y-74861802D01*
X126828121Y-74865304D01*
X126836501Y-74866622D01*
X126836550Y-74866634D01*
X126850458Y-74867258D01*
X127000000Y-74880342D01*
X127044021Y-74876490D01*
X127052189Y-74876318D01*
X127054630Y-74876428D01*
X127071274Y-74874173D01*
X127074072Y-74873861D01*
X127211910Y-74861802D01*
X127258518Y-74849313D01*
X127266228Y-74847765D01*
X127270954Y-74847125D01*
X127289526Y-74841090D01*
X127292533Y-74840198D01*
X127417382Y-74806746D01*
X127464865Y-74784604D01*
X127471878Y-74781841D01*
X127478569Y-74779667D01*
X127497270Y-74769603D01*
X127500356Y-74768054D01*
X127610171Y-74716847D01*
X127656550Y-74684371D01*
X127662718Y-74680571D01*
X127670802Y-74676221D01*
X127688130Y-74662401D01*
X127691138Y-74660153D01*
X127784421Y-74594836D01*
X127827519Y-74551737D01*
X127832666Y-74547138D01*
X127841475Y-74540114D01*
X127856257Y-74523193D01*
X127859047Y-74520209D01*
X127934836Y-74444421D01*
X127972315Y-74390895D01*
X127976399Y-74385680D01*
X127985103Y-74375719D01*
X127996543Y-74356570D01*
X127998931Y-74352883D01*
X128056847Y-74270171D01*
X128086389Y-74206816D01*
X128089328Y-74201273D01*
X128097068Y-74188320D01*
X128104704Y-74167972D01*
X128106534Y-74163615D01*
X128146746Y-74077382D01*
X128166045Y-74005355D01*
X128167864Y-73999683D01*
X128173773Y-73983941D01*
X128177494Y-73963433D01*
X128178609Y-73958466D01*
X128184495Y-73936500D01*
X128201802Y-73871910D01*
X128208721Y-73792825D01*
X128209473Y-73787214D01*
X128212752Y-73769150D01*
X128213382Y-73741004D01*
X128213598Y-73737074D01*
X128220342Y-73660000D01*
X142289658Y-73660000D01*
X142308197Y-73871905D01*
X142308199Y-73871915D01*
X142363251Y-74077374D01*
X142363253Y-74077378D01*
X142363254Y-74077382D01*
X142423625Y-74206848D01*
X142453153Y-74270171D01*
X142453155Y-74270175D01*
X142575164Y-74444422D01*
X142725577Y-74594835D01*
X142899824Y-74716844D01*
X142899826Y-74716845D01*
X142899829Y-74716847D01*
X143092618Y-74806746D01*
X143126952Y-74815945D01*
X143130051Y-74816864D01*
X143133717Y-74818055D01*
X143133724Y-74818058D01*
X143141210Y-74819766D01*
X143298090Y-74861802D01*
X143338121Y-74865304D01*
X143346501Y-74866622D01*
X143346550Y-74866634D01*
X143360458Y-74867258D01*
X143510000Y-74880342D01*
X143554021Y-74876490D01*
X143562189Y-74876318D01*
X143564630Y-74876428D01*
X143581274Y-74874173D01*
X143584072Y-74873861D01*
X143721910Y-74861802D01*
X143768518Y-74849313D01*
X143776228Y-74847765D01*
X143780954Y-74847125D01*
X143799526Y-74841090D01*
X143802533Y-74840198D01*
X143927382Y-74806746D01*
X143974865Y-74784604D01*
X143981878Y-74781841D01*
X143988569Y-74779667D01*
X144007270Y-74769603D01*
X144010356Y-74768054D01*
X144120171Y-74716847D01*
X144166550Y-74684371D01*
X144172718Y-74680571D01*
X144180802Y-74676221D01*
X144198130Y-74662401D01*
X144201138Y-74660153D01*
X144294421Y-74594836D01*
X144337519Y-74551737D01*
X144342666Y-74547138D01*
X144351475Y-74540114D01*
X144366257Y-74523193D01*
X144369047Y-74520209D01*
X144444836Y-74444421D01*
X144482315Y-74390895D01*
X144486399Y-74385680D01*
X144495103Y-74375719D01*
X144506543Y-74356570D01*
X144508931Y-74352883D01*
X144566847Y-74270171D01*
X144596389Y-74206816D01*
X144599328Y-74201273D01*
X144607068Y-74188320D01*
X144614704Y-74167972D01*
X144616534Y-74163615D01*
X144656746Y-74077382D01*
X144676045Y-74005355D01*
X144677864Y-73999683D01*
X144683773Y-73983941D01*
X144687494Y-73963433D01*
X144688609Y-73958466D01*
X144694495Y-73936500D01*
X144711802Y-73871910D01*
X144718721Y-73792825D01*
X144719473Y-73787214D01*
X144722752Y-73769150D01*
X144723382Y-73741004D01*
X144723598Y-73737074D01*
X144730342Y-73660000D01*
X158799658Y-73660000D01*
X158818197Y-73871905D01*
X158818199Y-73871915D01*
X158873251Y-74077374D01*
X158873253Y-74077378D01*
X158873254Y-74077382D01*
X158933625Y-74206848D01*
X158963153Y-74270171D01*
X158963155Y-74270175D01*
X159085164Y-74444422D01*
X159235577Y-74594835D01*
X159409824Y-74716844D01*
X159409826Y-74716845D01*
X159409829Y-74716847D01*
X159602618Y-74806746D01*
X159636952Y-74815945D01*
X159640051Y-74816864D01*
X159643717Y-74818055D01*
X159643724Y-74818058D01*
X159651210Y-74819766D01*
X159808090Y-74861802D01*
X159848121Y-74865304D01*
X159856501Y-74866622D01*
X159856550Y-74866634D01*
X159870458Y-74867258D01*
X160020000Y-74880342D01*
X160064021Y-74876490D01*
X160072189Y-74876318D01*
X160074630Y-74876428D01*
X160091274Y-74874173D01*
X160094072Y-74873861D01*
X160231910Y-74861802D01*
X160278518Y-74849313D01*
X160286228Y-74847765D01*
X160290954Y-74847125D01*
X160309526Y-74841090D01*
X160312533Y-74840198D01*
X160437382Y-74806746D01*
X160484865Y-74784604D01*
X160491878Y-74781841D01*
X160498569Y-74779667D01*
X160517270Y-74769603D01*
X160520356Y-74768054D01*
X160630171Y-74716847D01*
X160676550Y-74684371D01*
X160682718Y-74680571D01*
X160690802Y-74676221D01*
X160708130Y-74662401D01*
X160711138Y-74660153D01*
X160804421Y-74594836D01*
X160847519Y-74551737D01*
X160852666Y-74547138D01*
X160861475Y-74540114D01*
X160876257Y-74523193D01*
X160879047Y-74520209D01*
X160954836Y-74444421D01*
X160992315Y-74390895D01*
X160996399Y-74385680D01*
X161005103Y-74375719D01*
X161016543Y-74356570D01*
X161018931Y-74352883D01*
X161076847Y-74270171D01*
X161106389Y-74206816D01*
X161109328Y-74201273D01*
X161117068Y-74188320D01*
X161124704Y-74167972D01*
X161126534Y-74163615D01*
X161166746Y-74077382D01*
X161186045Y-74005355D01*
X161187864Y-73999683D01*
X161193773Y-73983941D01*
X161197494Y-73963433D01*
X161198609Y-73958466D01*
X161204495Y-73936500D01*
X161221802Y-73871910D01*
X161228721Y-73792825D01*
X161229473Y-73787214D01*
X161232752Y-73769150D01*
X161233382Y-73741004D01*
X161233598Y-73737074D01*
X161240342Y-73660000D01*
X175309658Y-73660000D01*
X175328197Y-73871905D01*
X175328199Y-73871915D01*
X175383251Y-74077374D01*
X175383253Y-74077378D01*
X175383254Y-74077382D01*
X175443625Y-74206848D01*
X175473153Y-74270171D01*
X175473155Y-74270175D01*
X175595164Y-74444422D01*
X175745577Y-74594835D01*
X175919824Y-74716844D01*
X175919826Y-74716845D01*
X175919829Y-74716847D01*
X176112618Y-74806746D01*
X176146952Y-74815945D01*
X176150051Y-74816864D01*
X176153717Y-74818055D01*
X176153724Y-74818058D01*
X176161210Y-74819766D01*
X176318090Y-74861802D01*
X176358121Y-74865304D01*
X176366501Y-74866622D01*
X176366550Y-74866634D01*
X176380458Y-74867258D01*
X176530000Y-74880342D01*
X176574021Y-74876490D01*
X176582189Y-74876318D01*
X176584630Y-74876428D01*
X176601274Y-74874173D01*
X176604072Y-74873861D01*
X176741910Y-74861802D01*
X176788518Y-74849313D01*
X176796228Y-74847765D01*
X176800954Y-74847125D01*
X176819526Y-74841090D01*
X176822533Y-74840198D01*
X176947382Y-74806746D01*
X176994865Y-74784604D01*
X177001878Y-74781841D01*
X177008569Y-74779667D01*
X177027270Y-74769603D01*
X177030356Y-74768054D01*
X177140171Y-74716847D01*
X177186550Y-74684371D01*
X177192718Y-74680571D01*
X177200802Y-74676221D01*
X177218130Y-74662401D01*
X177221138Y-74660153D01*
X177314421Y-74594836D01*
X177357519Y-74551737D01*
X177362666Y-74547138D01*
X177371475Y-74540114D01*
X177386257Y-74523193D01*
X177389047Y-74520209D01*
X177464836Y-74444421D01*
X177502315Y-74390895D01*
X177506399Y-74385680D01*
X177515103Y-74375719D01*
X177526543Y-74356570D01*
X177528931Y-74352883D01*
X177586847Y-74270171D01*
X177616389Y-74206816D01*
X177619328Y-74201273D01*
X177627068Y-74188320D01*
X177634704Y-74167972D01*
X177636534Y-74163615D01*
X177676746Y-74077382D01*
X177696045Y-74005355D01*
X177697864Y-73999683D01*
X177703773Y-73983941D01*
X177707494Y-73963433D01*
X177708609Y-73958466D01*
X177714495Y-73936500D01*
X177731802Y-73871910D01*
X177738721Y-73792825D01*
X177739473Y-73787214D01*
X177742752Y-73769150D01*
X177743382Y-73741004D01*
X177743598Y-73737074D01*
X177750342Y-73660000D01*
X177743599Y-73582929D01*
X177743382Y-73578992D01*
X177742752Y-73550850D01*
X177739473Y-73532782D01*
X177738721Y-73527177D01*
X177731802Y-73448090D01*
X177708607Y-73361524D01*
X177707490Y-73356544D01*
X177703773Y-73336060D01*
X177703773Y-73336059D01*
X177697866Y-73320321D01*
X177696045Y-73314644D01*
X177678727Y-73250012D01*
X177676747Y-73242621D01*
X177676744Y-73242614D01*
X177636548Y-73156412D01*
X177634692Y-73151994D01*
X177627070Y-73131686D01*
X177627068Y-73131680D01*
X177619343Y-73118751D01*
X177616375Y-73113153D01*
X177586847Y-73049829D01*
X177528955Y-72967150D01*
X177526529Y-72963405D01*
X177515103Y-72944281D01*
X177514072Y-72943101D01*
X177506403Y-72934322D01*
X177502304Y-72929089D01*
X177464837Y-72875580D01*
X177464834Y-72875577D01*
X177389066Y-72799809D01*
X177386237Y-72796783D01*
X177379522Y-72789097D01*
X177371473Y-72779883D01*
X177362681Y-72772873D01*
X177357493Y-72768236D01*
X177314421Y-72725164D01*
X177221178Y-72659874D01*
X177218084Y-72657561D01*
X177200802Y-72643779D01*
X177200798Y-72643776D01*
X177192723Y-72639430D01*
X177186541Y-72635620D01*
X177140173Y-72603154D01*
X177030407Y-72551969D01*
X177027229Y-72550374D01*
X177008567Y-72540332D01*
X177008567Y-72540331D01*
X177001900Y-72538166D01*
X176994851Y-72535389D01*
X176947382Y-72513254D01*
X176947378Y-72513253D01*
X176947376Y-72513252D01*
X176822591Y-72479816D01*
X176819480Y-72478894D01*
X176800958Y-72472876D01*
X176800941Y-72472872D01*
X176796223Y-72472233D01*
X176788501Y-72470681D01*
X176741910Y-72458198D01*
X176741911Y-72458198D01*
X176604138Y-72446144D01*
X176601219Y-72445819D01*
X176593196Y-72444732D01*
X176584630Y-72443572D01*
X176584629Y-72443572D01*
X176584622Y-72443571D01*
X176582181Y-72443681D01*
X176573998Y-72443507D01*
X176530002Y-72439658D01*
X176529998Y-72439658D01*
X176380458Y-72452741D01*
X176366544Y-72453366D01*
X176366512Y-72453370D01*
X176366432Y-72453389D01*
X176358078Y-72454698D01*
X176324217Y-72457661D01*
X176318090Y-72458198D01*
X176318087Y-72458198D01*
X176318084Y-72458199D01*
X176161220Y-72500231D01*
X176153716Y-72501943D01*
X176150025Y-72503142D01*
X176146930Y-72504059D01*
X176112616Y-72513254D01*
X175919828Y-72603153D01*
X175919824Y-72603155D01*
X175745577Y-72725164D01*
X175595164Y-72875577D01*
X175473155Y-73049824D01*
X175473153Y-73049828D01*
X175383255Y-73242616D01*
X175383251Y-73242625D01*
X175328199Y-73448084D01*
X175328197Y-73448094D01*
X175309658Y-73659999D01*
X175309658Y-73660000D01*
X161240342Y-73660000D01*
X161233599Y-73582929D01*
X161233382Y-73578992D01*
X161232752Y-73550850D01*
X161229473Y-73532782D01*
X161228721Y-73527177D01*
X161221802Y-73448090D01*
X161198607Y-73361524D01*
X161197490Y-73356544D01*
X161193773Y-73336060D01*
X161193773Y-73336059D01*
X161187866Y-73320321D01*
X161186045Y-73314644D01*
X161168727Y-73250012D01*
X161166747Y-73242621D01*
X161166744Y-73242614D01*
X161126548Y-73156412D01*
X161124692Y-73151994D01*
X161117070Y-73131686D01*
X161117068Y-73131680D01*
X161109343Y-73118751D01*
X161106375Y-73113153D01*
X161076847Y-73049829D01*
X161018955Y-72967150D01*
X161016529Y-72963405D01*
X161005103Y-72944281D01*
X161004072Y-72943101D01*
X160996403Y-72934322D01*
X160992304Y-72929089D01*
X160954837Y-72875580D01*
X160954834Y-72875577D01*
X160879066Y-72799809D01*
X160876237Y-72796783D01*
X160869522Y-72789097D01*
X160861473Y-72779883D01*
X160852681Y-72772873D01*
X160847493Y-72768236D01*
X160804421Y-72725164D01*
X160711178Y-72659874D01*
X160708084Y-72657561D01*
X160690802Y-72643779D01*
X160690798Y-72643776D01*
X160682723Y-72639430D01*
X160676541Y-72635620D01*
X160630173Y-72603154D01*
X160520407Y-72551969D01*
X160517229Y-72550374D01*
X160498567Y-72540332D01*
X160498567Y-72540331D01*
X160491900Y-72538166D01*
X160484851Y-72535389D01*
X160437382Y-72513254D01*
X160437378Y-72513253D01*
X160437376Y-72513252D01*
X160312591Y-72479816D01*
X160309480Y-72478894D01*
X160290958Y-72472876D01*
X160290941Y-72472872D01*
X160286223Y-72472233D01*
X160278501Y-72470681D01*
X160231910Y-72458198D01*
X160231911Y-72458198D01*
X160094138Y-72446144D01*
X160091219Y-72445819D01*
X160083196Y-72444732D01*
X160074630Y-72443572D01*
X160074629Y-72443572D01*
X160074622Y-72443571D01*
X160072181Y-72443681D01*
X160063998Y-72443507D01*
X160020002Y-72439658D01*
X160019998Y-72439658D01*
X159870458Y-72452741D01*
X159856544Y-72453366D01*
X159856512Y-72453370D01*
X159856432Y-72453389D01*
X159848078Y-72454698D01*
X159814217Y-72457661D01*
X159808090Y-72458198D01*
X159808087Y-72458198D01*
X159808084Y-72458199D01*
X159651220Y-72500231D01*
X159643716Y-72501943D01*
X159640025Y-72503142D01*
X159636930Y-72504059D01*
X159602616Y-72513254D01*
X159409828Y-72603153D01*
X159409824Y-72603155D01*
X159235577Y-72725164D01*
X159085164Y-72875577D01*
X158963155Y-73049824D01*
X158963153Y-73049828D01*
X158873255Y-73242616D01*
X158873251Y-73242625D01*
X158818199Y-73448084D01*
X158818197Y-73448094D01*
X158799658Y-73659999D01*
X158799658Y-73660000D01*
X144730342Y-73660000D01*
X144723599Y-73582929D01*
X144723382Y-73578992D01*
X144722752Y-73550850D01*
X144719473Y-73532782D01*
X144718721Y-73527177D01*
X144711802Y-73448090D01*
X144688607Y-73361524D01*
X144687490Y-73356544D01*
X144683773Y-73336060D01*
X144683773Y-73336059D01*
X144677866Y-73320321D01*
X144676045Y-73314644D01*
X144658727Y-73250012D01*
X144656747Y-73242621D01*
X144656744Y-73242614D01*
X144616548Y-73156412D01*
X144614692Y-73151994D01*
X144607070Y-73131686D01*
X144607068Y-73131680D01*
X144599343Y-73118751D01*
X144596375Y-73113153D01*
X144566847Y-73049829D01*
X144508955Y-72967150D01*
X144506529Y-72963405D01*
X144495103Y-72944281D01*
X144494072Y-72943101D01*
X144486403Y-72934322D01*
X144482304Y-72929089D01*
X144444837Y-72875580D01*
X144444834Y-72875577D01*
X144369066Y-72799809D01*
X144366237Y-72796783D01*
X144359522Y-72789097D01*
X144351473Y-72779883D01*
X144342681Y-72772873D01*
X144337493Y-72768236D01*
X144294421Y-72725164D01*
X144201178Y-72659874D01*
X144198084Y-72657561D01*
X144180802Y-72643779D01*
X144180798Y-72643776D01*
X144172723Y-72639430D01*
X144166541Y-72635620D01*
X144120173Y-72603154D01*
X144010407Y-72551969D01*
X144007229Y-72550374D01*
X143988567Y-72540332D01*
X143988567Y-72540331D01*
X143981900Y-72538166D01*
X143974851Y-72535389D01*
X143927382Y-72513254D01*
X143927378Y-72513253D01*
X143927376Y-72513252D01*
X143802591Y-72479816D01*
X143799480Y-72478894D01*
X143780958Y-72472876D01*
X143780941Y-72472872D01*
X143776223Y-72472233D01*
X143768501Y-72470681D01*
X143721910Y-72458198D01*
X143721911Y-72458198D01*
X143584138Y-72446144D01*
X143581219Y-72445819D01*
X143573196Y-72444732D01*
X143564630Y-72443572D01*
X143564629Y-72443572D01*
X143564622Y-72443571D01*
X143562181Y-72443681D01*
X143553998Y-72443507D01*
X143510002Y-72439658D01*
X143509998Y-72439658D01*
X143360458Y-72452741D01*
X143346544Y-72453366D01*
X143346512Y-72453370D01*
X143346432Y-72453389D01*
X143338078Y-72454698D01*
X143304217Y-72457661D01*
X143298090Y-72458198D01*
X143298087Y-72458198D01*
X143298084Y-72458199D01*
X143141220Y-72500231D01*
X143133716Y-72501943D01*
X143130025Y-72503142D01*
X143126930Y-72504059D01*
X143092616Y-72513254D01*
X142899828Y-72603153D01*
X142899824Y-72603155D01*
X142725577Y-72725164D01*
X142575164Y-72875577D01*
X142453155Y-73049824D01*
X142453153Y-73049828D01*
X142363255Y-73242616D01*
X142363251Y-73242625D01*
X142308199Y-73448084D01*
X142308197Y-73448094D01*
X142289658Y-73659999D01*
X142289658Y-73660000D01*
X128220342Y-73660000D01*
X128213599Y-73582929D01*
X128213382Y-73578992D01*
X128212752Y-73550850D01*
X128209473Y-73532782D01*
X128208721Y-73527177D01*
X128201802Y-73448090D01*
X128178607Y-73361524D01*
X128177490Y-73356544D01*
X128173773Y-73336060D01*
X128173773Y-73336059D01*
X128167866Y-73320321D01*
X128166045Y-73314644D01*
X128148727Y-73250012D01*
X128146747Y-73242621D01*
X128146744Y-73242614D01*
X128106548Y-73156412D01*
X128104692Y-73151994D01*
X128097070Y-73131686D01*
X128097068Y-73131680D01*
X128089343Y-73118751D01*
X128086375Y-73113153D01*
X128056847Y-73049829D01*
X127998955Y-72967150D01*
X127996529Y-72963405D01*
X127985103Y-72944281D01*
X127984072Y-72943101D01*
X127976403Y-72934322D01*
X127972304Y-72929089D01*
X127934837Y-72875580D01*
X127934834Y-72875577D01*
X127859066Y-72799809D01*
X127856237Y-72796783D01*
X127849522Y-72789097D01*
X127841473Y-72779883D01*
X127832681Y-72772873D01*
X127827493Y-72768236D01*
X127784421Y-72725164D01*
X127691178Y-72659874D01*
X127688084Y-72657561D01*
X127670802Y-72643779D01*
X127670798Y-72643776D01*
X127662723Y-72639430D01*
X127656541Y-72635620D01*
X127610173Y-72603154D01*
X127500407Y-72551969D01*
X127497229Y-72550374D01*
X127478567Y-72540332D01*
X127478567Y-72540331D01*
X127471900Y-72538166D01*
X127464851Y-72535389D01*
X127417382Y-72513254D01*
X127417378Y-72513253D01*
X127417376Y-72513252D01*
X127292591Y-72479816D01*
X127289480Y-72478894D01*
X127270958Y-72472876D01*
X127270941Y-72472872D01*
X127266223Y-72472233D01*
X127258501Y-72470681D01*
X127211910Y-72458198D01*
X127211911Y-72458198D01*
X127074138Y-72446144D01*
X127071219Y-72445819D01*
X127063196Y-72444732D01*
X127054630Y-72443572D01*
X127054629Y-72443572D01*
X127054622Y-72443571D01*
X127052181Y-72443681D01*
X127043998Y-72443507D01*
X127000002Y-72439658D01*
X126999998Y-72439658D01*
X126850458Y-72452741D01*
X126836544Y-72453366D01*
X126836512Y-72453370D01*
X126836432Y-72453389D01*
X126828078Y-72454698D01*
X126794217Y-72457661D01*
X126788090Y-72458198D01*
X126788087Y-72458198D01*
X126788084Y-72458199D01*
X126631220Y-72500231D01*
X126623716Y-72501943D01*
X126620025Y-72503142D01*
X126616930Y-72504059D01*
X126582616Y-72513254D01*
X126389828Y-72603153D01*
X126389824Y-72603155D01*
X126215577Y-72725164D01*
X126065164Y-72875577D01*
X125943155Y-73049824D01*
X125943153Y-73049828D01*
X125853255Y-73242616D01*
X125853251Y-73242625D01*
X125798199Y-73448084D01*
X125798197Y-73448094D01*
X125779658Y-73659999D01*
X125779658Y-73660000D01*
X115329794Y-73660000D01*
X115089682Y-73524772D01*
X115052383Y-73509671D01*
X114803981Y-73409102D01*
X114622543Y-73361524D01*
X114505821Y-73330916D01*
X114200117Y-73291500D01*
X113969026Y-73291500D01*
X113969020Y-73291500D01*
X113738406Y-73306306D01*
X113738389Y-73306308D01*
X113435854Y-73365226D01*
X113435849Y-73365228D01*
X113143310Y-73462358D01*
X113143306Y-73462359D01*
X112865613Y-73596089D01*
X112865605Y-73596094D01*
X112607286Y-73764241D01*
X112607276Y-73764248D01*
X112372581Y-73964046D01*
X112372571Y-73964056D01*
X112165354Y-74192225D01*
X112165350Y-74192229D01*
X111989005Y-74445033D01*
X111989003Y-74445037D01*
X111866125Y-74680571D01*
X111847202Y-74716844D01*
X111846432Y-74718319D01*
X111846429Y-74718326D01*
X111739981Y-75007580D01*
X111739979Y-75007590D01*
X111671391Y-75308089D01*
X111641794Y-75614902D01*
X111641793Y-75614903D01*
X109728500Y-75614903D01*
X109728500Y-68580005D01*
X124644450Y-68580005D01*
X124662572Y-68856500D01*
X124664602Y-68887463D01*
X124664604Y-68887475D01*
X124724711Y-69189656D01*
X124724715Y-69189671D01*
X124823753Y-69481427D01*
X124823762Y-69481448D01*
X124960027Y-69757766D01*
X124960031Y-69757772D01*
X124960033Y-69757776D01*
X125131214Y-70013968D01*
X125131216Y-70013970D01*
X125334372Y-70245625D01*
X125441311Y-70339408D01*
X125566029Y-70448783D01*
X125822222Y-70619965D01*
X125822225Y-70619966D01*
X125822231Y-70619970D01*
X126098549Y-70756235D01*
X126098554Y-70756237D01*
X126098566Y-70756243D01*
X126390334Y-70855285D01*
X126692533Y-70915396D01*
X126923052Y-70930505D01*
X126923055Y-70930505D01*
X127076931Y-70930505D01*
X127076934Y-70930505D01*
X127307453Y-70915396D01*
X127609652Y-70855285D01*
X127901420Y-70756243D01*
X128177764Y-70619965D01*
X128433957Y-70448783D01*
X128665613Y-70245625D01*
X128868771Y-70013969D01*
X129039953Y-69757777D01*
X129176231Y-69481432D01*
X129194991Y-69426169D01*
X129275269Y-69189676D01*
X129275269Y-69189675D01*
X129275273Y-69189664D01*
X129335384Y-68887465D01*
X129355536Y-68580005D01*
X141154450Y-68580005D01*
X141172572Y-68856500D01*
X141174602Y-68887463D01*
X141174604Y-68887475D01*
X141234711Y-69189656D01*
X141234715Y-69189671D01*
X141333753Y-69481427D01*
X141333762Y-69481448D01*
X141470027Y-69757766D01*
X141470031Y-69757772D01*
X141470033Y-69757776D01*
X141641214Y-70013968D01*
X141641216Y-70013970D01*
X141844372Y-70245625D01*
X141951311Y-70339408D01*
X142076029Y-70448783D01*
X142332222Y-70619965D01*
X142332225Y-70619966D01*
X142332231Y-70619970D01*
X142608549Y-70756235D01*
X142608554Y-70756237D01*
X142608566Y-70756243D01*
X142900334Y-70855285D01*
X143202533Y-70915396D01*
X143433052Y-70930505D01*
X143433055Y-70930505D01*
X143586931Y-70930505D01*
X143586934Y-70930505D01*
X143817453Y-70915396D01*
X144119652Y-70855285D01*
X144411420Y-70756243D01*
X144687764Y-70619965D01*
X144943957Y-70448783D01*
X145175613Y-70245625D01*
X145378771Y-70013969D01*
X145549953Y-69757777D01*
X145686231Y-69481432D01*
X145704991Y-69426169D01*
X145785269Y-69189676D01*
X145785269Y-69189675D01*
X145785273Y-69189664D01*
X145845384Y-68887465D01*
X145865536Y-68580005D01*
X157664450Y-68580005D01*
X157682572Y-68856500D01*
X157684602Y-68887463D01*
X157684604Y-68887475D01*
X157744711Y-69189656D01*
X157744715Y-69189671D01*
X157843753Y-69481427D01*
X157843762Y-69481448D01*
X157980027Y-69757766D01*
X157980031Y-69757772D01*
X157980033Y-69757776D01*
X158151214Y-70013968D01*
X158151216Y-70013970D01*
X158354372Y-70245625D01*
X158461311Y-70339408D01*
X158586029Y-70448783D01*
X158842222Y-70619965D01*
X158842225Y-70619966D01*
X158842231Y-70619970D01*
X159118549Y-70756235D01*
X159118554Y-70756237D01*
X159118566Y-70756243D01*
X159410334Y-70855285D01*
X159712533Y-70915396D01*
X159943052Y-70930505D01*
X159943055Y-70930505D01*
X160096931Y-70930505D01*
X160096934Y-70930505D01*
X160327453Y-70915396D01*
X160629652Y-70855285D01*
X160921420Y-70756243D01*
X161197764Y-70619965D01*
X161453957Y-70448783D01*
X161685613Y-70245625D01*
X161888771Y-70013969D01*
X162059953Y-69757777D01*
X162196231Y-69481432D01*
X162214991Y-69426169D01*
X162295269Y-69189676D01*
X162295269Y-69189675D01*
X162295273Y-69189664D01*
X162355384Y-68887465D01*
X162375536Y-68580005D01*
X174174450Y-68580005D01*
X174192572Y-68856500D01*
X174194602Y-68887463D01*
X174194604Y-68887475D01*
X174254711Y-69189656D01*
X174254715Y-69189671D01*
X174353753Y-69481427D01*
X174353762Y-69481448D01*
X174490027Y-69757766D01*
X174490031Y-69757772D01*
X174490033Y-69757776D01*
X174661214Y-70013968D01*
X174661216Y-70013970D01*
X174864372Y-70245625D01*
X174971311Y-70339408D01*
X175096029Y-70448783D01*
X175352222Y-70619965D01*
X175352225Y-70619966D01*
X175352231Y-70619970D01*
X175628549Y-70756235D01*
X175628554Y-70756237D01*
X175628566Y-70756243D01*
X175920334Y-70855285D01*
X176222533Y-70915396D01*
X176453052Y-70930505D01*
X176453055Y-70930505D01*
X176606931Y-70930505D01*
X176606934Y-70930505D01*
X176837453Y-70915396D01*
X177139652Y-70855285D01*
X177431420Y-70756243D01*
X177707764Y-70619965D01*
X177963957Y-70448783D01*
X178195613Y-70245625D01*
X178398771Y-70013969D01*
X178569953Y-69757777D01*
X178706231Y-69481432D01*
X178724991Y-69426169D01*
X178805269Y-69189676D01*
X178805269Y-69189675D01*
X178805273Y-69189664D01*
X178865384Y-68887465D01*
X178885536Y-68580005D01*
X178865384Y-68272545D01*
X178805273Y-67970346D01*
X178706231Y-67678578D01*
X178706223Y-67678561D01*
X178569958Y-67402243D01*
X178569949Y-67402228D01*
X178567644Y-67398779D01*
X178398771Y-67146041D01*
X178351349Y-67091967D01*
X178195613Y-66914384D01*
X177963958Y-66711228D01*
X177707769Y-66540048D01*
X177707754Y-66540039D01*
X177431436Y-66403774D01*
X177431415Y-66403765D01*
X177139659Y-66304727D01*
X177139653Y-66304725D01*
X177139652Y-66304725D01*
X177139650Y-66304724D01*
X177139644Y-66304723D01*
X176837463Y-66244616D01*
X176837453Y-66244614D01*
X176606934Y-66229505D01*
X176453052Y-66229505D01*
X176222533Y-66244614D01*
X176222527Y-66244615D01*
X176222522Y-66244616D01*
X175920341Y-66304723D01*
X175920326Y-66304727D01*
X175628570Y-66403765D01*
X175628549Y-66403774D01*
X175352231Y-66540039D01*
X175352216Y-66540048D01*
X175096027Y-66711228D01*
X174864372Y-66914384D01*
X174661215Y-67146041D01*
X174661205Y-67146053D01*
X174490034Y-67402230D01*
X174490030Y-67402237D01*
X174353755Y-67678575D01*
X174353751Y-67678585D01*
X174254716Y-67970333D01*
X174254711Y-67970353D01*
X174200711Y-68241834D01*
X174194602Y-68272545D01*
X174174450Y-68580005D01*
X162375536Y-68580005D01*
X162355384Y-68272545D01*
X162295273Y-67970346D01*
X162196231Y-67678578D01*
X162196223Y-67678561D01*
X162059958Y-67402243D01*
X162059949Y-67402228D01*
X162057644Y-67398779D01*
X161888771Y-67146041D01*
X161841349Y-67091967D01*
X161685613Y-66914384D01*
X161453958Y-66711228D01*
X161197769Y-66540048D01*
X161197754Y-66540039D01*
X160921436Y-66403774D01*
X160921415Y-66403765D01*
X160629659Y-66304727D01*
X160629653Y-66304725D01*
X160629652Y-66304725D01*
X160629650Y-66304724D01*
X160629644Y-66304723D01*
X160327463Y-66244616D01*
X160327453Y-66244614D01*
X160096934Y-66229505D01*
X159943052Y-66229505D01*
X159712533Y-66244614D01*
X159712527Y-66244615D01*
X159712522Y-66244616D01*
X159410341Y-66304723D01*
X159410326Y-66304727D01*
X159118570Y-66403765D01*
X159118549Y-66403774D01*
X158842231Y-66540039D01*
X158842216Y-66540048D01*
X158586027Y-66711228D01*
X158354372Y-66914384D01*
X158151215Y-67146041D01*
X158151205Y-67146053D01*
X157980034Y-67402230D01*
X157980030Y-67402237D01*
X157843755Y-67678575D01*
X157843751Y-67678585D01*
X157744716Y-67970333D01*
X157744711Y-67970353D01*
X157690711Y-68241834D01*
X157684602Y-68272545D01*
X157664450Y-68580005D01*
X145865536Y-68580005D01*
X145845384Y-68272545D01*
X145785273Y-67970346D01*
X145686231Y-67678578D01*
X145686223Y-67678561D01*
X145549958Y-67402243D01*
X145549949Y-67402228D01*
X145547644Y-67398779D01*
X145378771Y-67146041D01*
X145331349Y-67091967D01*
X145175613Y-66914384D01*
X144943958Y-66711228D01*
X144687769Y-66540048D01*
X144687754Y-66540039D01*
X144411436Y-66403774D01*
X144411415Y-66403765D01*
X144119659Y-66304727D01*
X144119653Y-66304725D01*
X144119652Y-66304725D01*
X144119650Y-66304724D01*
X144119644Y-66304723D01*
X143817463Y-66244616D01*
X143817453Y-66244614D01*
X143586934Y-66229505D01*
X143433052Y-66229505D01*
X143202533Y-66244614D01*
X143202527Y-66244615D01*
X143202522Y-66244616D01*
X142900341Y-66304723D01*
X142900326Y-66304727D01*
X142608570Y-66403765D01*
X142608549Y-66403774D01*
X142332231Y-66540039D01*
X142332216Y-66540048D01*
X142076027Y-66711228D01*
X141844372Y-66914384D01*
X141641215Y-67146041D01*
X141641205Y-67146053D01*
X141470034Y-67402230D01*
X141470030Y-67402237D01*
X141333755Y-67678575D01*
X141333751Y-67678585D01*
X141234716Y-67970333D01*
X141234711Y-67970353D01*
X141180711Y-68241834D01*
X141174602Y-68272545D01*
X141154450Y-68580005D01*
X129355536Y-68580005D01*
X129335384Y-68272545D01*
X129275273Y-67970346D01*
X129176231Y-67678578D01*
X129176223Y-67678561D01*
X129039958Y-67402243D01*
X129039949Y-67402228D01*
X129037644Y-67398779D01*
X128868771Y-67146041D01*
X128821349Y-67091967D01*
X128665613Y-66914384D01*
X128433958Y-66711228D01*
X128177769Y-66540048D01*
X128177754Y-66540039D01*
X127901436Y-66403774D01*
X127901415Y-66403765D01*
X127609659Y-66304727D01*
X127609653Y-66304725D01*
X127609652Y-66304725D01*
X127609650Y-66304724D01*
X127609644Y-66304723D01*
X127307463Y-66244616D01*
X127307453Y-66244614D01*
X127076934Y-66229505D01*
X126923052Y-66229505D01*
X126692533Y-66244614D01*
X126692527Y-66244615D01*
X126692522Y-66244616D01*
X126390341Y-66304723D01*
X126390326Y-66304727D01*
X126098570Y-66403765D01*
X126098549Y-66403774D01*
X125822231Y-66540039D01*
X125822216Y-66540048D01*
X125566027Y-66711228D01*
X125334372Y-66914384D01*
X125131215Y-67146041D01*
X125131205Y-67146053D01*
X124960034Y-67402230D01*
X124960030Y-67402237D01*
X124823755Y-67678575D01*
X124823751Y-67678585D01*
X124724716Y-67970333D01*
X124724711Y-67970353D01*
X124670711Y-68241834D01*
X124664602Y-68272545D01*
X124644450Y-68580005D01*
X109728500Y-68580005D01*
X109728500Y-66040004D01*
X129104732Y-66040004D01*
X129123777Y-66294154D01*
X129176581Y-66525505D01*
X129180492Y-66542637D01*
X129273607Y-66779888D01*
X129401041Y-67000612D01*
X129559950Y-67199877D01*
X129746783Y-67373232D01*
X129957366Y-67516805D01*
X129957371Y-67516807D01*
X129957372Y-67516808D01*
X129957373Y-67516809D01*
X130055365Y-67563999D01*
X130186992Y-67627387D01*
X130186993Y-67627387D01*
X130186996Y-67627389D01*
X130430542Y-67702513D01*
X130682565Y-67740500D01*
X130937435Y-67740500D01*
X131189458Y-67702513D01*
X131433004Y-67627389D01*
X131662634Y-67516805D01*
X131873217Y-67373232D01*
X132060050Y-67199877D01*
X132218959Y-67000612D01*
X132346393Y-66779888D01*
X132439508Y-66542637D01*
X132496222Y-66294157D01*
X132509287Y-66119810D01*
X132515268Y-66040004D01*
X145614732Y-66040004D01*
X145633777Y-66294154D01*
X145686581Y-66525505D01*
X145690492Y-66542637D01*
X145783607Y-66779888D01*
X145911041Y-67000612D01*
X146069950Y-67199877D01*
X146256783Y-67373232D01*
X146467366Y-67516805D01*
X146467371Y-67516807D01*
X146467372Y-67516808D01*
X146467373Y-67516809D01*
X146565365Y-67563999D01*
X146696992Y-67627387D01*
X146696993Y-67627387D01*
X146696996Y-67627389D01*
X146940542Y-67702513D01*
X147192565Y-67740500D01*
X147447435Y-67740500D01*
X147699458Y-67702513D01*
X147943004Y-67627389D01*
X148172634Y-67516805D01*
X148383217Y-67373232D01*
X148570050Y-67199877D01*
X148728959Y-67000612D01*
X148856393Y-66779888D01*
X148949508Y-66542637D01*
X149006222Y-66294157D01*
X149019287Y-66119810D01*
X149025268Y-66040004D01*
X162124732Y-66040004D01*
X162143777Y-66294154D01*
X162196581Y-66525505D01*
X162200492Y-66542637D01*
X162293607Y-66779888D01*
X162421041Y-67000612D01*
X162579950Y-67199877D01*
X162766783Y-67373232D01*
X162977366Y-67516805D01*
X162977371Y-67516807D01*
X162977372Y-67516808D01*
X162977373Y-67516809D01*
X163075365Y-67563999D01*
X163206992Y-67627387D01*
X163206993Y-67627387D01*
X163206996Y-67627389D01*
X163450542Y-67702513D01*
X163702565Y-67740500D01*
X163957435Y-67740500D01*
X164209458Y-67702513D01*
X164453004Y-67627389D01*
X164682634Y-67516805D01*
X164893217Y-67373232D01*
X165080050Y-67199877D01*
X165238959Y-67000612D01*
X165366393Y-66779888D01*
X165459508Y-66542637D01*
X165516222Y-66294157D01*
X165529287Y-66119810D01*
X165535268Y-66040004D01*
X178634732Y-66040004D01*
X178653777Y-66294154D01*
X178706581Y-66525505D01*
X178710492Y-66542637D01*
X178803607Y-66779888D01*
X178931041Y-67000612D01*
X179089950Y-67199877D01*
X179276783Y-67373232D01*
X179487366Y-67516805D01*
X179487371Y-67516807D01*
X179487372Y-67516808D01*
X179487373Y-67516809D01*
X179585365Y-67563999D01*
X179716992Y-67627387D01*
X179716993Y-67627387D01*
X179716996Y-67627389D01*
X179960542Y-67702513D01*
X180212565Y-67740500D01*
X180467435Y-67740500D01*
X180719458Y-67702513D01*
X180963004Y-67627389D01*
X181192634Y-67516805D01*
X181403217Y-67373232D01*
X181590050Y-67199877D01*
X181748959Y-67000612D01*
X181876393Y-66779888D01*
X181969508Y-66542637D01*
X182026222Y-66294157D01*
X182039287Y-66119810D01*
X182045268Y-66040004D01*
X182045268Y-66039995D01*
X182026222Y-65785845D01*
X182008775Y-65709405D01*
X181969508Y-65537363D01*
X181876393Y-65300112D01*
X181748959Y-65079388D01*
X181590050Y-64880123D01*
X181403217Y-64706768D01*
X181192634Y-64563195D01*
X181192630Y-64563193D01*
X181192627Y-64563191D01*
X181192626Y-64563190D01*
X180963006Y-64452612D01*
X180963008Y-64452612D01*
X180719466Y-64377489D01*
X180719462Y-64377488D01*
X180719458Y-64377487D01*
X180589443Y-64357890D01*
X180467440Y-64339500D01*
X180467435Y-64339500D01*
X180212565Y-64339500D01*
X180212559Y-64339500D01*
X180055609Y-64363157D01*
X179960542Y-64377487D01*
X179960539Y-64377488D01*
X179960533Y-64377489D01*
X179716992Y-64452612D01*
X179487373Y-64563190D01*
X179487372Y-64563191D01*
X179276782Y-64706768D01*
X179089952Y-64880121D01*
X179089950Y-64880123D01*
X178931041Y-65079388D01*
X178803608Y-65300109D01*
X178710492Y-65537362D01*
X178710490Y-65537369D01*
X178653777Y-65785845D01*
X178634732Y-66039995D01*
X178634732Y-66040004D01*
X165535268Y-66040004D01*
X165535268Y-66039995D01*
X165516222Y-65785845D01*
X165498775Y-65709405D01*
X165459508Y-65537363D01*
X165366393Y-65300112D01*
X165238959Y-65079388D01*
X165080050Y-64880123D01*
X164893217Y-64706768D01*
X164682634Y-64563195D01*
X164682630Y-64563193D01*
X164682627Y-64563191D01*
X164682626Y-64563190D01*
X164453006Y-64452612D01*
X164453008Y-64452612D01*
X164209466Y-64377489D01*
X164209462Y-64377488D01*
X164209458Y-64377487D01*
X164079443Y-64357890D01*
X163957440Y-64339500D01*
X163957435Y-64339500D01*
X163702565Y-64339500D01*
X163702559Y-64339500D01*
X163545609Y-64363157D01*
X163450542Y-64377487D01*
X163450539Y-64377488D01*
X163450533Y-64377489D01*
X163206992Y-64452612D01*
X162977373Y-64563190D01*
X162977372Y-64563191D01*
X162766782Y-64706768D01*
X162579952Y-64880121D01*
X162579950Y-64880123D01*
X162421041Y-65079388D01*
X162293608Y-65300109D01*
X162200492Y-65537362D01*
X162200490Y-65537369D01*
X162143777Y-65785845D01*
X162124732Y-66039995D01*
X162124732Y-66040004D01*
X149025268Y-66040004D01*
X149025268Y-66039995D01*
X149006222Y-65785845D01*
X148988775Y-65709405D01*
X148949508Y-65537363D01*
X148856393Y-65300112D01*
X148728959Y-65079388D01*
X148570050Y-64880123D01*
X148383217Y-64706768D01*
X148172634Y-64563195D01*
X148172630Y-64563193D01*
X148172627Y-64563191D01*
X148172626Y-64563190D01*
X147943006Y-64452612D01*
X147943008Y-64452612D01*
X147699466Y-64377489D01*
X147699462Y-64377488D01*
X147699458Y-64377487D01*
X147569443Y-64357890D01*
X147447440Y-64339500D01*
X147447435Y-64339500D01*
X147192565Y-64339500D01*
X147192559Y-64339500D01*
X147035609Y-64363157D01*
X146940542Y-64377487D01*
X146940539Y-64377488D01*
X146940533Y-64377489D01*
X146696992Y-64452612D01*
X146467373Y-64563190D01*
X146467372Y-64563191D01*
X146256782Y-64706768D01*
X146069952Y-64880121D01*
X146069950Y-64880123D01*
X145911041Y-65079388D01*
X145783608Y-65300109D01*
X145690492Y-65537362D01*
X145690490Y-65537369D01*
X145633777Y-65785845D01*
X145614732Y-66039995D01*
X145614732Y-66040004D01*
X132515268Y-66040004D01*
X132515268Y-66039995D01*
X132496222Y-65785845D01*
X132478775Y-65709405D01*
X132439508Y-65537363D01*
X132346393Y-65300112D01*
X132218959Y-65079388D01*
X132060050Y-64880123D01*
X131873217Y-64706768D01*
X131662634Y-64563195D01*
X131662630Y-64563193D01*
X131662627Y-64563191D01*
X131662626Y-64563190D01*
X131433006Y-64452612D01*
X131433008Y-64452612D01*
X131189466Y-64377489D01*
X131189462Y-64377488D01*
X131189458Y-64377487D01*
X131059443Y-64357890D01*
X130937440Y-64339500D01*
X130937435Y-64339500D01*
X130682565Y-64339500D01*
X130682559Y-64339500D01*
X130525609Y-64363157D01*
X130430542Y-64377487D01*
X130430539Y-64377488D01*
X130430533Y-64377489D01*
X130186992Y-64452612D01*
X129957373Y-64563190D01*
X129957372Y-64563191D01*
X129746782Y-64706768D01*
X129559952Y-64880121D01*
X129559950Y-64880123D01*
X129401041Y-65079388D01*
X129273608Y-65300109D01*
X129180492Y-65537362D01*
X129180490Y-65537369D01*
X129123777Y-65785845D01*
X129104732Y-66039995D01*
X129104732Y-66040004D01*
X109728500Y-66040004D01*
X109728500Y-59055000D01*
X120379540Y-59055000D01*
X120399326Y-59243256D01*
X120399327Y-59243259D01*
X120457818Y-59423277D01*
X120457821Y-59423284D01*
X120552467Y-59587216D01*
X120595772Y-59635310D01*
X120627650Y-59670715D01*
X120657880Y-59733706D01*
X120659500Y-59753687D01*
X120659500Y-60242261D01*
X120657775Y-60257878D01*
X120658061Y-60257905D01*
X120657326Y-60265671D01*
X120659500Y-60334820D01*
X120659500Y-60364349D01*
X120659501Y-60364366D01*
X120660368Y-60371237D01*
X120660826Y-60377056D01*
X120662290Y-60423630D01*
X120662291Y-60423633D01*
X120667880Y-60442873D01*
X120671824Y-60461917D01*
X120674336Y-60481797D01*
X120691490Y-60525125D01*
X120693382Y-60530653D01*
X120706382Y-60575396D01*
X120715901Y-60591493D01*
X120716580Y-60592640D01*
X120725138Y-60610109D01*
X120732514Y-60628738D01*
X120759898Y-60666429D01*
X120763106Y-60671313D01*
X120786827Y-60711422D01*
X120786833Y-60711430D01*
X120800990Y-60725586D01*
X120813628Y-60740382D01*
X120825405Y-60756592D01*
X120825406Y-60756593D01*
X120861309Y-60786294D01*
X120865620Y-60790216D01*
X122355789Y-62280386D01*
X122841359Y-62765956D01*
X122874844Y-62827279D01*
X122869860Y-62896971D01*
X122869106Y-62898939D01*
X122833728Y-62989082D01*
X122830481Y-62997356D01*
X122830477Y-62997368D01*
X122773765Y-63245839D01*
X122754720Y-63499989D01*
X122754720Y-63499998D01*
X122773765Y-63754148D01*
X122796984Y-63855879D01*
X122830480Y-64002631D01*
X122923595Y-64239882D01*
X123051029Y-64460606D01*
X123209938Y-64659871D01*
X123396771Y-64833226D01*
X123607354Y-64976799D01*
X123607359Y-64976801D01*
X123607360Y-64976802D01*
X123607361Y-64976803D01*
X123705366Y-65023999D01*
X123836980Y-65087381D01*
X123836981Y-65087381D01*
X123836984Y-65087383D01*
X124080530Y-65162507D01*
X124332553Y-65200494D01*
X124587423Y-65200494D01*
X124839446Y-65162507D01*
X125082992Y-65087383D01*
X125312622Y-64976799D01*
X125523205Y-64833226D01*
X125710038Y-64659871D01*
X125868947Y-64460606D01*
X125996381Y-64239882D01*
X126089496Y-64002631D01*
X126146210Y-63754151D01*
X126154372Y-63645226D01*
X126165256Y-63499998D01*
X139264720Y-63499998D01*
X139283765Y-63754148D01*
X139306984Y-63855879D01*
X139340480Y-64002631D01*
X139433595Y-64239882D01*
X139561029Y-64460606D01*
X139719938Y-64659871D01*
X139906771Y-64833226D01*
X140117354Y-64976799D01*
X140117359Y-64976801D01*
X140117360Y-64976802D01*
X140117361Y-64976803D01*
X140215366Y-65023999D01*
X140346980Y-65087381D01*
X140346981Y-65087381D01*
X140346984Y-65087383D01*
X140590530Y-65162507D01*
X140842553Y-65200494D01*
X141097423Y-65200494D01*
X141349446Y-65162507D01*
X141592992Y-65087383D01*
X141822622Y-64976799D01*
X142033205Y-64833226D01*
X142220038Y-64659871D01*
X142378947Y-64460606D01*
X142506381Y-64239882D01*
X142599496Y-64002631D01*
X142656210Y-63754151D01*
X142664372Y-63645226D01*
X142675256Y-63499998D01*
X155774720Y-63499998D01*
X155793765Y-63754148D01*
X155816984Y-63855879D01*
X155850480Y-64002631D01*
X155943595Y-64239882D01*
X156071029Y-64460606D01*
X156229938Y-64659871D01*
X156416771Y-64833226D01*
X156627354Y-64976799D01*
X156627359Y-64976801D01*
X156627360Y-64976802D01*
X156627361Y-64976803D01*
X156725366Y-65023999D01*
X156856980Y-65087381D01*
X156856981Y-65087381D01*
X156856984Y-65087383D01*
X157100530Y-65162507D01*
X157352553Y-65200494D01*
X157607423Y-65200494D01*
X157859446Y-65162507D01*
X158102992Y-65087383D01*
X158332622Y-64976799D01*
X158543205Y-64833226D01*
X158730038Y-64659871D01*
X158888947Y-64460606D01*
X159016381Y-64239882D01*
X159109496Y-64002631D01*
X159166210Y-63754151D01*
X159174372Y-63645226D01*
X159185256Y-63499998D01*
X172284720Y-63499998D01*
X172303765Y-63754148D01*
X172326984Y-63855879D01*
X172360480Y-64002631D01*
X172453595Y-64239882D01*
X172581029Y-64460606D01*
X172739938Y-64659871D01*
X172926771Y-64833226D01*
X173137354Y-64976799D01*
X173137359Y-64976801D01*
X173137360Y-64976802D01*
X173137361Y-64976803D01*
X173235366Y-65023999D01*
X173366980Y-65087381D01*
X173366981Y-65087381D01*
X173366984Y-65087383D01*
X173610530Y-65162507D01*
X173862553Y-65200494D01*
X174117423Y-65200494D01*
X174369446Y-65162507D01*
X174612992Y-65087383D01*
X174842622Y-64976799D01*
X175053205Y-64833226D01*
X175240038Y-64659871D01*
X175398947Y-64460606D01*
X175526381Y-64239882D01*
X175619496Y-64002631D01*
X175676210Y-63754151D01*
X175684372Y-63645226D01*
X175695256Y-63499998D01*
X175695256Y-63499989D01*
X175681651Y-63318453D01*
X175676210Y-63245837D01*
X175619496Y-62997357D01*
X175526381Y-62760106D01*
X175398947Y-62539382D01*
X175240038Y-62340117D01*
X175053205Y-62166762D01*
X174842622Y-62023189D01*
X174842618Y-62023187D01*
X174842615Y-62023185D01*
X174842614Y-62023184D01*
X174612994Y-61912606D01*
X174612996Y-61912606D01*
X174369454Y-61837483D01*
X174369450Y-61837482D01*
X174369446Y-61837481D01*
X174248219Y-61819208D01*
X174117428Y-61799494D01*
X174117423Y-61799494D01*
X173862553Y-61799494D01*
X173862547Y-61799494D01*
X173705597Y-61823151D01*
X173610530Y-61837481D01*
X173610527Y-61837482D01*
X173610521Y-61837483D01*
X173366980Y-61912606D01*
X173137361Y-62023184D01*
X173137360Y-62023185D01*
X172926770Y-62166762D01*
X172739940Y-62340115D01*
X172739938Y-62340117D01*
X172581029Y-62539382D01*
X172453596Y-62760103D01*
X172360480Y-62997356D01*
X172360478Y-62997363D01*
X172303765Y-63245839D01*
X172284720Y-63499989D01*
X172284720Y-63499998D01*
X159185256Y-63499998D01*
X159185256Y-63499989D01*
X159171651Y-63318453D01*
X159166210Y-63245837D01*
X159109496Y-62997357D01*
X159016381Y-62760106D01*
X158888947Y-62539382D01*
X158730038Y-62340117D01*
X158543205Y-62166762D01*
X158332622Y-62023189D01*
X158332618Y-62023187D01*
X158332615Y-62023185D01*
X158332614Y-62023184D01*
X158102994Y-61912606D01*
X158102996Y-61912606D01*
X157859454Y-61837483D01*
X157859450Y-61837482D01*
X157859446Y-61837481D01*
X157738219Y-61819208D01*
X157607428Y-61799494D01*
X157607423Y-61799494D01*
X157352553Y-61799494D01*
X157352547Y-61799494D01*
X157195597Y-61823151D01*
X157100530Y-61837481D01*
X157100527Y-61837482D01*
X157100521Y-61837483D01*
X156856980Y-61912606D01*
X156627361Y-62023184D01*
X156627360Y-62023185D01*
X156416770Y-62166762D01*
X156229940Y-62340115D01*
X156229938Y-62340117D01*
X156071029Y-62539382D01*
X155943596Y-62760103D01*
X155850480Y-62997356D01*
X155850478Y-62997363D01*
X155793765Y-63245839D01*
X155774720Y-63499989D01*
X155774720Y-63499998D01*
X142675256Y-63499998D01*
X142675256Y-63499989D01*
X142661651Y-63318453D01*
X142656210Y-63245837D01*
X142599496Y-62997357D01*
X142506381Y-62760106D01*
X142378947Y-62539382D01*
X142220038Y-62340117D01*
X142033205Y-62166762D01*
X141822622Y-62023189D01*
X141822618Y-62023187D01*
X141822615Y-62023185D01*
X141822614Y-62023184D01*
X141592994Y-61912606D01*
X141592996Y-61912606D01*
X141349454Y-61837483D01*
X141349450Y-61837482D01*
X141349446Y-61837481D01*
X141228219Y-61819208D01*
X141097428Y-61799494D01*
X141097423Y-61799494D01*
X140842553Y-61799494D01*
X140842547Y-61799494D01*
X140685597Y-61823151D01*
X140590530Y-61837481D01*
X140590527Y-61837482D01*
X140590521Y-61837483D01*
X140346980Y-61912606D01*
X140117361Y-62023184D01*
X140117360Y-62023185D01*
X139906770Y-62166762D01*
X139719940Y-62340115D01*
X139719938Y-62340117D01*
X139561029Y-62539382D01*
X139433596Y-62760103D01*
X139340480Y-62997356D01*
X139340478Y-62997363D01*
X139283765Y-63245839D01*
X139264720Y-63499989D01*
X139264720Y-63499998D01*
X126165256Y-63499998D01*
X126165256Y-63499989D01*
X126151651Y-63318453D01*
X126146210Y-63245837D01*
X126089496Y-62997357D01*
X125996381Y-62760106D01*
X125868947Y-62539382D01*
X125710038Y-62340117D01*
X125523205Y-62166762D01*
X125312622Y-62023189D01*
X125312618Y-62023187D01*
X125312615Y-62023185D01*
X125312614Y-62023184D01*
X125082994Y-61912606D01*
X125082996Y-61912606D01*
X124839454Y-61837483D01*
X124839450Y-61837482D01*
X124839446Y-61837481D01*
X124718219Y-61819208D01*
X124587428Y-61799494D01*
X124587423Y-61799494D01*
X124332553Y-61799494D01*
X124332547Y-61799494D01*
X124175597Y-61823151D01*
X124080530Y-61837481D01*
X124080527Y-61837482D01*
X124080517Y-61837484D01*
X123847397Y-61909392D01*
X123777534Y-61910342D01*
X123723167Y-61878582D01*
X123204786Y-61360201D01*
X179199741Y-61360201D01*
X179219527Y-61548457D01*
X179219528Y-61548460D01*
X179278019Y-61728478D01*
X179278022Y-61728485D01*
X179372668Y-61892417D01*
X179490412Y-62023185D01*
X179499330Y-62033089D01*
X179652466Y-62144349D01*
X179652471Y-62144352D01*
X179825393Y-62221343D01*
X179825398Y-62221345D01*
X180010555Y-62260701D01*
X180069749Y-62260701D01*
X180136788Y-62280386D01*
X180157430Y-62297020D01*
X183846038Y-65985629D01*
X183879523Y-66046952D01*
X183881678Y-66060348D01*
X183887928Y-66119810D01*
X183899326Y-66228256D01*
X183899327Y-66228259D01*
X183957818Y-66408277D01*
X183957821Y-66408284D01*
X184052467Y-66572216D01*
X184160859Y-66692597D01*
X184179129Y-66712888D01*
X184332265Y-66824148D01*
X184332270Y-66824151D01*
X184505192Y-66901142D01*
X184505197Y-66901144D01*
X184690354Y-66940500D01*
X184690355Y-66940500D01*
X184879644Y-66940500D01*
X184879646Y-66940500D01*
X185064803Y-66901144D01*
X185237730Y-66824151D01*
X185390871Y-66712888D01*
X185517533Y-66572216D01*
X185612179Y-66408284D01*
X185670674Y-66228256D01*
X185674218Y-66194527D01*
X185700802Y-66129915D01*
X185758100Y-66089930D01*
X185827919Y-66087270D01*
X185885220Y-66119810D01*
X187713194Y-67947784D01*
X187723019Y-67960048D01*
X187723240Y-67959866D01*
X187728210Y-67965873D01*
X187728213Y-67965876D01*
X187728214Y-67965877D01*
X187778651Y-68013241D01*
X187799530Y-68034120D01*
X187805004Y-68038366D01*
X187809442Y-68042156D01*
X187843418Y-68074062D01*
X187843422Y-68074064D01*
X187860973Y-68083713D01*
X187877231Y-68094392D01*
X187893064Y-68106674D01*
X187915015Y-68116172D01*
X187935837Y-68125183D01*
X187941081Y-68127752D01*
X187981908Y-68150197D01*
X188001312Y-68155179D01*
X188019710Y-68161478D01*
X188038105Y-68169438D01*
X188084129Y-68176726D01*
X188089832Y-68177907D01*
X188134981Y-68189500D01*
X188155016Y-68189500D01*
X188174413Y-68191026D01*
X188194196Y-68194160D01*
X188240584Y-68189775D01*
X188246422Y-68189500D01*
X188965773Y-68189500D01*
X189032812Y-68209185D01*
X189067348Y-68242377D01*
X189202501Y-68435396D01*
X189202506Y-68435402D01*
X189369597Y-68602493D01*
X189369603Y-68602498D01*
X189555158Y-68732425D01*
X189598783Y-68787002D01*
X189605977Y-68856500D01*
X189574454Y-68918855D01*
X189555158Y-68935575D01*
X189369597Y-69065505D01*
X189202505Y-69232597D01*
X189066965Y-69426169D01*
X189066964Y-69426171D01*
X188967098Y-69640335D01*
X188967094Y-69640344D01*
X188905938Y-69868586D01*
X188905936Y-69868596D01*
X188885341Y-70103999D01*
X188885341Y-70104000D01*
X188905936Y-70339403D01*
X188905938Y-70339413D01*
X188967094Y-70567655D01*
X188967096Y-70567659D01*
X188967097Y-70567663D01*
X189047004Y-70739023D01*
X189066965Y-70781830D01*
X189066967Y-70781834D01*
X189118399Y-70855286D01*
X189202501Y-70975396D01*
X189202506Y-70975402D01*
X189369597Y-71142493D01*
X189369603Y-71142498D01*
X189555158Y-71272425D01*
X189598783Y-71327002D01*
X189605977Y-71396500D01*
X189574454Y-71458855D01*
X189555158Y-71475575D01*
X189369597Y-71605505D01*
X189202505Y-71772597D01*
X189066965Y-71966169D01*
X189066964Y-71966171D01*
X188967098Y-72180335D01*
X188967094Y-72180344D01*
X188905938Y-72408586D01*
X188905936Y-72408596D01*
X188885341Y-72643999D01*
X188885341Y-72644000D01*
X188905936Y-72879403D01*
X188905938Y-72879413D01*
X188967094Y-73107655D01*
X188967096Y-73107659D01*
X188967097Y-73107663D01*
X189059727Y-73306308D01*
X189066965Y-73321830D01*
X189066967Y-73321834D01*
X189175281Y-73476521D01*
X189202501Y-73515396D01*
X189202506Y-73515402D01*
X189369597Y-73682493D01*
X189369603Y-73682498D01*
X189555158Y-73812425D01*
X189598783Y-73867002D01*
X189605977Y-73936500D01*
X189574454Y-73998855D01*
X189555158Y-74015575D01*
X189369597Y-74145505D01*
X189202505Y-74312597D01*
X189066965Y-74506169D01*
X189066964Y-74506171D01*
X188967098Y-74720335D01*
X188967094Y-74720344D01*
X188905938Y-74948586D01*
X188905936Y-74948596D01*
X188885341Y-75183999D01*
X188885341Y-75184000D01*
X188905936Y-75419403D01*
X188905938Y-75419413D01*
X188967094Y-75647655D01*
X188967096Y-75647659D01*
X188967097Y-75647663D01*
X189023723Y-75769098D01*
X189066965Y-75861830D01*
X189066967Y-75861834D01*
X189109781Y-75922978D01*
X189202505Y-76055401D01*
X189369599Y-76222495D01*
X189376406Y-76227261D01*
X189563165Y-76358032D01*
X189563167Y-76358033D01*
X189563170Y-76358035D01*
X189777337Y-76457903D01*
X190005592Y-76519063D01*
X190193918Y-76535539D01*
X190240999Y-76539659D01*
X190241000Y-76539659D01*
X190241001Y-76539659D01*
X190280234Y-76536226D01*
X190476408Y-76519063D01*
X190704663Y-76457903D01*
X190918830Y-76358035D01*
X191112401Y-76222495D01*
X191279495Y-76055401D01*
X191409425Y-75869842D01*
X191464002Y-75826217D01*
X191533500Y-75819023D01*
X191595855Y-75850546D01*
X191612575Y-75869842D01*
X191742500Y-76055395D01*
X191742505Y-76055401D01*
X191909599Y-76222495D01*
X191916406Y-76227261D01*
X192103165Y-76358032D01*
X192103167Y-76358033D01*
X192103170Y-76358035D01*
X192317337Y-76457903D01*
X192545592Y-76519063D01*
X192733918Y-76535539D01*
X192780999Y-76539659D01*
X192781000Y-76539659D01*
X192781001Y-76539659D01*
X192820234Y-76536226D01*
X193016408Y-76519063D01*
X193244663Y-76457903D01*
X193458830Y-76358035D01*
X193652401Y-76222495D01*
X193819495Y-76055401D01*
X193955035Y-75861830D01*
X194054903Y-75647663D01*
X194063681Y-75614903D01*
X199525793Y-75614903D01*
X199535672Y-75922970D01*
X199535672Y-75922975D01*
X199535673Y-75922978D01*
X199584867Y-76227261D01*
X199629137Y-76376419D01*
X199672571Y-76522763D01*
X199797333Y-76804601D01*
X199797337Y-76804609D01*
X199957123Y-77068193D01*
X199957127Y-77068198D01*
X199957133Y-77068207D01*
X200149297Y-77309174D01*
X200149299Y-77309176D01*
X200149303Y-77309180D01*
X200149304Y-77309181D01*
X200370724Y-77523614D01*
X200537862Y-77648352D01*
X200617741Y-77707968D01*
X200617743Y-77707969D01*
X200617747Y-77707972D01*
X200886318Y-77859228D01*
X201027057Y-77916207D01*
X201172018Y-77974897D01*
X201172023Y-77974898D01*
X201172025Y-77974899D01*
X201470179Y-78053084D01*
X201775883Y-78092500D01*
X201775890Y-78092500D01*
X202006980Y-78092500D01*
X202105814Y-78086154D01*
X202237601Y-78077693D01*
X202540151Y-78018772D01*
X202832683Y-77921644D01*
X202832689Y-77921640D01*
X202832693Y-77921640D01*
X203023571Y-77829717D01*
X203110393Y-77787907D01*
X203368720Y-77619754D01*
X203603424Y-77419948D01*
X203810650Y-77191769D01*
X203986996Y-76938963D01*
X204129567Y-76665683D01*
X204236020Y-76376415D01*
X204304609Y-76075908D01*
X204334206Y-75769098D01*
X204324327Y-75461022D01*
X204275133Y-75156739D01*
X204187431Y-74861244D01*
X204187429Y-74861239D01*
X204187428Y-74861236D01*
X204062666Y-74579398D01*
X204062663Y-74579391D01*
X203902877Y-74315807D01*
X203902870Y-74315799D01*
X203902866Y-74315792D01*
X203710702Y-74074825D01*
X203710700Y-74074823D01*
X203649521Y-74015575D01*
X203489276Y-73860386D01*
X203323996Y-73737034D01*
X203242258Y-73676031D01*
X203242253Y-73676028D01*
X202973682Y-73524772D01*
X202936383Y-73509671D01*
X202687981Y-73409102D01*
X202506543Y-73361524D01*
X202389821Y-73330916D01*
X202084117Y-73291500D01*
X201853026Y-73291500D01*
X201853020Y-73291500D01*
X201622406Y-73306306D01*
X201622389Y-73306308D01*
X201319854Y-73365226D01*
X201319849Y-73365228D01*
X201027310Y-73462358D01*
X201027306Y-73462359D01*
X200749613Y-73596089D01*
X200749605Y-73596094D01*
X200491286Y-73764241D01*
X200491276Y-73764248D01*
X200256581Y-73964046D01*
X200256571Y-73964056D01*
X200049354Y-74192225D01*
X200049350Y-74192229D01*
X199873005Y-74445033D01*
X199873003Y-74445037D01*
X199750125Y-74680571D01*
X199731202Y-74716844D01*
X199730432Y-74718319D01*
X199730429Y-74718326D01*
X199623981Y-75007580D01*
X199623979Y-75007590D01*
X199555391Y-75308089D01*
X199525794Y-75614902D01*
X199525793Y-75614903D01*
X194063681Y-75614903D01*
X194116063Y-75419408D01*
X194136659Y-75184000D01*
X194116063Y-74948592D01*
X194054903Y-74720337D01*
X193955035Y-74506171D01*
X193949425Y-74498158D01*
X193819494Y-74312597D01*
X193652402Y-74145506D01*
X193652396Y-74145501D01*
X193466842Y-74015575D01*
X193423217Y-73960998D01*
X193416023Y-73891500D01*
X193447546Y-73829145D01*
X193466842Y-73812425D01*
X193535646Y-73764248D01*
X193652401Y-73682495D01*
X193819495Y-73515401D01*
X193955035Y-73321830D01*
X194054903Y-73107663D01*
X194116063Y-72879408D01*
X194136659Y-72644000D01*
X194116063Y-72408592D01*
X194054903Y-72180337D01*
X193955035Y-71966171D01*
X193949425Y-71958158D01*
X193819494Y-71772597D01*
X193652402Y-71605506D01*
X193652396Y-71605501D01*
X193466842Y-71475575D01*
X193423217Y-71420998D01*
X193416023Y-71351500D01*
X193447546Y-71289145D01*
X193466842Y-71272425D01*
X193489026Y-71256891D01*
X193652401Y-71142495D01*
X193819495Y-70975401D01*
X193955035Y-70781830D01*
X194054903Y-70567663D01*
X194116063Y-70339408D01*
X194136659Y-70104000D01*
X194116063Y-69868592D01*
X194054903Y-69640337D01*
X193955035Y-69426171D01*
X193949425Y-69418158D01*
X193819494Y-69232597D01*
X193652402Y-69065506D01*
X193652396Y-69065501D01*
X193466842Y-68935575D01*
X193423217Y-68880998D01*
X193416023Y-68811500D01*
X193447546Y-68749145D01*
X193466842Y-68732425D01*
X193489026Y-68716891D01*
X193652401Y-68602495D01*
X193819495Y-68435401D01*
X193955035Y-68241830D01*
X194054903Y-68027663D01*
X194116063Y-67799408D01*
X194136659Y-67564000D01*
X194116063Y-67328592D01*
X194054903Y-67100337D01*
X193955035Y-66886171D01*
X193954652Y-66885623D01*
X193819494Y-66692597D01*
X193652402Y-66525506D01*
X193652396Y-66525501D01*
X193466842Y-66395575D01*
X193423217Y-66340998D01*
X193416023Y-66271500D01*
X193447546Y-66209145D01*
X193466842Y-66192425D01*
X193556115Y-66129915D01*
X193652401Y-66062495D01*
X193819495Y-65895401D01*
X193955035Y-65701830D01*
X194054903Y-65487663D01*
X194116063Y-65259408D01*
X194136659Y-65024000D01*
X194116063Y-64788592D01*
X194094138Y-64706768D01*
X194089143Y-64688125D01*
X194090806Y-64618276D01*
X194121235Y-64568353D01*
X195239287Y-63450302D01*
X195251542Y-63440486D01*
X195251359Y-63440264D01*
X195257366Y-63435292D01*
X195257377Y-63435286D01*
X195293129Y-63397214D01*
X195304727Y-63384864D01*
X195315171Y-63374418D01*
X195325620Y-63363971D01*
X195329879Y-63358478D01*
X195333652Y-63354061D01*
X195365562Y-63320082D01*
X195375215Y-63302520D01*
X195385889Y-63286270D01*
X195398173Y-63270436D01*
X195416680Y-63227667D01*
X195419249Y-63222424D01*
X195441696Y-63181593D01*
X195441697Y-63181592D01*
X195446677Y-63162191D01*
X195452978Y-63143788D01*
X195460938Y-63125396D01*
X195468230Y-63079349D01*
X195469411Y-63073652D01*
X195481000Y-63028519D01*
X195481000Y-63008483D01*
X195482527Y-62989082D01*
X195485660Y-62969304D01*
X195481275Y-62922915D01*
X195481000Y-62917077D01*
X195481000Y-59753687D01*
X195500685Y-59686648D01*
X195512850Y-59670715D01*
X195531391Y-59650122D01*
X195588033Y-59587216D01*
X195682679Y-59423284D01*
X195741174Y-59243256D01*
X195760960Y-59055000D01*
X195741174Y-58866744D01*
X195682679Y-58686716D01*
X195588033Y-58522784D01*
X195461371Y-58382112D01*
X195461370Y-58382111D01*
X195461362Y-58382104D01*
X195443358Y-58369023D01*
X195400692Y-58313693D01*
X195394714Y-58244080D01*
X195427321Y-58182285D01*
X195428491Y-58181097D01*
X198503788Y-55105801D01*
X198516042Y-55095986D01*
X198515859Y-55095764D01*
X198521866Y-55090792D01*
X198521877Y-55090786D01*
X198553848Y-55056740D01*
X198569227Y-55040364D01*
X198579671Y-55029918D01*
X198590120Y-55019471D01*
X198594379Y-55013978D01*
X198598152Y-55009561D01*
X198630062Y-54975582D01*
X198639713Y-54958024D01*
X198650396Y-54941761D01*
X198662673Y-54925936D01*
X198681185Y-54883153D01*
X198683738Y-54877941D01*
X198706197Y-54837092D01*
X198711180Y-54817680D01*
X198717481Y-54799280D01*
X198725437Y-54780896D01*
X198732729Y-54734852D01*
X198733906Y-54729171D01*
X198745500Y-54684019D01*
X198745500Y-54663983D01*
X198747027Y-54644582D01*
X198750160Y-54624804D01*
X198745775Y-54578415D01*
X198745500Y-54572577D01*
X198745500Y-54038687D01*
X198765185Y-53971648D01*
X198777350Y-53955715D01*
X198795891Y-53935122D01*
X198852533Y-53872216D01*
X198947179Y-53708284D01*
X199005674Y-53528256D01*
X199025460Y-53340000D01*
X199005674Y-53151744D01*
X198947179Y-52971716D01*
X198852533Y-52807784D01*
X198725871Y-52667112D01*
X198725870Y-52667111D01*
X198572734Y-52555851D01*
X198572729Y-52555848D01*
X198399807Y-52478857D01*
X198399802Y-52478855D01*
X198254001Y-52447865D01*
X198214646Y-52439500D01*
X198025354Y-52439500D01*
X197992897Y-52446398D01*
X197840197Y-52478855D01*
X197840192Y-52478857D01*
X197667270Y-52555848D01*
X197667265Y-52555851D01*
X197514129Y-52667111D01*
X197387466Y-52807785D01*
X197292821Y-52971715D01*
X197292818Y-52971722D01*
X197234327Y-53151740D01*
X197234326Y-53151744D01*
X197214540Y-53340000D01*
X197234326Y-53528256D01*
X197234327Y-53528259D01*
X197292818Y-53708277D01*
X197292821Y-53708284D01*
X197387467Y-53872216D01*
X197430772Y-53920310D01*
X197462650Y-53955715D01*
X197492880Y-54018706D01*
X197494500Y-54038687D01*
X197494500Y-54294546D01*
X197474815Y-54361585D01*
X197458181Y-54382227D01*
X193236646Y-58603761D01*
X193175323Y-58637246D01*
X193116876Y-58635856D01*
X193102339Y-58631961D01*
X193097835Y-58630754D01*
X193038174Y-58594392D01*
X193007643Y-58531546D01*
X193015935Y-58462171D01*
X193037773Y-58428009D01*
X193137533Y-58317216D01*
X193232179Y-58153284D01*
X193290674Y-57973256D01*
X193308321Y-57805344D01*
X193334904Y-57740734D01*
X193343951Y-57730638D01*
X194892772Y-56181819D01*
X194954095Y-56148334D01*
X194980453Y-56145500D01*
X195039644Y-56145500D01*
X195039646Y-56145500D01*
X195224803Y-56106144D01*
X195397730Y-56029151D01*
X195550871Y-55917888D01*
X195677533Y-55777216D01*
X195772179Y-55613284D01*
X195830674Y-55433256D01*
X195850460Y-55245000D01*
X195830674Y-55056744D01*
X195772179Y-54876716D01*
X195677533Y-54712784D01*
X195550871Y-54572112D01*
X195550870Y-54572111D01*
X195397734Y-54460851D01*
X195397729Y-54460848D01*
X195224807Y-54383857D01*
X195224802Y-54383855D01*
X195079001Y-54352865D01*
X195039646Y-54344500D01*
X194850354Y-54344500D01*
X194817897Y-54351398D01*
X194665197Y-54383855D01*
X194665192Y-54383857D01*
X194492270Y-54460848D01*
X194492265Y-54460851D01*
X194339129Y-54572111D01*
X194212466Y-54712785D01*
X194117821Y-54876715D01*
X194117818Y-54876722D01*
X194071435Y-55019476D01*
X194059326Y-55056744D01*
X194054170Y-55105806D01*
X194041679Y-55224649D01*
X194015094Y-55289263D01*
X194006039Y-55299368D01*
X192457228Y-56848181D01*
X192395905Y-56881666D01*
X192369547Y-56884500D01*
X192355500Y-56884500D01*
X192288461Y-56864815D01*
X192242706Y-56812011D01*
X192231500Y-56760500D01*
X192231500Y-48734452D01*
X192251185Y-48667413D01*
X192267819Y-48646771D01*
X192987772Y-47926819D01*
X193049095Y-47893334D01*
X193075453Y-47890500D01*
X193134644Y-47890500D01*
X193134646Y-47890500D01*
X193319803Y-47851144D01*
X193492730Y-47774151D01*
X193645871Y-47662888D01*
X193772533Y-47522216D01*
X193867179Y-47358284D01*
X193925674Y-47178256D01*
X193945460Y-46990000D01*
X193925674Y-46801744D01*
X193867179Y-46621716D01*
X193772533Y-46457784D01*
X193645871Y-46317112D01*
X193645870Y-46317111D01*
X193492734Y-46205851D01*
X193492729Y-46205848D01*
X193319807Y-46128857D01*
X193319802Y-46128855D01*
X193174001Y-46097865D01*
X193134646Y-46089500D01*
X192945354Y-46089500D01*
X192912897Y-46096398D01*
X192760197Y-46128855D01*
X192760192Y-46128857D01*
X192587270Y-46205848D01*
X192587265Y-46205851D01*
X192434129Y-46317111D01*
X192307466Y-46457785D01*
X192212821Y-46621715D01*
X192212818Y-46621722D01*
X192154327Y-46801740D01*
X192154326Y-46801744D01*
X192136679Y-46969649D01*
X192110094Y-47034263D01*
X192101039Y-47044368D01*
X191222208Y-47923199D01*
X191209951Y-47933020D01*
X191210134Y-47933241D01*
X191204123Y-47938213D01*
X191156772Y-47988636D01*
X191135889Y-48009519D01*
X191135877Y-48009532D01*
X191131621Y-48015017D01*
X191127837Y-48019447D01*
X191095937Y-48053418D01*
X191095936Y-48053420D01*
X191086284Y-48070976D01*
X191075610Y-48087226D01*
X191063329Y-48103061D01*
X191063324Y-48103068D01*
X191044815Y-48145838D01*
X191042245Y-48151084D01*
X191019803Y-48191906D01*
X191014822Y-48211307D01*
X191008521Y-48229710D01*
X191000562Y-48248102D01*
X191000561Y-48248105D01*
X190993271Y-48294127D01*
X190992087Y-48299846D01*
X190980501Y-48344972D01*
X190980500Y-48344982D01*
X190980500Y-48365016D01*
X190978973Y-48384415D01*
X190975840Y-48404194D01*
X190975840Y-48404195D01*
X190980225Y-48450583D01*
X190980500Y-48456421D01*
X190980500Y-58469500D01*
X190960815Y-58536539D01*
X190908011Y-58582294D01*
X190856500Y-58593500D01*
X189343129Y-58593500D01*
X189343123Y-58593501D01*
X189283516Y-58599908D01*
X189148671Y-58650202D01*
X189148664Y-58650206D01*
X189033455Y-58736452D01*
X189033452Y-58736455D01*
X188947206Y-58851664D01*
X188947202Y-58851671D01*
X188896908Y-58986517D01*
X188890501Y-59046116D01*
X188890500Y-59046135D01*
X188890500Y-59194500D01*
X188870815Y-59261539D01*
X188818011Y-59307294D01*
X188766500Y-59318500D01*
X187139748Y-59318500D01*
X187072709Y-59298815D01*
X187047600Y-59277474D01*
X187041873Y-59271114D01*
X187041869Y-59271110D01*
X186888734Y-59159851D01*
X186888729Y-59159848D01*
X186715807Y-59082857D01*
X186715802Y-59082855D01*
X186570001Y-59051865D01*
X186530646Y-59043500D01*
X186341354Y-59043500D01*
X186308897Y-59050398D01*
X186156197Y-59082855D01*
X186156192Y-59082857D01*
X185983270Y-59159848D01*
X185983265Y-59159851D01*
X185830130Y-59271110D01*
X185830126Y-59271114D01*
X185827617Y-59273901D01*
X185825763Y-59275042D01*
X185825299Y-59275461D01*
X185825222Y-59275375D01*
X185768127Y-59310545D01*
X185698271Y-59309210D01*
X185647792Y-59278603D01*
X184013759Y-57644570D01*
X183980274Y-57583247D01*
X183978122Y-57569869D01*
X183960473Y-57401945D01*
X183901978Y-57221917D01*
X183807332Y-57057985D01*
X183680670Y-56917313D01*
X183680669Y-56917312D01*
X183527533Y-56806052D01*
X183527528Y-56806049D01*
X183354606Y-56729058D01*
X183354601Y-56729056D01*
X183208800Y-56698066D01*
X183169445Y-56689701D01*
X182980153Y-56689701D01*
X182947696Y-56696599D01*
X182794996Y-56729056D01*
X182794991Y-56729058D01*
X182622068Y-56806050D01*
X182613123Y-56812549D01*
X182547316Y-56836026D01*
X182479263Y-56820198D01*
X182432856Y-56774229D01*
X182342533Y-56617784D01*
X182215871Y-56477112D01*
X182215870Y-56477111D01*
X182062734Y-56365851D01*
X182062729Y-56365848D01*
X181889807Y-56288857D01*
X181889802Y-56288855D01*
X181744001Y-56257865D01*
X181704646Y-56249500D01*
X181515354Y-56249500D01*
X181482897Y-56256398D01*
X181330197Y-56288855D01*
X181330192Y-56288857D01*
X181157270Y-56365848D01*
X181157265Y-56365851D01*
X181004129Y-56477111D01*
X180877466Y-56617785D01*
X180782821Y-56781715D01*
X180782818Y-56781722D01*
X180732011Y-56938091D01*
X180724326Y-56961744D01*
X180704540Y-57150000D01*
X180724326Y-57338256D01*
X180724327Y-57338259D01*
X180782818Y-57518277D01*
X180782821Y-57518284D01*
X180877467Y-57682216D01*
X180988337Y-57805349D01*
X181004129Y-57822888D01*
X181157265Y-57934148D01*
X181157270Y-57934151D01*
X181330192Y-58011142D01*
X181330197Y-58011144D01*
X181515354Y-58050500D01*
X181574548Y-58050500D01*
X181641587Y-58070185D01*
X181662229Y-58086819D01*
X184758181Y-61182771D01*
X184791666Y-61244094D01*
X184794500Y-61270452D01*
X184794500Y-64687255D01*
X184792775Y-64702872D01*
X184793061Y-64702899D01*
X184792326Y-64710665D01*
X184794500Y-64779814D01*
X184794500Y-64809343D01*
X184794501Y-64809360D01*
X184795368Y-64816231D01*
X184795826Y-64822050D01*
X184797157Y-64864368D01*
X184779589Y-64931993D01*
X184728249Y-64979385D01*
X184659437Y-64991497D01*
X184595001Y-64964484D01*
X184585537Y-64955946D01*
X181044161Y-61414570D01*
X181010676Y-61353247D01*
X181008524Y-61339869D01*
X180990875Y-61171945D01*
X180932380Y-60991917D01*
X180837734Y-60827985D01*
X180711072Y-60687313D01*
X180648689Y-60641989D01*
X180557935Y-60576052D01*
X180557930Y-60576049D01*
X180385008Y-60499058D01*
X180385003Y-60499056D01*
X180210305Y-60461924D01*
X180199847Y-60459701D01*
X180010555Y-60459701D01*
X180000097Y-60461924D01*
X179825398Y-60499056D01*
X179825393Y-60499058D01*
X179652471Y-60576049D01*
X179652466Y-60576052D01*
X179499330Y-60687312D01*
X179372667Y-60827986D01*
X179278022Y-60991916D01*
X179278019Y-60991923D01*
X179219528Y-61171941D01*
X179219527Y-61171945D01*
X179199741Y-61360201D01*
X123204786Y-61360201D01*
X121946819Y-60102234D01*
X121913334Y-60040911D01*
X121910500Y-60014553D01*
X121910500Y-59753687D01*
X121930185Y-59686648D01*
X121942350Y-59670715D01*
X121960891Y-59650122D01*
X122017533Y-59587216D01*
X122112179Y-59423284D01*
X122170674Y-59243256D01*
X122190460Y-59055000D01*
X122170674Y-58866744D01*
X122112179Y-58686716D01*
X122017533Y-58522784D01*
X121890871Y-58382112D01*
X121874670Y-58370341D01*
X121737734Y-58270851D01*
X121737729Y-58270848D01*
X121564807Y-58193857D01*
X121564802Y-58193855D01*
X121419001Y-58162865D01*
X121379646Y-58154500D01*
X121190354Y-58154500D01*
X121157897Y-58161398D01*
X121005197Y-58193855D01*
X121005192Y-58193857D01*
X120832270Y-58270848D01*
X120832265Y-58270851D01*
X120679129Y-58382111D01*
X120552466Y-58522785D01*
X120457821Y-58686715D01*
X120457818Y-58686722D01*
X120399327Y-58866740D01*
X120399326Y-58866744D01*
X120379540Y-59055000D01*
X109728500Y-59055000D01*
X109728500Y-57150000D01*
X125779658Y-57150000D01*
X125798197Y-57361905D01*
X125798199Y-57361915D01*
X125853251Y-57567374D01*
X125853253Y-57567378D01*
X125853254Y-57567382D01*
X125911919Y-57693190D01*
X125943153Y-57760171D01*
X125943155Y-57760175D01*
X126065164Y-57934422D01*
X126215577Y-58084835D01*
X126389824Y-58206844D01*
X126389826Y-58206845D01*
X126389829Y-58206847D01*
X126582618Y-58296746D01*
X126616952Y-58305945D01*
X126620051Y-58306864D01*
X126623717Y-58308055D01*
X126623724Y-58308058D01*
X126631210Y-58309766D01*
X126788090Y-58351802D01*
X126828121Y-58355304D01*
X126836501Y-58356622D01*
X126836550Y-58356634D01*
X126850458Y-58357258D01*
X127000000Y-58370342D01*
X127044021Y-58366490D01*
X127052189Y-58366318D01*
X127054630Y-58366428D01*
X127071274Y-58364173D01*
X127074072Y-58363861D01*
X127211910Y-58351802D01*
X127258518Y-58339313D01*
X127266228Y-58337765D01*
X127270954Y-58337125D01*
X127289526Y-58331090D01*
X127292533Y-58330198D01*
X127417382Y-58296746D01*
X127464865Y-58274604D01*
X127471878Y-58271841D01*
X127478569Y-58269667D01*
X127497270Y-58259603D01*
X127500356Y-58258054D01*
X127610171Y-58206847D01*
X127656550Y-58174371D01*
X127662718Y-58170571D01*
X127670802Y-58166221D01*
X127688130Y-58152401D01*
X127691138Y-58150153D01*
X127784421Y-58084836D01*
X127827519Y-58041737D01*
X127832666Y-58037138D01*
X127841475Y-58030114D01*
X127856257Y-58013193D01*
X127859047Y-58010209D01*
X127934836Y-57934421D01*
X127972315Y-57880895D01*
X127976399Y-57875680D01*
X127985103Y-57865719D01*
X127996543Y-57846570D01*
X127998931Y-57842883D01*
X128056847Y-57760171D01*
X128086389Y-57696816D01*
X128089328Y-57691273D01*
X128097068Y-57678320D01*
X128104704Y-57657972D01*
X128106534Y-57653615D01*
X128146746Y-57567382D01*
X128166045Y-57495355D01*
X128167864Y-57489683D01*
X128173773Y-57473941D01*
X128177494Y-57453433D01*
X128178609Y-57448466D01*
X128179144Y-57446471D01*
X128201802Y-57361910D01*
X128208721Y-57282825D01*
X128209473Y-57277214D01*
X128212752Y-57259150D01*
X128213382Y-57231004D01*
X128213598Y-57227074D01*
X128220342Y-57150000D01*
X142289658Y-57150000D01*
X142308197Y-57361905D01*
X142308199Y-57361915D01*
X142363251Y-57567374D01*
X142363253Y-57567378D01*
X142363254Y-57567382D01*
X142421919Y-57693190D01*
X142453153Y-57760171D01*
X142453155Y-57760175D01*
X142575164Y-57934422D01*
X142725577Y-58084835D01*
X142899824Y-58206844D01*
X142899826Y-58206845D01*
X142899829Y-58206847D01*
X143092618Y-58296746D01*
X143126952Y-58305945D01*
X143130051Y-58306864D01*
X143133717Y-58308055D01*
X143133724Y-58308058D01*
X143141210Y-58309766D01*
X143298090Y-58351802D01*
X143338121Y-58355304D01*
X143346501Y-58356622D01*
X143346550Y-58356634D01*
X143360458Y-58357258D01*
X143510000Y-58370342D01*
X143554021Y-58366490D01*
X143562189Y-58366318D01*
X143564630Y-58366428D01*
X143581274Y-58364173D01*
X143584072Y-58363861D01*
X143721910Y-58351802D01*
X143768518Y-58339313D01*
X143776228Y-58337765D01*
X143780954Y-58337125D01*
X143799526Y-58331090D01*
X143802533Y-58330198D01*
X143927382Y-58296746D01*
X143974865Y-58274604D01*
X143981878Y-58271841D01*
X143988569Y-58269667D01*
X144007270Y-58259603D01*
X144010356Y-58258054D01*
X144120171Y-58206847D01*
X144166550Y-58174371D01*
X144172718Y-58170571D01*
X144180802Y-58166221D01*
X144198130Y-58152401D01*
X144201138Y-58150153D01*
X144294421Y-58084836D01*
X144337519Y-58041737D01*
X144342666Y-58037138D01*
X144351475Y-58030114D01*
X144366257Y-58013193D01*
X144369047Y-58010209D01*
X144444836Y-57934421D01*
X144482315Y-57880895D01*
X144486399Y-57875680D01*
X144495103Y-57865719D01*
X144506543Y-57846570D01*
X144508931Y-57842883D01*
X144566847Y-57760171D01*
X144596389Y-57696816D01*
X144599328Y-57691273D01*
X144607068Y-57678320D01*
X144614704Y-57657972D01*
X144616534Y-57653615D01*
X144656746Y-57567382D01*
X144676045Y-57495355D01*
X144677864Y-57489683D01*
X144683773Y-57473941D01*
X144687494Y-57453433D01*
X144688609Y-57448466D01*
X144689144Y-57446471D01*
X144711802Y-57361910D01*
X144718721Y-57282825D01*
X144719473Y-57277214D01*
X144722752Y-57259150D01*
X144723382Y-57231004D01*
X144723598Y-57227074D01*
X144730342Y-57150000D01*
X158845555Y-57150000D01*
X158853293Y-57233509D01*
X158853558Y-57239233D01*
X158853558Y-57258088D01*
X158857022Y-57276623D01*
X158857813Y-57282294D01*
X158865551Y-57365800D01*
X158865551Y-57365801D01*
X158865552Y-57365804D01*
X158873769Y-57394685D01*
X158888503Y-57446471D01*
X158889814Y-57452045D01*
X158893279Y-57470578D01*
X158900091Y-57488163D01*
X158901910Y-57493592D01*
X158924864Y-57574261D01*
X158962242Y-57649325D01*
X158964555Y-57654564D01*
X158971367Y-57672147D01*
X158971373Y-57672159D01*
X158981297Y-57688188D01*
X158984083Y-57693190D01*
X159021463Y-57768260D01*
X159021466Y-57768264D01*
X159021467Y-57768266D01*
X159034104Y-57785000D01*
X159072002Y-57835186D01*
X159075239Y-57839911D01*
X159085170Y-57855949D01*
X159085171Y-57855950D01*
X159097879Y-57869891D01*
X159101539Y-57874298D01*
X159152073Y-57941216D01*
X159152076Y-57941219D01*
X159214050Y-57997716D01*
X159218098Y-58001763D01*
X159225770Y-58010179D01*
X159230807Y-58015704D01*
X159245857Y-58027070D01*
X159250263Y-58030729D01*
X159262367Y-58041763D01*
X159311791Y-58086819D01*
X159312238Y-58087226D01*
X159312240Y-58087228D01*
X159383542Y-58131376D01*
X159388265Y-58134611D01*
X159403317Y-58145978D01*
X159420200Y-58154384D01*
X159425192Y-58157165D01*
X159496505Y-58201320D01*
X159574733Y-58231625D01*
X159579931Y-58233920D01*
X159596827Y-58242334D01*
X159614985Y-58247500D01*
X159620361Y-58249302D01*
X159698598Y-58279611D01*
X159781069Y-58295027D01*
X159786583Y-58296324D01*
X159804749Y-58301493D01*
X159823528Y-58303233D01*
X159829188Y-58304022D01*
X159911636Y-58319435D01*
X159911638Y-58319435D01*
X159995506Y-58319435D01*
X160001230Y-58319700D01*
X160019999Y-58321439D01*
X160020000Y-58321439D01*
X160020001Y-58321439D01*
X160038770Y-58319700D01*
X160044494Y-58319435D01*
X160128363Y-58319435D01*
X160128364Y-58319435D01*
X160210817Y-58304021D01*
X160216468Y-58303233D01*
X160235251Y-58301493D01*
X160253411Y-58296325D01*
X160258930Y-58295027D01*
X160341402Y-58279611D01*
X160419638Y-58249301D01*
X160425007Y-58247502D01*
X160443173Y-58242334D01*
X160460066Y-58233921D01*
X160465277Y-58231621D01*
X160543495Y-58201320D01*
X160614828Y-58157151D01*
X160619780Y-58154394D01*
X160636683Y-58145978D01*
X160651749Y-58134600D01*
X160656426Y-58131395D01*
X160727761Y-58087227D01*
X160789741Y-58030724D01*
X160794132Y-58027077D01*
X160809193Y-58015704D01*
X160821912Y-58001751D01*
X160825929Y-57997734D01*
X160887925Y-57941218D01*
X160938476Y-57874277D01*
X160942120Y-57869891D01*
X160954829Y-57855950D01*
X160964771Y-57839891D01*
X160967968Y-57835223D01*
X161018533Y-57768266D01*
X161055920Y-57693180D01*
X161058696Y-57688197D01*
X161068629Y-57672155D01*
X161075452Y-57654542D01*
X161077737Y-57649365D01*
X161115137Y-57574258D01*
X161138092Y-57493577D01*
X161139903Y-57488174D01*
X161146720Y-57470579D01*
X161150185Y-57452039D01*
X161151487Y-57446501D01*
X161174448Y-57365804D01*
X161182188Y-57282270D01*
X161182977Y-57276621D01*
X161186442Y-57258087D01*
X161187060Y-57231261D01*
X161187303Y-57227067D01*
X161194445Y-57150000D01*
X175563658Y-57150000D01*
X175582197Y-57361905D01*
X175582199Y-57361915D01*
X175637251Y-57567374D01*
X175637253Y-57567378D01*
X175637254Y-57567382D01*
X175695919Y-57693190D01*
X175727153Y-57760171D01*
X175727155Y-57760175D01*
X175849164Y-57934422D01*
X175999577Y-58084835D01*
X176173824Y-58206844D01*
X176173826Y-58206845D01*
X176173829Y-58206847D01*
X176366618Y-58296746D01*
X176400952Y-58305945D01*
X176404051Y-58306864D01*
X176407717Y-58308055D01*
X176407724Y-58308058D01*
X176415210Y-58309766D01*
X176572090Y-58351802D01*
X176612121Y-58355304D01*
X176620501Y-58356622D01*
X176620550Y-58356634D01*
X176634458Y-58357258D01*
X176784000Y-58370342D01*
X176828021Y-58366490D01*
X176836189Y-58366318D01*
X176838630Y-58366428D01*
X176855274Y-58364173D01*
X176858072Y-58363861D01*
X176995910Y-58351802D01*
X177042518Y-58339313D01*
X177050228Y-58337765D01*
X177054954Y-58337125D01*
X177073526Y-58331090D01*
X177076533Y-58330198D01*
X177201382Y-58296746D01*
X177248865Y-58274604D01*
X177255878Y-58271841D01*
X177262569Y-58269667D01*
X177281270Y-58259603D01*
X177284356Y-58258054D01*
X177394171Y-58206847D01*
X177440550Y-58174371D01*
X177446718Y-58170571D01*
X177454802Y-58166221D01*
X177472130Y-58152401D01*
X177475138Y-58150153D01*
X177568421Y-58084836D01*
X177611519Y-58041737D01*
X177616666Y-58037138D01*
X177625475Y-58030114D01*
X177640257Y-58013193D01*
X177643047Y-58010209D01*
X177718836Y-57934421D01*
X177756315Y-57880895D01*
X177760399Y-57875680D01*
X177769103Y-57865719D01*
X177780543Y-57846570D01*
X177782931Y-57842883D01*
X177840847Y-57760171D01*
X177870389Y-57696816D01*
X177873328Y-57691273D01*
X177881068Y-57678320D01*
X177888704Y-57657972D01*
X177890534Y-57653615D01*
X177930746Y-57567382D01*
X177950045Y-57495355D01*
X177951864Y-57489683D01*
X177957773Y-57473941D01*
X177961494Y-57453433D01*
X177962609Y-57448466D01*
X177963144Y-57446471D01*
X177985802Y-57361910D01*
X177992721Y-57282825D01*
X177993473Y-57277214D01*
X177996752Y-57259150D01*
X177997382Y-57231004D01*
X177997598Y-57227074D01*
X178004342Y-57150000D01*
X177997599Y-57072929D01*
X177997382Y-57068992D01*
X177996752Y-57040850D01*
X177993473Y-57022782D01*
X177992721Y-57017177D01*
X177985802Y-56938090D01*
X177962607Y-56851524D01*
X177961490Y-56846544D01*
X177959581Y-56836026D01*
X177957773Y-56826059D01*
X177951866Y-56810321D01*
X177950045Y-56804644D01*
X177932727Y-56740012D01*
X177930747Y-56732621D01*
X177930744Y-56732614D01*
X177890548Y-56646412D01*
X177888692Y-56641994D01*
X177888673Y-56641944D01*
X177881068Y-56621680D01*
X177873343Y-56608751D01*
X177870375Y-56603153D01*
X177840847Y-56539829D01*
X177782955Y-56457150D01*
X177780529Y-56453405D01*
X177769103Y-56434281D01*
X177765458Y-56430109D01*
X177760403Y-56424322D01*
X177756304Y-56419089D01*
X177718837Y-56365580D01*
X177712035Y-56358778D01*
X177643066Y-56289809D01*
X177640237Y-56286783D01*
X177633522Y-56279097D01*
X177625473Y-56269883D01*
X177616681Y-56262873D01*
X177611493Y-56258236D01*
X177568421Y-56215164D01*
X177475178Y-56149874D01*
X177472084Y-56147561D01*
X177454802Y-56133779D01*
X177454798Y-56133776D01*
X177446723Y-56129430D01*
X177440541Y-56125620D01*
X177394173Y-56093154D01*
X177284407Y-56041969D01*
X177281229Y-56040374D01*
X177262567Y-56030332D01*
X177262567Y-56030331D01*
X177255900Y-56028166D01*
X177248851Y-56025389D01*
X177201382Y-56003254D01*
X177201378Y-56003253D01*
X177201376Y-56003252D01*
X177076591Y-55969816D01*
X177073480Y-55968894D01*
X177054958Y-55962876D01*
X177054941Y-55962872D01*
X177050223Y-55962233D01*
X177042501Y-55960681D01*
X176995910Y-55948198D01*
X176995911Y-55948198D01*
X176858138Y-55936144D01*
X176855219Y-55935819D01*
X176847196Y-55934732D01*
X176838630Y-55933572D01*
X176838629Y-55933572D01*
X176838622Y-55933571D01*
X176836181Y-55933681D01*
X176827998Y-55933507D01*
X176784002Y-55929658D01*
X176783998Y-55929658D01*
X176634458Y-55942741D01*
X176620544Y-55943366D01*
X176620512Y-55943370D01*
X176620432Y-55943389D01*
X176612078Y-55944698D01*
X176578217Y-55947661D01*
X176572090Y-55948198D01*
X176572087Y-55948198D01*
X176572084Y-55948199D01*
X176415220Y-55990231D01*
X176407716Y-55991943D01*
X176404025Y-55993142D01*
X176400930Y-55994059D01*
X176366616Y-56003254D01*
X176173828Y-56093153D01*
X176173824Y-56093155D01*
X175999577Y-56215164D01*
X175849164Y-56365577D01*
X175727155Y-56539824D01*
X175727153Y-56539828D01*
X175637255Y-56732616D01*
X175637251Y-56732625D01*
X175582199Y-56938084D01*
X175582197Y-56938094D01*
X175563658Y-57149999D01*
X175563658Y-57150000D01*
X161194445Y-57150000D01*
X161187304Y-57072935D01*
X161187060Y-57068734D01*
X161186442Y-57041913D01*
X161182975Y-57023371D01*
X161182186Y-57017707D01*
X161174448Y-56934196D01*
X161151488Y-56853503D01*
X161150185Y-56847960D01*
X161146720Y-56829421D01*
X161139907Y-56811835D01*
X161138088Y-56806407D01*
X161115137Y-56725742D01*
X161077742Y-56650644D01*
X161075444Y-56645437D01*
X161068629Y-56627845D01*
X161058702Y-56611812D01*
X161055920Y-56606818D01*
X161018533Y-56531734D01*
X160967985Y-56464799D01*
X160964759Y-56460088D01*
X160954835Y-56444059D01*
X160954832Y-56444054D01*
X160954830Y-56444052D01*
X160954829Y-56444050D01*
X160948099Y-56436667D01*
X160942119Y-56430107D01*
X160938459Y-56425700D01*
X160887925Y-56358782D01*
X160825952Y-56302286D01*
X160821902Y-56298236D01*
X160813349Y-56288855D01*
X160809193Y-56284296D01*
X160800465Y-56277705D01*
X160794143Y-56272930D01*
X160789736Y-56269271D01*
X160768048Y-56249500D01*
X160727761Y-56212773D01*
X160727760Y-56212772D01*
X160656457Y-56168622D01*
X160651734Y-56165386D01*
X160636692Y-56154028D01*
X160636686Y-56154024D01*
X160636683Y-56154022D01*
X160636678Y-56154019D01*
X160636674Y-56154017D01*
X160619803Y-56145616D01*
X160614799Y-56142829D01*
X160543498Y-56098681D01*
X160543483Y-56098674D01*
X160465285Y-56068380D01*
X160460044Y-56066066D01*
X160443184Y-56057670D01*
X160443176Y-56057667D01*
X160443173Y-56057666D01*
X160425041Y-56052507D01*
X160419616Y-56050688D01*
X160341402Y-56020388D01*
X160258953Y-56004976D01*
X160253380Y-56003665D01*
X160235251Y-55998507D01*
X160235249Y-55998506D01*
X160235243Y-55998505D01*
X160235247Y-55998505D01*
X160216472Y-55996765D01*
X160210802Y-55995974D01*
X160128365Y-55980565D01*
X160128364Y-55980565D01*
X160044494Y-55980565D01*
X160038770Y-55980300D01*
X160020001Y-55978561D01*
X160019999Y-55978561D01*
X160001230Y-55980300D01*
X159995506Y-55980565D01*
X159911632Y-55980565D01*
X159829195Y-55995974D01*
X159823530Y-55996764D01*
X159804749Y-55998507D01*
X159804746Y-55998507D01*
X159786613Y-56003666D01*
X159781039Y-56004977D01*
X159698596Y-56020389D01*
X159620391Y-56050685D01*
X159614963Y-56052505D01*
X159596830Y-56057664D01*
X159596825Y-56057666D01*
X159579949Y-56066070D01*
X159574709Y-56068383D01*
X159496507Y-56098678D01*
X159496504Y-56098680D01*
X159425203Y-56142828D01*
X159420201Y-56145614D01*
X159403312Y-56154024D01*
X159403309Y-56154026D01*
X159388262Y-56165389D01*
X159383540Y-56168623D01*
X159312239Y-56212772D01*
X159250262Y-56269270D01*
X159245860Y-56272926D01*
X159230805Y-56284297D01*
X159218099Y-56298233D01*
X159214052Y-56302279D01*
X159152077Y-56358778D01*
X159152075Y-56358781D01*
X159101536Y-56425704D01*
X159097879Y-56430109D01*
X159085172Y-56444048D01*
X159085164Y-56444059D01*
X159075239Y-56460088D01*
X159072003Y-56464812D01*
X159021468Y-56531732D01*
X159021463Y-56531740D01*
X158984077Y-56606818D01*
X158981292Y-56611819D01*
X158971370Y-56627845D01*
X158971369Y-56627847D01*
X158964560Y-56645422D01*
X158962247Y-56650661D01*
X158924865Y-56725736D01*
X158924865Y-56725737D01*
X158924863Y-56725742D01*
X158923920Y-56729056D01*
X158901910Y-56806407D01*
X158900091Y-56811835D01*
X158893280Y-56829417D01*
X158889814Y-56847955D01*
X158888503Y-56853529D01*
X158865552Y-56934197D01*
X158865551Y-56934199D01*
X158857812Y-57017707D01*
X158857021Y-57023376D01*
X158853559Y-57041901D01*
X158853558Y-57041914D01*
X158853558Y-57060765D01*
X158853293Y-57066489D01*
X158845555Y-57149998D01*
X158845555Y-57150000D01*
X144730342Y-57150000D01*
X144723599Y-57072929D01*
X144723382Y-57068992D01*
X144722752Y-57040850D01*
X144719473Y-57022782D01*
X144718721Y-57017177D01*
X144711802Y-56938090D01*
X144688607Y-56851524D01*
X144687490Y-56846544D01*
X144685581Y-56836026D01*
X144683773Y-56826059D01*
X144677866Y-56810321D01*
X144676045Y-56804644D01*
X144658727Y-56740012D01*
X144656747Y-56732621D01*
X144656744Y-56732614D01*
X144616548Y-56646412D01*
X144614692Y-56641994D01*
X144614673Y-56641944D01*
X144607068Y-56621680D01*
X144599343Y-56608751D01*
X144596375Y-56603153D01*
X144566847Y-56539829D01*
X144508955Y-56457150D01*
X144506529Y-56453405D01*
X144495103Y-56434281D01*
X144491458Y-56430109D01*
X144486403Y-56424322D01*
X144482304Y-56419089D01*
X144444837Y-56365580D01*
X144438035Y-56358778D01*
X144369066Y-56289809D01*
X144366237Y-56286783D01*
X144359522Y-56279097D01*
X144351473Y-56269883D01*
X144342681Y-56262873D01*
X144337493Y-56258236D01*
X144294421Y-56215164D01*
X144201178Y-56149874D01*
X144198084Y-56147561D01*
X144180802Y-56133779D01*
X144180798Y-56133776D01*
X144172723Y-56129430D01*
X144166541Y-56125620D01*
X144120173Y-56093154D01*
X144010407Y-56041969D01*
X144007229Y-56040374D01*
X143988567Y-56030332D01*
X143988567Y-56030331D01*
X143981900Y-56028166D01*
X143974851Y-56025389D01*
X143927382Y-56003254D01*
X143927378Y-56003253D01*
X143927376Y-56003252D01*
X143802591Y-55969816D01*
X143799480Y-55968894D01*
X143780958Y-55962876D01*
X143780941Y-55962872D01*
X143776223Y-55962233D01*
X143768501Y-55960681D01*
X143721910Y-55948198D01*
X143721911Y-55948198D01*
X143584138Y-55936144D01*
X143581219Y-55935819D01*
X143573196Y-55934732D01*
X143564630Y-55933572D01*
X143564629Y-55933572D01*
X143564622Y-55933571D01*
X143562181Y-55933681D01*
X143553998Y-55933507D01*
X143510002Y-55929658D01*
X143509998Y-55929658D01*
X143360458Y-55942741D01*
X143346544Y-55943366D01*
X143346512Y-55943370D01*
X143346432Y-55943389D01*
X143338078Y-55944698D01*
X143304217Y-55947661D01*
X143298090Y-55948198D01*
X143298087Y-55948198D01*
X143298084Y-55948199D01*
X143141220Y-55990231D01*
X143133716Y-55991943D01*
X143130025Y-55993142D01*
X143126930Y-55994059D01*
X143092616Y-56003254D01*
X142899828Y-56093153D01*
X142899824Y-56093155D01*
X142725577Y-56215164D01*
X142575164Y-56365577D01*
X142453155Y-56539824D01*
X142453153Y-56539828D01*
X142363255Y-56732616D01*
X142363251Y-56732625D01*
X142308199Y-56938084D01*
X142308197Y-56938094D01*
X142289658Y-57149999D01*
X142289658Y-57150000D01*
X128220342Y-57150000D01*
X128213599Y-57072929D01*
X128213382Y-57068992D01*
X128212752Y-57040850D01*
X128209473Y-57022782D01*
X128208721Y-57017177D01*
X128201802Y-56938090D01*
X128178607Y-56851524D01*
X128177490Y-56846544D01*
X128175581Y-56836026D01*
X128173773Y-56826059D01*
X128167866Y-56810321D01*
X128166045Y-56804644D01*
X128148727Y-56740012D01*
X128146747Y-56732621D01*
X128146744Y-56732614D01*
X128106548Y-56646412D01*
X128104692Y-56641994D01*
X128104673Y-56641944D01*
X128097068Y-56621680D01*
X128089343Y-56608751D01*
X128086375Y-56603153D01*
X128056847Y-56539829D01*
X127998955Y-56457150D01*
X127996529Y-56453405D01*
X127985103Y-56434281D01*
X127981458Y-56430109D01*
X127976403Y-56424322D01*
X127972304Y-56419089D01*
X127934837Y-56365580D01*
X127928035Y-56358778D01*
X127859066Y-56289809D01*
X127856237Y-56286783D01*
X127849522Y-56279097D01*
X127841473Y-56269883D01*
X127832681Y-56262873D01*
X127827493Y-56258236D01*
X127784421Y-56215164D01*
X127691178Y-56149874D01*
X127688084Y-56147561D01*
X127670802Y-56133779D01*
X127670798Y-56133776D01*
X127662723Y-56129430D01*
X127656541Y-56125620D01*
X127610173Y-56093154D01*
X127500407Y-56041969D01*
X127497229Y-56040374D01*
X127478567Y-56030332D01*
X127478567Y-56030331D01*
X127471900Y-56028166D01*
X127464851Y-56025389D01*
X127417382Y-56003254D01*
X127417378Y-56003253D01*
X127417376Y-56003252D01*
X127292591Y-55969816D01*
X127289480Y-55968894D01*
X127270958Y-55962876D01*
X127270941Y-55962872D01*
X127266223Y-55962233D01*
X127258501Y-55960681D01*
X127211910Y-55948198D01*
X127211911Y-55948198D01*
X127074138Y-55936144D01*
X127071219Y-55935819D01*
X127063196Y-55934732D01*
X127054630Y-55933572D01*
X127054629Y-55933572D01*
X127054622Y-55933571D01*
X127052181Y-55933681D01*
X127043998Y-55933507D01*
X127000002Y-55929658D01*
X126999998Y-55929658D01*
X126850458Y-55942741D01*
X126836544Y-55943366D01*
X126836512Y-55943370D01*
X126836432Y-55943389D01*
X126828078Y-55944698D01*
X126794217Y-55947661D01*
X126788090Y-55948198D01*
X126788087Y-55948198D01*
X126788084Y-55948199D01*
X126631220Y-55990231D01*
X126623716Y-55991943D01*
X126620025Y-55993142D01*
X126616930Y-55994059D01*
X126582616Y-56003254D01*
X126389828Y-56093153D01*
X126389824Y-56093155D01*
X126215577Y-56215164D01*
X126065164Y-56365577D01*
X125943155Y-56539824D01*
X125943153Y-56539828D01*
X125853255Y-56732616D01*
X125853251Y-56732625D01*
X125798199Y-56938084D01*
X125798197Y-56938094D01*
X125779658Y-57149999D01*
X125779658Y-57150000D01*
X109728500Y-57150000D01*
X109728500Y-52070005D01*
X124644450Y-52070005D01*
X124664602Y-52377463D01*
X124664604Y-52377475D01*
X124724711Y-52679656D01*
X124724715Y-52679671D01*
X124823753Y-52971427D01*
X124823762Y-52971448D01*
X124960027Y-53247766D01*
X124960033Y-53247776D01*
X125131214Y-53503968D01*
X125131216Y-53503970D01*
X125334372Y-53735625D01*
X125490122Y-53872214D01*
X125566029Y-53938783D01*
X125822222Y-54109965D01*
X125822225Y-54109966D01*
X125822231Y-54109970D01*
X126098549Y-54246235D01*
X126098554Y-54246237D01*
X126098566Y-54246243D01*
X126390334Y-54345285D01*
X126692533Y-54405396D01*
X126923052Y-54420505D01*
X126923055Y-54420505D01*
X127076931Y-54420505D01*
X127076934Y-54420505D01*
X127307453Y-54405396D01*
X127609652Y-54345285D01*
X127901420Y-54246243D01*
X128177764Y-54109965D01*
X128433957Y-53938783D01*
X128665613Y-53735625D01*
X128868771Y-53503969D01*
X128868783Y-53503952D01*
X128923718Y-53421734D01*
X129039953Y-53247777D01*
X129176231Y-52971432D01*
X129176235Y-52971422D01*
X129275269Y-52679676D01*
X129275270Y-52679672D01*
X129275273Y-52679664D01*
X129335384Y-52377465D01*
X129355536Y-52070005D01*
X129355536Y-52070000D01*
X141154457Y-52070000D01*
X141174609Y-52377458D01*
X141174611Y-52377470D01*
X141234718Y-52679651D01*
X141234722Y-52679666D01*
X141333760Y-52971422D01*
X141333761Y-52971424D01*
X141333762Y-52971427D01*
X141333763Y-52971429D01*
X141333769Y-52971443D01*
X141470034Y-53247761D01*
X141470043Y-53247776D01*
X141531665Y-53340000D01*
X141641222Y-53503964D01*
X141641227Y-53503970D01*
X141844379Y-53735620D01*
X142000135Y-53872214D01*
X142076036Y-53938778D01*
X142332229Y-54109960D01*
X142332232Y-54109961D01*
X142332238Y-54109965D01*
X142608556Y-54246230D01*
X142608561Y-54246232D01*
X142608573Y-54246238D01*
X142900341Y-54345280D01*
X143202540Y-54405391D01*
X143433059Y-54420500D01*
X143433062Y-54420500D01*
X143586938Y-54420500D01*
X143586941Y-54420500D01*
X143817460Y-54405391D01*
X144119659Y-54345280D01*
X144411427Y-54246238D01*
X144687771Y-54109960D01*
X144943964Y-53938778D01*
X145175620Y-53735620D01*
X145378778Y-53503964D01*
X145549960Y-53247772D01*
X145686238Y-52971427D01*
X145686240Y-52971422D01*
X145686241Y-52971419D01*
X145785276Y-52679671D01*
X145785277Y-52679667D01*
X145785280Y-52679659D01*
X145845391Y-52377460D01*
X145865543Y-52070001D01*
X157664458Y-52070001D01*
X157684610Y-52377461D01*
X157684611Y-52377465D01*
X157684612Y-52377471D01*
X157744719Y-52679652D01*
X157744723Y-52679667D01*
X157843761Y-52971423D01*
X157843762Y-52971426D01*
X157843763Y-52971428D01*
X157843764Y-52971430D01*
X157843770Y-52971444D01*
X157980035Y-53247762D01*
X157980044Y-53247777D01*
X158066786Y-53377595D01*
X158151223Y-53503965D01*
X158172526Y-53528256D01*
X158354380Y-53735621D01*
X158510137Y-53872216D01*
X158586037Y-53938779D01*
X158842230Y-54109961D01*
X158842233Y-54109962D01*
X158842239Y-54109966D01*
X159118557Y-54246231D01*
X159118562Y-54246233D01*
X159118574Y-54246239D01*
X159410342Y-54345281D01*
X159712541Y-54405392D01*
X159943060Y-54420501D01*
X159943063Y-54420501D01*
X160096939Y-54420501D01*
X160096942Y-54420501D01*
X160327461Y-54405392D01*
X160629660Y-54345281D01*
X160921428Y-54246239D01*
X161197772Y-54109961D01*
X161453965Y-53938779D01*
X161685621Y-53735621D01*
X161888779Y-53503965D01*
X161888789Y-53503951D01*
X161998337Y-53340000D01*
X162059961Y-53247773D01*
X162196239Y-52971428D01*
X162251789Y-52807785D01*
X162295277Y-52679672D01*
X162295277Y-52679671D01*
X162295281Y-52679660D01*
X162355392Y-52377461D01*
X162375544Y-52070001D01*
X162375544Y-52070000D01*
X174174457Y-52070000D01*
X174194609Y-52377458D01*
X174194611Y-52377470D01*
X174254718Y-52679651D01*
X174254722Y-52679666D01*
X174353760Y-52971422D01*
X174353761Y-52971424D01*
X174353762Y-52971427D01*
X174353763Y-52971429D01*
X174353769Y-52971443D01*
X174490034Y-53247761D01*
X174490043Y-53247776D01*
X174551665Y-53340000D01*
X174661222Y-53503964D01*
X174661227Y-53503970D01*
X174864379Y-53735620D01*
X175020135Y-53872214D01*
X175096036Y-53938778D01*
X175352229Y-54109960D01*
X175352232Y-54109961D01*
X175352238Y-54109965D01*
X175628556Y-54246230D01*
X175628561Y-54246232D01*
X175628573Y-54246238D01*
X175920341Y-54345280D01*
X176222540Y-54405391D01*
X176453059Y-54420500D01*
X176453062Y-54420500D01*
X176606938Y-54420500D01*
X176606941Y-54420500D01*
X176837460Y-54405391D01*
X177139659Y-54345280D01*
X177431427Y-54246238D01*
X177707771Y-54109960D01*
X177963964Y-53938778D01*
X178195620Y-53735620D01*
X178398778Y-53503964D01*
X178569960Y-53247772D01*
X178706238Y-52971427D01*
X178706240Y-52971422D01*
X178706241Y-52971419D01*
X178805276Y-52679671D01*
X178805277Y-52679667D01*
X178805280Y-52679659D01*
X178865391Y-52377460D01*
X178885543Y-52070000D01*
X178865391Y-51762540D01*
X178805280Y-51460341D01*
X178706238Y-51168573D01*
X178680995Y-51117385D01*
X178569965Y-50892238D01*
X178569956Y-50892223D01*
X178550582Y-50863228D01*
X178398778Y-50636036D01*
X178271243Y-50490611D01*
X178195620Y-50404379D01*
X177963965Y-50201223D01*
X177707776Y-50030043D01*
X177707761Y-50030034D01*
X177431443Y-49893769D01*
X177431422Y-49893760D01*
X177139666Y-49794722D01*
X177139660Y-49794720D01*
X177139659Y-49794720D01*
X177139657Y-49794719D01*
X177139651Y-49794718D01*
X176837470Y-49734611D01*
X176837460Y-49734609D01*
X176606941Y-49719500D01*
X176453059Y-49719500D01*
X176222540Y-49734609D01*
X176222534Y-49734610D01*
X176222529Y-49734611D01*
X175920348Y-49794718D01*
X175920333Y-49794722D01*
X175628577Y-49893760D01*
X175628556Y-49893769D01*
X175352238Y-50030034D01*
X175352223Y-50030043D01*
X175096034Y-50201223D01*
X174864379Y-50404379D01*
X174661222Y-50636036D01*
X174661212Y-50636048D01*
X174490041Y-50892225D01*
X174490037Y-50892232D01*
X174353762Y-51168570D01*
X174353758Y-51168580D01*
X174254723Y-51460328D01*
X174254718Y-51460348D01*
X174194611Y-51762529D01*
X174194609Y-51762541D01*
X174174457Y-52070000D01*
X162375544Y-52070000D01*
X162355392Y-51762541D01*
X162295281Y-51460342D01*
X162196239Y-51168574D01*
X162196231Y-51168557D01*
X162059966Y-50892239D01*
X162059959Y-50892228D01*
X161888779Y-50636037D01*
X161761244Y-50490612D01*
X161685621Y-50404380D01*
X161453971Y-50201228D01*
X161453965Y-50201223D01*
X161327595Y-50116786D01*
X161197777Y-50030044D01*
X161197762Y-50030035D01*
X160921444Y-49893770D01*
X160921423Y-49893761D01*
X160629667Y-49794723D01*
X160629661Y-49794721D01*
X160629660Y-49794721D01*
X160629658Y-49794720D01*
X160629652Y-49794719D01*
X160327471Y-49734612D01*
X160327461Y-49734610D01*
X160096942Y-49719501D01*
X159943060Y-49719501D01*
X159712541Y-49734610D01*
X159712535Y-49734611D01*
X159712530Y-49734612D01*
X159410349Y-49794719D01*
X159410334Y-49794723D01*
X159118578Y-49893761D01*
X159118557Y-49893770D01*
X158842239Y-50030035D01*
X158842224Y-50030044D01*
X158586035Y-50201224D01*
X158354380Y-50404380D01*
X158151223Y-50636037D01*
X158151213Y-50636049D01*
X157980042Y-50892226D01*
X157980038Y-50892233D01*
X157843763Y-51168571D01*
X157843759Y-51168581D01*
X157744724Y-51460329D01*
X157744719Y-51460349D01*
X157684612Y-51762529D01*
X157684610Y-51762541D01*
X157664458Y-52070001D01*
X145865543Y-52070001D01*
X145865543Y-52070000D01*
X145845391Y-51762540D01*
X145785280Y-51460341D01*
X145686238Y-51168573D01*
X145660995Y-51117385D01*
X145549965Y-50892238D01*
X145549956Y-50892223D01*
X145530582Y-50863228D01*
X145378778Y-50636036D01*
X145251243Y-50490611D01*
X145175620Y-50404379D01*
X144943965Y-50201223D01*
X144687776Y-50030043D01*
X144687761Y-50030034D01*
X144411443Y-49893769D01*
X144411422Y-49893760D01*
X144119666Y-49794722D01*
X144119660Y-49794720D01*
X144119659Y-49794720D01*
X144119657Y-49794719D01*
X144119651Y-49794718D01*
X143817470Y-49734611D01*
X143817460Y-49734609D01*
X143586941Y-49719500D01*
X143433059Y-49719500D01*
X143202540Y-49734609D01*
X143202534Y-49734610D01*
X143202529Y-49734611D01*
X142900348Y-49794718D01*
X142900333Y-49794722D01*
X142608577Y-49893760D01*
X142608556Y-49893769D01*
X142332238Y-50030034D01*
X142332223Y-50030043D01*
X142076034Y-50201223D01*
X141844379Y-50404379D01*
X141641222Y-50636036D01*
X141641212Y-50636048D01*
X141470041Y-50892225D01*
X141470037Y-50892232D01*
X141333762Y-51168570D01*
X141333758Y-51168580D01*
X141234723Y-51460328D01*
X141234718Y-51460348D01*
X141174611Y-51762529D01*
X141174609Y-51762541D01*
X141154457Y-52070000D01*
X129355536Y-52070000D01*
X129335384Y-51762545D01*
X129275273Y-51460346D01*
X129176231Y-51168578D01*
X129176221Y-51168557D01*
X129039958Y-50892243D01*
X129039951Y-50892232D01*
X128868771Y-50636041D01*
X128824260Y-50585286D01*
X128665613Y-50404384D01*
X128433958Y-50201228D01*
X128433952Y-50201224D01*
X128307587Y-50116790D01*
X128177769Y-50030048D01*
X128177754Y-50030039D01*
X127901436Y-49893774D01*
X127901415Y-49893765D01*
X127609659Y-49794727D01*
X127609653Y-49794725D01*
X127609652Y-49794725D01*
X127609650Y-49794724D01*
X127609644Y-49794723D01*
X127307463Y-49734616D01*
X127307453Y-49734614D01*
X127076934Y-49719505D01*
X126923052Y-49719505D01*
X126692533Y-49734614D01*
X126692527Y-49734615D01*
X126692522Y-49734616D01*
X126390341Y-49794723D01*
X126390326Y-49794727D01*
X126098570Y-49893765D01*
X126098549Y-49893774D01*
X125822231Y-50030039D01*
X125822216Y-50030048D01*
X125566027Y-50201228D01*
X125334372Y-50404384D01*
X125131215Y-50636041D01*
X125131205Y-50636053D01*
X124960034Y-50892230D01*
X124960030Y-50892237D01*
X124823755Y-51168575D01*
X124823751Y-51168585D01*
X124724716Y-51460333D01*
X124724711Y-51460353D01*
X124664604Y-51762534D01*
X124664602Y-51762546D01*
X124644450Y-52070005D01*
X109728500Y-52070005D01*
X109728500Y-49530004D01*
X129104732Y-49530004D01*
X129123777Y-49784154D01*
X129179897Y-50030034D01*
X129180492Y-50032637D01*
X129273607Y-50269888D01*
X129401041Y-50490612D01*
X129559950Y-50689877D01*
X129746783Y-50863232D01*
X129957366Y-51006805D01*
X129957371Y-51006807D01*
X129957372Y-51006808D01*
X129957373Y-51006809D01*
X130079328Y-51065538D01*
X130186992Y-51117387D01*
X130186993Y-51117387D01*
X130186996Y-51117389D01*
X130430542Y-51192513D01*
X130682565Y-51230500D01*
X130937435Y-51230500D01*
X131189458Y-51192513D01*
X131433004Y-51117389D01*
X131662634Y-51006805D01*
X131873217Y-50863232D01*
X132060050Y-50689877D01*
X132218959Y-50490612D01*
X132346393Y-50269888D01*
X132439508Y-50032637D01*
X132496222Y-49784157D01*
X132515268Y-49530000D01*
X132515268Y-49529999D01*
X145614739Y-49529999D01*
X145633784Y-49784149D01*
X145690497Y-50032625D01*
X145690499Y-50032632D01*
X145783614Y-50269883D01*
X145911048Y-50490607D01*
X146069957Y-50689872D01*
X146256790Y-50863227D01*
X146467373Y-51006800D01*
X146467378Y-51006802D01*
X146467379Y-51006803D01*
X146467380Y-51006804D01*
X146589335Y-51065533D01*
X146696999Y-51117382D01*
X146697000Y-51117382D01*
X146697003Y-51117384D01*
X146940549Y-51192508D01*
X147192572Y-51230495D01*
X147447442Y-51230495D01*
X147699465Y-51192508D01*
X147943011Y-51117384D01*
X148124465Y-51030000D01*
X148172633Y-51006804D01*
X148172633Y-51006803D01*
X148172641Y-51006800D01*
X148383224Y-50863227D01*
X148570057Y-50689872D01*
X148728966Y-50490607D01*
X148856400Y-50269883D01*
X148949515Y-50032632D01*
X149006229Y-49784152D01*
X149014391Y-49675227D01*
X149025275Y-49530000D01*
X162124740Y-49530000D01*
X162143785Y-49784150D01*
X162199908Y-50030043D01*
X162200500Y-50032633D01*
X162293615Y-50269884D01*
X162421049Y-50490608D01*
X162579958Y-50689873D01*
X162766791Y-50863228D01*
X162977374Y-51006801D01*
X162977379Y-51006803D01*
X162977380Y-51006804D01*
X162977381Y-51006805D01*
X163099336Y-51065534D01*
X163207000Y-51117383D01*
X163207001Y-51117383D01*
X163207004Y-51117385D01*
X163450550Y-51192509D01*
X163702573Y-51230496D01*
X163957443Y-51230496D01*
X164209466Y-51192509D01*
X164453012Y-51117385D01*
X164634466Y-51030001D01*
X164682634Y-51006805D01*
X164682634Y-51006804D01*
X164682642Y-51006801D01*
X164893225Y-50863228D01*
X165080058Y-50689873D01*
X165238967Y-50490608D01*
X165366401Y-50269884D01*
X165459516Y-50032633D01*
X165516230Y-49784153D01*
X165524392Y-49675228D01*
X165535276Y-49530000D01*
X165535276Y-49529999D01*
X178634739Y-49529999D01*
X178653784Y-49784149D01*
X178710497Y-50032625D01*
X178710499Y-50032632D01*
X178803614Y-50269883D01*
X178931048Y-50490607D01*
X179089957Y-50689872D01*
X179276790Y-50863227D01*
X179487373Y-51006800D01*
X179487378Y-51006802D01*
X179487379Y-51006803D01*
X179487380Y-51006804D01*
X179609335Y-51065533D01*
X179716999Y-51117382D01*
X179717000Y-51117382D01*
X179717003Y-51117384D01*
X179960549Y-51192508D01*
X180212572Y-51230495D01*
X180467442Y-51230495D01*
X180719465Y-51192508D01*
X180963011Y-51117384D01*
X181144465Y-51030000D01*
X181192633Y-51006804D01*
X181192633Y-51006803D01*
X181192641Y-51006800D01*
X181403224Y-50863227D01*
X181590057Y-50689872D01*
X181748966Y-50490607D01*
X181876400Y-50269883D01*
X181969515Y-50032632D01*
X182026229Y-49784152D01*
X182034391Y-49675227D01*
X182045275Y-49529999D01*
X182045275Y-49529990D01*
X182031670Y-49348454D01*
X182026229Y-49275838D01*
X181969515Y-49027358D01*
X181876400Y-48790107D01*
X181748966Y-48569383D01*
X181590057Y-48370118D01*
X181403224Y-48196763D01*
X181192641Y-48053190D01*
X181192635Y-48053187D01*
X181192634Y-48053186D01*
X181192633Y-48053185D01*
X180963013Y-47942607D01*
X180963015Y-47942607D01*
X180719473Y-47867484D01*
X180719469Y-47867483D01*
X180719465Y-47867482D01*
X180598238Y-47849209D01*
X180467447Y-47829495D01*
X180467442Y-47829495D01*
X180212572Y-47829495D01*
X180212566Y-47829495D01*
X180055616Y-47853152D01*
X179960549Y-47867482D01*
X179960546Y-47867483D01*
X179960540Y-47867484D01*
X179716999Y-47942607D01*
X179487380Y-48053185D01*
X179487379Y-48053186D01*
X179276789Y-48196763D01*
X179089959Y-48370116D01*
X179089957Y-48370118D01*
X178931048Y-48569383D01*
X178803615Y-48790104D01*
X178710499Y-49027357D01*
X178710497Y-49027364D01*
X178653784Y-49275840D01*
X178634739Y-49529990D01*
X178634739Y-49529999D01*
X165535276Y-49529999D01*
X165535276Y-49529991D01*
X165516230Y-49275841D01*
X165516229Y-49275838D01*
X165459516Y-49027359D01*
X165366401Y-48790108D01*
X165238967Y-48569384D01*
X165080058Y-48370119D01*
X164893225Y-48196764D01*
X164682642Y-48053191D01*
X164682638Y-48053189D01*
X164682635Y-48053187D01*
X164682634Y-48053186D01*
X164453014Y-47942608D01*
X164453016Y-47942608D01*
X164209474Y-47867485D01*
X164209470Y-47867484D01*
X164209466Y-47867483D01*
X164088239Y-47849210D01*
X163957448Y-47829496D01*
X163957443Y-47829496D01*
X163702573Y-47829496D01*
X163702567Y-47829496D01*
X163558950Y-47851144D01*
X163450550Y-47867483D01*
X163450547Y-47867484D01*
X163450541Y-47867485D01*
X163207000Y-47942608D01*
X162977381Y-48053186D01*
X162977380Y-48053187D01*
X162766790Y-48196764D01*
X162579960Y-48370117D01*
X162579958Y-48370119D01*
X162421049Y-48569384D01*
X162293616Y-48790105D01*
X162200500Y-49027358D01*
X162200498Y-49027365D01*
X162143785Y-49275841D01*
X162124740Y-49529991D01*
X162124740Y-49530000D01*
X149025275Y-49530000D01*
X149025275Y-49529999D01*
X149025275Y-49529990D01*
X149011670Y-49348454D01*
X149006229Y-49275838D01*
X148949515Y-49027358D01*
X148856400Y-48790107D01*
X148728966Y-48569383D01*
X148570057Y-48370118D01*
X148383224Y-48196763D01*
X148172641Y-48053190D01*
X148172635Y-48053187D01*
X148172634Y-48053186D01*
X148172633Y-48053185D01*
X147943013Y-47942607D01*
X147943015Y-47942607D01*
X147699473Y-47867484D01*
X147699469Y-47867483D01*
X147699465Y-47867482D01*
X147578238Y-47849209D01*
X147447447Y-47829495D01*
X147447442Y-47829495D01*
X147192572Y-47829495D01*
X147192566Y-47829495D01*
X147035616Y-47853152D01*
X146940549Y-47867482D01*
X146940546Y-47867483D01*
X146940540Y-47867484D01*
X146696999Y-47942607D01*
X146467380Y-48053185D01*
X146467379Y-48053186D01*
X146256789Y-48196763D01*
X146069959Y-48370116D01*
X146069957Y-48370118D01*
X145911048Y-48569383D01*
X145783615Y-48790104D01*
X145690499Y-49027357D01*
X145690497Y-49027364D01*
X145633784Y-49275840D01*
X145614739Y-49529990D01*
X145614739Y-49529999D01*
X132515268Y-49529999D01*
X132515267Y-49529991D01*
X132496222Y-49275845D01*
X132496221Y-49275841D01*
X132439508Y-49027363D01*
X132346393Y-48790112D01*
X132218959Y-48569388D01*
X132060050Y-48370123D01*
X131873217Y-48196768D01*
X131662634Y-48053195D01*
X131662630Y-48053193D01*
X131662627Y-48053191D01*
X131662626Y-48053190D01*
X131433006Y-47942612D01*
X131433008Y-47942612D01*
X131189466Y-47867489D01*
X131189462Y-47867488D01*
X131189458Y-47867487D01*
X131068231Y-47849214D01*
X130937440Y-47829500D01*
X130937435Y-47829500D01*
X130682565Y-47829500D01*
X130682559Y-47829500D01*
X130525609Y-47853157D01*
X130430542Y-47867487D01*
X130430539Y-47867488D01*
X130430533Y-47867489D01*
X130186992Y-47942612D01*
X129957373Y-48053190D01*
X129957372Y-48053191D01*
X129746782Y-48196768D01*
X129559952Y-48370121D01*
X129559950Y-48370123D01*
X129401041Y-48569388D01*
X129273608Y-48790109D01*
X129180492Y-49027362D01*
X129180490Y-49027369D01*
X129123777Y-49275845D01*
X129104732Y-49529995D01*
X129104732Y-49530004D01*
X109728500Y-49530004D01*
X109728500Y-46989998D01*
X122754720Y-46989998D01*
X122773765Y-47244148D01*
X122799814Y-47358277D01*
X122830480Y-47492631D01*
X122923593Y-47729878D01*
X122923596Y-47729884D01*
X122950524Y-47776525D01*
X123051029Y-47950606D01*
X123209938Y-48149871D01*
X123396771Y-48323226D01*
X123607354Y-48466799D01*
X123607359Y-48466801D01*
X123607360Y-48466802D01*
X123607361Y-48466803D01*
X123729316Y-48525532D01*
X123836980Y-48577381D01*
X123836981Y-48577381D01*
X123836984Y-48577383D01*
X124080530Y-48652507D01*
X124332553Y-48690494D01*
X124587423Y-48690494D01*
X124839446Y-48652507D01*
X125082992Y-48577383D01*
X125312622Y-48466799D01*
X125523205Y-48323226D01*
X125710038Y-48149871D01*
X125868947Y-47950606D01*
X125996381Y-47729882D01*
X126089496Y-47492631D01*
X126146210Y-47244151D01*
X126154372Y-47135226D01*
X126165256Y-46989998D01*
X126165256Y-46989993D01*
X139264727Y-46989993D01*
X139283772Y-47244143D01*
X139340485Y-47492619D01*
X139340487Y-47492626D01*
X139433602Y-47729877D01*
X139561036Y-47950601D01*
X139719945Y-48149866D01*
X139906778Y-48323221D01*
X140117361Y-48466794D01*
X140117366Y-48466796D01*
X140117367Y-48466797D01*
X140117368Y-48466798D01*
X140239323Y-48525527D01*
X140346987Y-48577376D01*
X140346988Y-48577376D01*
X140346991Y-48577378D01*
X140590537Y-48652502D01*
X140842560Y-48690489D01*
X141097430Y-48690489D01*
X141349453Y-48652502D01*
X141592999Y-48577378D01*
X141774453Y-48489994D01*
X141822621Y-48466798D01*
X141822621Y-48466797D01*
X141822629Y-48466794D01*
X142033212Y-48323221D01*
X142220045Y-48149866D01*
X142378954Y-47950601D01*
X142506388Y-47729877D01*
X142599503Y-47492626D01*
X142656217Y-47244146D01*
X142675262Y-46990000D01*
X142675263Y-46989994D01*
X155774728Y-46989994D01*
X155793773Y-47244144D01*
X155793774Y-47244147D01*
X155850488Y-47492627D01*
X155943603Y-47729878D01*
X156071037Y-47950602D01*
X156229946Y-48149867D01*
X156416779Y-48323222D01*
X156627362Y-48466795D01*
X156627367Y-48466797D01*
X156627368Y-48466798D01*
X156627369Y-48466799D01*
X156749324Y-48525528D01*
X156856988Y-48577377D01*
X156856989Y-48577377D01*
X156856992Y-48577379D01*
X157100538Y-48652503D01*
X157352561Y-48690490D01*
X157607431Y-48690490D01*
X157859454Y-48652503D01*
X158103000Y-48577379D01*
X158284454Y-48489995D01*
X158332622Y-48466799D01*
X158332622Y-48466798D01*
X158332630Y-48466795D01*
X158543213Y-48323222D01*
X158730046Y-48149867D01*
X158888955Y-47950602D01*
X159016389Y-47729878D01*
X159109504Y-47492627D01*
X159166218Y-47244147D01*
X159183848Y-47008884D01*
X159185264Y-46989994D01*
X159185264Y-46989993D01*
X172284727Y-46989993D01*
X172303772Y-47244143D01*
X172360485Y-47492619D01*
X172360487Y-47492626D01*
X172453602Y-47729877D01*
X172581036Y-47950601D01*
X172739945Y-48149866D01*
X172926778Y-48323221D01*
X173137361Y-48466794D01*
X173137366Y-48466796D01*
X173137367Y-48466797D01*
X173137368Y-48466798D01*
X173259323Y-48525527D01*
X173366987Y-48577376D01*
X173366988Y-48577376D01*
X173366991Y-48577378D01*
X173610537Y-48652502D01*
X173862560Y-48690489D01*
X174117430Y-48690489D01*
X174369453Y-48652502D01*
X174612999Y-48577378D01*
X174794453Y-48489994D01*
X174842621Y-48466798D01*
X174842621Y-48466797D01*
X174842629Y-48466794D01*
X175053212Y-48323221D01*
X175240045Y-48149866D01*
X175398954Y-47950601D01*
X175526388Y-47729877D01*
X175619503Y-47492626D01*
X175676217Y-47244146D01*
X175695262Y-46990000D01*
X175695263Y-46989993D01*
X175695263Y-46989984D01*
X175681156Y-46801740D01*
X175676217Y-46735832D01*
X175619503Y-46487352D01*
X175526388Y-46250101D01*
X175398954Y-46029377D01*
X175240045Y-45830112D01*
X175053212Y-45656757D01*
X174842629Y-45513184D01*
X174842623Y-45513181D01*
X174842622Y-45513180D01*
X174842621Y-45513179D01*
X174613001Y-45402601D01*
X174613003Y-45402601D01*
X174369461Y-45327478D01*
X174369457Y-45327477D01*
X174369453Y-45327476D01*
X174244228Y-45308601D01*
X174117435Y-45289489D01*
X174117430Y-45289489D01*
X173862560Y-45289489D01*
X173862554Y-45289489D01*
X173705604Y-45313146D01*
X173610537Y-45327476D01*
X173610534Y-45327477D01*
X173610528Y-45327478D01*
X173366987Y-45402601D01*
X173137368Y-45513179D01*
X173137367Y-45513180D01*
X172926777Y-45656757D01*
X172739947Y-45830110D01*
X172739945Y-45830112D01*
X172581036Y-46029377D01*
X172453603Y-46250098D01*
X172360487Y-46487351D01*
X172360485Y-46487358D01*
X172303772Y-46735834D01*
X172284727Y-46989984D01*
X172284727Y-46989993D01*
X159185264Y-46989993D01*
X159185264Y-46989985D01*
X159166218Y-46735835D01*
X159166217Y-46735832D01*
X159109504Y-46487353D01*
X159016389Y-46250102D01*
X158888955Y-46029378D01*
X158730046Y-45830113D01*
X158543213Y-45656758D01*
X158332630Y-45513185D01*
X158332626Y-45513183D01*
X158332623Y-45513181D01*
X158332622Y-45513180D01*
X158103002Y-45402602D01*
X158103004Y-45402602D01*
X157859462Y-45327479D01*
X157859458Y-45327478D01*
X157859454Y-45327477D01*
X157734222Y-45308601D01*
X157607436Y-45289490D01*
X157607431Y-45289490D01*
X157352561Y-45289490D01*
X157352555Y-45289490D01*
X157195605Y-45313147D01*
X157100538Y-45327477D01*
X157100535Y-45327478D01*
X157100529Y-45327479D01*
X156856988Y-45402602D01*
X156627369Y-45513180D01*
X156627368Y-45513181D01*
X156416778Y-45656758D01*
X156229948Y-45830111D01*
X156229946Y-45830113D01*
X156071037Y-46029378D01*
X155943604Y-46250099D01*
X155850488Y-46487352D01*
X155850486Y-46487359D01*
X155793773Y-46735835D01*
X155774728Y-46989985D01*
X155774728Y-46989994D01*
X142675263Y-46989994D01*
X142675263Y-46989993D01*
X142675263Y-46989984D01*
X142661156Y-46801740D01*
X142656217Y-46735832D01*
X142599503Y-46487352D01*
X142506388Y-46250101D01*
X142378954Y-46029377D01*
X142220045Y-45830112D01*
X142033212Y-45656757D01*
X141822629Y-45513184D01*
X141822623Y-45513181D01*
X141822622Y-45513180D01*
X141822621Y-45513179D01*
X141593001Y-45402601D01*
X141593003Y-45402601D01*
X141349461Y-45327478D01*
X141349457Y-45327477D01*
X141349453Y-45327476D01*
X141224228Y-45308601D01*
X141097435Y-45289489D01*
X141097430Y-45289489D01*
X140842560Y-45289489D01*
X140842554Y-45289489D01*
X140685604Y-45313146D01*
X140590537Y-45327476D01*
X140590534Y-45327477D01*
X140590528Y-45327478D01*
X140346987Y-45402601D01*
X140117368Y-45513179D01*
X140117367Y-45513180D01*
X139906777Y-45656757D01*
X139719947Y-45830110D01*
X139719945Y-45830112D01*
X139561036Y-46029377D01*
X139433603Y-46250098D01*
X139340487Y-46487351D01*
X139340485Y-46487358D01*
X139283772Y-46735834D01*
X139264727Y-46989984D01*
X139264727Y-46989993D01*
X126165256Y-46989993D01*
X126165256Y-46989989D01*
X126146210Y-46735839D01*
X126146209Y-46735835D01*
X126089496Y-46487357D01*
X125996381Y-46250106D01*
X125868947Y-46029382D01*
X125710038Y-45830117D01*
X125523205Y-45656762D01*
X125312622Y-45513189D01*
X125312618Y-45513187D01*
X125312615Y-45513185D01*
X125312614Y-45513184D01*
X125082994Y-45402606D01*
X125082996Y-45402606D01*
X124839454Y-45327483D01*
X124839450Y-45327482D01*
X124839446Y-45327481D01*
X124714188Y-45308601D01*
X124587428Y-45289494D01*
X124587423Y-45289494D01*
X124332553Y-45289494D01*
X124332547Y-45289494D01*
X124175597Y-45313151D01*
X124080530Y-45327481D01*
X124080527Y-45327482D01*
X124080521Y-45327483D01*
X123836980Y-45402606D01*
X123607361Y-45513184D01*
X123607360Y-45513185D01*
X123396770Y-45656762D01*
X123209940Y-45830115D01*
X123209938Y-45830117D01*
X123051029Y-46029382D01*
X122923596Y-46250103D01*
X122830480Y-46487356D01*
X122830478Y-46487363D01*
X122773765Y-46735839D01*
X122754720Y-46989989D01*
X122754720Y-46989998D01*
X109728500Y-46989998D01*
X109728500Y-44118903D01*
X111641793Y-44118903D01*
X111651672Y-44426970D01*
X111651672Y-44426975D01*
X111651673Y-44426978D01*
X111700867Y-44731261D01*
X111745137Y-44880419D01*
X111788571Y-45026763D01*
X111904875Y-45289494D01*
X111913337Y-45308609D01*
X112073123Y-45572193D01*
X112073127Y-45572198D01*
X112073133Y-45572207D01*
X112265297Y-45813174D01*
X112265299Y-45813176D01*
X112265303Y-45813180D01*
X112265304Y-45813181D01*
X112486724Y-46027614D01*
X112653862Y-46152352D01*
X112733741Y-46211968D01*
X112733743Y-46211969D01*
X112733747Y-46211972D01*
X113002318Y-46363228D01*
X113143057Y-46420207D01*
X113288018Y-46478897D01*
X113288023Y-46478898D01*
X113288025Y-46478899D01*
X113586179Y-46557084D01*
X113891883Y-46596500D01*
X113891890Y-46596500D01*
X114122980Y-46596500D01*
X114221814Y-46590154D01*
X114353601Y-46581693D01*
X114656151Y-46522772D01*
X114948683Y-46425644D01*
X114948689Y-46425640D01*
X114948693Y-46425640D01*
X115174056Y-46317111D01*
X115226393Y-46291907D01*
X115484720Y-46123754D01*
X115719424Y-45923948D01*
X115926650Y-45695769D01*
X116102996Y-45442963D01*
X116245567Y-45169683D01*
X116352020Y-44880415D01*
X116420609Y-44579908D01*
X116450206Y-44273098D01*
X116445261Y-44118903D01*
X199525793Y-44118903D01*
X199535672Y-44426970D01*
X199535672Y-44426975D01*
X199535673Y-44426978D01*
X199584867Y-44731261D01*
X199629137Y-44880419D01*
X199672571Y-45026763D01*
X199788875Y-45289494D01*
X199797337Y-45308609D01*
X199957123Y-45572193D01*
X199957127Y-45572198D01*
X199957133Y-45572207D01*
X200149297Y-45813174D01*
X200149299Y-45813176D01*
X200149303Y-45813180D01*
X200149304Y-45813181D01*
X200370724Y-46027614D01*
X200537862Y-46152352D01*
X200617741Y-46211968D01*
X200617743Y-46211969D01*
X200617747Y-46211972D01*
X200886318Y-46363228D01*
X201027057Y-46420207D01*
X201172018Y-46478897D01*
X201172023Y-46478898D01*
X201172025Y-46478899D01*
X201470179Y-46557084D01*
X201775883Y-46596500D01*
X201775890Y-46596500D01*
X202006980Y-46596500D01*
X202105814Y-46590154D01*
X202237601Y-46581693D01*
X202540151Y-46522772D01*
X202832683Y-46425644D01*
X202832689Y-46425640D01*
X202832693Y-46425640D01*
X203058056Y-46317111D01*
X203110393Y-46291907D01*
X203368720Y-46123754D01*
X203603424Y-45923948D01*
X203810650Y-45695769D01*
X203986996Y-45442963D01*
X204129567Y-45169683D01*
X204236020Y-44880415D01*
X204304609Y-44579908D01*
X204334206Y-44273098D01*
X204324327Y-43965022D01*
X204275133Y-43660739D01*
X204187431Y-43365244D01*
X204187429Y-43365239D01*
X204187428Y-43365236D01*
X204062666Y-43083398D01*
X204062663Y-43083391D01*
X203902877Y-42819807D01*
X203902870Y-42819799D01*
X203902866Y-42819792D01*
X203710702Y-42578825D01*
X203710700Y-42578823D01*
X203489279Y-42364389D01*
X203489276Y-42364386D01*
X203360450Y-42268241D01*
X203242258Y-42180031D01*
X203242253Y-42180028D01*
X202973682Y-42028772D01*
X202936383Y-42013671D01*
X202687981Y-41913102D01*
X202520660Y-41869226D01*
X202389821Y-41834916D01*
X202084117Y-41795500D01*
X201853026Y-41795500D01*
X201853020Y-41795500D01*
X201622406Y-41810306D01*
X201622389Y-41810308D01*
X201319854Y-41869226D01*
X201319849Y-41869228D01*
X201027310Y-41966358D01*
X201027306Y-41966359D01*
X200749613Y-42100089D01*
X200749605Y-42100094D01*
X200491286Y-42268241D01*
X200491276Y-42268248D01*
X200256581Y-42468046D01*
X200256571Y-42468056D01*
X200049354Y-42696225D01*
X200049350Y-42696229D01*
X199873005Y-42949033D01*
X199873003Y-42949037D01*
X199730432Y-43222319D01*
X199730429Y-43222326D01*
X199623981Y-43511580D01*
X199623979Y-43511590D01*
X199555391Y-43812089D01*
X199525794Y-44118902D01*
X199525793Y-44118903D01*
X116445261Y-44118903D01*
X116440327Y-43965022D01*
X116391133Y-43660739D01*
X116303431Y-43365244D01*
X116303429Y-43365239D01*
X116303428Y-43365236D01*
X116178666Y-43083398D01*
X116178663Y-43083391D01*
X116018877Y-42819807D01*
X116018870Y-42819799D01*
X116018866Y-42819792D01*
X115826702Y-42578825D01*
X115826700Y-42578823D01*
X115605279Y-42364389D01*
X115605276Y-42364386D01*
X115476450Y-42268241D01*
X115358258Y-42180031D01*
X115358253Y-42180028D01*
X115089682Y-42028772D01*
X115052383Y-42013671D01*
X114803981Y-41913102D01*
X114636660Y-41869226D01*
X114505821Y-41834916D01*
X114200117Y-41795500D01*
X113969026Y-41795500D01*
X113969020Y-41795500D01*
X113738406Y-41810306D01*
X113738389Y-41810308D01*
X113435854Y-41869226D01*
X113435849Y-41869228D01*
X113143310Y-41966358D01*
X113143306Y-41966359D01*
X112865613Y-42100089D01*
X112865605Y-42100094D01*
X112607286Y-42268241D01*
X112607276Y-42268248D01*
X112372581Y-42468046D01*
X112372571Y-42468056D01*
X112165354Y-42696225D01*
X112165350Y-42696229D01*
X111989005Y-42949033D01*
X111989003Y-42949037D01*
X111846432Y-43222319D01*
X111846429Y-43222326D01*
X111739981Y-43511580D01*
X111739979Y-43511590D01*
X111671391Y-43812089D01*
X111641794Y-44118902D01*
X111641793Y-44118903D01*
X109728500Y-44118903D01*
X109728500Y-40129500D01*
X109748185Y-40062461D01*
X109800989Y-40016706D01*
X109852500Y-40005500D01*
X206123500Y-40005500D01*
X206190539Y-40025185D01*
G37*
%TD.AperFunction*%
%TD*%
M02*
