%TF.GenerationSoftware,KiCad,Pcbnew,7.0.8*%
%TF.CreationDate,2023-10-22T18:36:15+02:00*%
%TF.ProjectId,Second test with RGB LEDs,5365636f-6e64-4207-9465-737420776974,rev?*%
%TF.SameCoordinates,Original*%
%TF.FileFunction,Soldermask,Top*%
%TF.FilePolarity,Negative*%
%FSLAX46Y46*%
G04 Gerber Fmt 4.6, Leading zero omitted, Abs format (unit mm)*
G04 Created by KiCad (PCBNEW 7.0.8) date 2023-10-22 18:36:15*
%MOMM*%
%LPD*%
G01*
G04 APERTURE LIST*
G04 Aperture macros list*
%AMRoundRect*
0 Rectangle with rounded corners*
0 $1 Rounding radius*
0 $2 $3 $4 $5 $6 $7 $8 $9 X,Y pos of 4 corners*
0 Add a 4 corners polygon primitive as box body*
4,1,4,$2,$3,$4,$5,$6,$7,$8,$9,$2,$3,0*
0 Add four circle primitives for the rounded corners*
1,1,$1+$1,$2,$3*
1,1,$1+$1,$4,$5*
1,1,$1+$1,$6,$7*
1,1,$1+$1,$8,$9*
0 Add four rect primitives between the rounded corners*
20,1,$1+$1,$2,$3,$4,$5,0*
20,1,$1+$1,$4,$5,$6,$7,0*
20,1,$1+$1,$6,$7,$8,$9,0*
20,1,$1+$1,$8,$9,$2,$3,0*%
G04 Aperture macros list end*
%ADD10C,4.300000*%
%ADD11C,4.200000*%
%ADD12C,2.400000*%
%ADD13R,1.200000X0.819990*%
%ADD14R,1.700000X1.700000*%
%ADD15O,1.700000X1.700000*%
%ADD16RoundRect,0.200000X0.200000X0.275000X-0.200000X0.275000X-0.200000X-0.275000X0.200000X-0.275000X0*%
%ADD17RoundRect,0.200000X-0.200000X-0.275000X0.200000X-0.275000X0.200000X0.275000X-0.200000X0.275000X0*%
%ADD18O,2.231013X0.602007*%
G04 APERTURE END LIST*
D10*
%TO.C,REF\u002A\u002A*%
X201930000Y-44196000D03*
%TD*%
%TO.C,REF\u002A\u002A*%
X201930000Y-75692000D03*
%TD*%
%TO.C,REF\u002A\u002A*%
X114046000Y-44196000D03*
%TD*%
%TO.C,REF\u002A\u002A*%
X114046000Y-75692000D03*
%TD*%
D11*
%TO.C,KEY4*%
X126999993Y-52070005D03*
D12*
X130810000Y-49530000D03*
X124459988Y-46989994D03*
%TD*%
D11*
%TO.C,KEY1*%
X176530000Y-52070000D03*
D12*
X180340007Y-49529995D03*
X173989995Y-46989989D03*
%TD*%
D11*
%TO.C,KEY8*%
X176529993Y-68580005D03*
D12*
X180340000Y-66040000D03*
X173989988Y-63499994D03*
%TD*%
D11*
%TO.C,KEY3*%
X143510000Y-52070000D03*
D12*
X147320007Y-49529995D03*
X140969995Y-46989989D03*
%TD*%
D11*
%TO.C,KEY7*%
X160019993Y-68580005D03*
D12*
X163830000Y-66040000D03*
X157479988Y-63499994D03*
%TD*%
D11*
%TO.C,KEY5*%
X126999993Y-68580005D03*
D12*
X130810000Y-66040000D03*
X124459988Y-63499994D03*
%TD*%
D11*
%TO.C,KEY2*%
X160020001Y-52070001D03*
D12*
X163830008Y-49529996D03*
X157479996Y-46989990D03*
%TD*%
D11*
%TO.C,KEY6*%
X143509993Y-68580005D03*
D12*
X147320000Y-66040000D03*
X140969988Y-63499994D03*
%TD*%
D13*
%TO.C,D2*%
X157520000Y-57900064D03*
X157520000Y-56399936D03*
X162520000Y-56399936D03*
X162520000Y-57900064D03*
%TD*%
%TO.C,D3*%
X141010000Y-57900064D03*
X141010000Y-56399936D03*
X146010000Y-56399936D03*
X146010000Y-57900064D03*
%TD*%
%TO.C,D5*%
X129500000Y-72909936D03*
X129500000Y-74410064D03*
X124500000Y-74410064D03*
X124500000Y-72909936D03*
%TD*%
%TO.C,D1*%
X174284000Y-57900064D03*
X174284000Y-56399936D03*
X179284000Y-56399936D03*
X179284000Y-57900064D03*
%TD*%
%TO.C,D6*%
X146010000Y-72909936D03*
X146010000Y-74410064D03*
X141010000Y-74410064D03*
X141010000Y-72909936D03*
%TD*%
%TO.C,D4*%
X124500000Y-57900064D03*
X124500000Y-56399936D03*
X129500000Y-56399936D03*
X129500000Y-57900064D03*
%TD*%
%TO.C,D7*%
X162520000Y-72909936D03*
X162520000Y-74410064D03*
X157520000Y-74410064D03*
X157520000Y-72909936D03*
%TD*%
%TO.C,D8*%
X179030000Y-72909936D03*
X179030000Y-74410064D03*
X174030000Y-74410064D03*
X174030000Y-72909936D03*
%TD*%
D14*
%TO.C,J1*%
X190241000Y-59944000D03*
D15*
X192781000Y-59944000D03*
X190241000Y-62484000D03*
X192781000Y-62484000D03*
X190241000Y-65024000D03*
X192781000Y-65024000D03*
X190241000Y-67564000D03*
X192781000Y-67564000D03*
X190241000Y-70104000D03*
X192781000Y-70104000D03*
X190241000Y-72644000D03*
X192781000Y-72644000D03*
X190241000Y-75184000D03*
X192781000Y-75184000D03*
%TD*%
D16*
%TO.C,R2*%
X183385000Y-68580000D03*
X181735000Y-68580000D03*
%TD*%
D17*
%TO.C,R3*%
X165200000Y-52070000D03*
X166850000Y-52070000D03*
%TD*%
D16*
%TO.C,R8*%
X133855000Y-68580000D03*
X132205000Y-68580000D03*
%TD*%
D17*
%TO.C,R7*%
X132205000Y-52070000D03*
X133855000Y-52070000D03*
%TD*%
%TO.C,R5*%
X148715000Y-52070000D03*
X150365000Y-52070000D03*
%TD*%
D16*
%TO.C,R6*%
X150365000Y-68580000D03*
X148715000Y-68580000D03*
%TD*%
D17*
%TO.C,R1*%
X181735000Y-52070000D03*
X183385000Y-52070000D03*
%TD*%
D16*
%TO.C,R4*%
X166875000Y-68580000D03*
X165225000Y-68580000D03*
%TD*%
D18*
%TO.C,U1*%
X187941190Y-45212000D03*
X187941190Y-46482003D03*
X187941190Y-47752005D03*
X187941190Y-49022008D03*
X187941190Y-50292010D03*
X187941190Y-51562013D03*
X187941190Y-52832015D03*
X187941190Y-54102018D03*
X195072000Y-54102018D03*
X195072000Y-52832015D03*
X195072000Y-51562013D03*
X195072000Y-50292010D03*
X195072000Y-49022008D03*
X195072000Y-47752005D03*
X195072000Y-46482003D03*
X195072000Y-45212000D03*
%TD*%
M02*
