%TF.GenerationSoftware,KiCad,Pcbnew,7.0.8*%
%TF.CreationDate,2023-10-22T18:36:18+02:00*%
%TF.ProjectId,Second test with RGB LEDs,5365636f-6e64-4207-9465-737420776974,rev?*%
%TF.SameCoordinates,Original*%
%TF.FileFunction,Drillmap*%
%TF.FilePolarity,Positive*%
%FSLAX45Y45*%
G04 Gerber Fmt 4.5, Leading zero omitted, Abs format (unit mm)*
G04 Created by KiCad (PCBNEW 7.0.8) date 2023-10-22 18:36:18*
%MOMM*%
%LPD*%
G01*
G04 APERTURE LIST*
%ADD10C,0.100000*%
%ADD11C,0.200000*%
%ADD12C,0.420000*%
%ADD13C,0.430000*%
G04 APERTURE END LIST*
D10*
X20624800Y-8001000D02*
X10972800Y-8001000D01*
X10972800Y-4000500D02*
X10972800Y-8001000D01*
X10972800Y-4000500D02*
X20624800Y-4000500D01*
X20624800Y-4000500D02*
X20624800Y-8001000D01*
D11*
D12*
X12489999Y-4997001D02*
X12909999Y-5417001D01*
X12909999Y-4997001D02*
X12489999Y-5417001D01*
X12489999Y-6648000D02*
X12909999Y-7068000D01*
X12909999Y-6648000D02*
X12489999Y-7068000D01*
X14140999Y-6648000D02*
X14560999Y-7068000D01*
X14560999Y-6648000D02*
X14140999Y-7068000D01*
X14141000Y-4997000D02*
X14561000Y-5417000D01*
X14561000Y-4997000D02*
X14141000Y-5417000D01*
X15791999Y-6648000D02*
X16211999Y-7068000D01*
X16211999Y-6648000D02*
X15791999Y-7068000D01*
X15792000Y-4997000D02*
X16212000Y-5417000D01*
X16212000Y-4997000D02*
X15792000Y-5417000D01*
X17442999Y-6648000D02*
X17862999Y-7068000D01*
X17862999Y-6648000D02*
X17442999Y-7068000D01*
X17443000Y-4997000D02*
X17863000Y-5417000D01*
X17863000Y-4997000D02*
X17443000Y-5417000D01*
D13*
X11619600Y-4419600D02*
G75*
G03*
X11619600Y-4419600I-215000J0D01*
G01*
X11619600Y-7569200D02*
G75*
G03*
X11619600Y-7569200I-215000J0D01*
G01*
X20408000Y-4419600D02*
G75*
G03*
X20408000Y-4419600I-215000J0D01*
G01*
X20408000Y-7569200D02*
G75*
G03*
X20408000Y-7569200I-215000J0D01*
G01*
D11*
X11228577Y-8317484D02*
X11228577Y-8117484D01*
X11228577Y-8117484D02*
X11276196Y-8117484D01*
X11276196Y-8117484D02*
X11304767Y-8127008D01*
X11304767Y-8127008D02*
X11323815Y-8146055D01*
X11323815Y-8146055D02*
X11333339Y-8165103D01*
X11333339Y-8165103D02*
X11342862Y-8203198D01*
X11342862Y-8203198D02*
X11342862Y-8231769D01*
X11342862Y-8231769D02*
X11333339Y-8269865D01*
X11333339Y-8269865D02*
X11323815Y-8288912D01*
X11323815Y-8288912D02*
X11304767Y-8307960D01*
X11304767Y-8307960D02*
X11276196Y-8317484D01*
X11276196Y-8317484D02*
X11228577Y-8317484D01*
X11428577Y-8317484D02*
X11428577Y-8184150D01*
X11428577Y-8222246D02*
X11438101Y-8203198D01*
X11438101Y-8203198D02*
X11447624Y-8193674D01*
X11447624Y-8193674D02*
X11466672Y-8184150D01*
X11466672Y-8184150D02*
X11485720Y-8184150D01*
X11552386Y-8317484D02*
X11552386Y-8184150D01*
X11552386Y-8117484D02*
X11542862Y-8127008D01*
X11542862Y-8127008D02*
X11552386Y-8136531D01*
X11552386Y-8136531D02*
X11561910Y-8127008D01*
X11561910Y-8127008D02*
X11552386Y-8117484D01*
X11552386Y-8117484D02*
X11552386Y-8136531D01*
X11676196Y-8317484D02*
X11657148Y-8307960D01*
X11657148Y-8307960D02*
X11647624Y-8288912D01*
X11647624Y-8288912D02*
X11647624Y-8117484D01*
X11780958Y-8317484D02*
X11761910Y-8307960D01*
X11761910Y-8307960D02*
X11752386Y-8288912D01*
X11752386Y-8288912D02*
X11752386Y-8117484D01*
X12009529Y-8317484D02*
X12009529Y-8117484D01*
X12009529Y-8117484D02*
X12076196Y-8260341D01*
X12076196Y-8260341D02*
X12142862Y-8117484D01*
X12142862Y-8117484D02*
X12142862Y-8317484D01*
X12323815Y-8317484D02*
X12323815Y-8212722D01*
X12323815Y-8212722D02*
X12314291Y-8193674D01*
X12314291Y-8193674D02*
X12295243Y-8184150D01*
X12295243Y-8184150D02*
X12257148Y-8184150D01*
X12257148Y-8184150D02*
X12238101Y-8193674D01*
X12323815Y-8307960D02*
X12304767Y-8317484D01*
X12304767Y-8317484D02*
X12257148Y-8317484D01*
X12257148Y-8317484D02*
X12238101Y-8307960D01*
X12238101Y-8307960D02*
X12228577Y-8288912D01*
X12228577Y-8288912D02*
X12228577Y-8269865D01*
X12228577Y-8269865D02*
X12238101Y-8250817D01*
X12238101Y-8250817D02*
X12257148Y-8241293D01*
X12257148Y-8241293D02*
X12304767Y-8241293D01*
X12304767Y-8241293D02*
X12323815Y-8231769D01*
X12419053Y-8184150D02*
X12419053Y-8384150D01*
X12419053Y-8193674D02*
X12438101Y-8184150D01*
X12438101Y-8184150D02*
X12476196Y-8184150D01*
X12476196Y-8184150D02*
X12495243Y-8193674D01*
X12495243Y-8193674D02*
X12504767Y-8203198D01*
X12504767Y-8203198D02*
X12514291Y-8222246D01*
X12514291Y-8222246D02*
X12514291Y-8279388D01*
X12514291Y-8279388D02*
X12504767Y-8298436D01*
X12504767Y-8298436D02*
X12495243Y-8307960D01*
X12495243Y-8307960D02*
X12476196Y-8317484D01*
X12476196Y-8317484D02*
X12438101Y-8317484D01*
X12438101Y-8317484D02*
X12419053Y-8307960D01*
X12600005Y-8298436D02*
X12609529Y-8307960D01*
X12609529Y-8307960D02*
X12600005Y-8317484D01*
X12600005Y-8317484D02*
X12590482Y-8307960D01*
X12590482Y-8307960D02*
X12600005Y-8298436D01*
X12600005Y-8298436D02*
X12600005Y-8317484D01*
X12600005Y-8193674D02*
X12609529Y-8203198D01*
X12609529Y-8203198D02*
X12600005Y-8212722D01*
X12600005Y-8212722D02*
X12590482Y-8203198D01*
X12590482Y-8203198D02*
X12600005Y-8193674D01*
X12600005Y-8193674D02*
X12600005Y-8212722D01*
X10767800Y-8546000D02*
X10967800Y-8746000D01*
X10967800Y-8546000D02*
X10767800Y-8746000D01*
X11314291Y-8604150D02*
X11314291Y-8737484D01*
X11266672Y-8527960D02*
X11219053Y-8670817D01*
X11219053Y-8670817D02*
X11342862Y-8670817D01*
X11419053Y-8718436D02*
X11428577Y-8727960D01*
X11428577Y-8727960D02*
X11419053Y-8737484D01*
X11419053Y-8737484D02*
X11409529Y-8727960D01*
X11409529Y-8727960D02*
X11419053Y-8718436D01*
X11419053Y-8718436D02*
X11419053Y-8737484D01*
X11504767Y-8556531D02*
X11514291Y-8547008D01*
X11514291Y-8547008D02*
X11533339Y-8537484D01*
X11533339Y-8537484D02*
X11580958Y-8537484D01*
X11580958Y-8537484D02*
X11600005Y-8547008D01*
X11600005Y-8547008D02*
X11609529Y-8556531D01*
X11609529Y-8556531D02*
X11619053Y-8575579D01*
X11619053Y-8575579D02*
X11619053Y-8594627D01*
X11619053Y-8594627D02*
X11609529Y-8623198D01*
X11609529Y-8623198D02*
X11495243Y-8737484D01*
X11495243Y-8737484D02*
X11619053Y-8737484D01*
X11742862Y-8537484D02*
X11761910Y-8537484D01*
X11761910Y-8537484D02*
X11780958Y-8547008D01*
X11780958Y-8547008D02*
X11790482Y-8556531D01*
X11790482Y-8556531D02*
X11800005Y-8575579D01*
X11800005Y-8575579D02*
X11809529Y-8613674D01*
X11809529Y-8613674D02*
X11809529Y-8661293D01*
X11809529Y-8661293D02*
X11800005Y-8699389D01*
X11800005Y-8699389D02*
X11790482Y-8718436D01*
X11790482Y-8718436D02*
X11780958Y-8727960D01*
X11780958Y-8727960D02*
X11761910Y-8737484D01*
X11761910Y-8737484D02*
X11742862Y-8737484D01*
X11742862Y-8737484D02*
X11723815Y-8727960D01*
X11723815Y-8727960D02*
X11714291Y-8718436D01*
X11714291Y-8718436D02*
X11704767Y-8699389D01*
X11704767Y-8699389D02*
X11695243Y-8661293D01*
X11695243Y-8661293D02*
X11695243Y-8613674D01*
X11695243Y-8613674D02*
X11704767Y-8575579D01*
X11704767Y-8575579D02*
X11714291Y-8556531D01*
X11714291Y-8556531D02*
X11723815Y-8547008D01*
X11723815Y-8547008D02*
X11742862Y-8537484D01*
X11933339Y-8537484D02*
X11952386Y-8537484D01*
X11952386Y-8537484D02*
X11971434Y-8547008D01*
X11971434Y-8547008D02*
X11980958Y-8556531D01*
X11980958Y-8556531D02*
X11990482Y-8575579D01*
X11990482Y-8575579D02*
X12000005Y-8613674D01*
X12000005Y-8613674D02*
X12000005Y-8661293D01*
X12000005Y-8661293D02*
X11990482Y-8699389D01*
X11990482Y-8699389D02*
X11980958Y-8718436D01*
X11980958Y-8718436D02*
X11971434Y-8727960D01*
X11971434Y-8727960D02*
X11952386Y-8737484D01*
X11952386Y-8737484D02*
X11933339Y-8737484D01*
X11933339Y-8737484D02*
X11914291Y-8727960D01*
X11914291Y-8727960D02*
X11904767Y-8718436D01*
X11904767Y-8718436D02*
X11895243Y-8699389D01*
X11895243Y-8699389D02*
X11885720Y-8661293D01*
X11885720Y-8661293D02*
X11885720Y-8613674D01*
X11885720Y-8613674D02*
X11895243Y-8575579D01*
X11895243Y-8575579D02*
X11904767Y-8556531D01*
X11904767Y-8556531D02*
X11914291Y-8547008D01*
X11914291Y-8547008D02*
X11933339Y-8537484D01*
X12085720Y-8737484D02*
X12085720Y-8604150D01*
X12085720Y-8623198D02*
X12095243Y-8613674D01*
X12095243Y-8613674D02*
X12114291Y-8604150D01*
X12114291Y-8604150D02*
X12142863Y-8604150D01*
X12142863Y-8604150D02*
X12161910Y-8613674D01*
X12161910Y-8613674D02*
X12171434Y-8632722D01*
X12171434Y-8632722D02*
X12171434Y-8737484D01*
X12171434Y-8632722D02*
X12180958Y-8613674D01*
X12180958Y-8613674D02*
X12200005Y-8604150D01*
X12200005Y-8604150D02*
X12228577Y-8604150D01*
X12228577Y-8604150D02*
X12247624Y-8613674D01*
X12247624Y-8613674D02*
X12257148Y-8632722D01*
X12257148Y-8632722D02*
X12257148Y-8737484D01*
X12352386Y-8737484D02*
X12352386Y-8604150D01*
X12352386Y-8623198D02*
X12361910Y-8613674D01*
X12361910Y-8613674D02*
X12380958Y-8604150D01*
X12380958Y-8604150D02*
X12409529Y-8604150D01*
X12409529Y-8604150D02*
X12428577Y-8613674D01*
X12428577Y-8613674D02*
X12438101Y-8632722D01*
X12438101Y-8632722D02*
X12438101Y-8737484D01*
X12438101Y-8632722D02*
X12447624Y-8613674D01*
X12447624Y-8613674D02*
X12466672Y-8604150D01*
X12466672Y-8604150D02*
X12495243Y-8604150D01*
X12495243Y-8604150D02*
X12514291Y-8613674D01*
X12514291Y-8613674D02*
X12523815Y-8632722D01*
X12523815Y-8632722D02*
X12523815Y-8737484D01*
X12914291Y-8527960D02*
X12742863Y-8785103D01*
X13171434Y-8537484D02*
X13190482Y-8537484D01*
X13190482Y-8537484D02*
X13209529Y-8547008D01*
X13209529Y-8547008D02*
X13219053Y-8556531D01*
X13219053Y-8556531D02*
X13228577Y-8575579D01*
X13228577Y-8575579D02*
X13238101Y-8613674D01*
X13238101Y-8613674D02*
X13238101Y-8661293D01*
X13238101Y-8661293D02*
X13228577Y-8699389D01*
X13228577Y-8699389D02*
X13219053Y-8718436D01*
X13219053Y-8718436D02*
X13209529Y-8727960D01*
X13209529Y-8727960D02*
X13190482Y-8737484D01*
X13190482Y-8737484D02*
X13171434Y-8737484D01*
X13171434Y-8737484D02*
X13152386Y-8727960D01*
X13152386Y-8727960D02*
X13142863Y-8718436D01*
X13142863Y-8718436D02*
X13133339Y-8699389D01*
X13133339Y-8699389D02*
X13123815Y-8661293D01*
X13123815Y-8661293D02*
X13123815Y-8613674D01*
X13123815Y-8613674D02*
X13133339Y-8575579D01*
X13133339Y-8575579D02*
X13142863Y-8556531D01*
X13142863Y-8556531D02*
X13152386Y-8547008D01*
X13152386Y-8547008D02*
X13171434Y-8537484D01*
X13323815Y-8718436D02*
X13333339Y-8727960D01*
X13333339Y-8727960D02*
X13323815Y-8737484D01*
X13323815Y-8737484D02*
X13314291Y-8727960D01*
X13314291Y-8727960D02*
X13323815Y-8718436D01*
X13323815Y-8718436D02*
X13323815Y-8737484D01*
X13523815Y-8737484D02*
X13409529Y-8737484D01*
X13466672Y-8737484D02*
X13466672Y-8537484D01*
X13466672Y-8537484D02*
X13447625Y-8566055D01*
X13447625Y-8566055D02*
X13428577Y-8585103D01*
X13428577Y-8585103D02*
X13409529Y-8594627D01*
X13695244Y-8537484D02*
X13657148Y-8537484D01*
X13657148Y-8537484D02*
X13638101Y-8547008D01*
X13638101Y-8547008D02*
X13628577Y-8556531D01*
X13628577Y-8556531D02*
X13609529Y-8585103D01*
X13609529Y-8585103D02*
X13600006Y-8623198D01*
X13600006Y-8623198D02*
X13600006Y-8699389D01*
X13600006Y-8699389D02*
X13609529Y-8718436D01*
X13609529Y-8718436D02*
X13619053Y-8727960D01*
X13619053Y-8727960D02*
X13638101Y-8737484D01*
X13638101Y-8737484D02*
X13676196Y-8737484D01*
X13676196Y-8737484D02*
X13695244Y-8727960D01*
X13695244Y-8727960D02*
X13704767Y-8718436D01*
X13704767Y-8718436D02*
X13714291Y-8699389D01*
X13714291Y-8699389D02*
X13714291Y-8651770D01*
X13714291Y-8651770D02*
X13704767Y-8632722D01*
X13704767Y-8632722D02*
X13695244Y-8623198D01*
X13695244Y-8623198D02*
X13676196Y-8613674D01*
X13676196Y-8613674D02*
X13638101Y-8613674D01*
X13638101Y-8613674D02*
X13619053Y-8623198D01*
X13619053Y-8623198D02*
X13609529Y-8632722D01*
X13609529Y-8632722D02*
X13600006Y-8651770D01*
X13895244Y-8537484D02*
X13800006Y-8537484D01*
X13800006Y-8537484D02*
X13790482Y-8632722D01*
X13790482Y-8632722D02*
X13800006Y-8623198D01*
X13800006Y-8623198D02*
X13819053Y-8613674D01*
X13819053Y-8613674D02*
X13866672Y-8613674D01*
X13866672Y-8613674D02*
X13885720Y-8623198D01*
X13885720Y-8623198D02*
X13895244Y-8632722D01*
X13895244Y-8632722D02*
X13904767Y-8651770D01*
X13904767Y-8651770D02*
X13904767Y-8699389D01*
X13904767Y-8699389D02*
X13895244Y-8718436D01*
X13895244Y-8718436D02*
X13885720Y-8727960D01*
X13885720Y-8727960D02*
X13866672Y-8737484D01*
X13866672Y-8737484D02*
X13819053Y-8737484D01*
X13819053Y-8737484D02*
X13800006Y-8727960D01*
X13800006Y-8727960D02*
X13790482Y-8718436D01*
X14076196Y-8604150D02*
X14076196Y-8737484D01*
X14028577Y-8527960D02*
X13980958Y-8670817D01*
X13980958Y-8670817D02*
X14104767Y-8670817D01*
X14171434Y-8537484D02*
X14171434Y-8575579D01*
X14247625Y-8537484D02*
X14247625Y-8575579D01*
X14542863Y-8813674D02*
X14533339Y-8804150D01*
X14533339Y-8804150D02*
X14514291Y-8775579D01*
X14514291Y-8775579D02*
X14504768Y-8756531D01*
X14504768Y-8756531D02*
X14495244Y-8727960D01*
X14495244Y-8727960D02*
X14485720Y-8680341D01*
X14485720Y-8680341D02*
X14485720Y-8642246D01*
X14485720Y-8642246D02*
X14495244Y-8594627D01*
X14495244Y-8594627D02*
X14504768Y-8566055D01*
X14504768Y-8566055D02*
X14514291Y-8547008D01*
X14514291Y-8547008D02*
X14533339Y-8518436D01*
X14533339Y-8518436D02*
X14542863Y-8508912D01*
X14647625Y-8623198D02*
X14628577Y-8613674D01*
X14628577Y-8613674D02*
X14619053Y-8604150D01*
X14619053Y-8604150D02*
X14609529Y-8585103D01*
X14609529Y-8585103D02*
X14609529Y-8575579D01*
X14609529Y-8575579D02*
X14619053Y-8556531D01*
X14619053Y-8556531D02*
X14628577Y-8547008D01*
X14628577Y-8547008D02*
X14647625Y-8537484D01*
X14647625Y-8537484D02*
X14685720Y-8537484D01*
X14685720Y-8537484D02*
X14704768Y-8547008D01*
X14704768Y-8547008D02*
X14714291Y-8556531D01*
X14714291Y-8556531D02*
X14723815Y-8575579D01*
X14723815Y-8575579D02*
X14723815Y-8585103D01*
X14723815Y-8585103D02*
X14714291Y-8604150D01*
X14714291Y-8604150D02*
X14704768Y-8613674D01*
X14704768Y-8613674D02*
X14685720Y-8623198D01*
X14685720Y-8623198D02*
X14647625Y-8623198D01*
X14647625Y-8623198D02*
X14628577Y-8632722D01*
X14628577Y-8632722D02*
X14619053Y-8642246D01*
X14619053Y-8642246D02*
X14609529Y-8661293D01*
X14609529Y-8661293D02*
X14609529Y-8699389D01*
X14609529Y-8699389D02*
X14619053Y-8718436D01*
X14619053Y-8718436D02*
X14628577Y-8727960D01*
X14628577Y-8727960D02*
X14647625Y-8737484D01*
X14647625Y-8737484D02*
X14685720Y-8737484D01*
X14685720Y-8737484D02*
X14704768Y-8727960D01*
X14704768Y-8727960D02*
X14714291Y-8718436D01*
X14714291Y-8718436D02*
X14723815Y-8699389D01*
X14723815Y-8699389D02*
X14723815Y-8661293D01*
X14723815Y-8661293D02*
X14714291Y-8642246D01*
X14714291Y-8642246D02*
X14704768Y-8632722D01*
X14704768Y-8632722D02*
X14685720Y-8623198D01*
X14961910Y-8737484D02*
X14961910Y-8537484D01*
X15047625Y-8737484D02*
X15047625Y-8632722D01*
X15047625Y-8632722D02*
X15038101Y-8613674D01*
X15038101Y-8613674D02*
X15019053Y-8604150D01*
X15019053Y-8604150D02*
X14990482Y-8604150D01*
X14990482Y-8604150D02*
X14971434Y-8613674D01*
X14971434Y-8613674D02*
X14961910Y-8623198D01*
X15171434Y-8737484D02*
X15152387Y-8727960D01*
X15152387Y-8727960D02*
X15142863Y-8718436D01*
X15142863Y-8718436D02*
X15133339Y-8699389D01*
X15133339Y-8699389D02*
X15133339Y-8642246D01*
X15133339Y-8642246D02*
X15142863Y-8623198D01*
X15142863Y-8623198D02*
X15152387Y-8613674D01*
X15152387Y-8613674D02*
X15171434Y-8604150D01*
X15171434Y-8604150D02*
X15200006Y-8604150D01*
X15200006Y-8604150D02*
X15219053Y-8613674D01*
X15219053Y-8613674D02*
X15228577Y-8623198D01*
X15228577Y-8623198D02*
X15238101Y-8642246D01*
X15238101Y-8642246D02*
X15238101Y-8699389D01*
X15238101Y-8699389D02*
X15228577Y-8718436D01*
X15228577Y-8718436D02*
X15219053Y-8727960D01*
X15219053Y-8727960D02*
X15200006Y-8737484D01*
X15200006Y-8737484D02*
X15171434Y-8737484D01*
X15352387Y-8737484D02*
X15333339Y-8727960D01*
X15333339Y-8727960D02*
X15323815Y-8708912D01*
X15323815Y-8708912D02*
X15323815Y-8537484D01*
X15504768Y-8727960D02*
X15485720Y-8737484D01*
X15485720Y-8737484D02*
X15447625Y-8737484D01*
X15447625Y-8737484D02*
X15428577Y-8727960D01*
X15428577Y-8727960D02*
X15419053Y-8708912D01*
X15419053Y-8708912D02*
X15419053Y-8632722D01*
X15419053Y-8632722D02*
X15428577Y-8613674D01*
X15428577Y-8613674D02*
X15447625Y-8604150D01*
X15447625Y-8604150D02*
X15485720Y-8604150D01*
X15485720Y-8604150D02*
X15504768Y-8613674D01*
X15504768Y-8613674D02*
X15514291Y-8632722D01*
X15514291Y-8632722D02*
X15514291Y-8651770D01*
X15514291Y-8651770D02*
X15419053Y-8670817D01*
X15590482Y-8727960D02*
X15609530Y-8737484D01*
X15609530Y-8737484D02*
X15647625Y-8737484D01*
X15647625Y-8737484D02*
X15666672Y-8727960D01*
X15666672Y-8727960D02*
X15676196Y-8708912D01*
X15676196Y-8708912D02*
X15676196Y-8699389D01*
X15676196Y-8699389D02*
X15666672Y-8680341D01*
X15666672Y-8680341D02*
X15647625Y-8670817D01*
X15647625Y-8670817D02*
X15619053Y-8670817D01*
X15619053Y-8670817D02*
X15600006Y-8661293D01*
X15600006Y-8661293D02*
X15590482Y-8642246D01*
X15590482Y-8642246D02*
X15590482Y-8632722D01*
X15590482Y-8632722D02*
X15600006Y-8613674D01*
X15600006Y-8613674D02*
X15619053Y-8604150D01*
X15619053Y-8604150D02*
X15647625Y-8604150D01*
X15647625Y-8604150D02*
X15666672Y-8613674D01*
X15742863Y-8813674D02*
X15752387Y-8804150D01*
X15752387Y-8804150D02*
X15771434Y-8775579D01*
X15771434Y-8775579D02*
X15780958Y-8756531D01*
X15780958Y-8756531D02*
X15790482Y-8727960D01*
X15790482Y-8727960D02*
X15800006Y-8680341D01*
X15800006Y-8680341D02*
X15800006Y-8642246D01*
X15800006Y-8642246D02*
X15790482Y-8594627D01*
X15790482Y-8594627D02*
X15780958Y-8566055D01*
X15780958Y-8566055D02*
X15771434Y-8547008D01*
X15771434Y-8547008D02*
X15752387Y-8518436D01*
X15752387Y-8518436D02*
X15742863Y-8508912D01*
X16104768Y-8813674D02*
X16095244Y-8804150D01*
X16095244Y-8804150D02*
X16076196Y-8775579D01*
X16076196Y-8775579D02*
X16066672Y-8756531D01*
X16066672Y-8756531D02*
X16057149Y-8727960D01*
X16057149Y-8727960D02*
X16047625Y-8680341D01*
X16047625Y-8680341D02*
X16047625Y-8642246D01*
X16047625Y-8642246D02*
X16057149Y-8594627D01*
X16057149Y-8594627D02*
X16066672Y-8566055D01*
X16066672Y-8566055D02*
X16076196Y-8547008D01*
X16076196Y-8547008D02*
X16095244Y-8518436D01*
X16095244Y-8518436D02*
X16104768Y-8508912D01*
X16180958Y-8604150D02*
X16180958Y-8737484D01*
X16180958Y-8623198D02*
X16190482Y-8613674D01*
X16190482Y-8613674D02*
X16209530Y-8604150D01*
X16209530Y-8604150D02*
X16238101Y-8604150D01*
X16238101Y-8604150D02*
X16257149Y-8613674D01*
X16257149Y-8613674D02*
X16266672Y-8632722D01*
X16266672Y-8632722D02*
X16266672Y-8737484D01*
X16390482Y-8737484D02*
X16371434Y-8727960D01*
X16371434Y-8727960D02*
X16361911Y-8718436D01*
X16361911Y-8718436D02*
X16352387Y-8699389D01*
X16352387Y-8699389D02*
X16352387Y-8642246D01*
X16352387Y-8642246D02*
X16361911Y-8623198D01*
X16361911Y-8623198D02*
X16371434Y-8613674D01*
X16371434Y-8613674D02*
X16390482Y-8604150D01*
X16390482Y-8604150D02*
X16419053Y-8604150D01*
X16419053Y-8604150D02*
X16438101Y-8613674D01*
X16438101Y-8613674D02*
X16447625Y-8623198D01*
X16447625Y-8623198D02*
X16457149Y-8642246D01*
X16457149Y-8642246D02*
X16457149Y-8699389D01*
X16457149Y-8699389D02*
X16447625Y-8718436D01*
X16447625Y-8718436D02*
X16438101Y-8727960D01*
X16438101Y-8727960D02*
X16419053Y-8737484D01*
X16419053Y-8737484D02*
X16390482Y-8737484D01*
X16514292Y-8604150D02*
X16590482Y-8604150D01*
X16542863Y-8537484D02*
X16542863Y-8708912D01*
X16542863Y-8708912D02*
X16552387Y-8727960D01*
X16552387Y-8727960D02*
X16571434Y-8737484D01*
X16571434Y-8737484D02*
X16590482Y-8737484D01*
X16809530Y-8604150D02*
X16809530Y-8804150D01*
X16809530Y-8613674D02*
X16828577Y-8604150D01*
X16828577Y-8604150D02*
X16866673Y-8604150D01*
X16866673Y-8604150D02*
X16885720Y-8613674D01*
X16885720Y-8613674D02*
X16895244Y-8623198D01*
X16895244Y-8623198D02*
X16904768Y-8642246D01*
X16904768Y-8642246D02*
X16904768Y-8699389D01*
X16904768Y-8699389D02*
X16895244Y-8718436D01*
X16895244Y-8718436D02*
X16885720Y-8727960D01*
X16885720Y-8727960D02*
X16866673Y-8737484D01*
X16866673Y-8737484D02*
X16828577Y-8737484D01*
X16828577Y-8737484D02*
X16809530Y-8727960D01*
X17019054Y-8737484D02*
X17000006Y-8727960D01*
X17000006Y-8727960D02*
X16990482Y-8708912D01*
X16990482Y-8708912D02*
X16990482Y-8537484D01*
X17180958Y-8737484D02*
X17180958Y-8632722D01*
X17180958Y-8632722D02*
X17171435Y-8613674D01*
X17171435Y-8613674D02*
X17152387Y-8604150D01*
X17152387Y-8604150D02*
X17114292Y-8604150D01*
X17114292Y-8604150D02*
X17095244Y-8613674D01*
X17180958Y-8727960D02*
X17161911Y-8737484D01*
X17161911Y-8737484D02*
X17114292Y-8737484D01*
X17114292Y-8737484D02*
X17095244Y-8727960D01*
X17095244Y-8727960D02*
X17085720Y-8708912D01*
X17085720Y-8708912D02*
X17085720Y-8689865D01*
X17085720Y-8689865D02*
X17095244Y-8670817D01*
X17095244Y-8670817D02*
X17114292Y-8661293D01*
X17114292Y-8661293D02*
X17161911Y-8661293D01*
X17161911Y-8661293D02*
X17180958Y-8651770D01*
X17247625Y-8604150D02*
X17323815Y-8604150D01*
X17276196Y-8537484D02*
X17276196Y-8708912D01*
X17276196Y-8708912D02*
X17285720Y-8727960D01*
X17285720Y-8727960D02*
X17304768Y-8737484D01*
X17304768Y-8737484D02*
X17323815Y-8737484D01*
X17466673Y-8727960D02*
X17447625Y-8737484D01*
X17447625Y-8737484D02*
X17409530Y-8737484D01*
X17409530Y-8737484D02*
X17390482Y-8727960D01*
X17390482Y-8727960D02*
X17380958Y-8708912D01*
X17380958Y-8708912D02*
X17380958Y-8632722D01*
X17380958Y-8632722D02*
X17390482Y-8613674D01*
X17390482Y-8613674D02*
X17409530Y-8604150D01*
X17409530Y-8604150D02*
X17447625Y-8604150D01*
X17447625Y-8604150D02*
X17466673Y-8613674D01*
X17466673Y-8613674D02*
X17476196Y-8632722D01*
X17476196Y-8632722D02*
X17476196Y-8651770D01*
X17476196Y-8651770D02*
X17380958Y-8670817D01*
X17647625Y-8737484D02*
X17647625Y-8537484D01*
X17647625Y-8727960D02*
X17628577Y-8737484D01*
X17628577Y-8737484D02*
X17590482Y-8737484D01*
X17590482Y-8737484D02*
X17571435Y-8727960D01*
X17571435Y-8727960D02*
X17561911Y-8718436D01*
X17561911Y-8718436D02*
X17552387Y-8699389D01*
X17552387Y-8699389D02*
X17552387Y-8642246D01*
X17552387Y-8642246D02*
X17561911Y-8623198D01*
X17561911Y-8623198D02*
X17571435Y-8613674D01*
X17571435Y-8613674D02*
X17590482Y-8604150D01*
X17590482Y-8604150D02*
X17628577Y-8604150D01*
X17628577Y-8604150D02*
X17647625Y-8613674D01*
X17723816Y-8813674D02*
X17733339Y-8804150D01*
X17733339Y-8804150D02*
X17752387Y-8775579D01*
X17752387Y-8775579D02*
X17761911Y-8756531D01*
X17761911Y-8756531D02*
X17771435Y-8727960D01*
X17771435Y-8727960D02*
X17780958Y-8680341D01*
X17780958Y-8680341D02*
X17780958Y-8642246D01*
X17780958Y-8642246D02*
X17771435Y-8594627D01*
X17771435Y-8594627D02*
X17761911Y-8566055D01*
X17761911Y-8566055D02*
X17752387Y-8547008D01*
X17752387Y-8547008D02*
X17733339Y-8518436D01*
X17733339Y-8518436D02*
X17723816Y-8508912D01*
X10967800Y-8966000D02*
G75*
G03*
X10967800Y-8966000I-100000J0D01*
G01*
X11314291Y-8924150D02*
X11314291Y-9057484D01*
X11266672Y-8847960D02*
X11219053Y-8990817D01*
X11219053Y-8990817D02*
X11342862Y-8990817D01*
X11419053Y-9038436D02*
X11428577Y-9047960D01*
X11428577Y-9047960D02*
X11419053Y-9057484D01*
X11419053Y-9057484D02*
X11409529Y-9047960D01*
X11409529Y-9047960D02*
X11419053Y-9038436D01*
X11419053Y-9038436D02*
X11419053Y-9057484D01*
X11495243Y-8857484D02*
X11619053Y-8857484D01*
X11619053Y-8857484D02*
X11552386Y-8933674D01*
X11552386Y-8933674D02*
X11580958Y-8933674D01*
X11580958Y-8933674D02*
X11600005Y-8943198D01*
X11600005Y-8943198D02*
X11609529Y-8952722D01*
X11609529Y-8952722D02*
X11619053Y-8971770D01*
X11619053Y-8971770D02*
X11619053Y-9019389D01*
X11619053Y-9019389D02*
X11609529Y-9038436D01*
X11609529Y-9038436D02*
X11600005Y-9047960D01*
X11600005Y-9047960D02*
X11580958Y-9057484D01*
X11580958Y-9057484D02*
X11523815Y-9057484D01*
X11523815Y-9057484D02*
X11504767Y-9047960D01*
X11504767Y-9047960D02*
X11495243Y-9038436D01*
X11742862Y-8857484D02*
X11761910Y-8857484D01*
X11761910Y-8857484D02*
X11780958Y-8867008D01*
X11780958Y-8867008D02*
X11790482Y-8876531D01*
X11790482Y-8876531D02*
X11800005Y-8895579D01*
X11800005Y-8895579D02*
X11809529Y-8933674D01*
X11809529Y-8933674D02*
X11809529Y-8981293D01*
X11809529Y-8981293D02*
X11800005Y-9019389D01*
X11800005Y-9019389D02*
X11790482Y-9038436D01*
X11790482Y-9038436D02*
X11780958Y-9047960D01*
X11780958Y-9047960D02*
X11761910Y-9057484D01*
X11761910Y-9057484D02*
X11742862Y-9057484D01*
X11742862Y-9057484D02*
X11723815Y-9047960D01*
X11723815Y-9047960D02*
X11714291Y-9038436D01*
X11714291Y-9038436D02*
X11704767Y-9019389D01*
X11704767Y-9019389D02*
X11695243Y-8981293D01*
X11695243Y-8981293D02*
X11695243Y-8933674D01*
X11695243Y-8933674D02*
X11704767Y-8895579D01*
X11704767Y-8895579D02*
X11714291Y-8876531D01*
X11714291Y-8876531D02*
X11723815Y-8867008D01*
X11723815Y-8867008D02*
X11742862Y-8857484D01*
X11933339Y-8857484D02*
X11952386Y-8857484D01*
X11952386Y-8857484D02*
X11971434Y-8867008D01*
X11971434Y-8867008D02*
X11980958Y-8876531D01*
X11980958Y-8876531D02*
X11990482Y-8895579D01*
X11990482Y-8895579D02*
X12000005Y-8933674D01*
X12000005Y-8933674D02*
X12000005Y-8981293D01*
X12000005Y-8981293D02*
X11990482Y-9019389D01*
X11990482Y-9019389D02*
X11980958Y-9038436D01*
X11980958Y-9038436D02*
X11971434Y-9047960D01*
X11971434Y-9047960D02*
X11952386Y-9057484D01*
X11952386Y-9057484D02*
X11933339Y-9057484D01*
X11933339Y-9057484D02*
X11914291Y-9047960D01*
X11914291Y-9047960D02*
X11904767Y-9038436D01*
X11904767Y-9038436D02*
X11895243Y-9019389D01*
X11895243Y-9019389D02*
X11885720Y-8981293D01*
X11885720Y-8981293D02*
X11885720Y-8933674D01*
X11885720Y-8933674D02*
X11895243Y-8895579D01*
X11895243Y-8895579D02*
X11904767Y-8876531D01*
X11904767Y-8876531D02*
X11914291Y-8867008D01*
X11914291Y-8867008D02*
X11933339Y-8857484D01*
X12085720Y-9057484D02*
X12085720Y-8924150D01*
X12085720Y-8943198D02*
X12095243Y-8933674D01*
X12095243Y-8933674D02*
X12114291Y-8924150D01*
X12114291Y-8924150D02*
X12142863Y-8924150D01*
X12142863Y-8924150D02*
X12161910Y-8933674D01*
X12161910Y-8933674D02*
X12171434Y-8952722D01*
X12171434Y-8952722D02*
X12171434Y-9057484D01*
X12171434Y-8952722D02*
X12180958Y-8933674D01*
X12180958Y-8933674D02*
X12200005Y-8924150D01*
X12200005Y-8924150D02*
X12228577Y-8924150D01*
X12228577Y-8924150D02*
X12247624Y-8933674D01*
X12247624Y-8933674D02*
X12257148Y-8952722D01*
X12257148Y-8952722D02*
X12257148Y-9057484D01*
X12352386Y-9057484D02*
X12352386Y-8924150D01*
X12352386Y-8943198D02*
X12361910Y-8933674D01*
X12361910Y-8933674D02*
X12380958Y-8924150D01*
X12380958Y-8924150D02*
X12409529Y-8924150D01*
X12409529Y-8924150D02*
X12428577Y-8933674D01*
X12428577Y-8933674D02*
X12438101Y-8952722D01*
X12438101Y-8952722D02*
X12438101Y-9057484D01*
X12438101Y-8952722D02*
X12447624Y-8933674D01*
X12447624Y-8933674D02*
X12466672Y-8924150D01*
X12466672Y-8924150D02*
X12495243Y-8924150D01*
X12495243Y-8924150D02*
X12514291Y-8933674D01*
X12514291Y-8933674D02*
X12523815Y-8952722D01*
X12523815Y-8952722D02*
X12523815Y-9057484D01*
X12914291Y-8847960D02*
X12742863Y-9105103D01*
X13171434Y-8857484D02*
X13190482Y-8857484D01*
X13190482Y-8857484D02*
X13209529Y-8867008D01*
X13209529Y-8867008D02*
X13219053Y-8876531D01*
X13219053Y-8876531D02*
X13228577Y-8895579D01*
X13228577Y-8895579D02*
X13238101Y-8933674D01*
X13238101Y-8933674D02*
X13238101Y-8981293D01*
X13238101Y-8981293D02*
X13228577Y-9019389D01*
X13228577Y-9019389D02*
X13219053Y-9038436D01*
X13219053Y-9038436D02*
X13209529Y-9047960D01*
X13209529Y-9047960D02*
X13190482Y-9057484D01*
X13190482Y-9057484D02*
X13171434Y-9057484D01*
X13171434Y-9057484D02*
X13152386Y-9047960D01*
X13152386Y-9047960D02*
X13142863Y-9038436D01*
X13142863Y-9038436D02*
X13133339Y-9019389D01*
X13133339Y-9019389D02*
X13123815Y-8981293D01*
X13123815Y-8981293D02*
X13123815Y-8933674D01*
X13123815Y-8933674D02*
X13133339Y-8895579D01*
X13133339Y-8895579D02*
X13142863Y-8876531D01*
X13142863Y-8876531D02*
X13152386Y-8867008D01*
X13152386Y-8867008D02*
X13171434Y-8857484D01*
X13323815Y-9038436D02*
X13333339Y-9047960D01*
X13333339Y-9047960D02*
X13323815Y-9057484D01*
X13323815Y-9057484D02*
X13314291Y-9047960D01*
X13314291Y-9047960D02*
X13323815Y-9038436D01*
X13323815Y-9038436D02*
X13323815Y-9057484D01*
X13523815Y-9057484D02*
X13409529Y-9057484D01*
X13466672Y-9057484D02*
X13466672Y-8857484D01*
X13466672Y-8857484D02*
X13447625Y-8886055D01*
X13447625Y-8886055D02*
X13428577Y-8905103D01*
X13428577Y-8905103D02*
X13409529Y-8914627D01*
X13695244Y-8857484D02*
X13657148Y-8857484D01*
X13657148Y-8857484D02*
X13638101Y-8867008D01*
X13638101Y-8867008D02*
X13628577Y-8876531D01*
X13628577Y-8876531D02*
X13609529Y-8905103D01*
X13609529Y-8905103D02*
X13600006Y-8943198D01*
X13600006Y-8943198D02*
X13600006Y-9019389D01*
X13600006Y-9019389D02*
X13609529Y-9038436D01*
X13609529Y-9038436D02*
X13619053Y-9047960D01*
X13619053Y-9047960D02*
X13638101Y-9057484D01*
X13638101Y-9057484D02*
X13676196Y-9057484D01*
X13676196Y-9057484D02*
X13695244Y-9047960D01*
X13695244Y-9047960D02*
X13704767Y-9038436D01*
X13704767Y-9038436D02*
X13714291Y-9019389D01*
X13714291Y-9019389D02*
X13714291Y-8971770D01*
X13714291Y-8971770D02*
X13704767Y-8952722D01*
X13704767Y-8952722D02*
X13695244Y-8943198D01*
X13695244Y-8943198D02*
X13676196Y-8933674D01*
X13676196Y-8933674D02*
X13638101Y-8933674D01*
X13638101Y-8933674D02*
X13619053Y-8943198D01*
X13619053Y-8943198D02*
X13609529Y-8952722D01*
X13609529Y-8952722D02*
X13600006Y-8971770D01*
X13809529Y-9057484D02*
X13847625Y-9057484D01*
X13847625Y-9057484D02*
X13866672Y-9047960D01*
X13866672Y-9047960D02*
X13876196Y-9038436D01*
X13876196Y-9038436D02*
X13895244Y-9009865D01*
X13895244Y-9009865D02*
X13904767Y-8971770D01*
X13904767Y-8971770D02*
X13904767Y-8895579D01*
X13904767Y-8895579D02*
X13895244Y-8876531D01*
X13895244Y-8876531D02*
X13885720Y-8867008D01*
X13885720Y-8867008D02*
X13866672Y-8857484D01*
X13866672Y-8857484D02*
X13828577Y-8857484D01*
X13828577Y-8857484D02*
X13809529Y-8867008D01*
X13809529Y-8867008D02*
X13800006Y-8876531D01*
X13800006Y-8876531D02*
X13790482Y-8895579D01*
X13790482Y-8895579D02*
X13790482Y-8943198D01*
X13790482Y-8943198D02*
X13800006Y-8962246D01*
X13800006Y-8962246D02*
X13809529Y-8971770D01*
X13809529Y-8971770D02*
X13828577Y-8981293D01*
X13828577Y-8981293D02*
X13866672Y-8981293D01*
X13866672Y-8981293D02*
X13885720Y-8971770D01*
X13885720Y-8971770D02*
X13895244Y-8962246D01*
X13895244Y-8962246D02*
X13904767Y-8943198D01*
X13971434Y-8857484D02*
X14095244Y-8857484D01*
X14095244Y-8857484D02*
X14028577Y-8933674D01*
X14028577Y-8933674D02*
X14057148Y-8933674D01*
X14057148Y-8933674D02*
X14076196Y-8943198D01*
X14076196Y-8943198D02*
X14085720Y-8952722D01*
X14085720Y-8952722D02*
X14095244Y-8971770D01*
X14095244Y-8971770D02*
X14095244Y-9019389D01*
X14095244Y-9019389D02*
X14085720Y-9038436D01*
X14085720Y-9038436D02*
X14076196Y-9047960D01*
X14076196Y-9047960D02*
X14057148Y-9057484D01*
X14057148Y-9057484D02*
X14000006Y-9057484D01*
X14000006Y-9057484D02*
X13980958Y-9047960D01*
X13980958Y-9047960D02*
X13971434Y-9038436D01*
X14171434Y-8857484D02*
X14171434Y-8895579D01*
X14247625Y-8857484D02*
X14247625Y-8895579D01*
X14542863Y-9133674D02*
X14533339Y-9124150D01*
X14533339Y-9124150D02*
X14514291Y-9095579D01*
X14514291Y-9095579D02*
X14504768Y-9076531D01*
X14504768Y-9076531D02*
X14495244Y-9047960D01*
X14495244Y-9047960D02*
X14485720Y-9000341D01*
X14485720Y-9000341D02*
X14485720Y-8962246D01*
X14485720Y-8962246D02*
X14495244Y-8914627D01*
X14495244Y-8914627D02*
X14504768Y-8886055D01*
X14504768Y-8886055D02*
X14514291Y-8867008D01*
X14514291Y-8867008D02*
X14533339Y-8838436D01*
X14533339Y-8838436D02*
X14542863Y-8828912D01*
X14704768Y-8924150D02*
X14704768Y-9057484D01*
X14657148Y-8847960D02*
X14609529Y-8990817D01*
X14609529Y-8990817D02*
X14733339Y-8990817D01*
X14961910Y-9057484D02*
X14961910Y-8857484D01*
X15047625Y-9057484D02*
X15047625Y-8952722D01*
X15047625Y-8952722D02*
X15038101Y-8933674D01*
X15038101Y-8933674D02*
X15019053Y-8924150D01*
X15019053Y-8924150D02*
X14990482Y-8924150D01*
X14990482Y-8924150D02*
X14971434Y-8933674D01*
X14971434Y-8933674D02*
X14961910Y-8943198D01*
X15171434Y-9057484D02*
X15152387Y-9047960D01*
X15152387Y-9047960D02*
X15142863Y-9038436D01*
X15142863Y-9038436D02*
X15133339Y-9019389D01*
X15133339Y-9019389D02*
X15133339Y-8962246D01*
X15133339Y-8962246D02*
X15142863Y-8943198D01*
X15142863Y-8943198D02*
X15152387Y-8933674D01*
X15152387Y-8933674D02*
X15171434Y-8924150D01*
X15171434Y-8924150D02*
X15200006Y-8924150D01*
X15200006Y-8924150D02*
X15219053Y-8933674D01*
X15219053Y-8933674D02*
X15228577Y-8943198D01*
X15228577Y-8943198D02*
X15238101Y-8962246D01*
X15238101Y-8962246D02*
X15238101Y-9019389D01*
X15238101Y-9019389D02*
X15228577Y-9038436D01*
X15228577Y-9038436D02*
X15219053Y-9047960D01*
X15219053Y-9047960D02*
X15200006Y-9057484D01*
X15200006Y-9057484D02*
X15171434Y-9057484D01*
X15352387Y-9057484D02*
X15333339Y-9047960D01*
X15333339Y-9047960D02*
X15323815Y-9028912D01*
X15323815Y-9028912D02*
X15323815Y-8857484D01*
X15504768Y-9047960D02*
X15485720Y-9057484D01*
X15485720Y-9057484D02*
X15447625Y-9057484D01*
X15447625Y-9057484D02*
X15428577Y-9047960D01*
X15428577Y-9047960D02*
X15419053Y-9028912D01*
X15419053Y-9028912D02*
X15419053Y-8952722D01*
X15419053Y-8952722D02*
X15428577Y-8933674D01*
X15428577Y-8933674D02*
X15447625Y-8924150D01*
X15447625Y-8924150D02*
X15485720Y-8924150D01*
X15485720Y-8924150D02*
X15504768Y-8933674D01*
X15504768Y-8933674D02*
X15514291Y-8952722D01*
X15514291Y-8952722D02*
X15514291Y-8971770D01*
X15514291Y-8971770D02*
X15419053Y-8990817D01*
X15590482Y-9047960D02*
X15609530Y-9057484D01*
X15609530Y-9057484D02*
X15647625Y-9057484D01*
X15647625Y-9057484D02*
X15666672Y-9047960D01*
X15666672Y-9047960D02*
X15676196Y-9028912D01*
X15676196Y-9028912D02*
X15676196Y-9019389D01*
X15676196Y-9019389D02*
X15666672Y-9000341D01*
X15666672Y-9000341D02*
X15647625Y-8990817D01*
X15647625Y-8990817D02*
X15619053Y-8990817D01*
X15619053Y-8990817D02*
X15600006Y-8981293D01*
X15600006Y-8981293D02*
X15590482Y-8962246D01*
X15590482Y-8962246D02*
X15590482Y-8952722D01*
X15590482Y-8952722D02*
X15600006Y-8933674D01*
X15600006Y-8933674D02*
X15619053Y-8924150D01*
X15619053Y-8924150D02*
X15647625Y-8924150D01*
X15647625Y-8924150D02*
X15666672Y-8933674D01*
X15742863Y-9133674D02*
X15752387Y-9124150D01*
X15752387Y-9124150D02*
X15771434Y-9095579D01*
X15771434Y-9095579D02*
X15780958Y-9076531D01*
X15780958Y-9076531D02*
X15790482Y-9047960D01*
X15790482Y-9047960D02*
X15800006Y-9000341D01*
X15800006Y-9000341D02*
X15800006Y-8962246D01*
X15800006Y-8962246D02*
X15790482Y-8914627D01*
X15790482Y-8914627D02*
X15780958Y-8886055D01*
X15780958Y-8886055D02*
X15771434Y-8867008D01*
X15771434Y-8867008D02*
X15752387Y-8838436D01*
X15752387Y-8838436D02*
X15742863Y-8828912D01*
X16104768Y-9133674D02*
X16095244Y-9124150D01*
X16095244Y-9124150D02*
X16076196Y-9095579D01*
X16076196Y-9095579D02*
X16066672Y-9076531D01*
X16066672Y-9076531D02*
X16057149Y-9047960D01*
X16057149Y-9047960D02*
X16047625Y-9000341D01*
X16047625Y-9000341D02*
X16047625Y-8962246D01*
X16047625Y-8962246D02*
X16057149Y-8914627D01*
X16057149Y-8914627D02*
X16066672Y-8886055D01*
X16066672Y-8886055D02*
X16076196Y-8867008D01*
X16076196Y-8867008D02*
X16095244Y-8838436D01*
X16095244Y-8838436D02*
X16104768Y-8828912D01*
X16180958Y-8924150D02*
X16180958Y-9057484D01*
X16180958Y-8943198D02*
X16190482Y-8933674D01*
X16190482Y-8933674D02*
X16209530Y-8924150D01*
X16209530Y-8924150D02*
X16238101Y-8924150D01*
X16238101Y-8924150D02*
X16257149Y-8933674D01*
X16257149Y-8933674D02*
X16266672Y-8952722D01*
X16266672Y-8952722D02*
X16266672Y-9057484D01*
X16390482Y-9057484D02*
X16371434Y-9047960D01*
X16371434Y-9047960D02*
X16361911Y-9038436D01*
X16361911Y-9038436D02*
X16352387Y-9019389D01*
X16352387Y-9019389D02*
X16352387Y-8962246D01*
X16352387Y-8962246D02*
X16361911Y-8943198D01*
X16361911Y-8943198D02*
X16371434Y-8933674D01*
X16371434Y-8933674D02*
X16390482Y-8924150D01*
X16390482Y-8924150D02*
X16419053Y-8924150D01*
X16419053Y-8924150D02*
X16438101Y-8933674D01*
X16438101Y-8933674D02*
X16447625Y-8943198D01*
X16447625Y-8943198D02*
X16457149Y-8962246D01*
X16457149Y-8962246D02*
X16457149Y-9019389D01*
X16457149Y-9019389D02*
X16447625Y-9038436D01*
X16447625Y-9038436D02*
X16438101Y-9047960D01*
X16438101Y-9047960D02*
X16419053Y-9057484D01*
X16419053Y-9057484D02*
X16390482Y-9057484D01*
X16514292Y-8924150D02*
X16590482Y-8924150D01*
X16542863Y-8857484D02*
X16542863Y-9028912D01*
X16542863Y-9028912D02*
X16552387Y-9047960D01*
X16552387Y-9047960D02*
X16571434Y-9057484D01*
X16571434Y-9057484D02*
X16590482Y-9057484D01*
X16809530Y-8924150D02*
X16809530Y-9124150D01*
X16809530Y-8933674D02*
X16828577Y-8924150D01*
X16828577Y-8924150D02*
X16866673Y-8924150D01*
X16866673Y-8924150D02*
X16885720Y-8933674D01*
X16885720Y-8933674D02*
X16895244Y-8943198D01*
X16895244Y-8943198D02*
X16904768Y-8962246D01*
X16904768Y-8962246D02*
X16904768Y-9019389D01*
X16904768Y-9019389D02*
X16895244Y-9038436D01*
X16895244Y-9038436D02*
X16885720Y-9047960D01*
X16885720Y-9047960D02*
X16866673Y-9057484D01*
X16866673Y-9057484D02*
X16828577Y-9057484D01*
X16828577Y-9057484D02*
X16809530Y-9047960D01*
X17019054Y-9057484D02*
X17000006Y-9047960D01*
X17000006Y-9047960D02*
X16990482Y-9028912D01*
X16990482Y-9028912D02*
X16990482Y-8857484D01*
X17180958Y-9057484D02*
X17180958Y-8952722D01*
X17180958Y-8952722D02*
X17171435Y-8933674D01*
X17171435Y-8933674D02*
X17152387Y-8924150D01*
X17152387Y-8924150D02*
X17114292Y-8924150D01*
X17114292Y-8924150D02*
X17095244Y-8933674D01*
X17180958Y-9047960D02*
X17161911Y-9057484D01*
X17161911Y-9057484D02*
X17114292Y-9057484D01*
X17114292Y-9057484D02*
X17095244Y-9047960D01*
X17095244Y-9047960D02*
X17085720Y-9028912D01*
X17085720Y-9028912D02*
X17085720Y-9009865D01*
X17085720Y-9009865D02*
X17095244Y-8990817D01*
X17095244Y-8990817D02*
X17114292Y-8981293D01*
X17114292Y-8981293D02*
X17161911Y-8981293D01*
X17161911Y-8981293D02*
X17180958Y-8971770D01*
X17247625Y-8924150D02*
X17323815Y-8924150D01*
X17276196Y-8857484D02*
X17276196Y-9028912D01*
X17276196Y-9028912D02*
X17285720Y-9047960D01*
X17285720Y-9047960D02*
X17304768Y-9057484D01*
X17304768Y-9057484D02*
X17323815Y-9057484D01*
X17466673Y-9047960D02*
X17447625Y-9057484D01*
X17447625Y-9057484D02*
X17409530Y-9057484D01*
X17409530Y-9057484D02*
X17390482Y-9047960D01*
X17390482Y-9047960D02*
X17380958Y-9028912D01*
X17380958Y-9028912D02*
X17380958Y-8952722D01*
X17380958Y-8952722D02*
X17390482Y-8933674D01*
X17390482Y-8933674D02*
X17409530Y-8924150D01*
X17409530Y-8924150D02*
X17447625Y-8924150D01*
X17447625Y-8924150D02*
X17466673Y-8933674D01*
X17466673Y-8933674D02*
X17476196Y-8952722D01*
X17476196Y-8952722D02*
X17476196Y-8971770D01*
X17476196Y-8971770D02*
X17380958Y-8990817D01*
X17647625Y-9057484D02*
X17647625Y-8857484D01*
X17647625Y-9047960D02*
X17628577Y-9057484D01*
X17628577Y-9057484D02*
X17590482Y-9057484D01*
X17590482Y-9057484D02*
X17571435Y-9047960D01*
X17571435Y-9047960D02*
X17561911Y-9038436D01*
X17561911Y-9038436D02*
X17552387Y-9019389D01*
X17552387Y-9019389D02*
X17552387Y-8962246D01*
X17552387Y-8962246D02*
X17561911Y-8943198D01*
X17561911Y-8943198D02*
X17571435Y-8933674D01*
X17571435Y-8933674D02*
X17590482Y-8924150D01*
X17590482Y-8924150D02*
X17628577Y-8924150D01*
X17628577Y-8924150D02*
X17647625Y-8933674D01*
X17723816Y-9133674D02*
X17733339Y-9124150D01*
X17733339Y-9124150D02*
X17752387Y-9095579D01*
X17752387Y-9095579D02*
X17761911Y-9076531D01*
X17761911Y-9076531D02*
X17771435Y-9047960D01*
X17771435Y-9047960D02*
X17780958Y-9000341D01*
X17780958Y-9000341D02*
X17780958Y-8962246D01*
X17780958Y-8962246D02*
X17771435Y-8914627D01*
X17771435Y-8914627D02*
X17761911Y-8886055D01*
X17761911Y-8886055D02*
X17752387Y-8867008D01*
X17752387Y-8867008D02*
X17733339Y-8838436D01*
X17733339Y-8838436D02*
X17723816Y-8828912D01*
M02*
