M48
; DRILL file {KiCad 7.0.8} date Sun Oct 22 18:36:17 2023
; FORMAT={-:-/ absolute / metric / decimal}
; #@! TF.CreationDate,2023-10-22T18:36:17+02:00
; #@! TF.GenerationSoftware,Kicad,Pcbnew,7.0.8
; #@! TF.FileFunction,Plated,1,2,PTH
FMAT,2
METRIC
; #@! TA.AperFunction,Plated,PTH,ViaDrill
T1C0.400
; #@! TA.AperFunction,Plated,PTH,ComponentDrill
T2C1.000
; #@! TA.AperFunction,Plated,PTH,ComponentDrill
T3C1.600
%
G90
G05
T1
X121.285Y-59.055
X137.414Y-68.326
X150.114Y-77.978
X155.194Y-67.564
X180.105Y-61.36
X181.61Y-57.15
X182.88Y-53.975
X183.075Y-57.59
X184.785Y-66.04
X186.144Y-55.245
X186.436Y-59.944
X187.217Y-62.865
X192.405Y-57.785
X193.04Y-46.99
X194.855Y-59.055
X194.945Y-55.245
X198.12Y-53.34
T2
X190.241Y-59.944
X190.241Y-62.484
X190.241Y-65.024
X190.241Y-67.564
X190.241Y-70.104
X190.241Y-72.644
X190.241Y-75.184
X192.781Y-59.944
X192.781Y-62.484
X192.781Y-65.024
X192.781Y-67.564
X192.781Y-70.104
X192.781Y-72.644
X192.781Y-75.184
T3
X124.46Y-46.99
X124.46Y-63.5
X130.81Y-49.53
X130.81Y-66.04
X140.97Y-63.5
X140.97Y-46.99
X147.32Y-66.04
X147.32Y-49.53
X157.48Y-63.5
X157.48Y-46.99
X163.83Y-66.04
X163.83Y-49.53
X173.99Y-63.5
X173.99Y-46.99
X180.34Y-66.04
X180.34Y-49.53
T0
M30
