%TF.GenerationSoftware,KiCad,Pcbnew,7.0.8*%
%TF.CreationDate,2023-10-22T18:36:15+02:00*%
%TF.ProjectId,Second test with RGB LEDs,5365636f-6e64-4207-9465-737420776974,rev?*%
%TF.SameCoordinates,Original*%
%TF.FileFunction,Copper,L1,Top*%
%TF.FilePolarity,Positive*%
%FSLAX46Y46*%
G04 Gerber Fmt 4.6, Leading zero omitted, Abs format (unit mm)*
G04 Created by KiCad (PCBNEW 7.0.8) date 2023-10-22 18:36:15*
%MOMM*%
%LPD*%
G01*
G04 APERTURE LIST*
G04 Aperture macros list*
%AMRoundRect*
0 Rectangle with rounded corners*
0 $1 Rounding radius*
0 $2 $3 $4 $5 $6 $7 $8 $9 X,Y pos of 4 corners*
0 Add a 4 corners polygon primitive as box body*
4,1,4,$2,$3,$4,$5,$6,$7,$8,$9,$2,$3,0*
0 Add four circle primitives for the rounded corners*
1,1,$1+$1,$2,$3*
1,1,$1+$1,$4,$5*
1,1,$1+$1,$6,$7*
1,1,$1+$1,$8,$9*
0 Add four rect primitives between the rounded corners*
20,1,$1+$1,$2,$3,$4,$5,0*
20,1,$1+$1,$4,$5,$6,$7,0*
20,1,$1+$1,$6,$7,$8,$9,0*
20,1,$1+$1,$8,$9,$2,$3,0*%
G04 Aperture macros list end*
%TA.AperFunction,ComponentPad*%
%ADD10C,2.400000*%
%TD*%
%TA.AperFunction,SMDPad,CuDef*%
%ADD11R,1.200000X0.819990*%
%TD*%
%TA.AperFunction,ComponentPad*%
%ADD12R,1.700000X1.700000*%
%TD*%
%TA.AperFunction,ComponentPad*%
%ADD13O,1.700000X1.700000*%
%TD*%
%TA.AperFunction,SMDPad,CuDef*%
%ADD14RoundRect,0.200000X0.200000X0.275000X-0.200000X0.275000X-0.200000X-0.275000X0.200000X-0.275000X0*%
%TD*%
%TA.AperFunction,SMDPad,CuDef*%
%ADD15RoundRect,0.200000X-0.200000X-0.275000X0.200000X-0.275000X0.200000X0.275000X-0.200000X0.275000X0*%
%TD*%
%TA.AperFunction,SMDPad,CuDef*%
%ADD16O,2.231013X0.602007*%
%TD*%
%TA.AperFunction,ViaPad*%
%ADD17C,0.800000*%
%TD*%
%TA.AperFunction,Conductor*%
%ADD18C,0.250000*%
%TD*%
G04 APERTURE END LIST*
D10*
%TO.P,KEY4,1,1*%
%TO.N,Net-(U1-D)*%
X130810000Y-49530000D03*
%TO.P,KEY4,2,2*%
%TO.N,+3V3*%
X124459988Y-46989994D03*
%TD*%
%TO.P,KEY1,1,1*%
%TO.N,Net-(U1-A)*%
X180340007Y-49529995D03*
%TO.P,KEY1,2,2*%
%TO.N,+3V3*%
X173989995Y-46989989D03*
%TD*%
%TO.P,KEY8,1,1*%
%TO.N,Net-(U1-H)*%
X180340000Y-66040000D03*
%TO.P,KEY8,2,2*%
%TO.N,+3V3*%
X173989988Y-63499994D03*
%TD*%
%TO.P,KEY3,1,1*%
%TO.N,Net-(U1-C)*%
X147320007Y-49529995D03*
%TO.P,KEY3,2,2*%
%TO.N,+3V3*%
X140969995Y-46989989D03*
%TD*%
%TO.P,KEY7,1,1*%
%TO.N,Net-(U1-G)*%
X163830000Y-66040000D03*
%TO.P,KEY7,2,2*%
%TO.N,+3V3*%
X157479988Y-63499994D03*
%TD*%
%TO.P,KEY5,1,1*%
%TO.N,Net-(U1-E)*%
X130810000Y-66040000D03*
%TO.P,KEY5,2,2*%
%TO.N,+3V3*%
X124459988Y-63499994D03*
%TD*%
%TO.P,KEY2,1,1*%
%TO.N,Net-(U1-B)*%
X163830008Y-49529996D03*
%TO.P,KEY2,2,2*%
%TO.N,+3V3*%
X157479996Y-46989990D03*
%TD*%
%TO.P,KEY6,1,1*%
%TO.N,Net-(U1-F)*%
X147320000Y-66040000D03*
%TO.P,KEY6,2,2*%
%TO.N,+3V3*%
X140969988Y-63499994D03*
%TD*%
D11*
%TO.P,D2,1,VDD*%
%TO.N,+5V*%
X157520000Y-57900064D03*
%TO.P,D2,2,DOUT*%
%TO.N,Net-(D2-DOUT)*%
X157520000Y-56399936D03*
%TO.P,D2,3,GND*%
%TO.N,GND*%
X162520000Y-56399936D03*
%TO.P,D2,4,DIN*%
%TO.N,Net-(D1-DOUT)*%
X162520000Y-57900064D03*
%TD*%
%TO.P,D3,1,VDD*%
%TO.N,+5V*%
X141010000Y-57900064D03*
%TO.P,D3,2,DOUT*%
%TO.N,Net-(D3-DOUT)*%
X141010000Y-56399936D03*
%TO.P,D3,3,GND*%
%TO.N,GND*%
X146010000Y-56399936D03*
%TO.P,D3,4,DIN*%
%TO.N,Net-(D2-DOUT)*%
X146010000Y-57900064D03*
%TD*%
%TO.P,D5,1,VDD*%
%TO.N,+5V*%
X129500000Y-72909936D03*
%TO.P,D5,2,DOUT*%
%TO.N,Net-(D5-DOUT)*%
X129500000Y-74410064D03*
%TO.P,D5,3,GND*%
%TO.N,GND*%
X124500000Y-74410064D03*
%TO.P,D5,4,DIN*%
%TO.N,Net-(D4-DOUT)*%
X124500000Y-72909936D03*
%TD*%
%TO.P,D1,1,VDD*%
%TO.N,+5V*%
X174284000Y-57900064D03*
%TO.P,D1,2,DOUT*%
%TO.N,Net-(D1-DOUT)*%
X174284000Y-56399936D03*
%TO.P,D1,3,GND*%
%TO.N,GND*%
X179284000Y-56399936D03*
%TO.P,D1,4,DIN*%
%TO.N,Net-(D1-DIN)*%
X179284000Y-57900064D03*
%TD*%
%TO.P,D6,1,VDD*%
%TO.N,+5V*%
X146010000Y-72909936D03*
%TO.P,D6,2,DOUT*%
%TO.N,Net-(D6-DOUT)*%
X146010000Y-74410064D03*
%TO.P,D6,3,GND*%
%TO.N,GND*%
X141010000Y-74410064D03*
%TO.P,D6,4,DIN*%
%TO.N,Net-(D5-DOUT)*%
X141010000Y-72909936D03*
%TD*%
%TO.P,D4,1,VDD*%
%TO.N,+5V*%
X124500000Y-57900064D03*
%TO.P,D4,2,DOUT*%
%TO.N,Net-(D4-DOUT)*%
X124500000Y-56399936D03*
%TO.P,D4,3,GND*%
%TO.N,GND*%
X129500000Y-56399936D03*
%TO.P,D4,4,DIN*%
%TO.N,Net-(D3-DOUT)*%
X129500000Y-57900064D03*
%TD*%
%TO.P,D7,1,VDD*%
%TO.N,+5V*%
X162520000Y-72909936D03*
%TO.P,D7,2,DOUT*%
%TO.N,Net-(D7-DOUT)*%
X162520000Y-74410064D03*
%TO.P,D7,3,GND*%
%TO.N,GND*%
X157520000Y-74410064D03*
%TO.P,D7,4,DIN*%
%TO.N,Net-(D6-DOUT)*%
X157520000Y-72909936D03*
%TD*%
%TO.P,D8,1,VDD*%
%TO.N,+5V*%
X179030000Y-72909936D03*
%TO.P,D8,2,DOUT*%
%TO.N,Net-(D8-DOUT)*%
X179030000Y-74410064D03*
%TO.P,D8,3,GND*%
%TO.N,GND*%
X174030000Y-74410064D03*
%TO.P,D8,4,DIN*%
%TO.N,Net-(D7-DOUT)*%
X174030000Y-72909936D03*
%TD*%
D12*
%TO.P,J1,1,Pin_1*%
%TO.N,+5V*%
X190241000Y-59944000D03*
D13*
%TO.P,J1,2,Pin_2*%
%TO.N,Net-(J1-Pin_2)*%
X192781000Y-59944000D03*
%TO.P,J1,3,Pin_3*%
%TO.N,+3V3*%
X190241000Y-62484000D03*
%TO.P,J1,4,Pin_4*%
%TO.N,Net-(J1-Pin_4)*%
X192781000Y-62484000D03*
%TO.P,J1,5,Pin_5*%
%TO.N,GND*%
X190241000Y-65024000D03*
%TO.P,J1,6,Pin_6*%
%TO.N,Net-(J1-Pin_6)*%
X192781000Y-65024000D03*
%TO.P,J1,7,Pin_7*%
%TO.N,Net-(D1-DIN)*%
X190241000Y-67564000D03*
%TO.P,J1,8,Pin_8*%
%TO.N,Net-(J1-Pin_8)*%
X192781000Y-67564000D03*
%TO.P,J1,9,Pin_9*%
%TO.N,Net-(D8-DOUT)*%
X190241000Y-70104000D03*
%TO.P,J1,10,Pin_10*%
%TO.N,Net-(J1-Pin_10)*%
X192781000Y-70104000D03*
%TO.P,J1,11,Pin_11*%
%TO.N,unconnected-(J1-Pin_11-Pad11)*%
X190241000Y-72644000D03*
%TO.P,J1,12,Pin_12*%
%TO.N,Net-(J1-Pin_12)*%
X192781000Y-72644000D03*
%TO.P,J1,13,Pin_13*%
%TO.N,unconnected-(J1-Pin_13-Pad13)*%
X190241000Y-75184000D03*
%TO.P,J1,14,Pin_14*%
%TO.N,unconnected-(J1-Pin_14-Pad14)*%
X192781000Y-75184000D03*
%TD*%
D14*
%TO.P,R2,1*%
%TO.N,GND*%
X183385000Y-68580000D03*
%TO.P,R2,2*%
%TO.N,Net-(U1-H)*%
X181735000Y-68580000D03*
%TD*%
D15*
%TO.P,R3,1*%
%TO.N,Net-(U1-B)*%
X165200000Y-52070000D03*
%TO.P,R3,2*%
%TO.N,GND*%
X166850000Y-52070000D03*
%TD*%
D14*
%TO.P,R8,1*%
%TO.N,GND*%
X133855000Y-68580000D03*
%TO.P,R8,2*%
%TO.N,Net-(U1-E)*%
X132205000Y-68580000D03*
%TD*%
D15*
%TO.P,R7,1*%
%TO.N,Net-(U1-D)*%
X132205000Y-52070000D03*
%TO.P,R7,2*%
%TO.N,GND*%
X133855000Y-52070000D03*
%TD*%
%TO.P,R5,1*%
%TO.N,Net-(U1-C)*%
X148715000Y-52070000D03*
%TO.P,R5,2*%
%TO.N,GND*%
X150365000Y-52070000D03*
%TD*%
D14*
%TO.P,R6,1*%
%TO.N,GND*%
X150365000Y-68580000D03*
%TO.P,R6,2*%
%TO.N,Net-(U1-F)*%
X148715000Y-68580000D03*
%TD*%
D15*
%TO.P,R1,1*%
%TO.N,Net-(U1-A)*%
X181735000Y-52070000D03*
%TO.P,R1,2*%
%TO.N,GND*%
X183385000Y-52070000D03*
%TD*%
D14*
%TO.P,R4,1*%
%TO.N,GND*%
X166875000Y-68580000D03*
%TO.P,R4,2*%
%TO.N,Net-(U1-G)*%
X165225000Y-68580000D03*
%TD*%
D16*
%TO.P,U1,1,SH/LD#*%
%TO.N,Net-(J1-Pin_4)*%
X187941190Y-45212000D03*
%TO.P,U1,2,CLK*%
%TO.N,Net-(J1-Pin_6)*%
X187941190Y-46482003D03*
%TO.P,U1,3,E*%
%TO.N,Net-(U1-E)*%
X187941190Y-47752005D03*
%TO.P,U1,4,F*%
%TO.N,Net-(U1-F)*%
X187941190Y-49022008D03*
%TO.P,U1,5,G*%
%TO.N,Net-(U1-G)*%
X187941190Y-50292010D03*
%TO.P,U1,6,H*%
%TO.N,Net-(U1-H)*%
X187941190Y-51562013D03*
%TO.P,U1,7,QH#*%
%TO.N,Net-(J1-Pin_8)*%
X187941190Y-52832015D03*
%TO.P,U1,8,GND*%
%TO.N,GND*%
X187941190Y-54102018D03*
%TO.P,U1,9,QH*%
%TO.N,Net-(J1-Pin_10)*%
X195072000Y-54102018D03*
%TO.P,U1,10,SER*%
%TO.N,Net-(J1-Pin_12)*%
X195072000Y-52832015D03*
%TO.P,U1,11,A*%
%TO.N,Net-(U1-A)*%
X195072000Y-51562013D03*
%TO.P,U1,12,B*%
%TO.N,Net-(U1-B)*%
X195072000Y-50292010D03*
%TO.P,U1,13,C*%
%TO.N,Net-(U1-C)*%
X195072000Y-49022008D03*
%TO.P,U1,14,D*%
%TO.N,Net-(U1-D)*%
X195072000Y-47752005D03*
%TO.P,U1,15,CLK/INH*%
%TO.N,Net-(J1-Pin_2)*%
X195072000Y-46482003D03*
%TO.P,U1,16,VCC*%
%TO.N,+3V3*%
X195072000Y-45212000D03*
%TD*%
D17*
%TO.N,+5V*%
X186436000Y-59944000D03*
%TO.N,GND*%
X186144500Y-55245000D03*
X182880000Y-53975000D03*
X150114000Y-77978000D03*
X155194000Y-67564000D03*
X137414000Y-68326000D03*
%TO.N,Net-(D1-DIN)*%
X181610000Y-57150000D03*
%TO.N,+5V*%
X183074799Y-57590201D03*
%TO.N,Net-(J1-Pin_2)*%
X198120000Y-53340000D03*
%TO.N,+3V3*%
X187216690Y-62865000D03*
X184785000Y-66040000D03*
X121285000Y-59055000D03*
X193040000Y-46990000D03*
X180105201Y-61360201D03*
%TO.N,Net-(J1-Pin_6)*%
X194855500Y-59055000D03*
%TO.N,Net-(J1-Pin_8)*%
X194945000Y-55245000D03*
X192405000Y-57785000D03*
%TD*%
D18*
%TO.N,+5V*%
X183134000Y-66040000D02*
X183134000Y-65922385D01*
X183134000Y-65922385D02*
X186436000Y-62620385D01*
X185928000Y-68834000D02*
X183134000Y-66040000D01*
X186436000Y-62620385D02*
X186436000Y-59944000D01*
X181852064Y-72909936D02*
X185928000Y-68834000D01*
X179030000Y-72909936D02*
X181852064Y-72909936D01*
X164846000Y-72390000D02*
X164846000Y-71374000D01*
X178816000Y-71374000D02*
X164846000Y-71374000D01*
X164846000Y-71374000D02*
X148590000Y-71374000D01*
X164326064Y-72909936D02*
X164846000Y-72390000D01*
X162520000Y-72909936D02*
X164326064Y-72909936D01*
X148590000Y-71882000D02*
X148590000Y-71374000D01*
X146010000Y-72909936D02*
X147562064Y-72909936D01*
X148590000Y-71374000D02*
X130556000Y-71374000D01*
X147562064Y-72909936D02*
X148590000Y-71882000D01*
X130556000Y-71853936D02*
X129500000Y-72909936D01*
X179030000Y-71588000D02*
X178816000Y-71374000D01*
X130556000Y-71374000D02*
X130556000Y-71853936D01*
X179030000Y-72909936D02*
X179030000Y-71588000D01*
%TO.N,Net-(D8-DOUT)*%
X185934936Y-74410064D02*
X190241000Y-70104000D01*
X179030000Y-74410064D02*
X185934936Y-74410064D01*
%TO.N,Net-(D7-DOUT)*%
X169660064Y-72909936D02*
X174030000Y-72909936D01*
X168159936Y-74410064D02*
X169660064Y-72909936D01*
X162520000Y-74410064D02*
X168159936Y-74410064D01*
%TO.N,Net-(D6-DOUT)*%
X152642064Y-72909936D02*
X157520000Y-72909936D01*
X151141936Y-74410064D02*
X152642064Y-72909936D01*
X146010000Y-74410064D02*
X151141936Y-74410064D01*
%TO.N,Net-(D5-DOUT)*%
X135890000Y-72898000D02*
X135901936Y-72909936D01*
X134377936Y-74410064D02*
X135890000Y-72898000D01*
X129500000Y-74410064D02*
X134377936Y-74410064D01*
X135901936Y-72909936D02*
X141010000Y-72909936D01*
%TO.N,+5V*%
X181737000Y-58928000D02*
X183074799Y-57590201D01*
X173256064Y-58928000D02*
X181737000Y-58928000D01*
X141010000Y-58888000D02*
X140970000Y-58928000D01*
X141010000Y-57900064D02*
X141010000Y-58888000D01*
X140970000Y-58928000D02*
X157734000Y-58928000D01*
X124714000Y-58928000D02*
X140970000Y-58928000D01*
X157520000Y-58714000D02*
X157734000Y-58928000D01*
X157520000Y-57900064D02*
X157520000Y-58714000D01*
X157734000Y-58928000D02*
X173256064Y-58928000D01*
X173256064Y-58928000D02*
X174284000Y-57900064D01*
X124500000Y-57900064D02*
X124500000Y-58714000D01*
X124500000Y-58714000D02*
X124714000Y-58928000D01*
%TO.N,Net-(D4-DOUT)*%
X122682000Y-58217936D02*
X122682000Y-72136000D01*
X124500000Y-56399936D02*
X122682000Y-58217936D01*
X122682000Y-72136000D02*
X123455936Y-72909936D01*
X123455936Y-72909936D02*
X124500000Y-72909936D01*
%TO.N,Net-(D3-DOUT)*%
X137148064Y-56399936D02*
X135647936Y-57900064D01*
X135647936Y-57900064D02*
X129500000Y-57900064D01*
X141010000Y-56399936D02*
X137148064Y-56399936D01*
%TO.N,Net-(D2-DOUT)*%
X151626064Y-57900064D02*
X146010000Y-57900064D01*
X151638000Y-57912000D02*
X151626064Y-57900064D01*
X153150064Y-56399936D02*
X151638000Y-57912000D01*
X157520000Y-56399936D02*
X153150064Y-56399936D01*
%TO.N,Net-(D1-DOUT)*%
X169914064Y-56399936D02*
X168413936Y-57900064D01*
X174284000Y-56399936D02*
X169914064Y-56399936D01*
X168413936Y-57900064D02*
X162520000Y-57900064D01*
%TO.N,Net-(D1-DIN)*%
X181610000Y-57150000D02*
X180859936Y-57900064D01*
X180859936Y-57900064D02*
X179284000Y-57900064D01*
%TO.N,GND*%
X186798208Y-55245000D02*
X187941190Y-54102018D01*
X187941190Y-54102018D02*
X187941190Y-64751190D01*
X188214000Y-65024000D02*
X190241000Y-65024000D01*
X186144500Y-55245000D02*
X186798208Y-55245000D01*
X187941190Y-64751190D02*
X188214000Y-65024000D01*
%TO.N,Net-(J1-Pin_2)*%
X198120000Y-48418355D02*
X198120000Y-53340000D01*
X196183648Y-46482003D02*
X198120000Y-48418355D01*
X195072000Y-46482003D02*
X196183648Y-46482003D01*
%TO.N,+3V3*%
X177965408Y-63499994D02*
X180105201Y-61360201D01*
X157479988Y-63499994D02*
X140969988Y-63499994D01*
X121285000Y-58420000D02*
X121285000Y-59055000D01*
X124459988Y-46989994D02*
X121285000Y-50164982D01*
X173989988Y-63499994D02*
X157479988Y-63499994D01*
X184785000Y-66040000D02*
X187216690Y-63608310D01*
X195072000Y-45212000D02*
X194183000Y-45212000D01*
X173989988Y-63499994D02*
X177965408Y-63499994D01*
X124459993Y-46989989D02*
X124459988Y-46989994D01*
X121285000Y-50164982D02*
X121285000Y-58420000D01*
X194183000Y-45212000D02*
X193040000Y-46355000D01*
X187216690Y-63608310D02*
X187216690Y-62865000D01*
X173989995Y-46989989D02*
X157479996Y-46989990D01*
X157479996Y-46989990D02*
X140969995Y-46989989D01*
X140969995Y-46989989D02*
X124459993Y-46989989D01*
X193040000Y-46355000D02*
X193040000Y-46990000D01*
X140969988Y-63499994D02*
X124459988Y-63499994D01*
%TO.N,Net-(J1-Pin_4)*%
X187941190Y-45212000D02*
X189052838Y-45212000D01*
X193040000Y-54610000D02*
X195580000Y-57150000D01*
X195580000Y-57150000D02*
X195580000Y-62865000D01*
X190050000Y-46209162D02*
X190050000Y-48288057D01*
X190050000Y-48288057D02*
X193040000Y-51278057D01*
X193040000Y-51278057D02*
X193040000Y-54610000D01*
X195199000Y-62484000D02*
X192781000Y-62484000D01*
X189052838Y-45212000D02*
X190050000Y-46209162D01*
X195580000Y-62865000D02*
X195199000Y-62484000D01*
%TO.N,Net-(J1-Pin_6)*%
X192590000Y-56789500D02*
X194855500Y-59055000D01*
X189600000Y-47029165D02*
X189600000Y-48474453D01*
X192590000Y-51464453D02*
X192590000Y-56789500D01*
X189052838Y-46482003D02*
X189600000Y-47029165D01*
X189600000Y-48474453D02*
X192590000Y-51464453D01*
X187941190Y-46482003D02*
X189052838Y-46482003D01*
%TO.N,Net-(J1-Pin_8)*%
X192140000Y-55919177D02*
X192140000Y-57520000D01*
X189052838Y-52832015D02*
X192140000Y-55919177D01*
X196030000Y-64315000D02*
X192781000Y-67564000D01*
X187941190Y-52832015D02*
X189052838Y-52832015D01*
X196030000Y-56330000D02*
X196030000Y-64315000D01*
X194945000Y-55245000D02*
X196030000Y-56330000D01*
X192140000Y-57520000D02*
X192405000Y-57785000D01*
%TO.N,Net-(J1-Pin_10)*%
X198120000Y-69850000D02*
X197866000Y-70104000D01*
X195072000Y-54102018D02*
X198120000Y-57150018D01*
X198120000Y-57150018D02*
X198120000Y-69850000D01*
X197866000Y-70104000D02*
X192781000Y-70104000D01*
%TO.N,Net-(J1-Pin_12)*%
X198570000Y-55218367D02*
X198570000Y-70036396D01*
X198570000Y-70036396D02*
X195962396Y-72644000D01*
X196183648Y-52832015D02*
X198570000Y-55218367D01*
X195072000Y-52832015D02*
X196183648Y-52832015D01*
X195962396Y-72644000D02*
X192781000Y-72644000D01*
%TO.N,Net-(U1-A)*%
X185420002Y-44450000D02*
X189230000Y-44450000D01*
X181735000Y-50924988D02*
X181735000Y-52070000D01*
X180340007Y-49529995D02*
X185420002Y-44450000D01*
X193960352Y-51562013D02*
X195072000Y-51562013D01*
X180340007Y-49529995D02*
X181735000Y-50924988D01*
X190500000Y-45720000D02*
X190500000Y-48101661D01*
X190500000Y-48101661D02*
X193960352Y-51562013D01*
X189230000Y-44450000D02*
X190500000Y-45720000D01*
%TO.N,Net-(U1-H)*%
X186829542Y-51562013D02*
X187941190Y-51562013D01*
X181610000Y-66040000D02*
X185420000Y-62230000D01*
X185420000Y-62230000D02*
X185420000Y-52971555D01*
X181735000Y-67435000D02*
X181735000Y-68580000D01*
X185420000Y-52971555D02*
X186829542Y-51562013D01*
X180340000Y-66040000D02*
X181610000Y-66040000D01*
X180340000Y-66040000D02*
X181735000Y-67435000D01*
%TO.N,Net-(U1-B)*%
X163830008Y-49529996D02*
X165200000Y-50899988D01*
X178185141Y-49529996D02*
X163830008Y-49529996D01*
X190950000Y-47915265D02*
X190950000Y-45535000D01*
X195072000Y-50292010D02*
X193326745Y-50292010D01*
X190950000Y-45535000D02*
X189415000Y-44000000D01*
X185233606Y-44000000D02*
X181291803Y-47941803D01*
X165200000Y-50899988D02*
X165200000Y-52070000D01*
X189415000Y-44000000D02*
X185233606Y-44000000D01*
X181291803Y-47941803D02*
X179773334Y-47941803D01*
X179773334Y-47941803D02*
X178185141Y-49529996D01*
X193326745Y-50292010D02*
X190950000Y-47915265D01*
%TO.N,Net-(U1-G)*%
X184970000Y-58870000D02*
X184970000Y-52520000D01*
X187197990Y-50292010D02*
X187941190Y-50292010D01*
X177800000Y-66040000D02*
X184970000Y-58870000D01*
X165225000Y-67435000D02*
X165225000Y-68580000D01*
X163830000Y-66040000D02*
X165225000Y-67435000D01*
X163830000Y-66040000D02*
X177800000Y-66040000D01*
X184970000Y-52520000D02*
X187197990Y-50292010D01*
%TO.N,Net-(U1-F)*%
X187197992Y-49022008D02*
X187941190Y-49022008D01*
X161290000Y-66040000D02*
X162809881Y-64520119D01*
X166370000Y-65590000D02*
X177613604Y-65590000D01*
X162809881Y-64520119D02*
X165300119Y-64520119D01*
X177613604Y-65590000D02*
X184520000Y-58683604D01*
X147320000Y-66040000D02*
X148715000Y-67435000D01*
X147320000Y-66040000D02*
X161290000Y-66040000D01*
X165300119Y-64520119D02*
X166370000Y-65590000D01*
X184520000Y-51700000D02*
X187197992Y-49022008D01*
X184520000Y-58683604D02*
X184520000Y-51700000D01*
X148715000Y-67435000D02*
X148715000Y-68580000D01*
%TO.N,Net-(U1-C)*%
X189600000Y-43550000D02*
X191400000Y-45350000D01*
X191400000Y-47728869D02*
X192693139Y-49022008D01*
X163195024Y-48010115D02*
X164850115Y-48010115D01*
X192693139Y-49022008D02*
X195072000Y-49022008D01*
X179586938Y-47491803D02*
X181105407Y-47491803D01*
X181105407Y-47491803D02*
X185047210Y-43550000D01*
X191400000Y-45350000D02*
X191400000Y-47728869D01*
X177998745Y-49079996D02*
X179586938Y-47491803D01*
X164850115Y-48010115D02*
X165919996Y-49079996D01*
X161675144Y-49529995D02*
X163195024Y-48010115D01*
X147320007Y-49529995D02*
X148715000Y-50924988D01*
X165919996Y-49079996D02*
X177998745Y-49079996D01*
X185047210Y-43550000D02*
X189600000Y-43550000D01*
X148715000Y-50924988D02*
X148715000Y-52070000D01*
X147320007Y-49529995D02*
X161675144Y-49529995D01*
%TO.N,Net-(U1-E)*%
X162623485Y-64070119D02*
X165670119Y-64070119D01*
X142240000Y-66040000D02*
X144330006Y-63949994D01*
X184070000Y-58420000D02*
X184070000Y-51193847D01*
X144330006Y-63949994D02*
X149410006Y-63949994D01*
X165670119Y-64070119D02*
X166740000Y-65140000D01*
X166740000Y-65140000D02*
X177350000Y-65140000D01*
X149410006Y-63949994D02*
X151050012Y-65590000D01*
X130810000Y-66040000D02*
X142240000Y-66040000D01*
X177350000Y-65140000D02*
X184070000Y-58420000D01*
X184070000Y-51193847D02*
X187511842Y-47752005D01*
X161103604Y-65590000D02*
X162623485Y-64070119D01*
X187511842Y-47752005D02*
X187941190Y-47752005D01*
X151050012Y-65590000D02*
X161103604Y-65590000D01*
X130810000Y-66040000D02*
X132205000Y-67435000D01*
X132205000Y-67435000D02*
X132205000Y-68580000D01*
%TO.N,Net-(U1-D)*%
X184860814Y-43100000D02*
X189786396Y-43100000D01*
X161488748Y-49079995D02*
X163128753Y-47439990D01*
X132205000Y-50925000D02*
X132205000Y-52070000D01*
X191850000Y-45163604D02*
X191850000Y-46990000D01*
X146299886Y-48010114D02*
X148790119Y-48010114D01*
X192612005Y-47752005D02*
X195072000Y-47752005D01*
X130810000Y-49530000D02*
X144780000Y-49530000D01*
X177932475Y-48509870D02*
X179452345Y-46990000D01*
X163128753Y-47439990D02*
X164916386Y-47439990D01*
X164916386Y-47439990D02*
X165986266Y-48509870D01*
X144780000Y-49530000D02*
X146299886Y-48010114D01*
X149860000Y-49079995D02*
X161488748Y-49079995D01*
X191850000Y-46990000D02*
X192612005Y-47752005D01*
X180970814Y-46990000D02*
X184860814Y-43100000D01*
X130810000Y-49530000D02*
X132205000Y-50925000D01*
X179452345Y-46990000D02*
X180970814Y-46990000D01*
X148790119Y-48010114D02*
X149860000Y-49079995D01*
X189786396Y-43100000D02*
X191850000Y-45163604D01*
X165986266Y-48509870D02*
X177932475Y-48509870D01*
%TD*%
%TA.AperFunction,Conductor*%
%TO.N,GND*%
G36*
X186312187Y-53066471D02*
G01*
X186368120Y-53108343D01*
X186385895Y-53141699D01*
X186399988Y-53181976D01*
X186496081Y-53334906D01*
X186540864Y-53379689D01*
X186574349Y-53441012D01*
X186569365Y-53510704D01*
X186540865Y-53555050D01*
X186496475Y-53599440D01*
X186400441Y-53752277D01*
X186365541Y-53852017D01*
X186365541Y-53852018D01*
X188067190Y-53852018D01*
X188134229Y-53871703D01*
X188179984Y-53924507D01*
X188191190Y-53976018D01*
X188191190Y-54903021D01*
X188800676Y-54903021D01*
X188800679Y-54903020D01*
X188935055Y-54887880D01*
X189105435Y-54828262D01*
X189258270Y-54732229D01*
X189385904Y-54604595D01*
X189481937Y-54451760D01*
X189496092Y-54411309D01*
X189536814Y-54354532D01*
X189601767Y-54328785D01*
X189670328Y-54342241D01*
X189700815Y-54364582D01*
X191478181Y-56141948D01*
X191511666Y-56203271D01*
X191514500Y-56229629D01*
X191514500Y-57437255D01*
X191512775Y-57452872D01*
X191513061Y-57452899D01*
X191512326Y-57460665D01*
X191514500Y-57529814D01*
X191514500Y-57559343D01*
X191514501Y-57559360D01*
X191515368Y-57566231D01*
X191515826Y-57572050D01*
X191517096Y-57612455D01*
X191516787Y-57620894D01*
X191501298Y-57768270D01*
X191499540Y-57785000D01*
X191519326Y-57973256D01*
X191519327Y-57973259D01*
X191577818Y-58153277D01*
X191577821Y-58153284D01*
X191672467Y-58317216D01*
X191731155Y-58382395D01*
X191799129Y-58457888D01*
X191952265Y-58569148D01*
X191952267Y-58569149D01*
X191952270Y-58569151D01*
X192008955Y-58594389D01*
X192019612Y-58599134D01*
X192072848Y-58644385D01*
X192093169Y-58711234D01*
X192074123Y-58778458D01*
X192040299Y-58813988D01*
X191909597Y-58905505D01*
X191787673Y-59027430D01*
X191726350Y-59060914D01*
X191656658Y-59055930D01*
X191600725Y-59014058D01*
X191583810Y-58983081D01*
X191534797Y-58851671D01*
X191534793Y-58851664D01*
X191448547Y-58736455D01*
X191448544Y-58736452D01*
X191333335Y-58650206D01*
X191333328Y-58650202D01*
X191198482Y-58599908D01*
X191198483Y-58599908D01*
X191138883Y-58593501D01*
X191138881Y-58593500D01*
X191138873Y-58593500D01*
X191138864Y-58593500D01*
X189343129Y-58593500D01*
X189343123Y-58593501D01*
X189283516Y-58599908D01*
X189148671Y-58650202D01*
X189148664Y-58650206D01*
X189033455Y-58736452D01*
X189033452Y-58736455D01*
X188947206Y-58851664D01*
X188947202Y-58851671D01*
X188896908Y-58986517D01*
X188890501Y-59046116D01*
X188890500Y-59046135D01*
X188890500Y-60841870D01*
X188890501Y-60841876D01*
X188896908Y-60901483D01*
X188947202Y-61036328D01*
X188947206Y-61036335D01*
X189033452Y-61151544D01*
X189033455Y-61151547D01*
X189148664Y-61237793D01*
X189148671Y-61237797D01*
X189280081Y-61286810D01*
X189336015Y-61328681D01*
X189360432Y-61394145D01*
X189345580Y-61462418D01*
X189324430Y-61490673D01*
X189202503Y-61612600D01*
X189066965Y-61806169D01*
X189066964Y-61806171D01*
X188967098Y-62020335D01*
X188967094Y-62020344D01*
X188905938Y-62248586D01*
X188905936Y-62248596D01*
X188885341Y-62483999D01*
X188885341Y-62484000D01*
X188905936Y-62719403D01*
X188905938Y-62719413D01*
X188967094Y-62947655D01*
X188967096Y-62947659D01*
X188967097Y-62947663D01*
X189042563Y-63109500D01*
X189066965Y-63161830D01*
X189066967Y-63161834D01*
X189139616Y-63265586D01*
X189202505Y-63355401D01*
X189369599Y-63522495D01*
X189548684Y-63647892D01*
X189555594Y-63652730D01*
X189599219Y-63707307D01*
X189606413Y-63776805D01*
X189574890Y-63839160D01*
X189555595Y-63855880D01*
X189369922Y-63985890D01*
X189369920Y-63985891D01*
X189202891Y-64152920D01*
X189202886Y-64152926D01*
X189067400Y-64346420D01*
X189067399Y-64346422D01*
X188967570Y-64560507D01*
X188967567Y-64560513D01*
X188910364Y-64773999D01*
X188910364Y-64774000D01*
X189807314Y-64774000D01*
X189781507Y-64814156D01*
X189741000Y-64952111D01*
X189741000Y-65095889D01*
X189781507Y-65233844D01*
X189807314Y-65274000D01*
X188910364Y-65274000D01*
X188967567Y-65487486D01*
X188967570Y-65487492D01*
X189067399Y-65701578D01*
X189202894Y-65895082D01*
X189369917Y-66062105D01*
X189555595Y-66192119D01*
X189599219Y-66246696D01*
X189606412Y-66316195D01*
X189574890Y-66378549D01*
X189555595Y-66395269D01*
X189369594Y-66525508D01*
X189202505Y-66692597D01*
X189066965Y-66886169D01*
X189066964Y-66886171D01*
X188967098Y-67100335D01*
X188967094Y-67100344D01*
X188905938Y-67328586D01*
X188905936Y-67328596D01*
X188885341Y-67563999D01*
X188885341Y-67564000D01*
X188905936Y-67799403D01*
X188905938Y-67799413D01*
X188967094Y-68027655D01*
X188967096Y-68027659D01*
X188967097Y-68027663D01*
X189047004Y-68199023D01*
X189066965Y-68241830D01*
X189066967Y-68241834D01*
X189162173Y-68377801D01*
X189202501Y-68435396D01*
X189202506Y-68435402D01*
X189369597Y-68602493D01*
X189369603Y-68602498D01*
X189555158Y-68732425D01*
X189598783Y-68787002D01*
X189605977Y-68856500D01*
X189574454Y-68918855D01*
X189555158Y-68935575D01*
X189369597Y-69065505D01*
X189202505Y-69232597D01*
X189066965Y-69426169D01*
X189066964Y-69426171D01*
X188967098Y-69640335D01*
X188967094Y-69640344D01*
X188905938Y-69868586D01*
X188905936Y-69868596D01*
X188885341Y-70103999D01*
X188885341Y-70104000D01*
X188905936Y-70339403D01*
X188905938Y-70339413D01*
X188932856Y-70439872D01*
X188931193Y-70509722D01*
X188900762Y-70559646D01*
X185712164Y-73748245D01*
X185650841Y-73781730D01*
X185624483Y-73784564D01*
X181827934Y-73784564D01*
X181806955Y-73778403D01*
X181799411Y-73782302D01*
X181775832Y-73784564D01*
X180155948Y-73784564D01*
X180088909Y-73764879D01*
X180056748Y-73734964D01*
X180056325Y-73734400D01*
X180031849Y-73668958D01*
X180046639Y-73600671D01*
X180056325Y-73585600D01*
X180056748Y-73585036D01*
X180112719Y-73543215D01*
X180155948Y-73535436D01*
X181769321Y-73535436D01*
X181784941Y-73537160D01*
X181784968Y-73536875D01*
X181787506Y-73537115D01*
X181788643Y-73537569D01*
X181796369Y-73538422D01*
X181800342Y-73539310D01*
X181800086Y-73540454D01*
X181824038Y-73536625D01*
X181861878Y-73535436D01*
X181891414Y-73535436D01*
X181898292Y-73534566D01*
X181904105Y-73534108D01*
X181950691Y-73532645D01*
X181969933Y-73527053D01*
X181988976Y-73523110D01*
X182008856Y-73520600D01*
X182052186Y-73503443D01*
X182057710Y-73501553D01*
X182061460Y-73500463D01*
X182102454Y-73488554D01*
X182119693Y-73478358D01*
X182137167Y-73469798D01*
X182155791Y-73462424D01*
X182155791Y-73462423D01*
X182155796Y-73462422D01*
X182193513Y-73435018D01*
X182198369Y-73431828D01*
X182238484Y-73408106D01*
X182252653Y-73393935D01*
X182267443Y-73381304D01*
X182283651Y-73369530D01*
X182313363Y-73333612D01*
X182317276Y-73329312D01*
X186320199Y-69326390D01*
X186338182Y-69311514D01*
X186344938Y-69306924D01*
X186382918Y-69263842D01*
X186385558Y-69261032D01*
X186398120Y-69248471D01*
X186409012Y-69234427D01*
X186411465Y-69231463D01*
X186449450Y-69188378D01*
X186453157Y-69181100D01*
X186465663Y-69161394D01*
X186470673Y-69154936D01*
X186493475Y-69102241D01*
X186495132Y-69098721D01*
X186512056Y-69065506D01*
X186521198Y-69047565D01*
X186522979Y-69039593D01*
X186530192Y-69017395D01*
X186533438Y-69009896D01*
X186542423Y-68953154D01*
X186543144Y-68949377D01*
X186555673Y-68893333D01*
X186555416Y-68885164D01*
X186556883Y-68861867D01*
X186557733Y-68856500D01*
X186558160Y-68853804D01*
X186552756Y-68796652D01*
X186552513Y-68792780D01*
X186550710Y-68735373D01*
X186548427Y-68727516D01*
X186544055Y-68704597D01*
X186543287Y-68696467D01*
X186523838Y-68642444D01*
X186522635Y-68638740D01*
X186506619Y-68583613D01*
X186506619Y-68583612D01*
X186504486Y-68580005D01*
X186502458Y-68576576D01*
X186492521Y-68555458D01*
X186489754Y-68547772D01*
X186457478Y-68500279D01*
X186455393Y-68496994D01*
X186426171Y-68447582D01*
X186426170Y-68447580D01*
X186420397Y-68441807D01*
X186405521Y-68423826D01*
X186400924Y-68417062D01*
X186400920Y-68417058D01*
X186400919Y-68417057D01*
X186357844Y-68379082D01*
X186355020Y-68376430D01*
X185064325Y-67085734D01*
X185030840Y-67024411D01*
X185035824Y-66954719D01*
X185077696Y-66898786D01*
X185101570Y-66884774D01*
X185237730Y-66824151D01*
X185390871Y-66712888D01*
X185517533Y-66572216D01*
X185612179Y-66408284D01*
X185670674Y-66228256D01*
X185688321Y-66060344D01*
X185714904Y-65995734D01*
X185723951Y-65985638D01*
X187600478Y-64109111D01*
X187612732Y-64099296D01*
X187612549Y-64099074D01*
X187618556Y-64094102D01*
X187618567Y-64094096D01*
X187654427Y-64055909D01*
X187665917Y-64043674D01*
X187676361Y-64033228D01*
X187686810Y-64022781D01*
X187691069Y-64017288D01*
X187694842Y-64012871D01*
X187726752Y-63978892D01*
X187736405Y-63961330D01*
X187747079Y-63945080D01*
X187759363Y-63929246D01*
X187777870Y-63886477D01*
X187780439Y-63881234D01*
X187782643Y-63877223D01*
X187802887Y-63840402D01*
X187807867Y-63821001D01*
X187814168Y-63802598D01*
X187822128Y-63784206D01*
X187829420Y-63738159D01*
X187830601Y-63732462D01*
X187830848Y-63731500D01*
X187842190Y-63687329D01*
X187842190Y-63667293D01*
X187843717Y-63647892D01*
X187846850Y-63628114D01*
X187842465Y-63581725D01*
X187842190Y-63575887D01*
X187842190Y-63563687D01*
X187861875Y-63496648D01*
X187874040Y-63480715D01*
X187892581Y-63460122D01*
X187949223Y-63397216D01*
X188043869Y-63233284D01*
X188102364Y-63053256D01*
X188122150Y-62865000D01*
X188102364Y-62676744D01*
X188043869Y-62496716D01*
X187949223Y-62332784D01*
X187822561Y-62192112D01*
X187787670Y-62166762D01*
X187669424Y-62080851D01*
X187669419Y-62080848D01*
X187496497Y-62003857D01*
X187496492Y-62003855D01*
X187341488Y-61970909D01*
X187311336Y-61964500D01*
X187185500Y-61964500D01*
X187118461Y-61944815D01*
X187072706Y-61892011D01*
X187061500Y-61840500D01*
X187061500Y-60642687D01*
X187081185Y-60575648D01*
X187093350Y-60559715D01*
X187111891Y-60539122D01*
X187168533Y-60476216D01*
X187263179Y-60312284D01*
X187321674Y-60132256D01*
X187341460Y-59944000D01*
X187321674Y-59755744D01*
X187263179Y-59575716D01*
X187168533Y-59411784D01*
X187041871Y-59271112D01*
X187041870Y-59271111D01*
X186888734Y-59159851D01*
X186888729Y-59159848D01*
X186715807Y-59082857D01*
X186715802Y-59082855D01*
X186570001Y-59051865D01*
X186530646Y-59043500D01*
X186341354Y-59043500D01*
X186341352Y-59043500D01*
X186195280Y-59074548D01*
X186125613Y-59069232D01*
X186069880Y-59027094D01*
X186045775Y-58961514D01*
X186045500Y-58953258D01*
X186045500Y-54352018D01*
X186365541Y-54352018D01*
X186400441Y-54451758D01*
X186496475Y-54604595D01*
X186624109Y-54732229D01*
X186776944Y-54828262D01*
X186947324Y-54887880D01*
X187081700Y-54903020D01*
X187081704Y-54903021D01*
X187691190Y-54903021D01*
X187691190Y-54352018D01*
X186365541Y-54352018D01*
X186045500Y-54352018D01*
X186045500Y-53282006D01*
X186065185Y-53214967D01*
X186081815Y-53194329D01*
X186181173Y-53094971D01*
X186242495Y-53061487D01*
X186312187Y-53066471D01*
G37*
%TD.AperFunction*%
%TA.AperFunction,Conductor*%
G36*
X130514782Y-64145179D02*
G01*
X130560537Y-64197983D01*
X130570481Y-64267141D01*
X130541456Y-64330697D01*
X130482678Y-64368471D01*
X130466231Y-64372107D01*
X130430542Y-64377487D01*
X130430539Y-64377488D01*
X130430533Y-64377489D01*
X130186992Y-64452612D01*
X129957373Y-64563190D01*
X129957372Y-64563191D01*
X129746782Y-64706768D01*
X129559952Y-64880121D01*
X129559950Y-64880123D01*
X129401041Y-65079388D01*
X129273608Y-65300109D01*
X129180492Y-65537362D01*
X129180490Y-65537369D01*
X129123777Y-65785845D01*
X129104732Y-66039995D01*
X129104732Y-66040004D01*
X129123777Y-66294154D01*
X129179472Y-66538171D01*
X129180492Y-66542637D01*
X129273607Y-66779888D01*
X129401041Y-67000612D01*
X129559950Y-67199877D01*
X129746783Y-67373232D01*
X129957366Y-67516805D01*
X129957371Y-67516807D01*
X129957372Y-67516808D01*
X129957373Y-67516809D01*
X130044214Y-67558629D01*
X130186992Y-67627387D01*
X130186993Y-67627387D01*
X130186996Y-67627389D01*
X130430542Y-67702513D01*
X130682565Y-67740500D01*
X130937435Y-67740500D01*
X131189458Y-67702513D01*
X131329680Y-67659259D01*
X131399541Y-67658310D01*
X131458827Y-67695281D01*
X131488714Y-67758436D01*
X131479713Y-67827723D01*
X131453914Y-67865428D01*
X131449530Y-67869812D01*
X131449528Y-67869814D01*
X131449528Y-67869815D01*
X131443059Y-67880516D01*
X131361522Y-68015393D01*
X131310913Y-68177807D01*
X131308332Y-68206217D01*
X131304500Y-68248384D01*
X131304500Y-68911616D01*
X131306423Y-68932778D01*
X131310913Y-68982192D01*
X131310913Y-68982194D01*
X131310914Y-68982196D01*
X131361522Y-69144606D01*
X131443058Y-69279483D01*
X131449530Y-69290188D01*
X131569811Y-69410469D01*
X131569813Y-69410470D01*
X131569815Y-69410472D01*
X131715394Y-69498478D01*
X131877804Y-69549086D01*
X131948384Y-69555500D01*
X131948387Y-69555500D01*
X132461613Y-69555500D01*
X132461616Y-69555500D01*
X132532196Y-69549086D01*
X132694606Y-69498478D01*
X132840185Y-69410472D01*
X132942673Y-69307983D01*
X133003994Y-69274499D01*
X133073685Y-69279483D01*
X133118034Y-69307984D01*
X133220122Y-69410072D01*
X133365604Y-69498019D01*
X133365603Y-69498019D01*
X133527894Y-69548590D01*
X133527893Y-69548590D01*
X133598408Y-69554998D01*
X133598426Y-69554999D01*
X133604999Y-69554998D01*
X133605000Y-69554998D01*
X133605000Y-68830000D01*
X134105000Y-68830000D01*
X134105000Y-69554999D01*
X134111581Y-69554999D01*
X134182102Y-69548591D01*
X134182107Y-69548590D01*
X134344396Y-69498018D01*
X134489877Y-69410072D01*
X134610072Y-69289877D01*
X134698019Y-69144395D01*
X134748590Y-68982106D01*
X134755000Y-68911572D01*
X134755000Y-68830000D01*
X134105000Y-68830000D01*
X133605000Y-68830000D01*
X133605000Y-67605000D01*
X134105000Y-67605000D01*
X134105000Y-68330000D01*
X134754999Y-68330000D01*
X134754999Y-68248417D01*
X134748591Y-68177897D01*
X134748590Y-68177892D01*
X134698018Y-68015603D01*
X134610072Y-67870122D01*
X134489877Y-67749927D01*
X134344395Y-67661980D01*
X134344396Y-67661980D01*
X134182105Y-67611409D01*
X134182106Y-67611409D01*
X134111572Y-67605000D01*
X134105000Y-67605000D01*
X133605000Y-67605000D01*
X133604999Y-67604999D01*
X133598436Y-67605000D01*
X133598417Y-67605001D01*
X133527897Y-67611408D01*
X133527892Y-67611409D01*
X133365603Y-67661981D01*
X133220122Y-67749927D01*
X133220121Y-67749928D01*
X133118035Y-67852015D01*
X133056712Y-67885500D01*
X132987020Y-67880516D01*
X132942673Y-67852015D01*
X132866819Y-67776161D01*
X132833334Y-67714838D01*
X132830500Y-67688480D01*
X132830500Y-67517742D01*
X132832224Y-67502122D01*
X132831939Y-67502096D01*
X132832671Y-67494340D01*
X132832673Y-67494333D01*
X132830500Y-67425185D01*
X132830500Y-67395650D01*
X132829631Y-67388772D01*
X132829172Y-67382943D01*
X132827709Y-67336372D01*
X132822122Y-67317144D01*
X132818174Y-67298084D01*
X132815663Y-67278204D01*
X132798512Y-67234887D01*
X132796619Y-67229358D01*
X132783618Y-67184609D01*
X132783616Y-67184606D01*
X132773423Y-67167371D01*
X132764861Y-67149894D01*
X132757487Y-67131270D01*
X132757486Y-67131268D01*
X132730079Y-67093545D01*
X132726888Y-67088686D01*
X132725142Y-67085734D01*
X132703170Y-67048580D01*
X132703168Y-67048578D01*
X132703165Y-67048574D01*
X132689006Y-67034415D01*
X132676368Y-67019619D01*
X132664594Y-67003413D01*
X132661208Y-67000612D01*
X132628688Y-66973709D01*
X132624376Y-66969786D01*
X132531770Y-66877180D01*
X132498286Y-66815858D01*
X132503270Y-66746166D01*
X132545142Y-66690233D01*
X132610606Y-66665816D01*
X132619452Y-66665500D01*
X141798711Y-66665500D01*
X141865750Y-66685185D01*
X141911505Y-66737989D01*
X141921449Y-66807147D01*
X141892424Y-66870703D01*
X141880470Y-66882728D01*
X141844372Y-66914384D01*
X141641215Y-67146041D01*
X141641205Y-67146053D01*
X141470034Y-67402230D01*
X141470030Y-67402237D01*
X141333755Y-67678575D01*
X141333751Y-67678585D01*
X141234716Y-67970333D01*
X141234711Y-67970353D01*
X141179401Y-68248417D01*
X141174602Y-68272545D01*
X141154450Y-68580005D01*
X141174451Y-68885168D01*
X141174602Y-68887463D01*
X141174604Y-68887475D01*
X141234711Y-69189656D01*
X141234715Y-69189671D01*
X141333753Y-69481427D01*
X141333762Y-69481448D01*
X141470027Y-69757766D01*
X141470031Y-69757772D01*
X141470033Y-69757776D01*
X141641214Y-70013968D01*
X141641216Y-70013970D01*
X141844372Y-70245625D01*
X142008347Y-70389427D01*
X142076029Y-70448783D01*
X142110417Y-70471760D01*
X142184705Y-70521398D01*
X142229510Y-70575010D01*
X142238217Y-70644335D01*
X142208063Y-70707362D01*
X142148620Y-70744082D01*
X142115814Y-70748500D01*
X130626847Y-70748500D01*
X130603615Y-70746304D01*
X130595588Y-70744773D01*
X130595586Y-70744773D01*
X130586633Y-70745336D01*
X130538275Y-70748378D01*
X130534403Y-70748500D01*
X130516643Y-70748500D01*
X130499032Y-70750725D01*
X130495164Y-70751090D01*
X130463375Y-70753090D01*
X130437859Y-70754696D01*
X130430085Y-70757222D01*
X130407320Y-70762310D01*
X130399218Y-70763333D01*
X130399205Y-70763337D01*
X130345810Y-70784477D01*
X130342154Y-70785792D01*
X130292311Y-70801989D01*
X130287556Y-70803534D01*
X130280652Y-70807915D01*
X130259880Y-70818499D01*
X130252273Y-70821511D01*
X130252262Y-70821517D01*
X130205814Y-70855263D01*
X130202595Y-70857451D01*
X130154123Y-70888213D01*
X130154120Y-70888216D01*
X130148529Y-70894170D01*
X130131029Y-70909599D01*
X130124413Y-70914405D01*
X130124412Y-70914406D01*
X130087812Y-70958646D01*
X130085238Y-70961565D01*
X130045937Y-71003417D01*
X130045935Y-71003420D01*
X130041994Y-71010589D01*
X130028889Y-71029873D01*
X130023677Y-71036173D01*
X130023674Y-71036178D01*
X129999231Y-71088121D01*
X129997464Y-71091589D01*
X129969804Y-71141903D01*
X129969803Y-71141908D01*
X129967769Y-71149828D01*
X129959870Y-71171768D01*
X129956386Y-71179172D01*
X129956384Y-71179178D01*
X129945629Y-71235561D01*
X129944779Y-71239361D01*
X129930500Y-71294976D01*
X129930500Y-71303152D01*
X129928305Y-71326379D01*
X129926773Y-71334412D01*
X129930378Y-71391724D01*
X129930500Y-71395595D01*
X129930500Y-71543482D01*
X129910815Y-71610521D01*
X129894181Y-71631163D01*
X129562222Y-71963122D01*
X129500899Y-71996607D01*
X129474541Y-71999441D01*
X128852129Y-71999441D01*
X128852123Y-71999442D01*
X128792516Y-72005849D01*
X128657671Y-72056143D01*
X128657664Y-72056147D01*
X128542455Y-72142393D01*
X128542452Y-72142396D01*
X128456206Y-72257605D01*
X128456202Y-72257612D01*
X128405908Y-72392458D01*
X128399685Y-72450343D01*
X128399501Y-72452064D01*
X128399500Y-72452076D01*
X128399500Y-73244039D01*
X128379815Y-73311078D01*
X128327011Y-73356833D01*
X128257853Y-73366777D01*
X128194297Y-73337752D01*
X128156523Y-73278974D01*
X128155750Y-73276224D01*
X128146746Y-73242618D01*
X128125235Y-73196488D01*
X128106548Y-73156412D01*
X128104692Y-73151994D01*
X128097070Y-73131686D01*
X128097068Y-73131680D01*
X128089343Y-73118751D01*
X128086375Y-73113153D01*
X128056847Y-73049829D01*
X127998955Y-72967150D01*
X127996529Y-72963405D01*
X127985103Y-72944281D01*
X127984072Y-72943101D01*
X127976403Y-72934322D01*
X127972304Y-72929089D01*
X127934837Y-72875580D01*
X127934834Y-72875577D01*
X127859066Y-72799809D01*
X127856237Y-72796783D01*
X127849522Y-72789097D01*
X127841473Y-72779883D01*
X127832681Y-72772873D01*
X127827493Y-72768236D01*
X127784421Y-72725164D01*
X127691178Y-72659874D01*
X127688084Y-72657561D01*
X127670802Y-72643779D01*
X127670798Y-72643776D01*
X127662723Y-72639430D01*
X127656541Y-72635620D01*
X127610173Y-72603154D01*
X127500407Y-72551969D01*
X127497229Y-72550374D01*
X127478567Y-72540332D01*
X127478567Y-72540331D01*
X127471900Y-72538166D01*
X127464851Y-72535389D01*
X127417382Y-72513254D01*
X127417378Y-72513253D01*
X127417376Y-72513252D01*
X127292591Y-72479816D01*
X127289480Y-72478894D01*
X127270958Y-72472876D01*
X127270941Y-72472872D01*
X127266223Y-72472233D01*
X127258501Y-72470681D01*
X127211910Y-72458198D01*
X127211911Y-72458198D01*
X127074138Y-72446144D01*
X127071219Y-72445819D01*
X127063196Y-72444732D01*
X127054630Y-72443572D01*
X127054629Y-72443572D01*
X127054622Y-72443571D01*
X127052181Y-72443681D01*
X127043998Y-72443507D01*
X127000002Y-72439658D01*
X126999998Y-72439658D01*
X126850458Y-72452741D01*
X126836544Y-72453366D01*
X126836512Y-72453370D01*
X126836432Y-72453389D01*
X126828078Y-72454698D01*
X126794217Y-72457661D01*
X126788090Y-72458198D01*
X126788087Y-72458198D01*
X126788084Y-72458199D01*
X126631220Y-72500231D01*
X126623716Y-72501943D01*
X126620025Y-72503142D01*
X126616930Y-72504059D01*
X126582616Y-72513254D01*
X126389828Y-72603153D01*
X126389824Y-72603155D01*
X126215577Y-72725164D01*
X126065164Y-72875577D01*
X125943155Y-73049824D01*
X125943153Y-73049828D01*
X125853255Y-73242616D01*
X125853250Y-73242629D01*
X125844273Y-73276130D01*
X125807907Y-73335790D01*
X125745059Y-73366318D01*
X125675684Y-73358021D01*
X125621807Y-73313535D01*
X125600534Y-73246982D01*
X125600499Y-73244106D01*
X125600499Y-72452069D01*
X125595292Y-72403634D01*
X125594091Y-72392457D01*
X125543797Y-72257612D01*
X125543793Y-72257605D01*
X125457547Y-72142396D01*
X125457544Y-72142393D01*
X125342335Y-72056147D01*
X125342328Y-72056143D01*
X125207482Y-72005849D01*
X125207483Y-72005849D01*
X125147883Y-71999442D01*
X125147881Y-71999441D01*
X125147873Y-71999441D01*
X125147864Y-71999441D01*
X123852129Y-71999441D01*
X123852123Y-71999442D01*
X123792516Y-72005849D01*
X123657671Y-72056143D01*
X123657665Y-72056146D01*
X123645927Y-72064934D01*
X123580462Y-72089350D01*
X123512189Y-72074497D01*
X123483941Y-72053350D01*
X123343816Y-71913226D01*
X123310334Y-71851905D01*
X123307500Y-71825547D01*
X123307500Y-68580005D01*
X124644450Y-68580005D01*
X124664451Y-68885168D01*
X124664602Y-68887463D01*
X124664604Y-68887475D01*
X124724711Y-69189656D01*
X124724715Y-69189671D01*
X124823753Y-69481427D01*
X124823762Y-69481448D01*
X124960027Y-69757766D01*
X124960031Y-69757772D01*
X124960033Y-69757776D01*
X125131214Y-70013968D01*
X125131216Y-70013970D01*
X125334372Y-70245625D01*
X125498347Y-70389427D01*
X125566029Y-70448783D01*
X125822222Y-70619965D01*
X125822225Y-70619966D01*
X125822231Y-70619970D01*
X126098549Y-70756235D01*
X126098554Y-70756237D01*
X126098566Y-70756243D01*
X126390334Y-70855285D01*
X126692533Y-70915396D01*
X126923052Y-70930505D01*
X126923055Y-70930505D01*
X127076931Y-70930505D01*
X127076934Y-70930505D01*
X127307453Y-70915396D01*
X127609652Y-70855285D01*
X127901420Y-70756243D01*
X128177764Y-70619965D01*
X128433957Y-70448783D01*
X128665613Y-70245625D01*
X128868771Y-70013969D01*
X128871550Y-70009811D01*
X129039950Y-69757781D01*
X129039953Y-69757777D01*
X129176231Y-69481432D01*
X129177227Y-69478500D01*
X129275269Y-69189676D01*
X129275269Y-69189675D01*
X129275273Y-69189664D01*
X129335384Y-68887465D01*
X129355536Y-68580005D01*
X129335384Y-68272545D01*
X129275273Y-67970346D01*
X129176231Y-67678578D01*
X129176223Y-67678561D01*
X129039958Y-67402243D01*
X129039949Y-67402228D01*
X129027063Y-67382943D01*
X128868771Y-67146041D01*
X128762104Y-67024411D01*
X128665613Y-66914384D01*
X128435851Y-66712888D01*
X128433957Y-66711227D01*
X128261877Y-66596247D01*
X128177769Y-66540048D01*
X128177754Y-66540039D01*
X127901436Y-66403774D01*
X127901415Y-66403765D01*
X127609659Y-66304727D01*
X127609653Y-66304725D01*
X127609652Y-66304725D01*
X127609650Y-66304724D01*
X127609644Y-66304723D01*
X127307463Y-66244616D01*
X127307453Y-66244614D01*
X127076934Y-66229505D01*
X126923052Y-66229505D01*
X126692533Y-66244614D01*
X126692527Y-66244615D01*
X126692522Y-66244616D01*
X126390341Y-66304723D01*
X126390326Y-66304727D01*
X126098570Y-66403765D01*
X126098549Y-66403774D01*
X125822231Y-66540039D01*
X125822216Y-66540048D01*
X125566027Y-66711228D01*
X125334372Y-66914384D01*
X125131215Y-67146041D01*
X125131205Y-67146053D01*
X124960034Y-67402230D01*
X124960030Y-67402237D01*
X124823755Y-67678575D01*
X124823751Y-67678585D01*
X124724716Y-67970333D01*
X124724711Y-67970353D01*
X124669401Y-68248417D01*
X124664602Y-68272545D01*
X124644450Y-68580005D01*
X123307500Y-68580005D01*
X123307500Y-65006981D01*
X123327185Y-64939942D01*
X123379989Y-64894187D01*
X123449147Y-64884243D01*
X123501348Y-64904525D01*
X123607354Y-64976799D01*
X123607359Y-64976801D01*
X123607360Y-64976802D01*
X123607361Y-64976803D01*
X123705366Y-65023999D01*
X123836980Y-65087381D01*
X123836981Y-65087381D01*
X123836984Y-65087383D01*
X124080530Y-65162507D01*
X124332553Y-65200494D01*
X124587423Y-65200494D01*
X124839446Y-65162507D01*
X125082992Y-65087383D01*
X125312622Y-64976799D01*
X125523205Y-64833226D01*
X125710038Y-64659871D01*
X125868947Y-64460606D01*
X125996381Y-64239882D01*
X126010388Y-64204190D01*
X126053203Y-64148979D01*
X126119073Y-64125677D01*
X126125816Y-64125494D01*
X130447743Y-64125494D01*
X130514782Y-64145179D01*
G37*
%TD.AperFunction*%
%TA.AperFunction,Conductor*%
G36*
X182468081Y-66169021D02*
G01*
X182524014Y-66210893D01*
X182543823Y-66250607D01*
X182555380Y-66290388D01*
X182565580Y-66307634D01*
X182574136Y-66325100D01*
X182580310Y-66340692D01*
X182581514Y-66343732D01*
X182608898Y-66381423D01*
X182612106Y-66386307D01*
X182635827Y-66426416D01*
X182635833Y-66426424D01*
X182649990Y-66440580D01*
X182662628Y-66455376D01*
X182674405Y-66471586D01*
X182674406Y-66471587D01*
X182710309Y-66501288D01*
X182714620Y-66505210D01*
X183179186Y-66969776D01*
X183637024Y-67427614D01*
X183670509Y-67488937D01*
X183665525Y-67558629D01*
X183637024Y-67602976D01*
X183635000Y-67605000D01*
X183635000Y-68330000D01*
X184284999Y-68330000D01*
X184303685Y-68311313D01*
X184304684Y-68307912D01*
X184357488Y-68262157D01*
X184426646Y-68252213D01*
X184490202Y-68281238D01*
X184496680Y-68287270D01*
X184955728Y-68746318D01*
X184989213Y-68807641D01*
X184984229Y-68877333D01*
X184955728Y-68921680D01*
X181629292Y-72248117D01*
X181567969Y-72281602D01*
X181541611Y-72284436D01*
X180155948Y-72284436D01*
X180088909Y-72264751D01*
X180056682Y-72234748D01*
X180017367Y-72182231D01*
X179987546Y-72142395D01*
X179987544Y-72142394D01*
X179987544Y-72142393D01*
X179872335Y-72056147D01*
X179872330Y-72056144D01*
X179736166Y-72005358D01*
X179680233Y-71963486D01*
X179655816Y-71898022D01*
X179655500Y-71889176D01*
X179655500Y-71670742D01*
X179657224Y-71655122D01*
X179656939Y-71655095D01*
X179657673Y-71647333D01*
X179655500Y-71578172D01*
X179655500Y-71548656D01*
X179655500Y-71548650D01*
X179654631Y-71541779D01*
X179654173Y-71535952D01*
X179652710Y-71489373D01*
X179647119Y-71470130D01*
X179643173Y-71451078D01*
X179640664Y-71431208D01*
X179623504Y-71387867D01*
X179621624Y-71382379D01*
X179608618Y-71337610D01*
X179598422Y-71320370D01*
X179589861Y-71302894D01*
X179582487Y-71284270D01*
X179577957Y-71278035D01*
X179555079Y-71246545D01*
X179551888Y-71241686D01*
X179528172Y-71201583D01*
X179528165Y-71201574D01*
X179514006Y-71187415D01*
X179501368Y-71172619D01*
X179489594Y-71156413D01*
X179453696Y-71126716D01*
X179449373Y-71122782D01*
X179316800Y-70990209D01*
X179306980Y-70977952D01*
X179306760Y-70978135D01*
X179301788Y-70972125D01*
X179251362Y-70924771D01*
X179230476Y-70903884D01*
X179224986Y-70899625D01*
X179220561Y-70895847D01*
X179186582Y-70863938D01*
X179186580Y-70863936D01*
X179186577Y-70863935D01*
X179169029Y-70854288D01*
X179152763Y-70843604D01*
X179136933Y-70831325D01*
X179094168Y-70812818D01*
X179088922Y-70810248D01*
X179048093Y-70787803D01*
X179048092Y-70787802D01*
X179028693Y-70782822D01*
X179010281Y-70776518D01*
X178991898Y-70768562D01*
X178991892Y-70768560D01*
X178945874Y-70761272D01*
X178940152Y-70760087D01*
X178895021Y-70748500D01*
X178895019Y-70748500D01*
X178874984Y-70748500D01*
X178855586Y-70746973D01*
X178841695Y-70744773D01*
X178835805Y-70743840D01*
X178835804Y-70743840D01*
X178789416Y-70748225D01*
X178783578Y-70748500D01*
X177924172Y-70748500D01*
X177857133Y-70728815D01*
X177811378Y-70676011D01*
X177801434Y-70606853D01*
X177830459Y-70543297D01*
X177855281Y-70521398D01*
X177875851Y-70507652D01*
X177963957Y-70448783D01*
X178195613Y-70245625D01*
X178398771Y-70013969D01*
X178401550Y-70009811D01*
X178569950Y-69757781D01*
X178569953Y-69757777D01*
X178706231Y-69481432D01*
X178707227Y-69478500D01*
X178805269Y-69189676D01*
X178805269Y-69189675D01*
X178805273Y-69189664D01*
X178865384Y-68887465D01*
X178885536Y-68580005D01*
X178865384Y-68272545D01*
X178805273Y-67970346D01*
X178706231Y-67678578D01*
X178706223Y-67678561D01*
X178569958Y-67402243D01*
X178569949Y-67402228D01*
X178557063Y-67382943D01*
X178398771Y-67146041D01*
X178292104Y-67024411D01*
X178195613Y-66914384D01*
X178066731Y-66801358D01*
X178029307Y-66742356D01*
X178029723Y-66672488D01*
X178067846Y-66613936D01*
X178096966Y-66596382D01*
X178096892Y-66596247D01*
X178100297Y-66594374D01*
X178102853Y-66592833D01*
X178103732Y-66592486D01*
X178141449Y-66565082D01*
X178146305Y-66561892D01*
X178186420Y-66538170D01*
X178200589Y-66523999D01*
X178215379Y-66511368D01*
X178231587Y-66499594D01*
X178261299Y-66463676D01*
X178265212Y-66459376D01*
X178453629Y-66270959D01*
X178514950Y-66237476D01*
X178584642Y-66242460D01*
X178640575Y-66284332D01*
X178662198Y-66331048D01*
X178673040Y-66378549D01*
X178710489Y-66542628D01*
X178710490Y-66542630D01*
X178710492Y-66542637D01*
X178803607Y-66779888D01*
X178931041Y-67000612D01*
X179089950Y-67199877D01*
X179276783Y-67373232D01*
X179487366Y-67516805D01*
X179487371Y-67516807D01*
X179487372Y-67516808D01*
X179487373Y-67516809D01*
X179574214Y-67558629D01*
X179716992Y-67627387D01*
X179716993Y-67627387D01*
X179716996Y-67627389D01*
X179960542Y-67702513D01*
X180212565Y-67740500D01*
X180467435Y-67740500D01*
X180719458Y-67702513D01*
X180859680Y-67659259D01*
X180929541Y-67658310D01*
X180988827Y-67695281D01*
X181018714Y-67758436D01*
X181009713Y-67827723D01*
X180983914Y-67865428D01*
X180979530Y-67869812D01*
X180979528Y-67869814D01*
X180979528Y-67869815D01*
X180973059Y-67880516D01*
X180891522Y-68015393D01*
X180840913Y-68177807D01*
X180838332Y-68206217D01*
X180834500Y-68248384D01*
X180834500Y-68911616D01*
X180836423Y-68932778D01*
X180840913Y-68982192D01*
X180840913Y-68982194D01*
X180840914Y-68982196D01*
X180891522Y-69144606D01*
X180973058Y-69279483D01*
X180979530Y-69290188D01*
X181099811Y-69410469D01*
X181099813Y-69410470D01*
X181099815Y-69410472D01*
X181245394Y-69498478D01*
X181407804Y-69549086D01*
X181478384Y-69555500D01*
X181478387Y-69555500D01*
X181991613Y-69555500D01*
X181991616Y-69555500D01*
X182062196Y-69549086D01*
X182224606Y-69498478D01*
X182370185Y-69410472D01*
X182472673Y-69307983D01*
X182533994Y-69274499D01*
X182603685Y-69279483D01*
X182648034Y-69307984D01*
X182750122Y-69410072D01*
X182895604Y-69498019D01*
X182895603Y-69498019D01*
X183057894Y-69548590D01*
X183057893Y-69548590D01*
X183128408Y-69554998D01*
X183128426Y-69554999D01*
X183134999Y-69554998D01*
X183135000Y-69554998D01*
X183135000Y-68830000D01*
X183635000Y-68830000D01*
X183635000Y-69554999D01*
X183641581Y-69554999D01*
X183712102Y-69548591D01*
X183712107Y-69548590D01*
X183874396Y-69498018D01*
X184019877Y-69410072D01*
X184140072Y-69289877D01*
X184228019Y-69144395D01*
X184278590Y-68982106D01*
X184285000Y-68911572D01*
X184285000Y-68830000D01*
X183635000Y-68830000D01*
X183135000Y-68830000D01*
X183135000Y-67605000D01*
X183134999Y-67604999D01*
X183128436Y-67605000D01*
X183128417Y-67605001D01*
X183057897Y-67611408D01*
X183057892Y-67611409D01*
X182895603Y-67661981D01*
X182750122Y-67749927D01*
X182750121Y-67749928D01*
X182648035Y-67852015D01*
X182586712Y-67885500D01*
X182517020Y-67880516D01*
X182472673Y-67852015D01*
X182396819Y-67776161D01*
X182363334Y-67714838D01*
X182360500Y-67688480D01*
X182360500Y-67517742D01*
X182362224Y-67502122D01*
X182361939Y-67502096D01*
X182362671Y-67494340D01*
X182362673Y-67494333D01*
X182360500Y-67425185D01*
X182360500Y-67395650D01*
X182359631Y-67388772D01*
X182359172Y-67382943D01*
X182357709Y-67336372D01*
X182352122Y-67317144D01*
X182348174Y-67298084D01*
X182345663Y-67278204D01*
X182328512Y-67234887D01*
X182326619Y-67229358D01*
X182313618Y-67184609D01*
X182313616Y-67184606D01*
X182303423Y-67167371D01*
X182294861Y-67149894D01*
X182287487Y-67131270D01*
X182287486Y-67131268D01*
X182260079Y-67093545D01*
X182256888Y-67088686D01*
X182255142Y-67085734D01*
X182233170Y-67048580D01*
X182233168Y-67048578D01*
X182233165Y-67048574D01*
X182219006Y-67034415D01*
X182206368Y-67019619D01*
X182194594Y-67003413D01*
X182191208Y-67000612D01*
X182158688Y-66973709D01*
X182154376Y-66969786D01*
X181958628Y-66774037D01*
X181925143Y-66712714D01*
X181930127Y-66643022D01*
X181930855Y-66641120D01*
X181948070Y-66597257D01*
X181990885Y-66542046D01*
X181994335Y-66539786D01*
X181996412Y-66538174D01*
X181996420Y-66538170D01*
X182010589Y-66523999D01*
X182025379Y-66511368D01*
X182041587Y-66499594D01*
X182071299Y-66463676D01*
X182075212Y-66459376D01*
X182337068Y-66197520D01*
X182398389Y-66164037D01*
X182468081Y-66169021D01*
G37*
%TD.AperFunction*%
%TA.AperFunction,Conductor*%
G36*
X146149355Y-64595179D02*
G01*
X146195110Y-64647983D01*
X146205054Y-64717141D01*
X146176029Y-64780697D01*
X146166662Y-64790386D01*
X146120493Y-64833226D01*
X146069952Y-64880121D01*
X146069950Y-64880123D01*
X145911041Y-65079388D01*
X145783608Y-65300109D01*
X145690492Y-65537362D01*
X145690490Y-65537369D01*
X145633777Y-65785845D01*
X145614732Y-66039995D01*
X145614732Y-66040004D01*
X145633777Y-66294154D01*
X145689472Y-66538171D01*
X145690492Y-66542637D01*
X145783607Y-66779888D01*
X145911041Y-67000612D01*
X146069950Y-67199877D01*
X146256783Y-67373232D01*
X146467366Y-67516805D01*
X146467371Y-67516807D01*
X146467372Y-67516808D01*
X146467373Y-67516809D01*
X146554214Y-67558629D01*
X146696992Y-67627387D01*
X146696993Y-67627387D01*
X146696996Y-67627389D01*
X146940542Y-67702513D01*
X147192565Y-67740500D01*
X147447435Y-67740500D01*
X147699458Y-67702513D01*
X147839680Y-67659259D01*
X147909541Y-67658310D01*
X147968827Y-67695281D01*
X147998714Y-67758436D01*
X147989713Y-67827723D01*
X147963914Y-67865428D01*
X147959530Y-67869812D01*
X147959528Y-67869814D01*
X147959528Y-67869815D01*
X147953059Y-67880516D01*
X147871522Y-68015393D01*
X147820913Y-68177807D01*
X147818332Y-68206217D01*
X147814500Y-68248384D01*
X147814500Y-68911616D01*
X147816423Y-68932778D01*
X147820913Y-68982192D01*
X147820913Y-68982194D01*
X147820914Y-68982196D01*
X147871522Y-69144606D01*
X147953058Y-69279483D01*
X147959530Y-69290188D01*
X148079811Y-69410469D01*
X148079813Y-69410470D01*
X148079815Y-69410472D01*
X148225394Y-69498478D01*
X148387804Y-69549086D01*
X148458384Y-69555500D01*
X148458387Y-69555500D01*
X148971613Y-69555500D01*
X148971616Y-69555500D01*
X149042196Y-69549086D01*
X149204606Y-69498478D01*
X149350185Y-69410472D01*
X149452673Y-69307983D01*
X149513994Y-69274499D01*
X149583685Y-69279483D01*
X149628034Y-69307984D01*
X149730122Y-69410072D01*
X149875604Y-69498019D01*
X149875603Y-69498019D01*
X150037894Y-69548590D01*
X150037893Y-69548590D01*
X150108408Y-69554998D01*
X150108426Y-69554999D01*
X150114999Y-69554998D01*
X150115000Y-69554998D01*
X150115000Y-68830000D01*
X150615000Y-68830000D01*
X150615000Y-69554999D01*
X150621581Y-69554999D01*
X150692102Y-69548591D01*
X150692107Y-69548590D01*
X150854396Y-69498018D01*
X150999877Y-69410072D01*
X151120072Y-69289877D01*
X151208019Y-69144395D01*
X151258590Y-68982106D01*
X151265000Y-68911572D01*
X151265000Y-68830000D01*
X150615000Y-68830000D01*
X150115000Y-68830000D01*
X150115000Y-67605000D01*
X150615000Y-67605000D01*
X150615000Y-68330000D01*
X151264999Y-68330000D01*
X151264999Y-68248417D01*
X151258591Y-68177897D01*
X151258590Y-68177892D01*
X151208018Y-68015603D01*
X151120072Y-67870122D01*
X150999877Y-67749927D01*
X150854395Y-67661980D01*
X150854396Y-67661980D01*
X150692105Y-67611409D01*
X150692106Y-67611409D01*
X150621572Y-67605000D01*
X150615000Y-67605000D01*
X150115000Y-67605000D01*
X150114999Y-67604999D01*
X150108436Y-67605000D01*
X150108417Y-67605001D01*
X150037897Y-67611408D01*
X150037892Y-67611409D01*
X149875603Y-67661981D01*
X149730122Y-67749927D01*
X149730121Y-67749928D01*
X149628035Y-67852015D01*
X149566712Y-67885500D01*
X149497020Y-67880516D01*
X149452673Y-67852015D01*
X149376819Y-67776161D01*
X149343334Y-67714838D01*
X149340500Y-67688480D01*
X149340500Y-67517742D01*
X149342224Y-67502122D01*
X149341939Y-67502096D01*
X149342671Y-67494340D01*
X149342673Y-67494333D01*
X149340500Y-67425185D01*
X149340500Y-67395650D01*
X149339631Y-67388772D01*
X149339172Y-67382943D01*
X149337709Y-67336372D01*
X149332122Y-67317144D01*
X149328174Y-67298084D01*
X149325663Y-67278204D01*
X149308512Y-67234887D01*
X149306619Y-67229358D01*
X149293618Y-67184609D01*
X149293616Y-67184606D01*
X149283423Y-67167371D01*
X149274861Y-67149894D01*
X149267487Y-67131270D01*
X149267486Y-67131268D01*
X149240079Y-67093545D01*
X149236888Y-67088686D01*
X149235142Y-67085734D01*
X149213170Y-67048580D01*
X149213168Y-67048578D01*
X149213165Y-67048574D01*
X149199006Y-67034415D01*
X149186368Y-67019619D01*
X149174594Y-67003413D01*
X149171208Y-67000612D01*
X149138688Y-66973709D01*
X149134376Y-66969786D01*
X149041770Y-66877180D01*
X149008286Y-66815858D01*
X149013270Y-66746166D01*
X149055142Y-66690233D01*
X149120606Y-66665816D01*
X149129452Y-66665500D01*
X158308711Y-66665500D01*
X158375750Y-66685185D01*
X158421505Y-66737989D01*
X158431449Y-66807147D01*
X158402424Y-66870703D01*
X158390470Y-66882728D01*
X158354372Y-66914384D01*
X158151215Y-67146041D01*
X158151205Y-67146053D01*
X157980034Y-67402230D01*
X157980030Y-67402237D01*
X157843755Y-67678575D01*
X157843751Y-67678585D01*
X157744716Y-67970333D01*
X157744711Y-67970353D01*
X157689401Y-68248417D01*
X157684602Y-68272545D01*
X157664450Y-68580005D01*
X157684451Y-68885168D01*
X157684602Y-68887463D01*
X157684604Y-68887475D01*
X157744711Y-69189656D01*
X157744715Y-69189671D01*
X157843753Y-69481427D01*
X157843762Y-69481448D01*
X157980027Y-69757766D01*
X157980031Y-69757772D01*
X157980033Y-69757776D01*
X158151214Y-70013968D01*
X158151216Y-70013970D01*
X158354372Y-70245625D01*
X158518347Y-70389427D01*
X158586029Y-70448783D01*
X158620417Y-70471760D01*
X158694705Y-70521398D01*
X158739510Y-70575010D01*
X158748217Y-70644335D01*
X158718063Y-70707362D01*
X158658620Y-70744082D01*
X158625814Y-70748500D01*
X148660847Y-70748500D01*
X148637615Y-70746304D01*
X148629588Y-70744773D01*
X148629586Y-70744773D01*
X148620633Y-70745336D01*
X148572275Y-70748378D01*
X148568403Y-70748500D01*
X144904172Y-70748500D01*
X144837133Y-70728815D01*
X144791378Y-70676011D01*
X144781434Y-70606853D01*
X144810459Y-70543297D01*
X144835281Y-70521398D01*
X144855851Y-70507652D01*
X144943957Y-70448783D01*
X145175613Y-70245625D01*
X145378771Y-70013969D01*
X145381550Y-70009811D01*
X145549950Y-69757781D01*
X145549953Y-69757777D01*
X145686231Y-69481432D01*
X145687227Y-69478500D01*
X145785269Y-69189676D01*
X145785269Y-69189675D01*
X145785273Y-69189664D01*
X145845384Y-68887465D01*
X145865536Y-68580005D01*
X145845384Y-68272545D01*
X145785273Y-67970346D01*
X145686231Y-67678578D01*
X145686223Y-67678561D01*
X145549958Y-67402243D01*
X145549949Y-67402228D01*
X145537063Y-67382943D01*
X145378771Y-67146041D01*
X145272104Y-67024411D01*
X145175613Y-66914384D01*
X144945851Y-66712888D01*
X144943957Y-66711227D01*
X144771877Y-66596247D01*
X144687769Y-66540048D01*
X144687754Y-66540039D01*
X144411436Y-66403774D01*
X144411415Y-66403765D01*
X144119659Y-66304727D01*
X144119653Y-66304725D01*
X144119652Y-66304725D01*
X144119650Y-66304724D01*
X144119644Y-66304723D01*
X143817463Y-66244616D01*
X143817453Y-66244614D01*
X143586934Y-66229505D01*
X143433052Y-66229505D01*
X143338337Y-66235712D01*
X143228909Y-66242885D01*
X143160726Y-66227626D01*
X143111616Y-66177928D01*
X143097171Y-66109568D01*
X143121977Y-66044250D01*
X143133109Y-66031479D01*
X144552778Y-64611813D01*
X144614101Y-64578328D01*
X144640459Y-64575494D01*
X146082316Y-64575494D01*
X146149355Y-64595179D01*
G37*
%TD.AperFunction*%
%TA.AperFunction,Conductor*%
G36*
X162074642Y-66242460D02*
G01*
X162130575Y-66284332D01*
X162152198Y-66331048D01*
X162163040Y-66378549D01*
X162200489Y-66542628D01*
X162200490Y-66542630D01*
X162200492Y-66542637D01*
X162293607Y-66779888D01*
X162421041Y-67000612D01*
X162579950Y-67199877D01*
X162766783Y-67373232D01*
X162977366Y-67516805D01*
X162977371Y-67516807D01*
X162977372Y-67516808D01*
X162977373Y-67516809D01*
X163064214Y-67558629D01*
X163206992Y-67627387D01*
X163206993Y-67627387D01*
X163206996Y-67627389D01*
X163450542Y-67702513D01*
X163702565Y-67740500D01*
X163957435Y-67740500D01*
X164209458Y-67702513D01*
X164349680Y-67659259D01*
X164419541Y-67658310D01*
X164478827Y-67695281D01*
X164508714Y-67758436D01*
X164499713Y-67827723D01*
X164473914Y-67865428D01*
X164469530Y-67869812D01*
X164469528Y-67869814D01*
X164469528Y-67869815D01*
X164463059Y-67880516D01*
X164381522Y-68015393D01*
X164330913Y-68177807D01*
X164328332Y-68206217D01*
X164324500Y-68248384D01*
X164324500Y-68911616D01*
X164326423Y-68932778D01*
X164330913Y-68982192D01*
X164330913Y-68982194D01*
X164330914Y-68982196D01*
X164381522Y-69144606D01*
X164463058Y-69279483D01*
X164469530Y-69290188D01*
X164589811Y-69410469D01*
X164589813Y-69410470D01*
X164589815Y-69410472D01*
X164735394Y-69498478D01*
X164897804Y-69549086D01*
X164968384Y-69555500D01*
X164968387Y-69555500D01*
X165481613Y-69555500D01*
X165481616Y-69555500D01*
X165552196Y-69549086D01*
X165714606Y-69498478D01*
X165860185Y-69410472D01*
X165962673Y-69307983D01*
X166023994Y-69274499D01*
X166093685Y-69279483D01*
X166138034Y-69307984D01*
X166240122Y-69410072D01*
X166385604Y-69498019D01*
X166385603Y-69498019D01*
X166547894Y-69548590D01*
X166547893Y-69548590D01*
X166618408Y-69554998D01*
X166618426Y-69554999D01*
X166624999Y-69554998D01*
X166625000Y-69554998D01*
X166625000Y-68830000D01*
X167125000Y-68830000D01*
X167125000Y-69554999D01*
X167131581Y-69554999D01*
X167202102Y-69548591D01*
X167202107Y-69548590D01*
X167364396Y-69498018D01*
X167509877Y-69410072D01*
X167630072Y-69289877D01*
X167718019Y-69144395D01*
X167768590Y-68982106D01*
X167775000Y-68911572D01*
X167775000Y-68830000D01*
X167125000Y-68830000D01*
X166625000Y-68830000D01*
X166625000Y-67605000D01*
X167125000Y-67605000D01*
X167125000Y-68330000D01*
X167774999Y-68330000D01*
X167774999Y-68248417D01*
X167768591Y-68177897D01*
X167768590Y-68177892D01*
X167718018Y-68015603D01*
X167630072Y-67870122D01*
X167509877Y-67749927D01*
X167364395Y-67661980D01*
X167364396Y-67661980D01*
X167202105Y-67611409D01*
X167202106Y-67611409D01*
X167131572Y-67605000D01*
X167125000Y-67605000D01*
X166625000Y-67605000D01*
X166624999Y-67604999D01*
X166618436Y-67605000D01*
X166618417Y-67605001D01*
X166547897Y-67611408D01*
X166547892Y-67611409D01*
X166385603Y-67661981D01*
X166240122Y-67749927D01*
X166240121Y-67749928D01*
X166138035Y-67852015D01*
X166076712Y-67885500D01*
X166007020Y-67880516D01*
X165962673Y-67852015D01*
X165886819Y-67776161D01*
X165853334Y-67714838D01*
X165850500Y-67688480D01*
X165850500Y-67517742D01*
X165852224Y-67502122D01*
X165851939Y-67502096D01*
X165852671Y-67494340D01*
X165852673Y-67494333D01*
X165850500Y-67425185D01*
X165850500Y-67395650D01*
X165849631Y-67388772D01*
X165849172Y-67382943D01*
X165847709Y-67336372D01*
X165842122Y-67317144D01*
X165838174Y-67298084D01*
X165835663Y-67278204D01*
X165818512Y-67234887D01*
X165816619Y-67229358D01*
X165803618Y-67184609D01*
X165803616Y-67184606D01*
X165793423Y-67167371D01*
X165784861Y-67149894D01*
X165777487Y-67131270D01*
X165777486Y-67131268D01*
X165750079Y-67093545D01*
X165746888Y-67088686D01*
X165745142Y-67085734D01*
X165723170Y-67048580D01*
X165723168Y-67048578D01*
X165723165Y-67048574D01*
X165709006Y-67034415D01*
X165696368Y-67019619D01*
X165684594Y-67003413D01*
X165681208Y-67000612D01*
X165648688Y-66973709D01*
X165644376Y-66969786D01*
X165551770Y-66877180D01*
X165518286Y-66815858D01*
X165523270Y-66746166D01*
X165565142Y-66690233D01*
X165630606Y-66665816D01*
X165639452Y-66665500D01*
X174818711Y-66665500D01*
X174885750Y-66685185D01*
X174931505Y-66737989D01*
X174941449Y-66807147D01*
X174912424Y-66870703D01*
X174900470Y-66882728D01*
X174864372Y-66914384D01*
X174661215Y-67146041D01*
X174661205Y-67146053D01*
X174490034Y-67402230D01*
X174490030Y-67402237D01*
X174353755Y-67678575D01*
X174353751Y-67678585D01*
X174254716Y-67970333D01*
X174254711Y-67970353D01*
X174199401Y-68248417D01*
X174194602Y-68272545D01*
X174174450Y-68580005D01*
X174194451Y-68885168D01*
X174194602Y-68887463D01*
X174194604Y-68887475D01*
X174254711Y-69189656D01*
X174254715Y-69189671D01*
X174353753Y-69481427D01*
X174353762Y-69481448D01*
X174490027Y-69757766D01*
X174490031Y-69757772D01*
X174490033Y-69757776D01*
X174661214Y-70013968D01*
X174661216Y-70013970D01*
X174864372Y-70245625D01*
X175028347Y-70389427D01*
X175096029Y-70448783D01*
X175130417Y-70471760D01*
X175204705Y-70521398D01*
X175249510Y-70575010D01*
X175258217Y-70644335D01*
X175228063Y-70707362D01*
X175168620Y-70744082D01*
X175135814Y-70748500D01*
X164916847Y-70748500D01*
X164893615Y-70746304D01*
X164885588Y-70744773D01*
X164885586Y-70744773D01*
X164876633Y-70745336D01*
X164828275Y-70748378D01*
X164824403Y-70748500D01*
X161414172Y-70748500D01*
X161347133Y-70728815D01*
X161301378Y-70676011D01*
X161291434Y-70606853D01*
X161320459Y-70543297D01*
X161345281Y-70521398D01*
X161365851Y-70507652D01*
X161453957Y-70448783D01*
X161685613Y-70245625D01*
X161888771Y-70013969D01*
X161891550Y-70009811D01*
X162059950Y-69757781D01*
X162059953Y-69757777D01*
X162196231Y-69481432D01*
X162197227Y-69478500D01*
X162295269Y-69189676D01*
X162295269Y-69189675D01*
X162295273Y-69189664D01*
X162355384Y-68887465D01*
X162375536Y-68580005D01*
X162355384Y-68272545D01*
X162295273Y-67970346D01*
X162196231Y-67678578D01*
X162196223Y-67678561D01*
X162059958Y-67402243D01*
X162059949Y-67402228D01*
X162047063Y-67382943D01*
X161888771Y-67146041D01*
X161782104Y-67024411D01*
X161685613Y-66914384D01*
X161556731Y-66801358D01*
X161519307Y-66742356D01*
X161519723Y-66672488D01*
X161557846Y-66613936D01*
X161586966Y-66596382D01*
X161586892Y-66596247D01*
X161590297Y-66594374D01*
X161592853Y-66592833D01*
X161593732Y-66592486D01*
X161631449Y-66565082D01*
X161636305Y-66561892D01*
X161676420Y-66538170D01*
X161690589Y-66523999D01*
X161705379Y-66511368D01*
X161721587Y-66499594D01*
X161751299Y-66463676D01*
X161755212Y-66459376D01*
X161943629Y-66270959D01*
X162004950Y-66237476D01*
X162074642Y-66242460D01*
G37*
%TD.AperFunction*%
%TA.AperFunction,Conductor*%
G36*
X186263775Y-45095185D02*
G01*
X186309530Y-45147989D01*
X186318624Y-45205036D01*
X186320112Y-45205036D01*
X186320112Y-45212002D01*
X186340333Y-45391477D01*
X186399989Y-45561962D01*
X186496081Y-45714891D01*
X186540510Y-45759320D01*
X186573995Y-45820643D01*
X186569011Y-45890335D01*
X186540511Y-45934681D01*
X186496081Y-45979111D01*
X186399989Y-46132040D01*
X186340333Y-46302525D01*
X186320112Y-46482000D01*
X186320112Y-46482005D01*
X186340333Y-46661480D01*
X186399989Y-46831965D01*
X186496081Y-46984894D01*
X186540510Y-47029323D01*
X186573995Y-47090646D01*
X186569011Y-47160338D01*
X186540510Y-47204685D01*
X186496081Y-47249113D01*
X186399989Y-47402042D01*
X186340333Y-47572527D01*
X186320112Y-47752002D01*
X186320112Y-47752007D01*
X186340334Y-47931484D01*
X186342450Y-47937531D01*
X186346011Y-48007310D01*
X186313089Y-48066165D01*
X183686208Y-50693046D01*
X183673951Y-50702867D01*
X183674134Y-50703088D01*
X183668123Y-50708060D01*
X183620772Y-50758483D01*
X183599889Y-50779366D01*
X183599877Y-50779379D01*
X183595621Y-50784864D01*
X183591837Y-50789294D01*
X183559937Y-50823265D01*
X183559936Y-50823267D01*
X183550284Y-50840823D01*
X183539610Y-50857073D01*
X183527329Y-50872908D01*
X183527324Y-50872915D01*
X183508815Y-50915685D01*
X183506245Y-50920931D01*
X183483803Y-50961753D01*
X183478822Y-50981154D01*
X183472521Y-50999557D01*
X183464562Y-51017949D01*
X183464561Y-51017952D01*
X183457271Y-51063974D01*
X183456087Y-51069693D01*
X183444501Y-51114819D01*
X183444500Y-51114829D01*
X183444500Y-51134863D01*
X183442973Y-51154262D01*
X183440706Y-51168578D01*
X183439840Y-51174043D01*
X183440789Y-51184078D01*
X183444225Y-51220430D01*
X183444500Y-51226268D01*
X183444500Y-56595038D01*
X183424815Y-56662077D01*
X183372011Y-56707832D01*
X183302853Y-56717776D01*
X183294720Y-56716328D01*
X183169446Y-56689701D01*
X183169445Y-56689701D01*
X182980153Y-56689701D01*
X182947696Y-56696599D01*
X182794996Y-56729056D01*
X182794991Y-56729058D01*
X182622068Y-56806050D01*
X182613123Y-56812549D01*
X182547316Y-56836026D01*
X182479263Y-56820198D01*
X182432856Y-56774229D01*
X182342533Y-56617784D01*
X182215871Y-56477112D01*
X182215870Y-56477111D01*
X182062734Y-56365851D01*
X182062729Y-56365848D01*
X181889807Y-56288857D01*
X181889802Y-56288855D01*
X181744001Y-56257865D01*
X181704646Y-56249500D01*
X181515354Y-56249500D01*
X181482897Y-56256398D01*
X181330197Y-56288855D01*
X181330192Y-56288857D01*
X181157270Y-56365848D01*
X181157265Y-56365851D01*
X181004129Y-56477111D01*
X180877466Y-56617785D01*
X180782821Y-56781715D01*
X180782818Y-56781722D01*
X180731693Y-56939070D01*
X180724326Y-56961744D01*
X180712345Y-57075740D01*
X180706679Y-57129649D01*
X180680094Y-57194263D01*
X180671041Y-57204367D01*
X180637165Y-57238244D01*
X180575842Y-57271730D01*
X180549482Y-57274564D01*
X180409948Y-57274564D01*
X180342909Y-57254879D01*
X180310712Y-57224915D01*
X180309977Y-57223934D01*
X180285533Y-57158480D01*
X180300356Y-57090201D01*
X180309947Y-57075271D01*
X180327351Y-57052022D01*
X180377597Y-56917307D01*
X180377598Y-56917303D01*
X180383999Y-56857775D01*
X180384000Y-56857758D01*
X180384000Y-56649936D01*
X178184000Y-56649936D01*
X178184000Y-56735901D01*
X178164315Y-56802940D01*
X178111511Y-56848695D01*
X178042353Y-56858639D01*
X177978797Y-56829614D01*
X177941023Y-56770836D01*
X177940225Y-56767994D01*
X177931915Y-56736982D01*
X177930746Y-56732618D01*
X177919188Y-56707832D01*
X177890548Y-56646412D01*
X177888692Y-56641994D01*
X177884761Y-56631521D01*
X177881068Y-56621680D01*
X177873343Y-56608751D01*
X177870375Y-56603153D01*
X177854966Y-56570108D01*
X177840847Y-56539829D01*
X177782955Y-56457150D01*
X177780529Y-56453405D01*
X177769103Y-56434281D01*
X177765458Y-56430109D01*
X177760403Y-56424322D01*
X177756304Y-56419089D01*
X177718837Y-56365580D01*
X177712035Y-56358778D01*
X177643066Y-56289809D01*
X177640237Y-56286783D01*
X177633522Y-56279097D01*
X177625473Y-56269883D01*
X177616681Y-56262873D01*
X177611493Y-56258236D01*
X177568421Y-56215164D01*
X177475267Y-56149936D01*
X178184000Y-56149936D01*
X179034000Y-56149936D01*
X179034000Y-55489941D01*
X179534000Y-55489941D01*
X179534000Y-56149936D01*
X180384000Y-56149936D01*
X180384000Y-55942113D01*
X180383999Y-55942096D01*
X180377598Y-55882568D01*
X180377596Y-55882561D01*
X180327354Y-55747854D01*
X180327350Y-55747847D01*
X180241190Y-55632753D01*
X180241187Y-55632750D01*
X180126093Y-55546590D01*
X180126086Y-55546586D01*
X179991379Y-55496344D01*
X179991372Y-55496342D01*
X179931844Y-55489941D01*
X179534000Y-55489941D01*
X179034000Y-55489941D01*
X178636155Y-55489941D01*
X178576627Y-55496342D01*
X178576620Y-55496344D01*
X178441913Y-55546586D01*
X178441906Y-55546590D01*
X178326812Y-55632750D01*
X178326809Y-55632753D01*
X178240649Y-55747847D01*
X178240645Y-55747854D01*
X178190403Y-55882561D01*
X178190401Y-55882568D01*
X178184000Y-55942096D01*
X178184000Y-56149936D01*
X177475267Y-56149936D01*
X177475178Y-56149874D01*
X177472084Y-56147561D01*
X177454802Y-56133779D01*
X177454798Y-56133776D01*
X177446723Y-56129430D01*
X177440541Y-56125620D01*
X177394173Y-56093154D01*
X177284407Y-56041969D01*
X177281229Y-56040374D01*
X177262567Y-56030332D01*
X177262567Y-56030331D01*
X177255900Y-56028166D01*
X177248851Y-56025389D01*
X177201382Y-56003254D01*
X177201378Y-56003253D01*
X177201376Y-56003252D01*
X177076591Y-55969816D01*
X177073480Y-55968894D01*
X177054958Y-55962876D01*
X177054941Y-55962872D01*
X177050223Y-55962233D01*
X177042501Y-55960681D01*
X176995910Y-55948198D01*
X176995911Y-55948198D01*
X176858138Y-55936144D01*
X176855219Y-55935819D01*
X176847196Y-55934732D01*
X176838630Y-55933572D01*
X176838629Y-55933572D01*
X176838622Y-55933571D01*
X176836181Y-55933681D01*
X176827998Y-55933507D01*
X176784002Y-55929658D01*
X176783998Y-55929658D01*
X176634458Y-55942741D01*
X176620544Y-55943366D01*
X176620512Y-55943370D01*
X176620432Y-55943389D01*
X176612078Y-55944698D01*
X176578217Y-55947661D01*
X176572090Y-55948198D01*
X176572087Y-55948198D01*
X176572084Y-55948199D01*
X176415220Y-55990231D01*
X176407716Y-55991943D01*
X176404025Y-55993142D01*
X176400930Y-55994059D01*
X176366616Y-56003254D01*
X176173828Y-56093153D01*
X176173824Y-56093155D01*
X175999577Y-56215164D01*
X175849164Y-56365577D01*
X175727155Y-56539824D01*
X175727153Y-56539828D01*
X175637255Y-56732616D01*
X175637250Y-56732629D01*
X175628273Y-56766130D01*
X175591907Y-56825790D01*
X175529059Y-56856318D01*
X175459684Y-56848021D01*
X175405807Y-56803535D01*
X175384534Y-56736982D01*
X175384499Y-56734106D01*
X175384499Y-55942069D01*
X175378091Y-55882458D01*
X175376446Y-55878048D01*
X175327797Y-55747612D01*
X175327793Y-55747605D01*
X175241547Y-55632396D01*
X175241544Y-55632393D01*
X175126335Y-55546147D01*
X175126328Y-55546143D01*
X174991482Y-55495849D01*
X174991483Y-55495849D01*
X174931883Y-55489442D01*
X174931881Y-55489441D01*
X174931873Y-55489441D01*
X174931864Y-55489441D01*
X173636129Y-55489441D01*
X173636123Y-55489442D01*
X173576516Y-55495849D01*
X173441671Y-55546143D01*
X173441664Y-55546147D01*
X173326455Y-55632393D01*
X173257318Y-55724748D01*
X173201384Y-55766618D01*
X173158052Y-55774436D01*
X169996801Y-55774436D01*
X169981184Y-55772712D01*
X169981157Y-55772998D01*
X169973395Y-55772263D01*
X169904267Y-55774436D01*
X169874714Y-55774436D01*
X169873993Y-55774526D01*
X169867821Y-55775305D01*
X169862009Y-55775762D01*
X169815436Y-55777226D01*
X169815433Y-55777227D01*
X169796190Y-55782817D01*
X169777147Y-55786761D01*
X169757268Y-55789272D01*
X169757267Y-55789273D01*
X169713942Y-55806426D01*
X169708416Y-55808318D01*
X169663672Y-55821319D01*
X169663668Y-55821321D01*
X169646429Y-55831516D01*
X169628962Y-55840073D01*
X169610333Y-55847448D01*
X169610331Y-55847449D01*
X169572628Y-55874842D01*
X169567746Y-55878048D01*
X169527644Y-55901764D01*
X169513472Y-55915936D01*
X169498687Y-55928564D01*
X169482476Y-55940343D01*
X169452773Y-55976246D01*
X169448843Y-55980565D01*
X168807729Y-56621680D01*
X168191164Y-57238245D01*
X168129841Y-57271730D01*
X168103483Y-57274564D01*
X163645948Y-57274564D01*
X163578909Y-57254879D01*
X163546712Y-57224915D01*
X163545977Y-57223934D01*
X163521533Y-57158480D01*
X163536356Y-57090201D01*
X163545947Y-57075271D01*
X163563351Y-57052022D01*
X163613597Y-56917307D01*
X163613598Y-56917303D01*
X163619999Y-56857775D01*
X163620000Y-56857758D01*
X163620000Y-56649936D01*
X161420000Y-56649936D01*
X161420000Y-56857775D01*
X161426401Y-56917303D01*
X161426403Y-56917310D01*
X161476645Y-57052017D01*
X161476649Y-57052024D01*
X161494053Y-57075273D01*
X161518470Y-57140738D01*
X161503618Y-57209010D01*
X161494054Y-57223893D01*
X161476203Y-57247738D01*
X161476202Y-57247740D01*
X161425908Y-57382586D01*
X161423059Y-57409090D01*
X161419500Y-57442196D01*
X161419500Y-57869979D01*
X161419501Y-58178500D01*
X161399817Y-58245539D01*
X161347013Y-58291294D01*
X161295501Y-58302500D01*
X160811699Y-58302500D01*
X160744660Y-58282815D01*
X160698905Y-58230011D01*
X160688961Y-58160853D01*
X160717986Y-58097297D01*
X160728160Y-58086864D01*
X160777329Y-58042040D01*
X160789741Y-58030724D01*
X160794132Y-58027077D01*
X160809193Y-58015704D01*
X160821912Y-58001751D01*
X160825929Y-57997734D01*
X160887925Y-57941218D01*
X160938476Y-57874277D01*
X160942120Y-57869891D01*
X160954829Y-57855950D01*
X160964771Y-57839891D01*
X160967968Y-57835223D01*
X161018533Y-57768266D01*
X161055920Y-57693180D01*
X161058696Y-57688197D01*
X161068629Y-57672155D01*
X161075452Y-57654542D01*
X161077737Y-57649365D01*
X161115137Y-57574258D01*
X161138092Y-57493577D01*
X161139903Y-57488174D01*
X161146720Y-57470579D01*
X161150185Y-57452039D01*
X161151487Y-57446501D01*
X161174448Y-57365804D01*
X161182188Y-57282270D01*
X161182977Y-57276621D01*
X161186442Y-57258087D01*
X161187060Y-57231261D01*
X161187303Y-57227067D01*
X161194445Y-57150000D01*
X161187304Y-57072935D01*
X161187060Y-57068734D01*
X161186442Y-57041913D01*
X161182975Y-57023371D01*
X161182186Y-57017707D01*
X161174448Y-56934196D01*
X161151488Y-56853503D01*
X161150185Y-56847960D01*
X161146720Y-56829421D01*
X161139907Y-56811835D01*
X161138088Y-56806407D01*
X161115137Y-56725742D01*
X161077742Y-56650644D01*
X161075444Y-56645437D01*
X161068629Y-56627845D01*
X161058702Y-56611812D01*
X161055920Y-56606818D01*
X161018533Y-56531734D01*
X160967985Y-56464799D01*
X160964759Y-56460088D01*
X160954835Y-56444059D01*
X160954832Y-56444054D01*
X160954830Y-56444052D01*
X160954829Y-56444050D01*
X160948099Y-56436667D01*
X160942119Y-56430107D01*
X160938459Y-56425700D01*
X160887925Y-56358782D01*
X160825952Y-56302286D01*
X160821902Y-56298236D01*
X160813349Y-56288855D01*
X160809193Y-56284296D01*
X160800465Y-56277705D01*
X160794143Y-56272930D01*
X160789736Y-56269271D01*
X160768048Y-56249500D01*
X160727761Y-56212773D01*
X160727760Y-56212772D01*
X160656457Y-56168622D01*
X160651734Y-56165386D01*
X160636692Y-56154028D01*
X160636686Y-56154024D01*
X160636683Y-56154022D01*
X160636678Y-56154019D01*
X160636674Y-56154017D01*
X160628478Y-56149936D01*
X161420000Y-56149936D01*
X162270000Y-56149936D01*
X162270000Y-55489941D01*
X162770000Y-55489941D01*
X162770000Y-56149936D01*
X163620000Y-56149936D01*
X163620000Y-55942113D01*
X163619999Y-55942096D01*
X163613598Y-55882568D01*
X163613596Y-55882561D01*
X163563354Y-55747854D01*
X163563350Y-55747847D01*
X163477190Y-55632753D01*
X163477187Y-55632750D01*
X163362093Y-55546590D01*
X163362086Y-55546586D01*
X163227379Y-55496344D01*
X163227372Y-55496342D01*
X163167844Y-55489941D01*
X162770000Y-55489941D01*
X162270000Y-55489941D01*
X161872155Y-55489941D01*
X161812627Y-55496342D01*
X161812620Y-55496344D01*
X161677913Y-55546586D01*
X161677906Y-55546590D01*
X161562812Y-55632750D01*
X161562809Y-55632753D01*
X161476649Y-55747847D01*
X161476645Y-55747854D01*
X161426403Y-55882561D01*
X161426401Y-55882568D01*
X161420000Y-55942096D01*
X161420000Y-56149936D01*
X160628478Y-56149936D01*
X160619803Y-56145616D01*
X160614799Y-56142829D01*
X160543498Y-56098681D01*
X160543483Y-56098674D01*
X160465285Y-56068380D01*
X160460044Y-56066066D01*
X160443184Y-56057670D01*
X160443176Y-56057667D01*
X160443173Y-56057666D01*
X160425041Y-56052507D01*
X160419616Y-56050688D01*
X160341402Y-56020388D01*
X160258953Y-56004976D01*
X160253380Y-56003665D01*
X160235251Y-55998507D01*
X160235249Y-55998506D01*
X160235243Y-55998505D01*
X160235247Y-55998505D01*
X160216472Y-55996765D01*
X160210802Y-55995974D01*
X160128365Y-55980565D01*
X160128364Y-55980565D01*
X160044494Y-55980565D01*
X160038770Y-55980300D01*
X160020001Y-55978561D01*
X160019999Y-55978561D01*
X160001230Y-55980300D01*
X159995506Y-55980565D01*
X159911632Y-55980565D01*
X159829195Y-55995974D01*
X159823530Y-55996764D01*
X159804749Y-55998507D01*
X159804746Y-55998507D01*
X159786613Y-56003666D01*
X159781039Y-56004977D01*
X159698596Y-56020389D01*
X159620391Y-56050685D01*
X159614963Y-56052505D01*
X159596830Y-56057664D01*
X159596825Y-56057666D01*
X159579949Y-56066070D01*
X159574709Y-56068383D01*
X159496507Y-56098678D01*
X159496504Y-56098680D01*
X159425203Y-56142828D01*
X159420201Y-56145614D01*
X159403312Y-56154024D01*
X159403309Y-56154026D01*
X159388262Y-56165389D01*
X159383540Y-56168623D01*
X159312239Y-56212772D01*
X159250262Y-56269270D01*
X159245860Y-56272926D01*
X159230805Y-56284297D01*
X159218099Y-56298233D01*
X159214052Y-56302279D01*
X159152077Y-56358778D01*
X159152075Y-56358781D01*
X159101536Y-56425704D01*
X159097879Y-56430109D01*
X159085172Y-56444048D01*
X159085164Y-56444059D01*
X159075239Y-56460088D01*
X159072003Y-56464812D01*
X159021468Y-56531732D01*
X159021463Y-56531740D01*
X158984077Y-56606818D01*
X158981292Y-56611819D01*
X158971370Y-56627845D01*
X158971369Y-56627847D01*
X158964560Y-56645422D01*
X158962247Y-56650661D01*
X158924865Y-56725736D01*
X158924865Y-56725737D01*
X158924863Y-56725742D01*
X158921665Y-56736982D01*
X158901910Y-56806407D01*
X158900091Y-56811835D01*
X158893280Y-56829417D01*
X158889814Y-56847955D01*
X158888503Y-56853529D01*
X158865552Y-56934197D01*
X158865551Y-56934199D01*
X158857812Y-57017707D01*
X158857021Y-57023376D01*
X158853559Y-57041901D01*
X158853558Y-57041914D01*
X158853558Y-57060765D01*
X158853293Y-57066489D01*
X158845555Y-57149998D01*
X158845555Y-57150000D01*
X158853293Y-57233509D01*
X158853558Y-57239233D01*
X158853558Y-57258088D01*
X158857022Y-57276623D01*
X158857813Y-57282294D01*
X158865551Y-57365800D01*
X158865551Y-57365801D01*
X158865552Y-57365804D01*
X158870327Y-57382585D01*
X158888503Y-57446471D01*
X158889814Y-57452045D01*
X158893279Y-57470578D01*
X158900091Y-57488163D01*
X158901910Y-57493592D01*
X158924864Y-57574261D01*
X158962242Y-57649325D01*
X158964555Y-57654564D01*
X158971367Y-57672147D01*
X158971373Y-57672159D01*
X158981297Y-57688188D01*
X158984083Y-57693190D01*
X159021463Y-57768260D01*
X159021466Y-57768264D01*
X159021467Y-57768266D01*
X159034103Y-57784999D01*
X159072002Y-57835186D01*
X159075239Y-57839911D01*
X159085170Y-57855949D01*
X159085171Y-57855950D01*
X159097879Y-57869891D01*
X159101539Y-57874298D01*
X159152073Y-57941216D01*
X159152076Y-57941219D01*
X159214050Y-57997716D01*
X159218098Y-58001763D01*
X159225770Y-58010179D01*
X159230807Y-58015704D01*
X159245857Y-58027070D01*
X159250261Y-58030726D01*
X159262671Y-58042040D01*
X159311839Y-58086863D01*
X159348121Y-58146574D01*
X159346360Y-58216422D01*
X159307117Y-58274229D01*
X159242850Y-58301644D01*
X159228301Y-58302500D01*
X158744500Y-58302500D01*
X158677461Y-58282815D01*
X158631706Y-58230011D01*
X158620500Y-58178500D01*
X158620499Y-57442198D01*
X158620498Y-57442192D01*
X158620497Y-57442185D01*
X158614091Y-57382586D01*
X158610430Y-57372771D01*
X158563797Y-57247740D01*
X158563795Y-57247737D01*
X158556689Y-57238245D01*
X158546258Y-57224311D01*
X158521841Y-57158848D01*
X158536692Y-57090575D01*
X158546259Y-57075688D01*
X158551465Y-57068734D01*
X158563796Y-57052262D01*
X158614091Y-56917414D01*
X158620500Y-56857804D01*
X158620499Y-55942069D01*
X158614091Y-55882458D01*
X158612446Y-55878048D01*
X158563797Y-55747612D01*
X158563793Y-55747605D01*
X158477547Y-55632396D01*
X158477544Y-55632393D01*
X158362335Y-55546147D01*
X158362328Y-55546143D01*
X158227482Y-55495849D01*
X158227483Y-55495849D01*
X158167883Y-55489442D01*
X158167881Y-55489441D01*
X158167873Y-55489441D01*
X158167864Y-55489441D01*
X156872129Y-55489441D01*
X156872123Y-55489442D01*
X156812516Y-55495849D01*
X156677671Y-55546143D01*
X156677664Y-55546147D01*
X156562455Y-55632393D01*
X156493318Y-55724748D01*
X156437384Y-55766618D01*
X156394052Y-55774436D01*
X153232801Y-55774436D01*
X153217184Y-55772712D01*
X153217157Y-55772998D01*
X153209395Y-55772263D01*
X153140267Y-55774436D01*
X153110714Y-55774436D01*
X153109993Y-55774526D01*
X153103821Y-55775305D01*
X153098009Y-55775762D01*
X153051436Y-55777226D01*
X153051433Y-55777227D01*
X153032190Y-55782817D01*
X153013147Y-55786761D01*
X152993268Y-55789272D01*
X152993267Y-55789273D01*
X152949942Y-55806426D01*
X152944416Y-55808318D01*
X152899672Y-55821319D01*
X152899668Y-55821321D01*
X152882429Y-55831516D01*
X152864962Y-55840073D01*
X152846333Y-55847448D01*
X152846331Y-55847449D01*
X152808628Y-55874842D01*
X152803746Y-55878048D01*
X152763644Y-55901764D01*
X152749472Y-55915936D01*
X152734687Y-55928564D01*
X152718476Y-55940343D01*
X152688773Y-55976246D01*
X152684843Y-55980565D01*
X152043729Y-56621680D01*
X151427164Y-57238245D01*
X151365841Y-57271730D01*
X151339483Y-57274564D01*
X147135948Y-57274564D01*
X147068909Y-57254879D01*
X147036712Y-57224915D01*
X147035977Y-57223934D01*
X147011533Y-57158480D01*
X147026356Y-57090201D01*
X147035947Y-57075271D01*
X147053351Y-57052022D01*
X147103597Y-56917307D01*
X147103598Y-56917303D01*
X147109999Y-56857775D01*
X147110000Y-56857758D01*
X147110000Y-56649936D01*
X144910000Y-56649936D01*
X144910000Y-56735901D01*
X144890315Y-56802940D01*
X144837511Y-56848695D01*
X144768353Y-56858639D01*
X144704797Y-56829614D01*
X144667023Y-56770836D01*
X144666225Y-56767994D01*
X144657915Y-56736982D01*
X144656746Y-56732618D01*
X144645188Y-56707832D01*
X144616548Y-56646412D01*
X144614692Y-56641994D01*
X144610761Y-56631521D01*
X144607068Y-56621680D01*
X144599343Y-56608751D01*
X144596375Y-56603153D01*
X144580966Y-56570108D01*
X144566847Y-56539829D01*
X144508955Y-56457150D01*
X144506529Y-56453405D01*
X144495103Y-56434281D01*
X144491458Y-56430109D01*
X144486403Y-56424322D01*
X144482304Y-56419089D01*
X144444837Y-56365580D01*
X144438035Y-56358778D01*
X144369066Y-56289809D01*
X144366237Y-56286783D01*
X144359522Y-56279097D01*
X144351473Y-56269883D01*
X144342681Y-56262873D01*
X144337493Y-56258236D01*
X144294421Y-56215164D01*
X144201267Y-56149936D01*
X144910000Y-56149936D01*
X145760000Y-56149936D01*
X145760000Y-55489941D01*
X146260000Y-55489941D01*
X146260000Y-56149936D01*
X147110000Y-56149936D01*
X147110000Y-55942113D01*
X147109999Y-55942096D01*
X147103598Y-55882568D01*
X147103596Y-55882561D01*
X147053354Y-55747854D01*
X147053350Y-55747847D01*
X146967190Y-55632753D01*
X146967187Y-55632750D01*
X146852093Y-55546590D01*
X146852086Y-55546586D01*
X146717379Y-55496344D01*
X146717372Y-55496342D01*
X146657844Y-55489941D01*
X146260000Y-55489941D01*
X145760000Y-55489941D01*
X145362155Y-55489941D01*
X145302627Y-55496342D01*
X145302620Y-55496344D01*
X145167913Y-55546586D01*
X145167906Y-55546590D01*
X145052812Y-55632750D01*
X145052809Y-55632753D01*
X144966649Y-55747847D01*
X144966645Y-55747854D01*
X144916403Y-55882561D01*
X144916401Y-55882568D01*
X144910000Y-55942096D01*
X144910000Y-56149936D01*
X144201267Y-56149936D01*
X144201178Y-56149874D01*
X144198084Y-56147561D01*
X144180802Y-56133779D01*
X144180798Y-56133776D01*
X144172723Y-56129430D01*
X144166541Y-56125620D01*
X144120173Y-56093154D01*
X144010407Y-56041969D01*
X144007229Y-56040374D01*
X143988567Y-56030332D01*
X143988567Y-56030331D01*
X143981900Y-56028166D01*
X143974851Y-56025389D01*
X143927382Y-56003254D01*
X143927378Y-56003253D01*
X143927376Y-56003252D01*
X143802591Y-55969816D01*
X143799480Y-55968894D01*
X143780958Y-55962876D01*
X143780941Y-55962872D01*
X143776223Y-55962233D01*
X143768501Y-55960681D01*
X143721910Y-55948198D01*
X143721911Y-55948198D01*
X143584138Y-55936144D01*
X143581219Y-55935819D01*
X143573196Y-55934732D01*
X143564630Y-55933572D01*
X143564629Y-55933572D01*
X143564622Y-55933571D01*
X143562181Y-55933681D01*
X143553998Y-55933507D01*
X143510002Y-55929658D01*
X143509998Y-55929658D01*
X143360458Y-55942741D01*
X143346544Y-55943366D01*
X143346512Y-55943370D01*
X143346432Y-55943389D01*
X143338078Y-55944698D01*
X143304217Y-55947661D01*
X143298090Y-55948198D01*
X143298087Y-55948198D01*
X143298084Y-55948199D01*
X143141220Y-55990231D01*
X143133716Y-55991943D01*
X143130025Y-55993142D01*
X143126930Y-55994059D01*
X143092616Y-56003254D01*
X142899828Y-56093153D01*
X142899824Y-56093155D01*
X142725577Y-56215164D01*
X142575164Y-56365577D01*
X142453155Y-56539824D01*
X142453153Y-56539828D01*
X142363255Y-56732616D01*
X142363250Y-56732629D01*
X142354273Y-56766130D01*
X142317907Y-56825790D01*
X142255059Y-56856318D01*
X142185684Y-56848021D01*
X142131807Y-56803535D01*
X142110534Y-56736982D01*
X142110499Y-56734106D01*
X142110499Y-55942069D01*
X142104091Y-55882458D01*
X142102446Y-55878048D01*
X142053797Y-55747612D01*
X142053793Y-55747605D01*
X141967547Y-55632396D01*
X141967544Y-55632393D01*
X141852335Y-55546147D01*
X141852328Y-55546143D01*
X141717482Y-55495849D01*
X141717483Y-55495849D01*
X141657883Y-55489442D01*
X141657881Y-55489441D01*
X141657873Y-55489441D01*
X141657864Y-55489441D01*
X140362129Y-55489441D01*
X140362123Y-55489442D01*
X140302516Y-55495849D01*
X140167671Y-55546143D01*
X140167664Y-55546147D01*
X140052455Y-55632393D01*
X139983318Y-55724748D01*
X139927384Y-55766618D01*
X139884052Y-55774436D01*
X137230801Y-55774436D01*
X137215184Y-55772712D01*
X137215157Y-55772998D01*
X137207395Y-55772263D01*
X137138267Y-55774436D01*
X137108714Y-55774436D01*
X137107993Y-55774526D01*
X137101821Y-55775305D01*
X137096009Y-55775762D01*
X137049436Y-55777226D01*
X137049433Y-55777227D01*
X137030190Y-55782817D01*
X137011147Y-55786761D01*
X136991268Y-55789272D01*
X136991267Y-55789273D01*
X136947942Y-55806426D01*
X136942416Y-55808318D01*
X136897672Y-55821319D01*
X136897668Y-55821321D01*
X136880429Y-55831516D01*
X136862962Y-55840073D01*
X136844333Y-55847448D01*
X136844331Y-55847449D01*
X136806628Y-55874842D01*
X136801746Y-55878048D01*
X136761644Y-55901764D01*
X136747472Y-55915936D01*
X136732687Y-55928564D01*
X136716476Y-55940343D01*
X136686773Y-55976246D01*
X136682843Y-55980565D01*
X136041729Y-56621680D01*
X135425164Y-57238245D01*
X135363841Y-57271730D01*
X135337483Y-57274564D01*
X130625948Y-57274564D01*
X130558909Y-57254879D01*
X130526712Y-57224915D01*
X130525977Y-57223934D01*
X130501533Y-57158480D01*
X130516356Y-57090201D01*
X130525947Y-57075271D01*
X130543351Y-57052022D01*
X130593597Y-56917307D01*
X130593598Y-56917303D01*
X130599999Y-56857775D01*
X130600000Y-56857758D01*
X130600000Y-56649936D01*
X128400000Y-56649936D01*
X128400000Y-56735901D01*
X128380315Y-56802940D01*
X128327511Y-56848695D01*
X128258353Y-56858639D01*
X128194797Y-56829614D01*
X128157023Y-56770836D01*
X128156225Y-56767994D01*
X128147915Y-56736982D01*
X128146746Y-56732618D01*
X128135188Y-56707832D01*
X128106548Y-56646412D01*
X128104692Y-56641994D01*
X128100761Y-56631521D01*
X128097068Y-56621680D01*
X128089343Y-56608751D01*
X128086375Y-56603153D01*
X128070966Y-56570108D01*
X128056847Y-56539829D01*
X127998955Y-56457150D01*
X127996529Y-56453405D01*
X127985103Y-56434281D01*
X127981458Y-56430109D01*
X127976403Y-56424322D01*
X127972304Y-56419089D01*
X127934837Y-56365580D01*
X127928035Y-56358778D01*
X127859066Y-56289809D01*
X127856237Y-56286783D01*
X127849522Y-56279097D01*
X127841473Y-56269883D01*
X127832681Y-56262873D01*
X127827493Y-56258236D01*
X127784421Y-56215164D01*
X127691267Y-56149936D01*
X128400000Y-56149936D01*
X129250000Y-56149936D01*
X129250000Y-55489941D01*
X129750000Y-55489941D01*
X129750000Y-56149936D01*
X130600000Y-56149936D01*
X130600000Y-55942113D01*
X130599999Y-55942096D01*
X130593598Y-55882568D01*
X130593596Y-55882561D01*
X130543354Y-55747854D01*
X130543350Y-55747847D01*
X130457190Y-55632753D01*
X130457187Y-55632750D01*
X130342093Y-55546590D01*
X130342086Y-55546586D01*
X130207379Y-55496344D01*
X130207372Y-55496342D01*
X130147844Y-55489941D01*
X129750000Y-55489941D01*
X129250000Y-55489941D01*
X128852155Y-55489941D01*
X128792627Y-55496342D01*
X128792620Y-55496344D01*
X128657913Y-55546586D01*
X128657906Y-55546590D01*
X128542812Y-55632750D01*
X128542809Y-55632753D01*
X128456649Y-55747847D01*
X128456645Y-55747854D01*
X128406403Y-55882561D01*
X128406401Y-55882568D01*
X128400000Y-55942096D01*
X128400000Y-56149936D01*
X127691267Y-56149936D01*
X127691178Y-56149874D01*
X127688084Y-56147561D01*
X127670802Y-56133779D01*
X127670798Y-56133776D01*
X127662723Y-56129430D01*
X127656541Y-56125620D01*
X127610173Y-56093154D01*
X127500407Y-56041969D01*
X127497229Y-56040374D01*
X127478567Y-56030332D01*
X127478567Y-56030331D01*
X127471900Y-56028166D01*
X127464851Y-56025389D01*
X127417382Y-56003254D01*
X127417378Y-56003253D01*
X127417376Y-56003252D01*
X127292591Y-55969816D01*
X127289480Y-55968894D01*
X127270958Y-55962876D01*
X127270941Y-55962872D01*
X127266223Y-55962233D01*
X127258501Y-55960681D01*
X127211910Y-55948198D01*
X127211911Y-55948198D01*
X127074138Y-55936144D01*
X127071219Y-55935819D01*
X127063196Y-55934732D01*
X127054630Y-55933572D01*
X127054629Y-55933572D01*
X127054622Y-55933571D01*
X127052181Y-55933681D01*
X127043998Y-55933507D01*
X127000002Y-55929658D01*
X126999998Y-55929658D01*
X126850458Y-55942741D01*
X126836544Y-55943366D01*
X126836512Y-55943370D01*
X126836432Y-55943389D01*
X126828078Y-55944698D01*
X126794217Y-55947661D01*
X126788090Y-55948198D01*
X126788087Y-55948198D01*
X126788084Y-55948199D01*
X126631220Y-55990231D01*
X126623716Y-55991943D01*
X126620025Y-55993142D01*
X126616930Y-55994059D01*
X126582616Y-56003254D01*
X126389828Y-56093153D01*
X126389824Y-56093155D01*
X126215577Y-56215164D01*
X126065164Y-56365577D01*
X125943155Y-56539824D01*
X125943153Y-56539828D01*
X125853255Y-56732616D01*
X125853250Y-56732629D01*
X125844273Y-56766130D01*
X125807907Y-56825790D01*
X125745059Y-56856318D01*
X125675684Y-56848021D01*
X125621807Y-56803535D01*
X125600534Y-56736982D01*
X125600499Y-56734106D01*
X125600499Y-55942069D01*
X125594091Y-55882458D01*
X125592446Y-55878048D01*
X125543797Y-55747612D01*
X125543793Y-55747605D01*
X125457547Y-55632396D01*
X125457544Y-55632393D01*
X125342335Y-55546147D01*
X125342328Y-55546143D01*
X125207482Y-55495849D01*
X125207483Y-55495849D01*
X125147883Y-55489442D01*
X125147881Y-55489441D01*
X125147873Y-55489441D01*
X125147864Y-55489441D01*
X123852129Y-55489441D01*
X123852123Y-55489442D01*
X123792516Y-55495849D01*
X123657671Y-55546143D01*
X123657664Y-55546147D01*
X123542455Y-55632393D01*
X123542452Y-55632396D01*
X123456206Y-55747605D01*
X123456202Y-55747612D01*
X123405908Y-55882458D01*
X123399685Y-55940343D01*
X123399501Y-55942064D01*
X123399500Y-55942076D01*
X123399500Y-56564482D01*
X123379815Y-56631521D01*
X123363181Y-56652163D01*
X122298208Y-57717135D01*
X122285951Y-57726956D01*
X122286134Y-57727177D01*
X122280123Y-57732149D01*
X122232772Y-57782572D01*
X122211889Y-57803455D01*
X122211877Y-57803468D01*
X122207621Y-57808953D01*
X122203837Y-57813383D01*
X122171937Y-57847354D01*
X122171936Y-57847356D01*
X122162284Y-57864912D01*
X122151610Y-57881162D01*
X122134551Y-57903158D01*
X122132714Y-57901733D01*
X122090157Y-57941465D01*
X122021415Y-57953966D01*
X121956827Y-57927317D01*
X121916900Y-57869979D01*
X121910500Y-57830658D01*
X121910500Y-52070005D01*
X124644450Y-52070005D01*
X124663581Y-52361895D01*
X124664602Y-52377463D01*
X124664604Y-52377475D01*
X124724711Y-52679656D01*
X124724715Y-52679671D01*
X124823753Y-52971427D01*
X124823762Y-52971448D01*
X124960027Y-53247766D01*
X124960036Y-53247781D01*
X125018251Y-53334906D01*
X125131215Y-53503969D01*
X125152514Y-53528256D01*
X125334372Y-53735625D01*
X125467092Y-53852017D01*
X125566029Y-53938783D01*
X125822222Y-54109965D01*
X125822225Y-54109966D01*
X125822231Y-54109970D01*
X126098549Y-54246235D01*
X126098554Y-54246237D01*
X126098566Y-54246243D01*
X126390334Y-54345285D01*
X126692533Y-54405396D01*
X126923052Y-54420505D01*
X126923055Y-54420505D01*
X127076931Y-54420505D01*
X127076934Y-54420505D01*
X127307453Y-54405396D01*
X127609652Y-54345285D01*
X127901420Y-54246243D01*
X128177764Y-54109965D01*
X128433957Y-53938783D01*
X128665613Y-53735625D01*
X128868771Y-53503969D01*
X128868783Y-53503952D01*
X128951812Y-53379689D01*
X129039953Y-53247777D01*
X129176231Y-52971432D01*
X129176235Y-52971422D01*
X129275269Y-52679676D01*
X129275270Y-52679672D01*
X129275273Y-52679664D01*
X129335384Y-52377465D01*
X129355536Y-52070005D01*
X129335384Y-51762545D01*
X129275273Y-51460346D01*
X129176231Y-51168578D01*
X129176221Y-51168557D01*
X129039958Y-50892243D01*
X129039951Y-50892232D01*
X128868771Y-50636041D01*
X128764826Y-50517515D01*
X128665613Y-50404384D01*
X128433958Y-50201228D01*
X128433949Y-50201222D01*
X128276313Y-50095893D01*
X128177769Y-50030048D01*
X128177754Y-50030039D01*
X127901436Y-49893774D01*
X127901415Y-49893765D01*
X127609659Y-49794727D01*
X127609653Y-49794725D01*
X127609652Y-49794725D01*
X127609650Y-49794724D01*
X127609644Y-49794723D01*
X127307463Y-49734616D01*
X127307453Y-49734614D01*
X127076934Y-49719505D01*
X126923052Y-49719505D01*
X126692533Y-49734614D01*
X126692527Y-49734615D01*
X126692522Y-49734616D01*
X126390341Y-49794723D01*
X126390326Y-49794727D01*
X126098570Y-49893765D01*
X126098549Y-49893774D01*
X125822231Y-50030039D01*
X125822216Y-50030048D01*
X125566027Y-50201228D01*
X125334372Y-50404384D01*
X125131215Y-50636041D01*
X125131205Y-50636053D01*
X124960034Y-50892230D01*
X124960030Y-50892237D01*
X124823755Y-51168575D01*
X124823751Y-51168585D01*
X124724716Y-51460333D01*
X124724711Y-51460353D01*
X124669401Y-51738417D01*
X124664602Y-51762545D01*
X124644450Y-52070005D01*
X121910500Y-52070005D01*
X121910500Y-50475434D01*
X121930185Y-50408395D01*
X121946819Y-50387753D01*
X122809676Y-49524896D01*
X123723169Y-48611402D01*
X123784490Y-48577919D01*
X123847393Y-48580593D01*
X124080530Y-48652507D01*
X124332553Y-48690494D01*
X124587423Y-48690494D01*
X124839446Y-48652507D01*
X125082992Y-48577383D01*
X125290013Y-48477687D01*
X125312614Y-48466803D01*
X125312614Y-48466802D01*
X125312622Y-48466799D01*
X125523205Y-48323226D01*
X125710038Y-48149871D01*
X125868947Y-47950606D01*
X125996381Y-47729882D01*
X126010390Y-47694185D01*
X126053205Y-47638974D01*
X126119075Y-47615672D01*
X126125818Y-47615489D01*
X130447776Y-47615489D01*
X130514815Y-47635174D01*
X130560570Y-47687978D01*
X130570514Y-47757136D01*
X130541489Y-47820692D01*
X130482711Y-47858466D01*
X130466263Y-47862102D01*
X130449224Y-47864670D01*
X130430539Y-47867487D01*
X130430533Y-47867489D01*
X130186992Y-47942612D01*
X129957373Y-48053190D01*
X129957372Y-48053191D01*
X129957366Y-48053194D01*
X129957366Y-48053195D01*
X129932639Y-48070053D01*
X129746782Y-48196768D01*
X129559952Y-48370121D01*
X129559950Y-48370123D01*
X129401041Y-48569388D01*
X129273608Y-48790109D01*
X129180492Y-49027362D01*
X129180490Y-49027369D01*
X129123777Y-49275845D01*
X129104732Y-49529995D01*
X129104732Y-49530004D01*
X129123777Y-49784154D01*
X129180489Y-50032627D01*
X129180492Y-50032637D01*
X129273605Y-50269884D01*
X129273608Y-50269890D01*
X129289345Y-50297147D01*
X129401041Y-50490612D01*
X129559950Y-50689877D01*
X129746783Y-50863232D01*
X129957366Y-51006805D01*
X129957371Y-51006807D01*
X129957372Y-51006808D01*
X129957373Y-51006809D01*
X130066001Y-51059121D01*
X130186992Y-51117387D01*
X130186993Y-51117387D01*
X130186996Y-51117389D01*
X130430542Y-51192513D01*
X130682565Y-51230500D01*
X130937435Y-51230500D01*
X131189458Y-51192513D01*
X131329680Y-51149259D01*
X131399541Y-51148310D01*
X131458827Y-51185281D01*
X131488714Y-51248436D01*
X131479713Y-51317723D01*
X131453914Y-51355428D01*
X131449530Y-51359812D01*
X131449528Y-51359814D01*
X131449528Y-51359815D01*
X131443059Y-51370516D01*
X131361522Y-51505393D01*
X131310913Y-51667807D01*
X131304500Y-51738386D01*
X131304500Y-52401613D01*
X131310913Y-52472192D01*
X131310913Y-52472194D01*
X131310914Y-52472196D01*
X131361522Y-52634606D01*
X131443058Y-52769483D01*
X131449530Y-52780188D01*
X131569811Y-52900469D01*
X131569813Y-52900470D01*
X131569815Y-52900472D01*
X131715394Y-52988478D01*
X131877804Y-53039086D01*
X131948384Y-53045500D01*
X131948387Y-53045500D01*
X132461613Y-53045500D01*
X132461616Y-53045500D01*
X132532196Y-53039086D01*
X132694606Y-52988478D01*
X132840185Y-52900472D01*
X132942673Y-52797983D01*
X133003994Y-52764499D01*
X133073685Y-52769483D01*
X133118034Y-52797984D01*
X133220122Y-52900072D01*
X133365604Y-52988019D01*
X133365603Y-52988019D01*
X133527894Y-53038590D01*
X133527893Y-53038590D01*
X133598408Y-53044998D01*
X133598426Y-53044999D01*
X133604999Y-53044998D01*
X133605000Y-53044998D01*
X133605000Y-52320000D01*
X134105000Y-52320000D01*
X134105000Y-53044999D01*
X134111581Y-53044999D01*
X134182102Y-53038591D01*
X134182107Y-53038590D01*
X134344396Y-52988018D01*
X134489877Y-52900072D01*
X134610072Y-52779877D01*
X134698019Y-52634395D01*
X134748590Y-52472106D01*
X134755000Y-52401572D01*
X134755000Y-52320000D01*
X134105000Y-52320000D01*
X133605000Y-52320000D01*
X133605000Y-51095000D01*
X134105000Y-51095000D01*
X134105000Y-51820000D01*
X134754999Y-51820000D01*
X134754999Y-51738417D01*
X134748591Y-51667897D01*
X134748590Y-51667892D01*
X134698018Y-51505603D01*
X134610072Y-51360122D01*
X134489877Y-51239927D01*
X134344395Y-51151980D01*
X134344396Y-51151980D01*
X134182105Y-51101409D01*
X134182106Y-51101409D01*
X134111572Y-51095000D01*
X134105000Y-51095000D01*
X133605000Y-51095000D01*
X133604999Y-51094999D01*
X133598436Y-51095000D01*
X133598417Y-51095001D01*
X133527897Y-51101408D01*
X133527892Y-51101409D01*
X133365603Y-51151981D01*
X133220122Y-51239927D01*
X133220121Y-51239928D01*
X133118035Y-51342015D01*
X133056712Y-51375500D01*
X132987020Y-51370516D01*
X132942673Y-51342015D01*
X132866819Y-51266161D01*
X132833334Y-51204838D01*
X132830500Y-51178480D01*
X132830500Y-51007742D01*
X132832224Y-50992122D01*
X132831939Y-50992096D01*
X132832671Y-50984340D01*
X132832673Y-50984333D01*
X132830500Y-50915185D01*
X132830500Y-50885650D01*
X132829631Y-50878772D01*
X132829172Y-50872943D01*
X132828785Y-50860639D01*
X132827709Y-50826373D01*
X132827705Y-50826360D01*
X132822122Y-50807144D01*
X132818174Y-50788084D01*
X132815664Y-50768208D01*
X132815663Y-50768206D01*
X132815663Y-50768204D01*
X132798512Y-50724887D01*
X132796619Y-50719358D01*
X132783618Y-50674609D01*
X132783616Y-50674606D01*
X132773423Y-50657371D01*
X132764861Y-50639894D01*
X132757487Y-50621270D01*
X132757486Y-50621268D01*
X132730079Y-50583545D01*
X132726888Y-50578686D01*
X132703172Y-50538583D01*
X132703165Y-50538574D01*
X132689006Y-50524415D01*
X132676368Y-50509619D01*
X132664594Y-50493413D01*
X132664579Y-50493401D01*
X132628688Y-50463709D01*
X132624376Y-50459786D01*
X132531770Y-50367180D01*
X132498286Y-50305858D01*
X132503270Y-50236166D01*
X132545142Y-50180233D01*
X132610606Y-50155816D01*
X132619452Y-50155500D01*
X141798712Y-50155500D01*
X141865751Y-50175185D01*
X141911506Y-50227989D01*
X141921450Y-50297147D01*
X141892425Y-50360703D01*
X141880472Y-50372728D01*
X141844376Y-50404383D01*
X141641222Y-50636036D01*
X141641212Y-50636048D01*
X141470041Y-50892225D01*
X141470037Y-50892232D01*
X141333762Y-51168570D01*
X141333758Y-51168580D01*
X141234723Y-51460328D01*
X141234718Y-51460348D01*
X141177392Y-51748547D01*
X141174609Y-51762540D01*
X141154457Y-52070000D01*
X141168833Y-52289342D01*
X141174609Y-52377458D01*
X141174611Y-52377470D01*
X141234718Y-52679651D01*
X141234722Y-52679666D01*
X141333760Y-52971422D01*
X141333761Y-52971424D01*
X141333762Y-52971427D01*
X141333763Y-52971429D01*
X141333769Y-52971443D01*
X141470034Y-53247761D01*
X141470043Y-53247776D01*
X141531665Y-53340000D01*
X141641222Y-53503964D01*
X141641227Y-53503970D01*
X141844379Y-53735620D01*
X141999552Y-53871703D01*
X142076036Y-53938778D01*
X142332229Y-54109960D01*
X142332232Y-54109961D01*
X142332238Y-54109965D01*
X142608556Y-54246230D01*
X142608561Y-54246232D01*
X142608573Y-54246238D01*
X142900341Y-54345280D01*
X143202540Y-54405391D01*
X143433059Y-54420500D01*
X143433062Y-54420500D01*
X143586938Y-54420500D01*
X143586941Y-54420500D01*
X143817460Y-54405391D01*
X144119659Y-54345280D01*
X144411427Y-54246238D01*
X144687771Y-54109960D01*
X144943964Y-53938778D01*
X145175620Y-53735620D01*
X145378778Y-53503964D01*
X145549960Y-53247772D01*
X145686238Y-52971427D01*
X145686240Y-52971422D01*
X145686241Y-52971419D01*
X145785276Y-52679671D01*
X145785277Y-52679667D01*
X145785280Y-52679659D01*
X145845391Y-52377460D01*
X145865543Y-52070000D01*
X145845391Y-51762540D01*
X145785280Y-51460341D01*
X145686238Y-51168573D01*
X145686230Y-51168556D01*
X145549965Y-50892238D01*
X145549956Y-50892223D01*
X145537074Y-50872943D01*
X145378778Y-50636036D01*
X145293303Y-50538571D01*
X145175620Y-50404379D01*
X145053339Y-50297142D01*
X145046739Y-50291354D01*
X145009316Y-50232353D01*
X145009732Y-50162485D01*
X145047855Y-50103933D01*
X145076966Y-50086382D01*
X145076892Y-50086247D01*
X145080304Y-50084371D01*
X145082854Y-50082833D01*
X145083732Y-50082486D01*
X145121449Y-50055082D01*
X145126305Y-50051892D01*
X145166420Y-50028170D01*
X145180589Y-50013999D01*
X145195379Y-50001368D01*
X145211587Y-49989594D01*
X145241299Y-49953676D01*
X145245212Y-49949376D01*
X145433635Y-49760953D01*
X145494956Y-49727470D01*
X145564648Y-49732454D01*
X145620581Y-49774326D01*
X145642205Y-49821043D01*
X145690497Y-50032625D01*
X145690499Y-50032632D01*
X145783614Y-50269883D01*
X145911048Y-50490607D01*
X146069957Y-50689872D01*
X146256790Y-50863227D01*
X146467373Y-51006800D01*
X146467378Y-51006802D01*
X146467379Y-51006803D01*
X146467380Y-51006804D01*
X146576019Y-51059121D01*
X146696999Y-51117382D01*
X146697000Y-51117382D01*
X146697003Y-51117384D01*
X146940549Y-51192508D01*
X147192572Y-51230495D01*
X147447442Y-51230495D01*
X147699465Y-51192508D01*
X147839684Y-51149255D01*
X147909545Y-51148306D01*
X147968831Y-51185277D01*
X147998718Y-51248432D01*
X147989717Y-51317719D01*
X147963918Y-51355424D01*
X147959530Y-51359812D01*
X147959528Y-51359814D01*
X147959528Y-51359815D01*
X147953059Y-51370516D01*
X147871522Y-51505393D01*
X147820913Y-51667807D01*
X147814500Y-51738386D01*
X147814500Y-52401613D01*
X147820913Y-52472192D01*
X147820913Y-52472194D01*
X147820914Y-52472196D01*
X147871522Y-52634606D01*
X147953058Y-52769483D01*
X147959530Y-52780188D01*
X148079811Y-52900469D01*
X148079813Y-52900470D01*
X148079815Y-52900472D01*
X148225394Y-52988478D01*
X148387804Y-53039086D01*
X148458384Y-53045500D01*
X148458387Y-53045500D01*
X148971613Y-53045500D01*
X148971616Y-53045500D01*
X149042196Y-53039086D01*
X149204606Y-52988478D01*
X149350185Y-52900472D01*
X149452673Y-52797983D01*
X149513994Y-52764499D01*
X149583685Y-52769483D01*
X149628034Y-52797984D01*
X149730122Y-52900072D01*
X149875604Y-52988019D01*
X149875603Y-52988019D01*
X150037894Y-53038590D01*
X150037893Y-53038590D01*
X150108408Y-53044998D01*
X150108426Y-53044999D01*
X150114999Y-53044998D01*
X150115000Y-53044998D01*
X150115000Y-52320000D01*
X150615000Y-52320000D01*
X150615000Y-53044999D01*
X150621581Y-53044999D01*
X150692102Y-53038591D01*
X150692107Y-53038590D01*
X150854396Y-52988018D01*
X150999877Y-52900072D01*
X151120072Y-52779877D01*
X151208019Y-52634395D01*
X151258590Y-52472106D01*
X151265000Y-52401572D01*
X151265000Y-52320000D01*
X150615000Y-52320000D01*
X150115000Y-52320000D01*
X150115000Y-51095000D01*
X150615000Y-51095000D01*
X150615000Y-51820000D01*
X151264999Y-51820000D01*
X151264999Y-51738417D01*
X151258591Y-51667897D01*
X151258590Y-51667892D01*
X151208018Y-51505603D01*
X151120072Y-51360122D01*
X150999877Y-51239927D01*
X150854395Y-51151980D01*
X150854396Y-51151980D01*
X150692105Y-51101409D01*
X150692106Y-51101409D01*
X150621572Y-51095000D01*
X150615000Y-51095000D01*
X150115000Y-51095000D01*
X150114999Y-51094999D01*
X150108436Y-51095000D01*
X150108417Y-51095001D01*
X150037897Y-51101408D01*
X150037892Y-51101409D01*
X149875603Y-51151981D01*
X149730122Y-51239927D01*
X149730121Y-51239928D01*
X149628035Y-51342015D01*
X149566712Y-51375500D01*
X149497020Y-51370516D01*
X149452673Y-51342015D01*
X149376819Y-51266161D01*
X149343334Y-51204838D01*
X149340500Y-51178480D01*
X149340500Y-51007730D01*
X149342224Y-50992110D01*
X149341939Y-50992084D01*
X149342671Y-50984328D01*
X149342673Y-50984321D01*
X149340500Y-50915173D01*
X149340500Y-50885638D01*
X149339780Y-50879943D01*
X149339631Y-50878760D01*
X149339172Y-50872931D01*
X149339171Y-50872915D01*
X149337709Y-50826361D01*
X149336809Y-50823265D01*
X149332122Y-50807132D01*
X149328174Y-50788072D01*
X149327076Y-50779376D01*
X149325664Y-50768196D01*
X149325663Y-50768194D01*
X149325663Y-50768192D01*
X149308512Y-50724875D01*
X149306619Y-50719346D01*
X149293618Y-50674597D01*
X149293616Y-50674594D01*
X149283423Y-50657359D01*
X149274861Y-50639882D01*
X149267487Y-50621258D01*
X149267486Y-50621256D01*
X149240079Y-50583533D01*
X149236888Y-50578674D01*
X149224992Y-50558559D01*
X149213170Y-50538568D01*
X149213168Y-50538566D01*
X149213165Y-50538562D01*
X149199006Y-50524403D01*
X149186368Y-50509607D01*
X149178953Y-50499401D01*
X149174594Y-50493401D01*
X149171221Y-50490611D01*
X149138688Y-50463697D01*
X149134376Y-50459774D01*
X149041777Y-50367175D01*
X149008293Y-50305853D01*
X149013277Y-50236161D01*
X149055149Y-50180228D01*
X149120613Y-50155811D01*
X149129459Y-50155495D01*
X158308720Y-50155495D01*
X158375759Y-50175180D01*
X158421514Y-50227984D01*
X158431458Y-50297142D01*
X158402433Y-50360698D01*
X158390479Y-50372723D01*
X158354380Y-50404380D01*
X158151223Y-50636037D01*
X158151213Y-50636049D01*
X157980042Y-50892226D01*
X157980038Y-50892233D01*
X157843763Y-51168571D01*
X157843759Y-51168581D01*
X157744724Y-51460329D01*
X157744719Y-51460349D01*
X157684612Y-51762529D01*
X157684610Y-51762541D01*
X157664458Y-52070001D01*
X157684610Y-52377461D01*
X157684611Y-52377465D01*
X157684612Y-52377471D01*
X157744719Y-52679652D01*
X157744723Y-52679667D01*
X157843761Y-52971423D01*
X157843762Y-52971426D01*
X157843763Y-52971428D01*
X157843764Y-52971430D01*
X157843770Y-52971444D01*
X157980035Y-53247762D01*
X157980044Y-53247777D01*
X158064059Y-53373515D01*
X158151223Y-53503965D01*
X158157133Y-53510704D01*
X158354380Y-53735621D01*
X158510137Y-53872216D01*
X158586037Y-53938779D01*
X158842230Y-54109961D01*
X158842233Y-54109962D01*
X158842239Y-54109966D01*
X159118557Y-54246231D01*
X159118562Y-54246233D01*
X159118574Y-54246239D01*
X159410342Y-54345281D01*
X159712541Y-54405392D01*
X159943060Y-54420501D01*
X159943063Y-54420501D01*
X160096939Y-54420501D01*
X160096942Y-54420501D01*
X160327461Y-54405392D01*
X160629660Y-54345281D01*
X160921428Y-54246239D01*
X161197772Y-54109961D01*
X161453965Y-53938779D01*
X161685621Y-53735621D01*
X161888779Y-53503965D01*
X161888789Y-53503951D01*
X161943726Y-53421730D01*
X162059961Y-53247773D01*
X162196239Y-52971428D01*
X162220326Y-52900472D01*
X162295277Y-52679672D01*
X162295277Y-52679671D01*
X162295281Y-52679660D01*
X162355392Y-52377461D01*
X162375544Y-52070001D01*
X162355392Y-51762541D01*
X162295281Y-51460342D01*
X162196239Y-51168574D01*
X162196231Y-51168557D01*
X162059966Y-50892239D01*
X162059959Y-50892228D01*
X161888779Y-50636037D01*
X161790878Y-50524403D01*
X161685621Y-50404380D01*
X161648390Y-50371730D01*
X161610966Y-50312729D01*
X161611382Y-50242860D01*
X161649505Y-50184308D01*
X161713232Y-50155661D01*
X161714494Y-50155495D01*
X161721381Y-50154624D01*
X161727188Y-50154167D01*
X161773771Y-50152704D01*
X161793013Y-50147112D01*
X161812056Y-50143169D01*
X161831936Y-50140659D01*
X161875266Y-50123502D01*
X161880790Y-50121612D01*
X161884540Y-50120522D01*
X161925534Y-50108613D01*
X161942773Y-50098417D01*
X161960247Y-50089857D01*
X161978872Y-50082483D01*
X161978873Y-50082482D01*
X161978876Y-50082481D01*
X162016578Y-50055087D01*
X162021449Y-50051887D01*
X162047559Y-50036446D01*
X162115284Y-50019266D01*
X162181546Y-50041427D01*
X162225308Y-50095893D01*
X162226106Y-50097877D01*
X162293616Y-50269886D01*
X162309352Y-50297142D01*
X162421049Y-50490608D01*
X162579958Y-50689873D01*
X162766791Y-50863228D01*
X162977374Y-51006801D01*
X162977379Y-51006803D01*
X162977380Y-51006804D01*
X162977381Y-51006805D01*
X163086020Y-51059122D01*
X163207000Y-51117383D01*
X163207001Y-51117383D01*
X163207004Y-51117385D01*
X163450550Y-51192509D01*
X163702573Y-51230496D01*
X163957443Y-51230496D01*
X164209466Y-51192509D01*
X164313950Y-51160279D01*
X164383809Y-51159329D01*
X164443096Y-51196300D01*
X164472983Y-51259455D01*
X164463982Y-51328743D01*
X164448115Y-51355235D01*
X164444532Y-51359809D01*
X164444528Y-51359814D01*
X164444528Y-51359815D01*
X164430793Y-51382535D01*
X164356522Y-51505393D01*
X164305913Y-51667807D01*
X164299500Y-51738386D01*
X164299500Y-52401613D01*
X164305913Y-52472192D01*
X164305913Y-52472194D01*
X164305914Y-52472196D01*
X164356522Y-52634606D01*
X164438058Y-52769483D01*
X164444530Y-52780188D01*
X164564811Y-52900469D01*
X164564813Y-52900470D01*
X164564815Y-52900472D01*
X164710394Y-52988478D01*
X164872804Y-53039086D01*
X164943384Y-53045500D01*
X164943387Y-53045500D01*
X165456613Y-53045500D01*
X165456616Y-53045500D01*
X165527196Y-53039086D01*
X165689606Y-52988478D01*
X165835185Y-52900472D01*
X165937673Y-52797983D01*
X165998994Y-52764499D01*
X166068685Y-52769483D01*
X166113034Y-52797984D01*
X166215122Y-52900072D01*
X166360604Y-52988019D01*
X166360603Y-52988019D01*
X166522894Y-53038590D01*
X166522893Y-53038590D01*
X166593408Y-53044998D01*
X166593426Y-53044999D01*
X166599999Y-53044998D01*
X166600000Y-53044998D01*
X166600000Y-52320000D01*
X167100000Y-52320000D01*
X167100000Y-53044999D01*
X167106581Y-53044999D01*
X167177102Y-53038591D01*
X167177107Y-53038590D01*
X167339396Y-52988018D01*
X167484877Y-52900072D01*
X167605072Y-52779877D01*
X167693019Y-52634395D01*
X167743590Y-52472106D01*
X167750000Y-52401572D01*
X167750000Y-52320000D01*
X167100000Y-52320000D01*
X166600000Y-52320000D01*
X166600000Y-51095000D01*
X167100000Y-51095000D01*
X167100000Y-51820000D01*
X167749999Y-51820000D01*
X167749999Y-51738417D01*
X167743591Y-51667897D01*
X167743590Y-51667892D01*
X167693018Y-51505603D01*
X167605072Y-51360122D01*
X167484877Y-51239927D01*
X167339395Y-51151980D01*
X167339396Y-51151980D01*
X167177105Y-51101409D01*
X167177106Y-51101409D01*
X167106572Y-51095000D01*
X167100000Y-51095000D01*
X166600000Y-51095000D01*
X166599999Y-51094999D01*
X166593436Y-51095000D01*
X166593417Y-51095001D01*
X166522897Y-51101408D01*
X166522892Y-51101409D01*
X166360603Y-51151981D01*
X166215122Y-51239927D01*
X166215121Y-51239928D01*
X166113035Y-51342015D01*
X166051712Y-51375500D01*
X165982020Y-51370516D01*
X165937673Y-51342015D01*
X165861819Y-51266161D01*
X165828334Y-51204838D01*
X165825500Y-51178480D01*
X165825500Y-50982725D01*
X165827224Y-50967111D01*
X165826938Y-50967084D01*
X165827672Y-50959321D01*
X165825500Y-50890191D01*
X165825500Y-50860639D01*
X165825500Y-50860638D01*
X165824629Y-50853747D01*
X165824172Y-50847933D01*
X165822709Y-50801360D01*
X165817122Y-50782132D01*
X165813174Y-50763072D01*
X165810664Y-50743196D01*
X165793507Y-50699863D01*
X165791619Y-50694347D01*
X165778619Y-50649600D01*
X165768418Y-50632351D01*
X165759860Y-50614882D01*
X165752486Y-50596256D01*
X165752483Y-50596252D01*
X165752483Y-50596251D01*
X165725098Y-50558559D01*
X165721890Y-50553675D01*
X165698172Y-50513570D01*
X165698163Y-50513559D01*
X165684005Y-50499401D01*
X165671370Y-50484608D01*
X165659593Y-50468400D01*
X165623693Y-50438701D01*
X165619381Y-50434778D01*
X165551779Y-50367176D01*
X165518295Y-50305854D01*
X165523279Y-50236162D01*
X165565151Y-50180229D01*
X165630615Y-50155812D01*
X165639461Y-50155496D01*
X174818717Y-50155496D01*
X174885756Y-50175181D01*
X174931511Y-50227985D01*
X174941455Y-50297143D01*
X174912430Y-50360699D01*
X174900476Y-50372724D01*
X174864379Y-50404379D01*
X174661222Y-50636036D01*
X174661212Y-50636048D01*
X174490041Y-50892225D01*
X174490037Y-50892232D01*
X174353762Y-51168570D01*
X174353758Y-51168580D01*
X174254723Y-51460328D01*
X174254718Y-51460348D01*
X174197392Y-51748547D01*
X174194609Y-51762540D01*
X174174457Y-52070000D01*
X174188833Y-52289342D01*
X174194609Y-52377458D01*
X174194611Y-52377470D01*
X174254718Y-52679651D01*
X174254722Y-52679666D01*
X174353760Y-52971422D01*
X174353761Y-52971424D01*
X174353762Y-52971427D01*
X174353763Y-52971429D01*
X174353769Y-52971443D01*
X174490034Y-53247761D01*
X174490043Y-53247776D01*
X174551665Y-53340000D01*
X174661222Y-53503964D01*
X174661227Y-53503970D01*
X174864379Y-53735620D01*
X175019552Y-53871703D01*
X175096036Y-53938778D01*
X175352229Y-54109960D01*
X175352232Y-54109961D01*
X175352238Y-54109965D01*
X175628556Y-54246230D01*
X175628561Y-54246232D01*
X175628573Y-54246238D01*
X175920341Y-54345280D01*
X176222540Y-54405391D01*
X176453059Y-54420500D01*
X176453062Y-54420500D01*
X176606938Y-54420500D01*
X176606941Y-54420500D01*
X176837460Y-54405391D01*
X177139659Y-54345280D01*
X177431427Y-54246238D01*
X177707771Y-54109960D01*
X177963964Y-53938778D01*
X178195620Y-53735620D01*
X178398778Y-53503964D01*
X178569960Y-53247772D01*
X178706238Y-52971427D01*
X178706240Y-52971422D01*
X178706241Y-52971419D01*
X178805276Y-52679671D01*
X178805277Y-52679667D01*
X178805280Y-52679659D01*
X178865391Y-52377460D01*
X178885543Y-52070000D01*
X178865391Y-51762540D01*
X178805280Y-51460341D01*
X178706238Y-51168573D01*
X178706230Y-51168556D01*
X178569965Y-50892238D01*
X178569956Y-50892223D01*
X178557074Y-50872943D01*
X178398778Y-50636036D01*
X178313295Y-50538562D01*
X178195623Y-50404383D01*
X178195618Y-50404379D01*
X178158389Y-50371729D01*
X178120967Y-50312727D01*
X178121383Y-50242859D01*
X178159507Y-50184307D01*
X178223234Y-50155661D01*
X178224488Y-50155496D01*
X178224491Y-50155496D01*
X178231381Y-50154625D01*
X178237192Y-50154168D01*
X178283768Y-50152705D01*
X178303010Y-50147113D01*
X178322053Y-50143170D01*
X178341933Y-50140660D01*
X178385263Y-50123503D01*
X178390787Y-50121613D01*
X178394537Y-50120523D01*
X178435531Y-50108614D01*
X178452770Y-50098418D01*
X178470244Y-50089858D01*
X178488869Y-50082484D01*
X178488870Y-50082483D01*
X178488873Y-50082482D01*
X178526575Y-50055088D01*
X178531436Y-50051894D01*
X178557560Y-50036445D01*
X178625283Y-50019265D01*
X178691545Y-50041425D01*
X178735307Y-50095892D01*
X178736090Y-50097838D01*
X178803614Y-50269883D01*
X178931048Y-50490607D01*
X179089957Y-50689872D01*
X179276790Y-50863227D01*
X179487373Y-51006800D01*
X179487378Y-51006802D01*
X179487379Y-51006803D01*
X179487380Y-51006804D01*
X179596019Y-51059121D01*
X179716999Y-51117382D01*
X179717000Y-51117382D01*
X179717003Y-51117384D01*
X179960549Y-51192508D01*
X180212572Y-51230495D01*
X180467442Y-51230495D01*
X180719465Y-51192508D01*
X180859684Y-51149255D01*
X180929545Y-51148306D01*
X180988831Y-51185277D01*
X181018718Y-51248432D01*
X181009717Y-51317719D01*
X180983918Y-51355424D01*
X180979530Y-51359812D01*
X180979528Y-51359814D01*
X180979528Y-51359815D01*
X180973059Y-51370516D01*
X180891522Y-51505393D01*
X180840913Y-51667807D01*
X180834500Y-51738386D01*
X180834500Y-52401613D01*
X180840913Y-52472192D01*
X180840913Y-52472194D01*
X180840914Y-52472196D01*
X180891522Y-52634606D01*
X180973058Y-52769483D01*
X180979530Y-52780188D01*
X181099811Y-52900469D01*
X181099813Y-52900470D01*
X181099815Y-52900472D01*
X181245394Y-52988478D01*
X181407804Y-53039086D01*
X181478384Y-53045500D01*
X181478387Y-53045500D01*
X181991613Y-53045500D01*
X181991616Y-53045500D01*
X182062196Y-53039086D01*
X182224606Y-52988478D01*
X182370185Y-52900472D01*
X182472673Y-52797983D01*
X182533994Y-52764499D01*
X182603685Y-52769483D01*
X182648034Y-52797984D01*
X182750122Y-52900072D01*
X182895604Y-52988019D01*
X182895603Y-52988019D01*
X183057894Y-53038590D01*
X183057893Y-53038590D01*
X183128408Y-53044998D01*
X183128426Y-53044999D01*
X183134999Y-53044998D01*
X183135000Y-53044998D01*
X183135000Y-51095000D01*
X183134999Y-51094999D01*
X183128436Y-51095000D01*
X183128417Y-51095001D01*
X183057897Y-51101408D01*
X183057892Y-51101409D01*
X182895603Y-51151981D01*
X182750122Y-51239927D01*
X182750121Y-51239928D01*
X182648035Y-51342015D01*
X182586712Y-51375500D01*
X182517020Y-51370516D01*
X182472673Y-51342015D01*
X182396819Y-51266161D01*
X182363334Y-51204838D01*
X182360500Y-51178480D01*
X182360500Y-51007730D01*
X182362224Y-50992110D01*
X182361939Y-50992084D01*
X182362671Y-50984328D01*
X182362673Y-50984321D01*
X182360500Y-50915173D01*
X182360500Y-50885638D01*
X182359780Y-50879943D01*
X182359631Y-50878760D01*
X182359172Y-50872931D01*
X182359171Y-50872915D01*
X182357709Y-50826361D01*
X182356809Y-50823265D01*
X182352122Y-50807132D01*
X182348174Y-50788072D01*
X182347076Y-50779376D01*
X182345664Y-50768196D01*
X182345663Y-50768194D01*
X182345663Y-50768192D01*
X182328512Y-50724875D01*
X182326619Y-50719346D01*
X182313618Y-50674597D01*
X182313616Y-50674594D01*
X182303423Y-50657359D01*
X182294861Y-50639882D01*
X182287487Y-50621258D01*
X182287486Y-50621256D01*
X182260079Y-50583533D01*
X182256888Y-50578674D01*
X182244992Y-50558559D01*
X182233170Y-50538568D01*
X182233168Y-50538566D01*
X182233165Y-50538562D01*
X182219006Y-50524403D01*
X182206368Y-50509607D01*
X182198953Y-50499401D01*
X182194594Y-50493401D01*
X182191221Y-50490611D01*
X182158688Y-50463697D01*
X182154376Y-50459774D01*
X181958635Y-50264032D01*
X181925150Y-50202709D01*
X181930134Y-50133017D01*
X181930837Y-50131180D01*
X181969515Y-50032632D01*
X182026229Y-49784152D01*
X182035219Y-49664181D01*
X182045275Y-49529999D01*
X182045275Y-49529990D01*
X182031670Y-49348454D01*
X182026229Y-49275838D01*
X181969515Y-49027358D01*
X181930887Y-48928938D01*
X181924719Y-48859343D01*
X181957156Y-48797459D01*
X181958572Y-48796019D01*
X185642774Y-45111819D01*
X185704097Y-45078334D01*
X185730455Y-45075500D01*
X186196736Y-45075500D01*
X186263775Y-45095185D01*
G37*
%TD.AperFunction*%
%TA.AperFunction,Conductor*%
G36*
X206190539Y-40025185D02*
G01*
X206236294Y-40077989D01*
X206247500Y-40129500D01*
X206247500Y-79885500D01*
X206227815Y-79952539D01*
X206175011Y-79998294D01*
X206123500Y-80009500D01*
X109852500Y-80009500D01*
X109785461Y-79989815D01*
X109739706Y-79937011D01*
X109728500Y-79885500D01*
X109728500Y-75614903D01*
X111641793Y-75614903D01*
X111651672Y-75922970D01*
X111651672Y-75922975D01*
X111651673Y-75922978D01*
X111700867Y-76227261D01*
X111745137Y-76376419D01*
X111788571Y-76522763D01*
X111913333Y-76804601D01*
X111913337Y-76804609D01*
X112073123Y-77068193D01*
X112073127Y-77068198D01*
X112073133Y-77068207D01*
X112265297Y-77309174D01*
X112265299Y-77309176D01*
X112265303Y-77309180D01*
X112265304Y-77309181D01*
X112486724Y-77523614D01*
X112653862Y-77648352D01*
X112733741Y-77707968D01*
X112733743Y-77707969D01*
X112733747Y-77707972D01*
X113002318Y-77859228D01*
X113143057Y-77916207D01*
X113288018Y-77974897D01*
X113288023Y-77974898D01*
X113288025Y-77974899D01*
X113586179Y-78053084D01*
X113891883Y-78092500D01*
X113891890Y-78092500D01*
X114122980Y-78092500D01*
X114221814Y-78086154D01*
X114353601Y-78077693D01*
X114656151Y-78018772D01*
X114948683Y-77921644D01*
X114948689Y-77921640D01*
X114948693Y-77921640D01*
X115139571Y-77829717D01*
X115226393Y-77787907D01*
X115484720Y-77619754D01*
X115719424Y-77419948D01*
X115926650Y-77191769D01*
X116102996Y-76938963D01*
X116245567Y-76665683D01*
X116352020Y-76376415D01*
X116420609Y-76075908D01*
X116450206Y-75769098D01*
X116440327Y-75461022D01*
X116391133Y-75156739D01*
X116303431Y-74861244D01*
X116303429Y-74861239D01*
X116303428Y-74861236D01*
X116214375Y-74660064D01*
X123400000Y-74660064D01*
X123400000Y-74867903D01*
X123406401Y-74927431D01*
X123406403Y-74927438D01*
X123456645Y-75062145D01*
X123456649Y-75062152D01*
X123542809Y-75177246D01*
X123542812Y-75177249D01*
X123657906Y-75263409D01*
X123657913Y-75263413D01*
X123792620Y-75313655D01*
X123792627Y-75313657D01*
X123852155Y-75320058D01*
X123852172Y-75320059D01*
X124250000Y-75320059D01*
X124250000Y-74660064D01*
X124750000Y-74660064D01*
X124750000Y-75320059D01*
X125147828Y-75320059D01*
X125147844Y-75320058D01*
X125207372Y-75313657D01*
X125207379Y-75313655D01*
X125342086Y-75263413D01*
X125342093Y-75263409D01*
X125457187Y-75177249D01*
X125457190Y-75177246D01*
X125543350Y-75062152D01*
X125543354Y-75062145D01*
X125593596Y-74927438D01*
X125593598Y-74927431D01*
X125599999Y-74867903D01*
X125600000Y-74867886D01*
X125600000Y-74660064D01*
X124750000Y-74660064D01*
X124250000Y-74660064D01*
X123400000Y-74660064D01*
X116214375Y-74660064D01*
X116178666Y-74579398D01*
X116178663Y-74579391D01*
X116018877Y-74315807D01*
X116018870Y-74315799D01*
X116018866Y-74315792D01*
X115826702Y-74074825D01*
X115826700Y-74074823D01*
X115825952Y-74074099D01*
X115605276Y-73860386D01*
X115436902Y-73734725D01*
X115358258Y-73676031D01*
X115345699Y-73668958D01*
X115089682Y-73524772D01*
X115046820Y-73507419D01*
X114803981Y-73409102D01*
X114636660Y-73365226D01*
X114505821Y-73330916D01*
X114200117Y-73291500D01*
X113969026Y-73291500D01*
X113969020Y-73291500D01*
X113738406Y-73306306D01*
X113738389Y-73306308D01*
X113435854Y-73365226D01*
X113435849Y-73365228D01*
X113143310Y-73462358D01*
X113143306Y-73462359D01*
X112865613Y-73596089D01*
X112865605Y-73596094D01*
X112607286Y-73764241D01*
X112607276Y-73764248D01*
X112372581Y-73964046D01*
X112372571Y-73964056D01*
X112165354Y-74192225D01*
X112165350Y-74192229D01*
X111989005Y-74445033D01*
X111989003Y-74445037D01*
X111866125Y-74680571D01*
X111847202Y-74716844D01*
X111846432Y-74718319D01*
X111846429Y-74718326D01*
X111739981Y-75007580D01*
X111739980Y-75007585D01*
X111733098Y-75037736D01*
X111671391Y-75308089D01*
X111641794Y-75614902D01*
X111641793Y-75614903D01*
X109728500Y-75614903D01*
X109728500Y-59055000D01*
X120379540Y-59055000D01*
X120399326Y-59243256D01*
X120399327Y-59243259D01*
X120457818Y-59423277D01*
X120457821Y-59423284D01*
X120552467Y-59587216D01*
X120649649Y-59695147D01*
X120679129Y-59727888D01*
X120832265Y-59839148D01*
X120832270Y-59839151D01*
X121005192Y-59916142D01*
X121005197Y-59916144D01*
X121190354Y-59955500D01*
X121190355Y-59955500D01*
X121379644Y-59955500D01*
X121379646Y-59955500D01*
X121564803Y-59916144D01*
X121737730Y-59839151D01*
X121859617Y-59750594D01*
X121925420Y-59727116D01*
X121993474Y-59742941D01*
X122042169Y-59793047D01*
X122056500Y-59850914D01*
X122056500Y-72053255D01*
X122054775Y-72068872D01*
X122055061Y-72068899D01*
X122054326Y-72076665D01*
X122056500Y-72145814D01*
X122056500Y-72175343D01*
X122056501Y-72175360D01*
X122057368Y-72182231D01*
X122057826Y-72188050D01*
X122059290Y-72234624D01*
X122059291Y-72234627D01*
X122064880Y-72253867D01*
X122068824Y-72272911D01*
X122071336Y-72292792D01*
X122086590Y-72331321D01*
X122088490Y-72336119D01*
X122090382Y-72341647D01*
X122102340Y-72382806D01*
X122103382Y-72386390D01*
X122106970Y-72392458D01*
X122113580Y-72403634D01*
X122122136Y-72421100D01*
X122129514Y-72439732D01*
X122153591Y-72472872D01*
X122156898Y-72477423D01*
X122160106Y-72482307D01*
X122183827Y-72522416D01*
X122183833Y-72522424D01*
X122197990Y-72536580D01*
X122210628Y-72551376D01*
X122221176Y-72565895D01*
X122222406Y-72567587D01*
X122253414Y-72593239D01*
X122258309Y-72597288D01*
X122262620Y-72601210D01*
X122624815Y-72963405D01*
X122955130Y-73293720D01*
X122964955Y-73305984D01*
X122965176Y-73305802D01*
X122970146Y-73311809D01*
X122970149Y-73311812D01*
X122970150Y-73311813D01*
X123020587Y-73359177D01*
X123041465Y-73380055D01*
X123046940Y-73384302D01*
X123051382Y-73388096D01*
X123085351Y-73419996D01*
X123085353Y-73419997D01*
X123085354Y-73419998D01*
X123102912Y-73429650D01*
X123119173Y-73440332D01*
X123135000Y-73452609D01*
X123177759Y-73471112D01*
X123183009Y-73473684D01*
X123223840Y-73496131D01*
X123223844Y-73496133D01*
X123223848Y-73496134D01*
X123243247Y-73501115D01*
X123261658Y-73507419D01*
X123280033Y-73515371D01*
X123280036Y-73515371D01*
X123280041Y-73515374D01*
X123326085Y-73522665D01*
X123331768Y-73523842D01*
X123376917Y-73535436D01*
X123376922Y-73535436D01*
X123384659Y-73536414D01*
X123384398Y-73538474D01*
X123441091Y-73555121D01*
X123473337Y-73585149D01*
X123474071Y-73586130D01*
X123498472Y-73651601D01*
X123483604Y-73719870D01*
X123474055Y-73734725D01*
X123456646Y-73757981D01*
X123456645Y-73757982D01*
X123406403Y-73892689D01*
X123406401Y-73892696D01*
X123400000Y-73952224D01*
X123400000Y-74160064D01*
X125600000Y-74160064D01*
X125600000Y-74074099D01*
X125619685Y-74007060D01*
X125672489Y-73961305D01*
X125741647Y-73951361D01*
X125805203Y-73980386D01*
X125842977Y-74039164D01*
X125843775Y-74042006D01*
X125853251Y-74077374D01*
X125853252Y-74077376D01*
X125853254Y-74077382D01*
X125913625Y-74206848D01*
X125943153Y-74270171D01*
X125943155Y-74270175D01*
X126065164Y-74444422D01*
X126215577Y-74594835D01*
X126389824Y-74716844D01*
X126389826Y-74716845D01*
X126389829Y-74716847D01*
X126582618Y-74806746D01*
X126616952Y-74815945D01*
X126620051Y-74816864D01*
X126623717Y-74818055D01*
X126623724Y-74818058D01*
X126631210Y-74819766D01*
X126788090Y-74861802D01*
X126828121Y-74865304D01*
X126836501Y-74866622D01*
X126836550Y-74866634D01*
X126850458Y-74867258D01*
X127000000Y-74880342D01*
X127044021Y-74876490D01*
X127052189Y-74876318D01*
X127054630Y-74876428D01*
X127071274Y-74874173D01*
X127074072Y-74873861D01*
X127211910Y-74861802D01*
X127258518Y-74849313D01*
X127266228Y-74847765D01*
X127270954Y-74847125D01*
X127289526Y-74841090D01*
X127292533Y-74840198D01*
X127417382Y-74806746D01*
X127464865Y-74784604D01*
X127471878Y-74781841D01*
X127478569Y-74779667D01*
X127497270Y-74769603D01*
X127500356Y-74768054D01*
X127610171Y-74716847D01*
X127656550Y-74684371D01*
X127662718Y-74680571D01*
X127670802Y-74676221D01*
X127688130Y-74662401D01*
X127691138Y-74660153D01*
X127784421Y-74594836D01*
X127827519Y-74551737D01*
X127832666Y-74547138D01*
X127841475Y-74540114D01*
X127856257Y-74523193D01*
X127859047Y-74520209D01*
X127934836Y-74444421D01*
X127972315Y-74390895D01*
X127976399Y-74385680D01*
X127985103Y-74375719D01*
X127996543Y-74356570D01*
X127998931Y-74352883D01*
X128056847Y-74270171D01*
X128086389Y-74206816D01*
X128089328Y-74201273D01*
X128097068Y-74188320D01*
X128104704Y-74167972D01*
X128106534Y-74163615D01*
X128146746Y-74077382D01*
X128147127Y-74075962D01*
X128155725Y-74043871D01*
X128192088Y-73984210D01*
X128254934Y-73953679D01*
X128324310Y-73961973D01*
X128378189Y-74006457D01*
X128399465Y-74073008D01*
X128399500Y-74075962D01*
X128399500Y-74867929D01*
X128399501Y-74867935D01*
X128405908Y-74927542D01*
X128456202Y-75062387D01*
X128456206Y-75062394D01*
X128542452Y-75177603D01*
X128542455Y-75177606D01*
X128657664Y-75263852D01*
X128657671Y-75263856D01*
X128792517Y-75314150D01*
X128792516Y-75314150D01*
X128799444Y-75314894D01*
X128852127Y-75320559D01*
X130147872Y-75320558D01*
X130207483Y-75314150D01*
X130342331Y-75263855D01*
X130457546Y-75177605D01*
X130506850Y-75111742D01*
X130526682Y-75085252D01*
X130582616Y-75043382D01*
X130625948Y-75035564D01*
X134295193Y-75035564D01*
X134310813Y-75037288D01*
X134310840Y-75037003D01*
X134318596Y-75037735D01*
X134318603Y-75037737D01*
X134387750Y-75035564D01*
X134417286Y-75035564D01*
X134424164Y-75034694D01*
X134429977Y-75034236D01*
X134476563Y-75032773D01*
X134495805Y-75027181D01*
X134514848Y-75023238D01*
X134534728Y-75020728D01*
X134578058Y-75003571D01*
X134583582Y-75001681D01*
X134587332Y-75000591D01*
X134628326Y-74988682D01*
X134645565Y-74978486D01*
X134663039Y-74969926D01*
X134681663Y-74962552D01*
X134681663Y-74962551D01*
X134681668Y-74962550D01*
X134719385Y-74935146D01*
X134724241Y-74931956D01*
X134764356Y-74908234D01*
X134778525Y-74894063D01*
X134793315Y-74881432D01*
X134809523Y-74869658D01*
X134839235Y-74833740D01*
X134843148Y-74829440D01*
X135012524Y-74660064D01*
X139910000Y-74660064D01*
X139910000Y-74867903D01*
X139916401Y-74927431D01*
X139916403Y-74927438D01*
X139966645Y-75062145D01*
X139966649Y-75062152D01*
X140052809Y-75177246D01*
X140052812Y-75177249D01*
X140167906Y-75263409D01*
X140167913Y-75263413D01*
X140302620Y-75313655D01*
X140302627Y-75313657D01*
X140362155Y-75320058D01*
X140362172Y-75320059D01*
X140760000Y-75320059D01*
X140760000Y-74660064D01*
X141260000Y-74660064D01*
X141260000Y-75320059D01*
X141657828Y-75320059D01*
X141657844Y-75320058D01*
X141717372Y-75313657D01*
X141717379Y-75313655D01*
X141852086Y-75263413D01*
X141852093Y-75263409D01*
X141967187Y-75177249D01*
X141967190Y-75177246D01*
X142053350Y-75062152D01*
X142053354Y-75062145D01*
X142103596Y-74927438D01*
X142103598Y-74927431D01*
X142109999Y-74867903D01*
X142110000Y-74867886D01*
X142110000Y-74660064D01*
X141260000Y-74660064D01*
X140760000Y-74660064D01*
X139910000Y-74660064D01*
X135012524Y-74660064D01*
X136100836Y-73571755D01*
X136162159Y-73538270D01*
X136188517Y-73535436D01*
X139884052Y-73535436D01*
X139951091Y-73555121D01*
X139983337Y-73585149D01*
X139984071Y-73586130D01*
X140008472Y-73651601D01*
X139993604Y-73719870D01*
X139984055Y-73734725D01*
X139966646Y-73757981D01*
X139966645Y-73757982D01*
X139916403Y-73892689D01*
X139916401Y-73892696D01*
X139910000Y-73952224D01*
X139910000Y-74160064D01*
X142110000Y-74160064D01*
X142110000Y-74074099D01*
X142129685Y-74007060D01*
X142182489Y-73961305D01*
X142251647Y-73951361D01*
X142315203Y-73980386D01*
X142352977Y-74039164D01*
X142353775Y-74042006D01*
X142363251Y-74077374D01*
X142363252Y-74077376D01*
X142363254Y-74077382D01*
X142423625Y-74206848D01*
X142453153Y-74270171D01*
X142453155Y-74270175D01*
X142575164Y-74444422D01*
X142725577Y-74594835D01*
X142899824Y-74716844D01*
X142899826Y-74716845D01*
X142899829Y-74716847D01*
X143092618Y-74806746D01*
X143126952Y-74815945D01*
X143130051Y-74816864D01*
X143133717Y-74818055D01*
X143133724Y-74818058D01*
X143141210Y-74819766D01*
X143298090Y-74861802D01*
X143338121Y-74865304D01*
X143346501Y-74866622D01*
X143346550Y-74866634D01*
X143360458Y-74867258D01*
X143510000Y-74880342D01*
X143554021Y-74876490D01*
X143562189Y-74876318D01*
X143564630Y-74876428D01*
X143581274Y-74874173D01*
X143584072Y-74873861D01*
X143721910Y-74861802D01*
X143768518Y-74849313D01*
X143776228Y-74847765D01*
X143780954Y-74847125D01*
X143799526Y-74841090D01*
X143802533Y-74840198D01*
X143927382Y-74806746D01*
X143974865Y-74784604D01*
X143981878Y-74781841D01*
X143988569Y-74779667D01*
X144007270Y-74769603D01*
X144010356Y-74768054D01*
X144120171Y-74716847D01*
X144166550Y-74684371D01*
X144172718Y-74680571D01*
X144180802Y-74676221D01*
X144198130Y-74662401D01*
X144201138Y-74660153D01*
X144294421Y-74594836D01*
X144337519Y-74551737D01*
X144342666Y-74547138D01*
X144351475Y-74540114D01*
X144366257Y-74523193D01*
X144369047Y-74520209D01*
X144444836Y-74444421D01*
X144482315Y-74390895D01*
X144486399Y-74385680D01*
X144495103Y-74375719D01*
X144506543Y-74356570D01*
X144508931Y-74352883D01*
X144566847Y-74270171D01*
X144596389Y-74206816D01*
X144599328Y-74201273D01*
X144607068Y-74188320D01*
X144614704Y-74167972D01*
X144616534Y-74163615D01*
X144656746Y-74077382D01*
X144657127Y-74075962D01*
X144665725Y-74043871D01*
X144702088Y-73984210D01*
X144764934Y-73953679D01*
X144834310Y-73961973D01*
X144888189Y-74006457D01*
X144909465Y-74073008D01*
X144909500Y-74075962D01*
X144909500Y-74867929D01*
X144909501Y-74867935D01*
X144915908Y-74927542D01*
X144966202Y-75062387D01*
X144966206Y-75062394D01*
X145052452Y-75177603D01*
X145052455Y-75177606D01*
X145167664Y-75263852D01*
X145167671Y-75263856D01*
X145302517Y-75314150D01*
X145302516Y-75314150D01*
X145309444Y-75314894D01*
X145362127Y-75320559D01*
X146657872Y-75320558D01*
X146717483Y-75314150D01*
X146852331Y-75263855D01*
X146967546Y-75177605D01*
X147016850Y-75111742D01*
X147036682Y-75085252D01*
X147092616Y-75043382D01*
X147135948Y-75035564D01*
X151059193Y-75035564D01*
X151074813Y-75037288D01*
X151074840Y-75037003D01*
X151082596Y-75037735D01*
X151082603Y-75037737D01*
X151151750Y-75035564D01*
X151181286Y-75035564D01*
X151188164Y-75034694D01*
X151193977Y-75034236D01*
X151240563Y-75032773D01*
X151259805Y-75027181D01*
X151278848Y-75023238D01*
X151298728Y-75020728D01*
X151342058Y-75003571D01*
X151347582Y-75001681D01*
X151351332Y-75000591D01*
X151392326Y-74988682D01*
X151409565Y-74978486D01*
X151427039Y-74969926D01*
X151445663Y-74962552D01*
X151445663Y-74962551D01*
X151445668Y-74962550D01*
X151483385Y-74935146D01*
X151488241Y-74931956D01*
X151528356Y-74908234D01*
X151542525Y-74894063D01*
X151557315Y-74881432D01*
X151573523Y-74869658D01*
X151603235Y-74833740D01*
X151607148Y-74829440D01*
X151776524Y-74660064D01*
X156420000Y-74660064D01*
X156420000Y-74867903D01*
X156426401Y-74927431D01*
X156426403Y-74927438D01*
X156476645Y-75062145D01*
X156476649Y-75062152D01*
X156562809Y-75177246D01*
X156562812Y-75177249D01*
X156677906Y-75263409D01*
X156677913Y-75263413D01*
X156812620Y-75313655D01*
X156812627Y-75313657D01*
X156872155Y-75320058D01*
X156872172Y-75320059D01*
X157270000Y-75320059D01*
X157270000Y-74660064D01*
X157770000Y-74660064D01*
X157770000Y-75320059D01*
X158167828Y-75320059D01*
X158167844Y-75320058D01*
X158227372Y-75313657D01*
X158227379Y-75313655D01*
X158362086Y-75263413D01*
X158362093Y-75263409D01*
X158477187Y-75177249D01*
X158477190Y-75177246D01*
X158563350Y-75062152D01*
X158563354Y-75062145D01*
X158613596Y-74927438D01*
X158613598Y-74927431D01*
X158619999Y-74867903D01*
X158620000Y-74867886D01*
X158620000Y-74660064D01*
X157770000Y-74660064D01*
X157270000Y-74660064D01*
X156420000Y-74660064D01*
X151776524Y-74660064D01*
X152864836Y-73571755D01*
X152926159Y-73538270D01*
X152952517Y-73535436D01*
X156394052Y-73535436D01*
X156461091Y-73555121D01*
X156493337Y-73585149D01*
X156494071Y-73586130D01*
X156518472Y-73651601D01*
X156503604Y-73719870D01*
X156494055Y-73734725D01*
X156476646Y-73757981D01*
X156476645Y-73757982D01*
X156426403Y-73892689D01*
X156426401Y-73892696D01*
X156420000Y-73952224D01*
X156420000Y-74160064D01*
X158620000Y-74160064D01*
X158620000Y-74074099D01*
X158639685Y-74007060D01*
X158692489Y-73961305D01*
X158761647Y-73951361D01*
X158825203Y-73980386D01*
X158862977Y-74039164D01*
X158863775Y-74042006D01*
X158873251Y-74077374D01*
X158873252Y-74077376D01*
X158873254Y-74077382D01*
X158933625Y-74206848D01*
X158963153Y-74270171D01*
X158963155Y-74270175D01*
X159085164Y-74444422D01*
X159235577Y-74594835D01*
X159409824Y-74716844D01*
X159409826Y-74716845D01*
X159409829Y-74716847D01*
X159602618Y-74806746D01*
X159636952Y-74815945D01*
X159640051Y-74816864D01*
X159643717Y-74818055D01*
X159643724Y-74818058D01*
X159651210Y-74819766D01*
X159808090Y-74861802D01*
X159848121Y-74865304D01*
X159856501Y-74866622D01*
X159856550Y-74866634D01*
X159870458Y-74867258D01*
X160020000Y-74880342D01*
X160064021Y-74876490D01*
X160072189Y-74876318D01*
X160074630Y-74876428D01*
X160091274Y-74874173D01*
X160094072Y-74873861D01*
X160231910Y-74861802D01*
X160278518Y-74849313D01*
X160286228Y-74847765D01*
X160290954Y-74847125D01*
X160309526Y-74841090D01*
X160312533Y-74840198D01*
X160437382Y-74806746D01*
X160484865Y-74784604D01*
X160491878Y-74781841D01*
X160498569Y-74779667D01*
X160517270Y-74769603D01*
X160520356Y-74768054D01*
X160630171Y-74716847D01*
X160676550Y-74684371D01*
X160682718Y-74680571D01*
X160690802Y-74676221D01*
X160708130Y-74662401D01*
X160711138Y-74660153D01*
X160804421Y-74594836D01*
X160847519Y-74551737D01*
X160852666Y-74547138D01*
X160861475Y-74540114D01*
X160876257Y-74523193D01*
X160879047Y-74520209D01*
X160954836Y-74444421D01*
X160992315Y-74390895D01*
X160996399Y-74385680D01*
X161005103Y-74375719D01*
X161016543Y-74356570D01*
X161018931Y-74352883D01*
X161076847Y-74270171D01*
X161106389Y-74206816D01*
X161109328Y-74201273D01*
X161117068Y-74188320D01*
X161124704Y-74167972D01*
X161126534Y-74163615D01*
X161166746Y-74077382D01*
X161167127Y-74075962D01*
X161175725Y-74043871D01*
X161212088Y-73984210D01*
X161274934Y-73953679D01*
X161344310Y-73961973D01*
X161398189Y-74006457D01*
X161419465Y-74073008D01*
X161419500Y-74075962D01*
X161419500Y-74867929D01*
X161419501Y-74867935D01*
X161425908Y-74927542D01*
X161476202Y-75062387D01*
X161476206Y-75062394D01*
X161562452Y-75177603D01*
X161562455Y-75177606D01*
X161677664Y-75263852D01*
X161677671Y-75263856D01*
X161812517Y-75314150D01*
X161812516Y-75314150D01*
X161819444Y-75314894D01*
X161872127Y-75320559D01*
X163167872Y-75320558D01*
X163227483Y-75314150D01*
X163362331Y-75263855D01*
X163477546Y-75177605D01*
X163526850Y-75111742D01*
X163546682Y-75085252D01*
X163602616Y-75043382D01*
X163645948Y-75035564D01*
X168077193Y-75035564D01*
X168092813Y-75037288D01*
X168092840Y-75037003D01*
X168100596Y-75037735D01*
X168100603Y-75037737D01*
X168169750Y-75035564D01*
X168199286Y-75035564D01*
X168206164Y-75034694D01*
X168211977Y-75034236D01*
X168258563Y-75032773D01*
X168277805Y-75027181D01*
X168296848Y-75023238D01*
X168316728Y-75020728D01*
X168360058Y-75003571D01*
X168365582Y-75001681D01*
X168369332Y-75000591D01*
X168410326Y-74988682D01*
X168427565Y-74978486D01*
X168445039Y-74969926D01*
X168463663Y-74962552D01*
X168463663Y-74962551D01*
X168463668Y-74962550D01*
X168501385Y-74935146D01*
X168506241Y-74931956D01*
X168546356Y-74908234D01*
X168560525Y-74894063D01*
X168575315Y-74881432D01*
X168591523Y-74869658D01*
X168621235Y-74833740D01*
X168625148Y-74829440D01*
X168794524Y-74660064D01*
X172930000Y-74660064D01*
X172930000Y-74867903D01*
X172936401Y-74927431D01*
X172936403Y-74927438D01*
X172986645Y-75062145D01*
X172986649Y-75062152D01*
X173072809Y-75177246D01*
X173072812Y-75177249D01*
X173187906Y-75263409D01*
X173187913Y-75263413D01*
X173322620Y-75313655D01*
X173322627Y-75313657D01*
X173382155Y-75320058D01*
X173382172Y-75320059D01*
X173780000Y-75320059D01*
X173780000Y-74660064D01*
X174280000Y-74660064D01*
X174280000Y-75320059D01*
X174677828Y-75320059D01*
X174677844Y-75320058D01*
X174737372Y-75313657D01*
X174737379Y-75313655D01*
X174872086Y-75263413D01*
X174872093Y-75263409D01*
X174987187Y-75177249D01*
X174987190Y-75177246D01*
X175073350Y-75062152D01*
X175073354Y-75062145D01*
X175123596Y-74927438D01*
X175123598Y-74927431D01*
X175129999Y-74867903D01*
X175130000Y-74867886D01*
X175130000Y-74660064D01*
X174280000Y-74660064D01*
X173780000Y-74660064D01*
X172930000Y-74660064D01*
X168794524Y-74660064D01*
X169882836Y-73571755D01*
X169944159Y-73538270D01*
X169970517Y-73535436D01*
X172904052Y-73535436D01*
X172971091Y-73555121D01*
X173003337Y-73585149D01*
X173004071Y-73586130D01*
X173028472Y-73651601D01*
X173013604Y-73719870D01*
X173004055Y-73734725D01*
X172986646Y-73757981D01*
X172986645Y-73757982D01*
X172936403Y-73892689D01*
X172936401Y-73892696D01*
X172930000Y-73952224D01*
X172930000Y-74160064D01*
X175130000Y-74160064D01*
X175130000Y-74074099D01*
X175149685Y-74007060D01*
X175202489Y-73961305D01*
X175271647Y-73951361D01*
X175335203Y-73980386D01*
X175372977Y-74039164D01*
X175373775Y-74042006D01*
X175383251Y-74077374D01*
X175383252Y-74077376D01*
X175383254Y-74077382D01*
X175443625Y-74206848D01*
X175473153Y-74270171D01*
X175473155Y-74270175D01*
X175595164Y-74444422D01*
X175745577Y-74594835D01*
X175919824Y-74716844D01*
X175919826Y-74716845D01*
X175919829Y-74716847D01*
X176112618Y-74806746D01*
X176146952Y-74815945D01*
X176150051Y-74816864D01*
X176153717Y-74818055D01*
X176153724Y-74818058D01*
X176161210Y-74819766D01*
X176318090Y-74861802D01*
X176358121Y-74865304D01*
X176366501Y-74866622D01*
X176366550Y-74866634D01*
X176380458Y-74867258D01*
X176530000Y-74880342D01*
X176574021Y-74876490D01*
X176582189Y-74876318D01*
X176584630Y-74876428D01*
X176601274Y-74874173D01*
X176604072Y-74873861D01*
X176741910Y-74861802D01*
X176788518Y-74849313D01*
X176796228Y-74847765D01*
X176800954Y-74847125D01*
X176819526Y-74841090D01*
X176822533Y-74840198D01*
X176947382Y-74806746D01*
X176994865Y-74784604D01*
X177001878Y-74781841D01*
X177008569Y-74779667D01*
X177027270Y-74769603D01*
X177030356Y-74768054D01*
X177140171Y-74716847D01*
X177186550Y-74684371D01*
X177192718Y-74680571D01*
X177200802Y-74676221D01*
X177218130Y-74662401D01*
X177221138Y-74660153D01*
X177314421Y-74594836D01*
X177357519Y-74551737D01*
X177362666Y-74547138D01*
X177371475Y-74540114D01*
X177386257Y-74523193D01*
X177389047Y-74520209D01*
X177464836Y-74444421D01*
X177502315Y-74390895D01*
X177506399Y-74385680D01*
X177515103Y-74375719D01*
X177526543Y-74356570D01*
X177528931Y-74352883D01*
X177586847Y-74270171D01*
X177616389Y-74206816D01*
X177619328Y-74201273D01*
X177627068Y-74188320D01*
X177634704Y-74167972D01*
X177636534Y-74163615D01*
X177676746Y-74077382D01*
X177677127Y-74075962D01*
X177685725Y-74043871D01*
X177722088Y-73984210D01*
X177784934Y-73953679D01*
X177854310Y-73961973D01*
X177908189Y-74006457D01*
X177929465Y-74073008D01*
X177929500Y-74075962D01*
X177929500Y-74867929D01*
X177929501Y-74867935D01*
X177935908Y-74927542D01*
X177986202Y-75062387D01*
X177986206Y-75062394D01*
X178072452Y-75177603D01*
X178072455Y-75177606D01*
X178187664Y-75263852D01*
X178187671Y-75263856D01*
X178322517Y-75314150D01*
X178322516Y-75314150D01*
X178329444Y-75314894D01*
X178382127Y-75320559D01*
X179677872Y-75320558D01*
X179737483Y-75314150D01*
X179872331Y-75263855D01*
X179987546Y-75177605D01*
X180036850Y-75111742D01*
X180056682Y-75085252D01*
X180112616Y-75043382D01*
X180155948Y-75035564D01*
X185852193Y-75035564D01*
X185867813Y-75037288D01*
X185867840Y-75037003D01*
X185875596Y-75037735D01*
X185875603Y-75037737D01*
X185944750Y-75035564D01*
X185974286Y-75035564D01*
X185981164Y-75034694D01*
X185986977Y-75034236D01*
X186033563Y-75032773D01*
X186052805Y-75027181D01*
X186071848Y-75023238D01*
X186091728Y-75020728D01*
X186135058Y-75003571D01*
X186140582Y-75001681D01*
X186144332Y-75000591D01*
X186185326Y-74988682D01*
X186202565Y-74978486D01*
X186220039Y-74969926D01*
X186238663Y-74962552D01*
X186238663Y-74962551D01*
X186238668Y-74962550D01*
X186276385Y-74935146D01*
X186281241Y-74931956D01*
X186321356Y-74908234D01*
X186335525Y-74894063D01*
X186350315Y-74881432D01*
X186366523Y-74869658D01*
X186396235Y-74833740D01*
X186400148Y-74829440D01*
X188673661Y-72555927D01*
X188734983Y-72522444D01*
X188804675Y-72527428D01*
X188860608Y-72569300D01*
X188885025Y-72634764D01*
X188885341Y-72643610D01*
X188885341Y-72644000D01*
X188905936Y-72879403D01*
X188905938Y-72879413D01*
X188967094Y-73107655D01*
X188967096Y-73107659D01*
X188967097Y-73107663D01*
X189059727Y-73306308D01*
X189066965Y-73321830D01*
X189066967Y-73321834D01*
X189173088Y-73473389D01*
X189202501Y-73515396D01*
X189202506Y-73515402D01*
X189369597Y-73682493D01*
X189369603Y-73682498D01*
X189555158Y-73812425D01*
X189598783Y-73867002D01*
X189605977Y-73936500D01*
X189574454Y-73998855D01*
X189555158Y-74015575D01*
X189369597Y-74145505D01*
X189202505Y-74312597D01*
X189066965Y-74506169D01*
X189066964Y-74506171D01*
X188967098Y-74720335D01*
X188967094Y-74720344D01*
X188905938Y-74948586D01*
X188905936Y-74948596D01*
X188885341Y-75183999D01*
X188885341Y-75184000D01*
X188905936Y-75419403D01*
X188905938Y-75419413D01*
X188967094Y-75647655D01*
X188967096Y-75647659D01*
X188967097Y-75647663D01*
X189023723Y-75769098D01*
X189066965Y-75861830D01*
X189066967Y-75861834D01*
X189109781Y-75922978D01*
X189202505Y-76055401D01*
X189369599Y-76222495D01*
X189376406Y-76227261D01*
X189563165Y-76358032D01*
X189563167Y-76358033D01*
X189563170Y-76358035D01*
X189777337Y-76457903D01*
X190005592Y-76519063D01*
X190193918Y-76535539D01*
X190240999Y-76539659D01*
X190241000Y-76539659D01*
X190241001Y-76539659D01*
X190280234Y-76536226D01*
X190476408Y-76519063D01*
X190704663Y-76457903D01*
X190918830Y-76358035D01*
X191112401Y-76222495D01*
X191279495Y-76055401D01*
X191409425Y-75869842D01*
X191464002Y-75826217D01*
X191533500Y-75819023D01*
X191595855Y-75850546D01*
X191612575Y-75869842D01*
X191742500Y-76055395D01*
X191742505Y-76055401D01*
X191909599Y-76222495D01*
X191916406Y-76227261D01*
X192103165Y-76358032D01*
X192103167Y-76358033D01*
X192103170Y-76358035D01*
X192317337Y-76457903D01*
X192545592Y-76519063D01*
X192733918Y-76535539D01*
X192780999Y-76539659D01*
X192781000Y-76539659D01*
X192781001Y-76539659D01*
X192820234Y-76536226D01*
X193016408Y-76519063D01*
X193244663Y-76457903D01*
X193458830Y-76358035D01*
X193652401Y-76222495D01*
X193819495Y-76055401D01*
X193955035Y-75861830D01*
X194054903Y-75647663D01*
X194063681Y-75614903D01*
X199525793Y-75614903D01*
X199535672Y-75922970D01*
X199535672Y-75922975D01*
X199535673Y-75922978D01*
X199584867Y-76227261D01*
X199629137Y-76376419D01*
X199672571Y-76522763D01*
X199797333Y-76804601D01*
X199797337Y-76804609D01*
X199957123Y-77068193D01*
X199957127Y-77068198D01*
X199957133Y-77068207D01*
X200149297Y-77309174D01*
X200149299Y-77309176D01*
X200149303Y-77309180D01*
X200149304Y-77309181D01*
X200370724Y-77523614D01*
X200537862Y-77648352D01*
X200617741Y-77707968D01*
X200617743Y-77707969D01*
X200617747Y-77707972D01*
X200886318Y-77859228D01*
X201027057Y-77916207D01*
X201172018Y-77974897D01*
X201172023Y-77974898D01*
X201172025Y-77974899D01*
X201470179Y-78053084D01*
X201775883Y-78092500D01*
X201775890Y-78092500D01*
X202006980Y-78092500D01*
X202105814Y-78086154D01*
X202237601Y-78077693D01*
X202540151Y-78018772D01*
X202832683Y-77921644D01*
X202832689Y-77921640D01*
X202832693Y-77921640D01*
X203023571Y-77829717D01*
X203110393Y-77787907D01*
X203368720Y-77619754D01*
X203603424Y-77419948D01*
X203810650Y-77191769D01*
X203986996Y-76938963D01*
X204129567Y-76665683D01*
X204236020Y-76376415D01*
X204304609Y-76075908D01*
X204334206Y-75769098D01*
X204324327Y-75461022D01*
X204275133Y-75156739D01*
X204187431Y-74861244D01*
X204187429Y-74861239D01*
X204187428Y-74861236D01*
X204062666Y-74579398D01*
X204062663Y-74579391D01*
X203902877Y-74315807D01*
X203902870Y-74315799D01*
X203902866Y-74315792D01*
X203710702Y-74074825D01*
X203710700Y-74074823D01*
X203709952Y-74074099D01*
X203489276Y-73860386D01*
X203320902Y-73734725D01*
X203242258Y-73676031D01*
X203229699Y-73668958D01*
X202973682Y-73524772D01*
X202930820Y-73507419D01*
X202687981Y-73409102D01*
X202520660Y-73365226D01*
X202389821Y-73330916D01*
X202084117Y-73291500D01*
X201853026Y-73291500D01*
X201853020Y-73291500D01*
X201622406Y-73306306D01*
X201622389Y-73306308D01*
X201319854Y-73365226D01*
X201319849Y-73365228D01*
X201027310Y-73462358D01*
X201027306Y-73462359D01*
X200749613Y-73596089D01*
X200749605Y-73596094D01*
X200491286Y-73764241D01*
X200491276Y-73764248D01*
X200256581Y-73964046D01*
X200256571Y-73964056D01*
X200049354Y-74192225D01*
X200049350Y-74192229D01*
X199873005Y-74445033D01*
X199873003Y-74445037D01*
X199750125Y-74680571D01*
X199731202Y-74716844D01*
X199730432Y-74718319D01*
X199730429Y-74718326D01*
X199623981Y-75007580D01*
X199623980Y-75007585D01*
X199617098Y-75037736D01*
X199555391Y-75308089D01*
X199525794Y-75614902D01*
X199525793Y-75614903D01*
X194063681Y-75614903D01*
X194116063Y-75419408D01*
X194136659Y-75184000D01*
X194136099Y-75177605D01*
X194128019Y-75085252D01*
X194116063Y-74948592D01*
X194054903Y-74720337D01*
X193955035Y-74506171D01*
X193949425Y-74498158D01*
X193819494Y-74312597D01*
X193652402Y-74145506D01*
X193652396Y-74145501D01*
X193466842Y-74015575D01*
X193423217Y-73960998D01*
X193416023Y-73891500D01*
X193447546Y-73829145D01*
X193466842Y-73812425D01*
X193515430Y-73778403D01*
X193652401Y-73682495D01*
X193819495Y-73515401D01*
X193954652Y-73322377D01*
X194009229Y-73278752D01*
X194056227Y-73269500D01*
X195879653Y-73269500D01*
X195895273Y-73271224D01*
X195895300Y-73270939D01*
X195903056Y-73271671D01*
X195903063Y-73271673D01*
X195972210Y-73269500D01*
X196001746Y-73269500D01*
X196008624Y-73268630D01*
X196014437Y-73268172D01*
X196061023Y-73266709D01*
X196080265Y-73261117D01*
X196099308Y-73257174D01*
X196119188Y-73254664D01*
X196162518Y-73237507D01*
X196168042Y-73235617D01*
X196171792Y-73234527D01*
X196212786Y-73222618D01*
X196230025Y-73212422D01*
X196247499Y-73203862D01*
X196266123Y-73196488D01*
X196266123Y-73196487D01*
X196266128Y-73196486D01*
X196303845Y-73169082D01*
X196308701Y-73165892D01*
X196348816Y-73142170D01*
X196362985Y-73127999D01*
X196377775Y-73115368D01*
X196393983Y-73103594D01*
X196423695Y-73067676D01*
X196427608Y-73063376D01*
X198953788Y-70537197D01*
X198966042Y-70527382D01*
X198965859Y-70527160D01*
X198971866Y-70522188D01*
X198971877Y-70522182D01*
X199002775Y-70489278D01*
X199019227Y-70471760D01*
X199029671Y-70461314D01*
X199040120Y-70450867D01*
X199044379Y-70445374D01*
X199048152Y-70440957D01*
X199080062Y-70406978D01*
X199089715Y-70389416D01*
X199100389Y-70373166D01*
X199112673Y-70357332D01*
X199131180Y-70314563D01*
X199133749Y-70309320D01*
X199156196Y-70268489D01*
X199156197Y-70268488D01*
X199161177Y-70249087D01*
X199167478Y-70230684D01*
X199175438Y-70212292D01*
X199182730Y-70166245D01*
X199183911Y-70160548D01*
X199195500Y-70115415D01*
X199195500Y-70095379D01*
X199197027Y-70075978D01*
X199200160Y-70056200D01*
X199195775Y-70009811D01*
X199195500Y-70003973D01*
X199195500Y-55301104D01*
X199197224Y-55285490D01*
X199196938Y-55285463D01*
X199197672Y-55277700D01*
X199195500Y-55208569D01*
X199195500Y-55179018D01*
X199195500Y-55179017D01*
X199194629Y-55172126D01*
X199194172Y-55166312D01*
X199192709Y-55119741D01*
X199192709Y-55119739D01*
X199187120Y-55100504D01*
X199183174Y-55081451D01*
X199180664Y-55061575D01*
X199163501Y-55018226D01*
X199161614Y-55012713D01*
X199148617Y-54967977D01*
X199148616Y-54967975D01*
X199138421Y-54950736D01*
X199129860Y-54933260D01*
X199122486Y-54914636D01*
X199122486Y-54914634D01*
X199103047Y-54887880D01*
X199095083Y-54876917D01*
X199091900Y-54872072D01*
X199068170Y-54831946D01*
X199068165Y-54831940D01*
X199054005Y-54817780D01*
X199041370Y-54802987D01*
X199029593Y-54786779D01*
X198993693Y-54757080D01*
X198989381Y-54753157D01*
X198552370Y-54316146D01*
X198518885Y-54254823D01*
X198523869Y-54185131D01*
X198565741Y-54129198D01*
X198567516Y-54128030D01*
X198567473Y-54127971D01*
X198637879Y-54076817D01*
X198725871Y-54012888D01*
X198852533Y-53872216D01*
X198947179Y-53708284D01*
X199005674Y-53528256D01*
X199025460Y-53340000D01*
X199005674Y-53151744D01*
X198947179Y-52971716D01*
X198852533Y-52807784D01*
X198843709Y-52797984D01*
X198777350Y-52724284D01*
X198747120Y-52661292D01*
X198745500Y-52641312D01*
X198745500Y-48501092D01*
X198747224Y-48485478D01*
X198746938Y-48485451D01*
X198747672Y-48477688D01*
X198745500Y-48408558D01*
X198745500Y-48379006D01*
X198745500Y-48379005D01*
X198744629Y-48372114D01*
X198744172Y-48366300D01*
X198742709Y-48319727D01*
X198737122Y-48300499D01*
X198733174Y-48281439D01*
X198730664Y-48261563D01*
X198713507Y-48218230D01*
X198711619Y-48212714D01*
X198698619Y-48167967D01*
X198688418Y-48150718D01*
X198679860Y-48133249D01*
X198672486Y-48114623D01*
X198672483Y-48114619D01*
X198672483Y-48114618D01*
X198645098Y-48076926D01*
X198641890Y-48072042D01*
X198618172Y-48031937D01*
X198618163Y-48031926D01*
X198604005Y-48017768D01*
X198591370Y-48002975D01*
X198579593Y-47986767D01*
X198543693Y-47957068D01*
X198539381Y-47953145D01*
X196684451Y-46098215D01*
X196674628Y-46085953D01*
X196674407Y-46086137D01*
X196669434Y-46080126D01*
X196668782Y-46079514D01*
X196619012Y-46032776D01*
X196608567Y-46022331D01*
X196598123Y-46011886D01*
X196592634Y-46007628D01*
X196588209Y-46003850D01*
X196554230Y-45971941D01*
X196554228Y-45971939D01*
X196554225Y-45971938D01*
X196536677Y-45962291D01*
X196520411Y-45951607D01*
X196504584Y-45939330D01*
X196504583Y-45939329D01*
X196498420Y-45934549D01*
X196500092Y-45932393D01*
X196461335Y-45890883D01*
X196448832Y-45822141D01*
X196475478Y-45757552D01*
X196484451Y-45747548D01*
X196517109Y-45714891D01*
X196613202Y-45561960D01*
X196672855Y-45391480D01*
X196672855Y-45391479D01*
X196672856Y-45391477D01*
X196693078Y-45212002D01*
X196693078Y-45211997D01*
X196672856Y-45032522D01*
X196631108Y-44913214D01*
X196613202Y-44862040D01*
X196517109Y-44709109D01*
X196389394Y-44581394D01*
X196236463Y-44485301D01*
X196195539Y-44470981D01*
X196065980Y-44425646D01*
X195931521Y-44410497D01*
X195931517Y-44410497D01*
X194212483Y-44410497D01*
X194212479Y-44410497D01*
X194078019Y-44425646D01*
X193907534Y-44485302D01*
X193754605Y-44581394D01*
X193626891Y-44709108D01*
X193530799Y-44862037D01*
X193476862Y-45016181D01*
X193447501Y-45062907D01*
X192687181Y-45823227D01*
X192625858Y-45856712D01*
X192556166Y-45851728D01*
X192500233Y-45809856D01*
X192475816Y-45744392D01*
X192475500Y-45735546D01*
X192475500Y-45246346D01*
X192477224Y-45230726D01*
X192476939Y-45230699D01*
X192477673Y-45222937D01*
X192475500Y-45153776D01*
X192475500Y-45124260D01*
X192475500Y-45124254D01*
X192474631Y-45117383D01*
X192474173Y-45111556D01*
X192472710Y-45064977D01*
X192467119Y-45045734D01*
X192463173Y-45026682D01*
X192460664Y-45006812D01*
X192443504Y-44963471D01*
X192441624Y-44957983D01*
X192428618Y-44913214D01*
X192418422Y-44895974D01*
X192409861Y-44878498D01*
X192402487Y-44859874D01*
X192402486Y-44859872D01*
X192375079Y-44822149D01*
X192371888Y-44817290D01*
X192348172Y-44777187D01*
X192348165Y-44777178D01*
X192334006Y-44763019D01*
X192321368Y-44748223D01*
X192309594Y-44732017D01*
X192308680Y-44731261D01*
X192273688Y-44702313D01*
X192269376Y-44698390D01*
X191689889Y-44118903D01*
X199525793Y-44118903D01*
X199535672Y-44426970D01*
X199535672Y-44426975D01*
X199535673Y-44426978D01*
X199584867Y-44731261D01*
X199629137Y-44880419D01*
X199672571Y-45026763D01*
X199788875Y-45289494D01*
X199797337Y-45308609D01*
X199957123Y-45572193D01*
X199957127Y-45572198D01*
X199957133Y-45572207D01*
X200149297Y-45813174D01*
X200149299Y-45813176D01*
X200149303Y-45813180D01*
X200149304Y-45813181D01*
X200370724Y-46027614D01*
X200537862Y-46152352D01*
X200617741Y-46211968D01*
X200617743Y-46211969D01*
X200617747Y-46211972D01*
X200886318Y-46363228D01*
X201027057Y-46420207D01*
X201172018Y-46478897D01*
X201172023Y-46478898D01*
X201172025Y-46478899D01*
X201470179Y-46557084D01*
X201775883Y-46596500D01*
X201775890Y-46596500D01*
X202006980Y-46596500D01*
X202105814Y-46590154D01*
X202237601Y-46581693D01*
X202540151Y-46522772D01*
X202832683Y-46425644D01*
X202832689Y-46425640D01*
X202832693Y-46425640D01*
X203088348Y-46302523D01*
X203110393Y-46291907D01*
X203368720Y-46123754D01*
X203603424Y-45923948D01*
X203810650Y-45695769D01*
X203986996Y-45442963D01*
X204129567Y-45169683D01*
X204236020Y-44880415D01*
X204304609Y-44579908D01*
X204334206Y-44273098D01*
X204324327Y-43965022D01*
X204275133Y-43660739D01*
X204187431Y-43365244D01*
X204187429Y-43365239D01*
X204187428Y-43365236D01*
X204062666Y-43083398D01*
X204062663Y-43083391D01*
X203902877Y-42819807D01*
X203902870Y-42819799D01*
X203902866Y-42819792D01*
X203710702Y-42578825D01*
X203710700Y-42578823D01*
X203707356Y-42575585D01*
X203489276Y-42364386D01*
X203360450Y-42268241D01*
X203242258Y-42180031D01*
X203242253Y-42180028D01*
X202973682Y-42028772D01*
X202936383Y-42013671D01*
X202687981Y-41913102D01*
X202520660Y-41869226D01*
X202389821Y-41834916D01*
X202084117Y-41795500D01*
X201853026Y-41795500D01*
X201853020Y-41795500D01*
X201622406Y-41810306D01*
X201622389Y-41810308D01*
X201319854Y-41869226D01*
X201319849Y-41869228D01*
X201027310Y-41966358D01*
X201027306Y-41966359D01*
X200749613Y-42100089D01*
X200749605Y-42100094D01*
X200491286Y-42268241D01*
X200491276Y-42268248D01*
X200256581Y-42468046D01*
X200256571Y-42468056D01*
X200049354Y-42696225D01*
X200049350Y-42696229D01*
X199873005Y-42949033D01*
X199873003Y-42949037D01*
X199730432Y-43222319D01*
X199730429Y-43222326D01*
X199623981Y-43511580D01*
X199623979Y-43511590D01*
X199555391Y-43812089D01*
X199525794Y-44118902D01*
X199525793Y-44118903D01*
X191689889Y-44118903D01*
X190287199Y-42716212D01*
X190277376Y-42703950D01*
X190277155Y-42704134D01*
X190272182Y-42698123D01*
X190253555Y-42680631D01*
X190221760Y-42650773D01*
X190211315Y-42640328D01*
X190200871Y-42629883D01*
X190195382Y-42625625D01*
X190190957Y-42621847D01*
X190156978Y-42589938D01*
X190156976Y-42589936D01*
X190156973Y-42589935D01*
X190139425Y-42580288D01*
X190123159Y-42569604D01*
X190107329Y-42557325D01*
X190064564Y-42538818D01*
X190059318Y-42536248D01*
X190018489Y-42513803D01*
X190018488Y-42513802D01*
X189999089Y-42508822D01*
X189980677Y-42502518D01*
X189962294Y-42494562D01*
X189962288Y-42494560D01*
X189916270Y-42487272D01*
X189910548Y-42486087D01*
X189865417Y-42474500D01*
X189865415Y-42474500D01*
X189845380Y-42474500D01*
X189825982Y-42472973D01*
X189818558Y-42471797D01*
X189806201Y-42469840D01*
X189806200Y-42469840D01*
X189759812Y-42474225D01*
X189753974Y-42474500D01*
X184943557Y-42474500D01*
X184927936Y-42472775D01*
X184927909Y-42473061D01*
X184920147Y-42472326D01*
X184850986Y-42474500D01*
X184821463Y-42474500D01*
X184814592Y-42475367D01*
X184808773Y-42475825D01*
X184762188Y-42477289D01*
X184762182Y-42477290D01*
X184742940Y-42482880D01*
X184723901Y-42486823D01*
X184704031Y-42489334D01*
X184704017Y-42489337D01*
X184660697Y-42506488D01*
X184655172Y-42508380D01*
X184610427Y-42521380D01*
X184610424Y-42521381D01*
X184593180Y-42531579D01*
X184575719Y-42540133D01*
X184557088Y-42547510D01*
X184557076Y-42547517D01*
X184519384Y-42574902D01*
X184514501Y-42578109D01*
X184474394Y-42601829D01*
X184460228Y-42615995D01*
X184445438Y-42628627D01*
X184429228Y-42640404D01*
X184429225Y-42640407D01*
X184399524Y-42676309D01*
X184395591Y-42680631D01*
X180748042Y-46328181D01*
X180686719Y-46361666D01*
X180660361Y-46364500D01*
X179535088Y-46364500D01*
X179519467Y-46362775D01*
X179519440Y-46363061D01*
X179511678Y-46362326D01*
X179442517Y-46364500D01*
X179412994Y-46364500D01*
X179406123Y-46365367D01*
X179400304Y-46365825D01*
X179353719Y-46367289D01*
X179353713Y-46367290D01*
X179334471Y-46372880D01*
X179315432Y-46376823D01*
X179295562Y-46379334D01*
X179295548Y-46379337D01*
X179252228Y-46396488D01*
X179246703Y-46398380D01*
X179201958Y-46411380D01*
X179201955Y-46411381D01*
X179184711Y-46421579D01*
X179167250Y-46430133D01*
X179148619Y-46437510D01*
X179148607Y-46437517D01*
X179110915Y-46464902D01*
X179106032Y-46468109D01*
X179065925Y-46491829D01*
X179051759Y-46505995D01*
X179036969Y-46518627D01*
X179020759Y-46530404D01*
X179020756Y-46530407D01*
X178991055Y-46566309D01*
X178987122Y-46570631D01*
X177709703Y-47848051D01*
X177648380Y-47881536D01*
X177622022Y-47884370D01*
X175647628Y-47884370D01*
X175580589Y-47864685D01*
X175534834Y-47811881D01*
X175524890Y-47742723D01*
X175532198Y-47715071D01*
X175619503Y-47492626D01*
X175676217Y-47244146D01*
X175687720Y-47090646D01*
X175695263Y-46989993D01*
X175695263Y-46989984D01*
X175681658Y-46808448D01*
X175676217Y-46735832D01*
X175619503Y-46487352D01*
X175526388Y-46250101D01*
X175398954Y-46029377D01*
X175240045Y-45830112D01*
X175053212Y-45656757D01*
X174842629Y-45513184D01*
X174842623Y-45513181D01*
X174842622Y-45513180D01*
X174842621Y-45513179D01*
X174613001Y-45402601D01*
X174613003Y-45402601D01*
X174369461Y-45327478D01*
X174369457Y-45327477D01*
X174369453Y-45327476D01*
X174244228Y-45308601D01*
X174117435Y-45289489D01*
X174117430Y-45289489D01*
X173862560Y-45289489D01*
X173862554Y-45289489D01*
X173705604Y-45313146D01*
X173610537Y-45327476D01*
X173610534Y-45327477D01*
X173610528Y-45327478D01*
X173366987Y-45402601D01*
X173137368Y-45513179D01*
X173137367Y-45513180D01*
X172926777Y-45656757D01*
X172739947Y-45830110D01*
X172739945Y-45830112D01*
X172581036Y-46029377D01*
X172453603Y-46250098D01*
X172453601Y-46250102D01*
X172439594Y-46285792D01*
X172396778Y-46341005D01*
X172330908Y-46364306D01*
X172324166Y-46364489D01*
X159145824Y-46364489D01*
X159078785Y-46344804D01*
X159033030Y-46292000D01*
X159030396Y-46285791D01*
X159030396Y-46285790D01*
X159016389Y-46250102D01*
X158888955Y-46029378D01*
X158730046Y-45830113D01*
X158543213Y-45656758D01*
X158332630Y-45513185D01*
X158332626Y-45513183D01*
X158332623Y-45513181D01*
X158332622Y-45513180D01*
X158103002Y-45402602D01*
X158103004Y-45402602D01*
X157859462Y-45327479D01*
X157859458Y-45327478D01*
X157859454Y-45327477D01*
X157734222Y-45308601D01*
X157607436Y-45289490D01*
X157607431Y-45289490D01*
X157352561Y-45289490D01*
X157352555Y-45289490D01*
X157195605Y-45313147D01*
X157100538Y-45327477D01*
X157100535Y-45327478D01*
X157100529Y-45327479D01*
X156856988Y-45402602D01*
X156627369Y-45513180D01*
X156627368Y-45513181D01*
X156416778Y-45656758D01*
X156229948Y-45830111D01*
X156229946Y-45830113D01*
X156071037Y-46029378D01*
X155943604Y-46250099D01*
X155929595Y-46285793D01*
X155886778Y-46341006D01*
X155820908Y-46364306D01*
X155814167Y-46364489D01*
X142635823Y-46364489D01*
X142568784Y-46344804D01*
X142523029Y-46292000D01*
X142520406Y-46285818D01*
X142506388Y-46250101D01*
X142378954Y-46029377D01*
X142220045Y-45830112D01*
X142033212Y-45656757D01*
X141822629Y-45513184D01*
X141822623Y-45513181D01*
X141822622Y-45513180D01*
X141822621Y-45513179D01*
X141593001Y-45402601D01*
X141593003Y-45402601D01*
X141349461Y-45327478D01*
X141349457Y-45327477D01*
X141349453Y-45327476D01*
X141224228Y-45308601D01*
X141097435Y-45289489D01*
X141097430Y-45289489D01*
X140842560Y-45289489D01*
X140842554Y-45289489D01*
X140685604Y-45313146D01*
X140590537Y-45327476D01*
X140590534Y-45327477D01*
X140590528Y-45327478D01*
X140346987Y-45402601D01*
X140117368Y-45513179D01*
X140117367Y-45513180D01*
X139906777Y-45656757D01*
X139719947Y-45830110D01*
X139719945Y-45830112D01*
X139561036Y-46029377D01*
X139433604Y-46250096D01*
X139433603Y-46250099D01*
X139433602Y-46250101D01*
X139419595Y-46285791D01*
X139376780Y-46341004D01*
X139310910Y-46364306D01*
X139304167Y-46364489D01*
X126125814Y-46364489D01*
X126058775Y-46344804D01*
X126013020Y-46292000D01*
X126010397Y-46285819D01*
X125996381Y-46250106D01*
X125868947Y-46029382D01*
X125710038Y-45830117D01*
X125523205Y-45656762D01*
X125312622Y-45513189D01*
X125312618Y-45513187D01*
X125312615Y-45513185D01*
X125312614Y-45513184D01*
X125082994Y-45402606D01*
X125082996Y-45402606D01*
X124839454Y-45327483D01*
X124839450Y-45327482D01*
X124839446Y-45327481D01*
X124714188Y-45308601D01*
X124587428Y-45289494D01*
X124587423Y-45289494D01*
X124332553Y-45289494D01*
X124332547Y-45289494D01*
X124175597Y-45313151D01*
X124080530Y-45327481D01*
X124080527Y-45327482D01*
X124080521Y-45327483D01*
X123836980Y-45402606D01*
X123607361Y-45513184D01*
X123607360Y-45513185D01*
X123396770Y-45656762D01*
X123209940Y-45830115D01*
X123209938Y-45830117D01*
X123051029Y-46029382D01*
X122923596Y-46250103D01*
X122830480Y-46487356D01*
X122830478Y-46487363D01*
X122773765Y-46735839D01*
X122754720Y-46989989D01*
X122754720Y-46989998D01*
X122773765Y-47244148D01*
X122809804Y-47402045D01*
X122830480Y-47492631D01*
X122858020Y-47562802D01*
X122869106Y-47591049D01*
X122875274Y-47660645D01*
X122842835Y-47722529D01*
X122841358Y-47724031D01*
X120901208Y-49664181D01*
X120888951Y-49674002D01*
X120889134Y-49674223D01*
X120883123Y-49679195D01*
X120835772Y-49729618D01*
X120814889Y-49750501D01*
X120814877Y-49750514D01*
X120810621Y-49755999D01*
X120806837Y-49760429D01*
X120774937Y-49794400D01*
X120774936Y-49794402D01*
X120765284Y-49811958D01*
X120754610Y-49828208D01*
X120742329Y-49844043D01*
X120742324Y-49844050D01*
X120723815Y-49886820D01*
X120721245Y-49892066D01*
X120698803Y-49932888D01*
X120693822Y-49952289D01*
X120687521Y-49970692D01*
X120679562Y-49989084D01*
X120679561Y-49989087D01*
X120672271Y-50035109D01*
X120671087Y-50040828D01*
X120659501Y-50085954D01*
X120659500Y-50085964D01*
X120659500Y-50105998D01*
X120657973Y-50125397D01*
X120654964Y-50144397D01*
X120654840Y-50145178D01*
X120655699Y-50154260D01*
X120659225Y-50191565D01*
X120659500Y-50197403D01*
X120659500Y-58356312D01*
X120639815Y-58423351D01*
X120627650Y-58439284D01*
X120552466Y-58522784D01*
X120457821Y-58686715D01*
X120457818Y-58686722D01*
X120399327Y-58866740D01*
X120399326Y-58866744D01*
X120379540Y-59055000D01*
X109728500Y-59055000D01*
X109728500Y-44118903D01*
X111641793Y-44118903D01*
X111651672Y-44426970D01*
X111651672Y-44426975D01*
X111651673Y-44426978D01*
X111700867Y-44731261D01*
X111745137Y-44880419D01*
X111788571Y-45026763D01*
X111904875Y-45289494D01*
X111913337Y-45308609D01*
X112073123Y-45572193D01*
X112073127Y-45572198D01*
X112073133Y-45572207D01*
X112265297Y-45813174D01*
X112265299Y-45813176D01*
X112265303Y-45813180D01*
X112265304Y-45813181D01*
X112486724Y-46027614D01*
X112653862Y-46152352D01*
X112733741Y-46211968D01*
X112733743Y-46211969D01*
X112733747Y-46211972D01*
X113002318Y-46363228D01*
X113143057Y-46420207D01*
X113288018Y-46478897D01*
X113288023Y-46478898D01*
X113288025Y-46478899D01*
X113586179Y-46557084D01*
X113891883Y-46596500D01*
X113891890Y-46596500D01*
X114122980Y-46596500D01*
X114221814Y-46590154D01*
X114353601Y-46581693D01*
X114656151Y-46522772D01*
X114948683Y-46425644D01*
X114948689Y-46425640D01*
X114948693Y-46425640D01*
X115204348Y-46302523D01*
X115226393Y-46291907D01*
X115484720Y-46123754D01*
X115719424Y-45923948D01*
X115926650Y-45695769D01*
X116102996Y-45442963D01*
X116245567Y-45169683D01*
X116352020Y-44880415D01*
X116420609Y-44579908D01*
X116450206Y-44273098D01*
X116440327Y-43965022D01*
X116391133Y-43660739D01*
X116303431Y-43365244D01*
X116303429Y-43365239D01*
X116303428Y-43365236D01*
X116178666Y-43083398D01*
X116178663Y-43083391D01*
X116018877Y-42819807D01*
X116018870Y-42819799D01*
X116018866Y-42819792D01*
X115826702Y-42578825D01*
X115826700Y-42578823D01*
X115823356Y-42575585D01*
X115605276Y-42364386D01*
X115476450Y-42268241D01*
X115358258Y-42180031D01*
X115358253Y-42180028D01*
X115089682Y-42028772D01*
X115052383Y-42013671D01*
X114803981Y-41913102D01*
X114636660Y-41869226D01*
X114505821Y-41834916D01*
X114200117Y-41795500D01*
X113969026Y-41795500D01*
X113969020Y-41795500D01*
X113738406Y-41810306D01*
X113738389Y-41810308D01*
X113435854Y-41869226D01*
X113435849Y-41869228D01*
X113143310Y-41966358D01*
X113143306Y-41966359D01*
X112865613Y-42100089D01*
X112865605Y-42100094D01*
X112607286Y-42268241D01*
X112607276Y-42268248D01*
X112372581Y-42468046D01*
X112372571Y-42468056D01*
X112165354Y-42696225D01*
X112165350Y-42696229D01*
X111989005Y-42949033D01*
X111989003Y-42949037D01*
X111846432Y-43222319D01*
X111846429Y-43222326D01*
X111739981Y-43511580D01*
X111739979Y-43511590D01*
X111671391Y-43812089D01*
X111641794Y-44118902D01*
X111641793Y-44118903D01*
X109728500Y-44118903D01*
X109728500Y-40129500D01*
X109748185Y-40062461D01*
X109800989Y-40016706D01*
X109852500Y-40005500D01*
X206123500Y-40005500D01*
X206190539Y-40025185D01*
G37*
%TD.AperFunction*%
%TD*%
M02*
