%TF.GenerationSoftware,KiCad,Pcbnew,7.0.8*%
%TF.CreationDate,2023-10-22T18:36:15+02:00*%
%TF.ProjectId,Second test with RGB LEDs,5365636f-6e64-4207-9465-737420776974,rev?*%
%TF.SameCoordinates,Original*%
%TF.FileFunction,Profile,NP*%
%FSLAX46Y46*%
G04 Gerber Fmt 4.6, Leading zero omitted, Abs format (unit mm)*
G04 Created by KiCad (PCBNEW 7.0.8) date 2023-10-22 18:36:15*
%MOMM*%
%LPD*%
G01*
G04 APERTURE LIST*
%TA.AperFunction,Profile*%
%ADD10C,0.100000*%
%TD*%
%TA.AperFunction,Profile*%
%ADD11C,0.050000*%
%TD*%
G04 APERTURE END LIST*
D10*
X206248000Y-80010000D02*
X109728000Y-80010000D01*
X109728000Y-40005000D02*
X109728000Y-80010000D01*
X109728000Y-40005000D02*
X206248000Y-40005000D01*
X206248000Y-40005000D02*
X206248000Y-80010000D01*
D11*
%TO.C,REF\u002A\u002A*%
X204114991Y-44196000D02*
G75*
G03*
X204114991Y-44196000I-2184991J0D01*
G01*
X204114991Y-75692000D02*
G75*
G03*
X204114991Y-75692000I-2184991J0D01*
G01*
X116230991Y-44196000D02*
G75*
G03*
X116230991Y-44196000I-2184991J0D01*
G01*
X116230991Y-75692000D02*
G75*
G03*
X116230991Y-75692000I-2184991J0D01*
G01*
%TO.C,KEY4*%
X129181571Y-52069997D02*
G75*
G03*
X129181571Y-52069997I-2178742J0D01*
G01*
%TO.C,KEY1*%
X178711578Y-52069992D02*
G75*
G03*
X178711578Y-52069992I-2178742J0D01*
G01*
%TO.C,KEY8*%
X178711571Y-68579997D02*
G75*
G03*
X178711571Y-68579997I-2178742J0D01*
G01*
%TO.C,KEY3*%
X145691578Y-52069992D02*
G75*
G03*
X145691578Y-52069992I-2178742J0D01*
G01*
%TO.C,KEY7*%
X162201571Y-68579997D02*
G75*
G03*
X162201571Y-68579997I-2178742J0D01*
G01*
%TO.C,KEY5*%
X129181571Y-68579997D02*
G75*
G03*
X129181571Y-68579997I-2178742J0D01*
G01*
%TO.C,KEY2*%
X162201579Y-52069993D02*
G75*
G03*
X162201579Y-52069993I-2178742J0D01*
G01*
%TO.C,KEY6*%
X145691571Y-68579997D02*
G75*
G03*
X145691571Y-68579997I-2178742J0D01*
G01*
%TO.C,D2*%
X161188935Y-57150000D02*
G75*
G03*
X161188935Y-57150000I-1168935J0D01*
G01*
%TO.C,D3*%
X144725198Y-57150000D02*
G75*
G03*
X144725198Y-57150000I-1215198J0D01*
G01*
%TO.C,D5*%
X128215198Y-73660000D02*
G75*
G03*
X128215198Y-73660000I-1215198J0D01*
G01*
%TO.C,D1*%
X177999198Y-57150000D02*
G75*
G03*
X177999198Y-57150000I-1215198J0D01*
G01*
%TO.C,D6*%
X144725198Y-73660000D02*
G75*
G03*
X144725198Y-73660000I-1215198J0D01*
G01*
%TO.C,D4*%
X128215198Y-57150000D02*
G75*
G03*
X128215198Y-57150000I-1215198J0D01*
G01*
%TO.C,D7*%
X161235198Y-73660000D02*
G75*
G03*
X161235198Y-73660000I-1215198J0D01*
G01*
%TO.C,D8*%
X177745198Y-73660000D02*
G75*
G03*
X177745198Y-73660000I-1215198J0D01*
G01*
%TD*%
M02*
