%TF.GenerationSoftware,KiCad,Pcbnew,7.0.8*%
%TF.CreationDate,2023-10-22T18:36:15+02:00*%
%TF.ProjectId,Second test with RGB LEDs,5365636f-6e64-4207-9465-737420776974,rev?*%
%TF.SameCoordinates,Original*%
%TF.FileFunction,Soldermask,Bot*%
%TF.FilePolarity,Negative*%
%FSLAX46Y46*%
G04 Gerber Fmt 4.6, Leading zero omitted, Abs format (unit mm)*
G04 Created by KiCad (PCBNEW 7.0.8) date 2023-10-22 18:36:15*
%MOMM*%
%LPD*%
G01*
G04 APERTURE LIST*
%ADD10C,4.300000*%
%ADD11C,4.200000*%
%ADD12C,2.400000*%
%ADD13R,1.700000X1.700000*%
%ADD14O,1.700000X1.700000*%
G04 APERTURE END LIST*
D10*
%TO.C,REF\u002A\u002A*%
X201930000Y-44196000D03*
%TD*%
%TO.C,REF\u002A\u002A*%
X201930000Y-75692000D03*
%TD*%
%TO.C,REF\u002A\u002A*%
X114046000Y-44196000D03*
%TD*%
%TO.C,REF\u002A\u002A*%
X114046000Y-75692000D03*
%TD*%
D11*
%TO.C,KEY4*%
X126999993Y-52070005D03*
D12*
X130810000Y-49530000D03*
X124459988Y-46989994D03*
%TD*%
D11*
%TO.C,KEY1*%
X176530000Y-52070000D03*
D12*
X180340007Y-49529995D03*
X173989995Y-46989989D03*
%TD*%
D11*
%TO.C,KEY8*%
X176529993Y-68580005D03*
D12*
X180340000Y-66040000D03*
X173989988Y-63499994D03*
%TD*%
D11*
%TO.C,KEY3*%
X143510000Y-52070000D03*
D12*
X147320007Y-49529995D03*
X140969995Y-46989989D03*
%TD*%
D11*
%TO.C,KEY7*%
X160019993Y-68580005D03*
D12*
X163830000Y-66040000D03*
X157479988Y-63499994D03*
%TD*%
D11*
%TO.C,KEY5*%
X126999993Y-68580005D03*
D12*
X130810000Y-66040000D03*
X124459988Y-63499994D03*
%TD*%
D11*
%TO.C,KEY2*%
X160020001Y-52070001D03*
D12*
X163830008Y-49529996D03*
X157479996Y-46989990D03*
%TD*%
D11*
%TO.C,KEY6*%
X143509993Y-68580005D03*
D12*
X147320000Y-66040000D03*
X140969988Y-63499994D03*
%TD*%
D13*
%TO.C,J1*%
X190241000Y-59944000D03*
D14*
X192781000Y-59944000D03*
X190241000Y-62484000D03*
X192781000Y-62484000D03*
X190241000Y-65024000D03*
X192781000Y-65024000D03*
X190241000Y-67564000D03*
X192781000Y-67564000D03*
X190241000Y-70104000D03*
X192781000Y-70104000D03*
X190241000Y-72644000D03*
X192781000Y-72644000D03*
X190241000Y-75184000D03*
X192781000Y-75184000D03*
%TD*%
M02*
