%TF.GenerationSoftware,KiCad,Pcbnew,7.0.8*%
%TF.CreationDate,2023-10-22T18:36:15+02:00*%
%TF.ProjectId,Second test with RGB LEDs,5365636f-6e64-4207-9465-737420776974,rev?*%
%TF.SameCoordinates,Original*%
%TF.FileFunction,Legend,Bot*%
%TF.FilePolarity,Positive*%
%FSLAX46Y46*%
G04 Gerber Fmt 4.6, Leading zero omitted, Abs format (unit mm)*
G04 Created by KiCad (PCBNEW 7.0.8) date 2023-10-22 18:36:15*
%MOMM*%
%LPD*%
G01*
G04 APERTURE LIST*
%ADD10C,0.150000*%
%ADD11C,0.254000*%
%ADD12C,0.059995*%
%ADD13C,4.300000*%
%ADD14C,4.200000*%
%ADD15C,2.400000*%
%ADD16R,1.700000X1.700000*%
%ADD17O,1.700000X1.700000*%
G04 APERTURE END LIST*
D10*
X200164554Y-68037057D02*
X200259792Y-67989438D01*
X200259792Y-67989438D02*
X200355030Y-67894200D01*
X200355030Y-67894200D02*
X200497887Y-67751342D01*
X200497887Y-67751342D02*
X200593125Y-67703723D01*
X200593125Y-67703723D02*
X200688363Y-67703723D01*
X200640744Y-67941819D02*
X200735982Y-67894200D01*
X200735982Y-67894200D02*
X200831220Y-67798961D01*
X200831220Y-67798961D02*
X200878839Y-67608485D01*
X200878839Y-67608485D02*
X200878839Y-67275152D01*
X200878839Y-67275152D02*
X200831220Y-67084676D01*
X200831220Y-67084676D02*
X200735982Y-66989438D01*
X200735982Y-66989438D02*
X200640744Y-66941819D01*
X200640744Y-66941819D02*
X200450268Y-66941819D01*
X200450268Y-66941819D02*
X200355030Y-66989438D01*
X200355030Y-66989438D02*
X200259792Y-67084676D01*
X200259792Y-67084676D02*
X200212173Y-67275152D01*
X200212173Y-67275152D02*
X200212173Y-67608485D01*
X200212173Y-67608485D02*
X200259792Y-67798961D01*
X200259792Y-67798961D02*
X200355030Y-67894200D01*
X200355030Y-67894200D02*
X200450268Y-67941819D01*
X200450268Y-67941819D02*
X200640744Y-67941819D01*
X199783601Y-67941819D02*
X199783601Y-66941819D01*
X199783601Y-67418009D02*
X199212173Y-67418009D01*
X199212173Y-67941819D02*
X199212173Y-66941819D01*
X198783601Y-67275152D02*
X198069316Y-67275152D01*
X198497887Y-66846580D02*
X198783601Y-68132295D01*
X198164554Y-67703723D02*
X198878839Y-67703723D01*
X198450268Y-68132295D02*
X198164554Y-66846580D01*
X187607411Y-64703438D02*
X187702649Y-64655819D01*
X187702649Y-64655819D02*
X187845506Y-64655819D01*
X187845506Y-64655819D02*
X187988363Y-64703438D01*
X187988363Y-64703438D02*
X188083601Y-64798676D01*
X188083601Y-64798676D02*
X188131220Y-64893914D01*
X188131220Y-64893914D02*
X188178839Y-65084390D01*
X188178839Y-65084390D02*
X188178839Y-65227247D01*
X188178839Y-65227247D02*
X188131220Y-65417723D01*
X188131220Y-65417723D02*
X188083601Y-65512961D01*
X188083601Y-65512961D02*
X187988363Y-65608200D01*
X187988363Y-65608200D02*
X187845506Y-65655819D01*
X187845506Y-65655819D02*
X187750268Y-65655819D01*
X187750268Y-65655819D02*
X187607411Y-65608200D01*
X187607411Y-65608200D02*
X187559792Y-65560580D01*
X187559792Y-65560580D02*
X187559792Y-65227247D01*
X187559792Y-65227247D02*
X187750268Y-65227247D01*
X187131220Y-65655819D02*
X187131220Y-64655819D01*
X187131220Y-64655819D02*
X186559792Y-65655819D01*
X186559792Y-65655819D02*
X186559792Y-64655819D01*
X186083601Y-65655819D02*
X186083601Y-64655819D01*
X186083601Y-64655819D02*
X185845506Y-64655819D01*
X185845506Y-64655819D02*
X185702649Y-64703438D01*
X185702649Y-64703438D02*
X185607411Y-64798676D01*
X185607411Y-64798676D02*
X185559792Y-64893914D01*
X185559792Y-64893914D02*
X185512173Y-65084390D01*
X185512173Y-65084390D02*
X185512173Y-65227247D01*
X185512173Y-65227247D02*
X185559792Y-65417723D01*
X185559792Y-65417723D02*
X185607411Y-65512961D01*
X185607411Y-65512961D02*
X185702649Y-65608200D01*
X185702649Y-65608200D02*
X185845506Y-65655819D01*
X185845506Y-65655819D02*
X186083601Y-65655819D01*
X200878839Y-62814200D02*
X200735982Y-62861819D01*
X200735982Y-62861819D02*
X200497887Y-62861819D01*
X200497887Y-62861819D02*
X200402649Y-62814200D01*
X200402649Y-62814200D02*
X200355030Y-62766580D01*
X200355030Y-62766580D02*
X200307411Y-62671342D01*
X200307411Y-62671342D02*
X200307411Y-62576104D01*
X200307411Y-62576104D02*
X200355030Y-62480866D01*
X200355030Y-62480866D02*
X200402649Y-62433247D01*
X200402649Y-62433247D02*
X200497887Y-62385628D01*
X200497887Y-62385628D02*
X200688363Y-62338009D01*
X200688363Y-62338009D02*
X200783601Y-62290390D01*
X200783601Y-62290390D02*
X200831220Y-62242771D01*
X200831220Y-62242771D02*
X200878839Y-62147533D01*
X200878839Y-62147533D02*
X200878839Y-62052295D01*
X200878839Y-62052295D02*
X200831220Y-61957057D01*
X200831220Y-61957057D02*
X200783601Y-61909438D01*
X200783601Y-61909438D02*
X200688363Y-61861819D01*
X200688363Y-61861819D02*
X200450268Y-61861819D01*
X200450268Y-61861819D02*
X200307411Y-61909438D01*
X199878839Y-62861819D02*
X199878839Y-61861819D01*
X199878839Y-62338009D02*
X199307411Y-62338009D01*
X199307411Y-62861819D02*
X199307411Y-61861819D01*
X198116935Y-61814200D02*
X198974077Y-63099914D01*
X197307411Y-62861819D02*
X197783601Y-62861819D01*
X197783601Y-62861819D02*
X197783601Y-61861819D01*
X196974077Y-62861819D02*
X196974077Y-61861819D01*
X196974077Y-61861819D02*
X196735982Y-61861819D01*
X196735982Y-61861819D02*
X196593125Y-61909438D01*
X196593125Y-61909438D02*
X196497887Y-62004676D01*
X196497887Y-62004676D02*
X196450268Y-62099914D01*
X196450268Y-62099914D02*
X196402649Y-62290390D01*
X196402649Y-62290390D02*
X196402649Y-62433247D01*
X196402649Y-62433247D02*
X196450268Y-62623723D01*
X196450268Y-62623723D02*
X196497887Y-62718961D01*
X196497887Y-62718961D02*
X196593125Y-62814200D01*
X196593125Y-62814200D02*
X196735982Y-62861819D01*
X196735982Y-62861819D02*
X196974077Y-62861819D01*
X196021696Y-62195152D02*
X195307411Y-62195152D01*
X195735982Y-61766580D02*
X196021696Y-63052295D01*
X195402649Y-62623723D02*
X196116934Y-62623723D01*
X195688363Y-63052295D02*
X195402649Y-61766580D01*
X200878839Y-72974200D02*
X200735982Y-73021819D01*
X200735982Y-73021819D02*
X200497887Y-73021819D01*
X200497887Y-73021819D02*
X200402649Y-72974200D01*
X200402649Y-72974200D02*
X200355030Y-72926580D01*
X200355030Y-72926580D02*
X200307411Y-72831342D01*
X200307411Y-72831342D02*
X200307411Y-72736104D01*
X200307411Y-72736104D02*
X200355030Y-72640866D01*
X200355030Y-72640866D02*
X200402649Y-72593247D01*
X200402649Y-72593247D02*
X200497887Y-72545628D01*
X200497887Y-72545628D02*
X200688363Y-72498009D01*
X200688363Y-72498009D02*
X200783601Y-72450390D01*
X200783601Y-72450390D02*
X200831220Y-72402771D01*
X200831220Y-72402771D02*
X200878839Y-72307533D01*
X200878839Y-72307533D02*
X200878839Y-72212295D01*
X200878839Y-72212295D02*
X200831220Y-72117057D01*
X200831220Y-72117057D02*
X200783601Y-72069438D01*
X200783601Y-72069438D02*
X200688363Y-72021819D01*
X200688363Y-72021819D02*
X200450268Y-72021819D01*
X200450268Y-72021819D02*
X200307411Y-72069438D01*
X199878839Y-72498009D02*
X199545506Y-72498009D01*
X199402649Y-73021819D02*
X199878839Y-73021819D01*
X199878839Y-73021819D02*
X199878839Y-72021819D01*
X199878839Y-72021819D02*
X199402649Y-72021819D01*
X198402649Y-73021819D02*
X198735982Y-72545628D01*
X198974077Y-73021819D02*
X198974077Y-72021819D01*
X198974077Y-72021819D02*
X198593125Y-72021819D01*
X198593125Y-72021819D02*
X198497887Y-72069438D01*
X198497887Y-72069438D02*
X198450268Y-72117057D01*
X198450268Y-72117057D02*
X198402649Y-72212295D01*
X198402649Y-72212295D02*
X198402649Y-72355152D01*
X198402649Y-72355152D02*
X198450268Y-72450390D01*
X198450268Y-72450390D02*
X198497887Y-72498009D01*
X198497887Y-72498009D02*
X198593125Y-72545628D01*
X198593125Y-72545628D02*
X198974077Y-72545628D01*
X200513792Y-60226580D02*
X200561411Y-60274200D01*
X200561411Y-60274200D02*
X200704268Y-60321819D01*
X200704268Y-60321819D02*
X200799506Y-60321819D01*
X200799506Y-60321819D02*
X200942363Y-60274200D01*
X200942363Y-60274200D02*
X201037601Y-60178961D01*
X201037601Y-60178961D02*
X201085220Y-60083723D01*
X201085220Y-60083723D02*
X201132839Y-59893247D01*
X201132839Y-59893247D02*
X201132839Y-59750390D01*
X201132839Y-59750390D02*
X201085220Y-59559914D01*
X201085220Y-59559914D02*
X201037601Y-59464676D01*
X201037601Y-59464676D02*
X200942363Y-59369438D01*
X200942363Y-59369438D02*
X200799506Y-59321819D01*
X200799506Y-59321819D02*
X200704268Y-59321819D01*
X200704268Y-59321819D02*
X200561411Y-59369438D01*
X200561411Y-59369438D02*
X200513792Y-59417057D01*
X199609030Y-60321819D02*
X200085220Y-60321819D01*
X200085220Y-60321819D02*
X200085220Y-59321819D01*
X199275696Y-60321819D02*
X199275696Y-59321819D01*
X198704268Y-60321819D02*
X199132839Y-59750390D01*
X198704268Y-59321819D02*
X199275696Y-59893247D01*
X197561411Y-59274200D02*
X198418553Y-60559914D01*
X197228077Y-60321819D02*
X197228077Y-59321819D01*
X196751887Y-60321819D02*
X196751887Y-59321819D01*
X196751887Y-59321819D02*
X196180459Y-60321819D01*
X196180459Y-60321819D02*
X196180459Y-59321819D01*
X195704268Y-60321819D02*
X195704268Y-59321819D01*
X195704268Y-59798009D02*
X195132840Y-59798009D01*
X195132840Y-60321819D02*
X195132840Y-59321819D01*
X188131220Y-68195819D02*
X188131220Y-67195819D01*
X188131220Y-67195819D02*
X187893125Y-67195819D01*
X187893125Y-67195819D02*
X187750268Y-67243438D01*
X187750268Y-67243438D02*
X187655030Y-67338676D01*
X187655030Y-67338676D02*
X187607411Y-67433914D01*
X187607411Y-67433914D02*
X187559792Y-67624390D01*
X187559792Y-67624390D02*
X187559792Y-67767247D01*
X187559792Y-67767247D02*
X187607411Y-67957723D01*
X187607411Y-67957723D02*
X187655030Y-68052961D01*
X187655030Y-68052961D02*
X187750268Y-68148200D01*
X187750268Y-68148200D02*
X187893125Y-68195819D01*
X187893125Y-68195819D02*
X188131220Y-68195819D01*
X187131220Y-68195819D02*
X187131220Y-67195819D01*
X186655030Y-68195819D02*
X186655030Y-67195819D01*
X186655030Y-67195819D02*
X186083602Y-68195819D01*
X186083602Y-68195819D02*
X186083602Y-67195819D01*
X188131220Y-70735819D02*
X188131220Y-69735819D01*
X188131220Y-69735819D02*
X187893125Y-69735819D01*
X187893125Y-69735819D02*
X187750268Y-69783438D01*
X187750268Y-69783438D02*
X187655030Y-69878676D01*
X187655030Y-69878676D02*
X187607411Y-69973914D01*
X187607411Y-69973914D02*
X187559792Y-70164390D01*
X187559792Y-70164390D02*
X187559792Y-70307247D01*
X187559792Y-70307247D02*
X187607411Y-70497723D01*
X187607411Y-70497723D02*
X187655030Y-70592961D01*
X187655030Y-70592961D02*
X187750268Y-70688200D01*
X187750268Y-70688200D02*
X187893125Y-70735819D01*
X187893125Y-70735819D02*
X188131220Y-70735819D01*
X186940744Y-69735819D02*
X186750268Y-69735819D01*
X186750268Y-69735819D02*
X186655030Y-69783438D01*
X186655030Y-69783438D02*
X186559792Y-69878676D01*
X186559792Y-69878676D02*
X186512173Y-70069152D01*
X186512173Y-70069152D02*
X186512173Y-70402485D01*
X186512173Y-70402485D02*
X186559792Y-70592961D01*
X186559792Y-70592961D02*
X186655030Y-70688200D01*
X186655030Y-70688200D02*
X186750268Y-70735819D01*
X186750268Y-70735819D02*
X186940744Y-70735819D01*
X186940744Y-70735819D02*
X187035982Y-70688200D01*
X187035982Y-70688200D02*
X187131220Y-70592961D01*
X187131220Y-70592961D02*
X187178839Y-70402485D01*
X187178839Y-70402485D02*
X187178839Y-70069152D01*
X187178839Y-70069152D02*
X187131220Y-69878676D01*
X187131220Y-69878676D02*
X187035982Y-69783438D01*
X187035982Y-69783438D02*
X186940744Y-69735819D01*
X186226458Y-69735819D02*
X185655030Y-69735819D01*
X185940744Y-70735819D02*
X185940744Y-69735819D01*
X188226458Y-61861819D02*
X187607411Y-61861819D01*
X187607411Y-61861819D02*
X187940744Y-62242771D01*
X187940744Y-62242771D02*
X187797887Y-62242771D01*
X187797887Y-62242771D02*
X187702649Y-62290390D01*
X187702649Y-62290390D02*
X187655030Y-62338009D01*
X187655030Y-62338009D02*
X187607411Y-62433247D01*
X187607411Y-62433247D02*
X187607411Y-62671342D01*
X187607411Y-62671342D02*
X187655030Y-62766580D01*
X187655030Y-62766580D02*
X187702649Y-62814200D01*
X187702649Y-62814200D02*
X187797887Y-62861819D01*
X187797887Y-62861819D02*
X188083601Y-62861819D01*
X188083601Y-62861819D02*
X188178839Y-62814200D01*
X188178839Y-62814200D02*
X188226458Y-62766580D01*
X187321696Y-61861819D02*
X186988363Y-62861819D01*
X186988363Y-62861819D02*
X186655030Y-61861819D01*
X186416934Y-61861819D02*
X185797887Y-61861819D01*
X185797887Y-61861819D02*
X186131220Y-62242771D01*
X186131220Y-62242771D02*
X185988363Y-62242771D01*
X185988363Y-62242771D02*
X185893125Y-62290390D01*
X185893125Y-62290390D02*
X185845506Y-62338009D01*
X185845506Y-62338009D02*
X185797887Y-62433247D01*
X185797887Y-62433247D02*
X185797887Y-62671342D01*
X185797887Y-62671342D02*
X185845506Y-62766580D01*
X185845506Y-62766580D02*
X185893125Y-62814200D01*
X185893125Y-62814200D02*
X185988363Y-62861819D01*
X185988363Y-62861819D02*
X186274077Y-62861819D01*
X186274077Y-62861819D02*
X186369315Y-62814200D01*
X186369315Y-62814200D02*
X186416934Y-62766580D01*
X200164554Y-70577057D02*
X200259792Y-70529438D01*
X200259792Y-70529438D02*
X200355030Y-70434200D01*
X200355030Y-70434200D02*
X200497887Y-70291342D01*
X200497887Y-70291342D02*
X200593125Y-70243723D01*
X200593125Y-70243723D02*
X200688363Y-70243723D01*
X200640744Y-70481819D02*
X200735982Y-70434200D01*
X200735982Y-70434200D02*
X200831220Y-70338961D01*
X200831220Y-70338961D02*
X200878839Y-70148485D01*
X200878839Y-70148485D02*
X200878839Y-69815152D01*
X200878839Y-69815152D02*
X200831220Y-69624676D01*
X200831220Y-69624676D02*
X200735982Y-69529438D01*
X200735982Y-69529438D02*
X200640744Y-69481819D01*
X200640744Y-69481819D02*
X200450268Y-69481819D01*
X200450268Y-69481819D02*
X200355030Y-69529438D01*
X200355030Y-69529438D02*
X200259792Y-69624676D01*
X200259792Y-69624676D02*
X200212173Y-69815152D01*
X200212173Y-69815152D02*
X200212173Y-70148485D01*
X200212173Y-70148485D02*
X200259792Y-70338961D01*
X200259792Y-70338961D02*
X200355030Y-70434200D01*
X200355030Y-70434200D02*
X200450268Y-70481819D01*
X200450268Y-70481819D02*
X200640744Y-70481819D01*
X199783601Y-70481819D02*
X199783601Y-69481819D01*
X199783601Y-69958009D02*
X199212173Y-69958009D01*
X199212173Y-70481819D02*
X199212173Y-69481819D01*
X200259792Y-65306580D02*
X200307411Y-65354200D01*
X200307411Y-65354200D02*
X200450268Y-65401819D01*
X200450268Y-65401819D02*
X200545506Y-65401819D01*
X200545506Y-65401819D02*
X200688363Y-65354200D01*
X200688363Y-65354200D02*
X200783601Y-65258961D01*
X200783601Y-65258961D02*
X200831220Y-65163723D01*
X200831220Y-65163723D02*
X200878839Y-64973247D01*
X200878839Y-64973247D02*
X200878839Y-64830390D01*
X200878839Y-64830390D02*
X200831220Y-64639914D01*
X200831220Y-64639914D02*
X200783601Y-64544676D01*
X200783601Y-64544676D02*
X200688363Y-64449438D01*
X200688363Y-64449438D02*
X200545506Y-64401819D01*
X200545506Y-64401819D02*
X200450268Y-64401819D01*
X200450268Y-64401819D02*
X200307411Y-64449438D01*
X200307411Y-64449438D02*
X200259792Y-64497057D01*
X199355030Y-65401819D02*
X199831220Y-65401819D01*
X199831220Y-65401819D02*
X199831220Y-64401819D01*
X199021696Y-65401819D02*
X199021696Y-64401819D01*
X198450268Y-65401819D02*
X198878839Y-64830390D01*
X198450268Y-64401819D02*
X199021696Y-64973247D01*
X187655030Y-59575819D02*
X188131220Y-59575819D01*
X188131220Y-59575819D02*
X188178839Y-60052009D01*
X188178839Y-60052009D02*
X188131220Y-60004390D01*
X188131220Y-60004390D02*
X188035982Y-59956771D01*
X188035982Y-59956771D02*
X187797887Y-59956771D01*
X187797887Y-59956771D02*
X187702649Y-60004390D01*
X187702649Y-60004390D02*
X187655030Y-60052009D01*
X187655030Y-60052009D02*
X187607411Y-60147247D01*
X187607411Y-60147247D02*
X187607411Y-60385342D01*
X187607411Y-60385342D02*
X187655030Y-60480580D01*
X187655030Y-60480580D02*
X187702649Y-60528200D01*
X187702649Y-60528200D02*
X187797887Y-60575819D01*
X187797887Y-60575819D02*
X188035982Y-60575819D01*
X188035982Y-60575819D02*
X188131220Y-60528200D01*
X188131220Y-60528200D02*
X188178839Y-60480580D01*
X187321696Y-59575819D02*
X186988363Y-60575819D01*
X186988363Y-60575819D02*
X186655030Y-59575819D01*
X128619040Y-42999819D02*
X128619040Y-41999819D01*
X128047612Y-42999819D02*
X128476183Y-42428390D01*
X128047612Y-41999819D02*
X128619040Y-42571247D01*
X127619040Y-42476009D02*
X127285707Y-42476009D01*
X127142850Y-42999819D02*
X127619040Y-42999819D01*
X127619040Y-42999819D02*
X127619040Y-41999819D01*
X127619040Y-41999819D02*
X127142850Y-41999819D01*
X126523802Y-42523628D02*
X126523802Y-42999819D01*
X126857135Y-41999819D02*
X126523802Y-42523628D01*
X126523802Y-42523628D02*
X126190469Y-41999819D01*
X125428564Y-42333152D02*
X125428564Y-42999819D01*
X125666659Y-41952200D02*
X125904754Y-42666485D01*
X125904754Y-42666485D02*
X125285707Y-42666485D01*
X178149047Y-42999819D02*
X178149047Y-41999819D01*
X177577619Y-42999819D02*
X178006190Y-42428390D01*
X177577619Y-41999819D02*
X178149047Y-42571247D01*
X177149047Y-42476009D02*
X176815714Y-42476009D01*
X176672857Y-42999819D02*
X177149047Y-42999819D01*
X177149047Y-42999819D02*
X177149047Y-41999819D01*
X177149047Y-41999819D02*
X176672857Y-41999819D01*
X176053809Y-42523628D02*
X176053809Y-42999819D01*
X176387142Y-41999819D02*
X176053809Y-42523628D01*
X176053809Y-42523628D02*
X175720476Y-41999819D01*
X174863333Y-42999819D02*
X175434761Y-42999819D01*
X175149047Y-42999819D02*
X175149047Y-41999819D01*
X175149047Y-41999819D02*
X175244285Y-42142676D01*
X175244285Y-42142676D02*
X175339523Y-42237914D01*
X175339523Y-42237914D02*
X175434761Y-42285533D01*
X178149047Y-78559819D02*
X178149047Y-77559819D01*
X177577619Y-78559819D02*
X178006190Y-77988390D01*
X177577619Y-77559819D02*
X178149047Y-78131247D01*
X177149047Y-78036009D02*
X176815714Y-78036009D01*
X176672857Y-78559819D02*
X177149047Y-78559819D01*
X177149047Y-78559819D02*
X177149047Y-77559819D01*
X177149047Y-77559819D02*
X176672857Y-77559819D01*
X176053809Y-78083628D02*
X176053809Y-78559819D01*
X176387142Y-77559819D02*
X176053809Y-78083628D01*
X176053809Y-78083628D02*
X175720476Y-77559819D01*
X175244285Y-77988390D02*
X175339523Y-77940771D01*
X175339523Y-77940771D02*
X175387142Y-77893152D01*
X175387142Y-77893152D02*
X175434761Y-77797914D01*
X175434761Y-77797914D02*
X175434761Y-77750295D01*
X175434761Y-77750295D02*
X175387142Y-77655057D01*
X175387142Y-77655057D02*
X175339523Y-77607438D01*
X175339523Y-77607438D02*
X175244285Y-77559819D01*
X175244285Y-77559819D02*
X175053809Y-77559819D01*
X175053809Y-77559819D02*
X174958571Y-77607438D01*
X174958571Y-77607438D02*
X174910952Y-77655057D01*
X174910952Y-77655057D02*
X174863333Y-77750295D01*
X174863333Y-77750295D02*
X174863333Y-77797914D01*
X174863333Y-77797914D02*
X174910952Y-77893152D01*
X174910952Y-77893152D02*
X174958571Y-77940771D01*
X174958571Y-77940771D02*
X175053809Y-77988390D01*
X175053809Y-77988390D02*
X175244285Y-77988390D01*
X175244285Y-77988390D02*
X175339523Y-78036009D01*
X175339523Y-78036009D02*
X175387142Y-78083628D01*
X175387142Y-78083628D02*
X175434761Y-78178866D01*
X175434761Y-78178866D02*
X175434761Y-78369342D01*
X175434761Y-78369342D02*
X175387142Y-78464580D01*
X175387142Y-78464580D02*
X175339523Y-78512200D01*
X175339523Y-78512200D02*
X175244285Y-78559819D01*
X175244285Y-78559819D02*
X175053809Y-78559819D01*
X175053809Y-78559819D02*
X174958571Y-78512200D01*
X174958571Y-78512200D02*
X174910952Y-78464580D01*
X174910952Y-78464580D02*
X174863333Y-78369342D01*
X174863333Y-78369342D02*
X174863333Y-78178866D01*
X174863333Y-78178866D02*
X174910952Y-78083628D01*
X174910952Y-78083628D02*
X174958571Y-78036009D01*
X174958571Y-78036009D02*
X175053809Y-77988390D01*
X145129047Y-42999819D02*
X145129047Y-41999819D01*
X144557619Y-42999819D02*
X144986190Y-42428390D01*
X144557619Y-41999819D02*
X145129047Y-42571247D01*
X144129047Y-42476009D02*
X143795714Y-42476009D01*
X143652857Y-42999819D02*
X144129047Y-42999819D01*
X144129047Y-42999819D02*
X144129047Y-41999819D01*
X144129047Y-41999819D02*
X143652857Y-41999819D01*
X143033809Y-42523628D02*
X143033809Y-42999819D01*
X143367142Y-41999819D02*
X143033809Y-42523628D01*
X143033809Y-42523628D02*
X142700476Y-41999819D01*
X142462380Y-41999819D02*
X141843333Y-41999819D01*
X141843333Y-41999819D02*
X142176666Y-42380771D01*
X142176666Y-42380771D02*
X142033809Y-42380771D01*
X142033809Y-42380771D02*
X141938571Y-42428390D01*
X141938571Y-42428390D02*
X141890952Y-42476009D01*
X141890952Y-42476009D02*
X141843333Y-42571247D01*
X141843333Y-42571247D02*
X141843333Y-42809342D01*
X141843333Y-42809342D02*
X141890952Y-42904580D01*
X141890952Y-42904580D02*
X141938571Y-42952200D01*
X141938571Y-42952200D02*
X142033809Y-42999819D01*
X142033809Y-42999819D02*
X142319523Y-42999819D01*
X142319523Y-42999819D02*
X142414761Y-42952200D01*
X142414761Y-42952200D02*
X142462380Y-42904580D01*
X161639047Y-78559819D02*
X161639047Y-77559819D01*
X161067619Y-78559819D02*
X161496190Y-77988390D01*
X161067619Y-77559819D02*
X161639047Y-78131247D01*
X160639047Y-78036009D02*
X160305714Y-78036009D01*
X160162857Y-78559819D02*
X160639047Y-78559819D01*
X160639047Y-78559819D02*
X160639047Y-77559819D01*
X160639047Y-77559819D02*
X160162857Y-77559819D01*
X159543809Y-78083628D02*
X159543809Y-78559819D01*
X159877142Y-77559819D02*
X159543809Y-78083628D01*
X159543809Y-78083628D02*
X159210476Y-77559819D01*
X158972380Y-77559819D02*
X158305714Y-77559819D01*
X158305714Y-77559819D02*
X158734285Y-78559819D01*
X128619047Y-78559819D02*
X128619047Y-77559819D01*
X128047619Y-78559819D02*
X128476190Y-77988390D01*
X128047619Y-77559819D02*
X128619047Y-78131247D01*
X127619047Y-78036009D02*
X127285714Y-78036009D01*
X127142857Y-78559819D02*
X127619047Y-78559819D01*
X127619047Y-78559819D02*
X127619047Y-77559819D01*
X127619047Y-77559819D02*
X127142857Y-77559819D01*
X126523809Y-78083628D02*
X126523809Y-78559819D01*
X126857142Y-77559819D02*
X126523809Y-78083628D01*
X126523809Y-78083628D02*
X126190476Y-77559819D01*
X125380952Y-77559819D02*
X125857142Y-77559819D01*
X125857142Y-77559819D02*
X125904761Y-78036009D01*
X125904761Y-78036009D02*
X125857142Y-77988390D01*
X125857142Y-77988390D02*
X125761904Y-77940771D01*
X125761904Y-77940771D02*
X125523809Y-77940771D01*
X125523809Y-77940771D02*
X125428571Y-77988390D01*
X125428571Y-77988390D02*
X125380952Y-78036009D01*
X125380952Y-78036009D02*
X125333333Y-78131247D01*
X125333333Y-78131247D02*
X125333333Y-78369342D01*
X125333333Y-78369342D02*
X125380952Y-78464580D01*
X125380952Y-78464580D02*
X125428571Y-78512200D01*
X125428571Y-78512200D02*
X125523809Y-78559819D01*
X125523809Y-78559819D02*
X125761904Y-78559819D01*
X125761904Y-78559819D02*
X125857142Y-78512200D01*
X125857142Y-78512200D02*
X125904761Y-78464580D01*
X161639048Y-42999819D02*
X161639048Y-41999819D01*
X161067620Y-42999819D02*
X161496191Y-42428390D01*
X161067620Y-41999819D02*
X161639048Y-42571247D01*
X160639048Y-42476009D02*
X160305715Y-42476009D01*
X160162858Y-42999819D02*
X160639048Y-42999819D01*
X160639048Y-42999819D02*
X160639048Y-41999819D01*
X160639048Y-41999819D02*
X160162858Y-41999819D01*
X159543810Y-42523628D02*
X159543810Y-42999819D01*
X159877143Y-41999819D02*
X159543810Y-42523628D01*
X159543810Y-42523628D02*
X159210477Y-41999819D01*
X158924762Y-42095057D02*
X158877143Y-42047438D01*
X158877143Y-42047438D02*
X158781905Y-41999819D01*
X158781905Y-41999819D02*
X158543810Y-41999819D01*
X158543810Y-41999819D02*
X158448572Y-42047438D01*
X158448572Y-42047438D02*
X158400953Y-42095057D01*
X158400953Y-42095057D02*
X158353334Y-42190295D01*
X158353334Y-42190295D02*
X158353334Y-42285533D01*
X158353334Y-42285533D02*
X158400953Y-42428390D01*
X158400953Y-42428390D02*
X158972381Y-42999819D01*
X158972381Y-42999819D02*
X158353334Y-42999819D01*
X145129040Y-78559819D02*
X145129040Y-77559819D01*
X144557612Y-78559819D02*
X144986183Y-77988390D01*
X144557612Y-77559819D02*
X145129040Y-78131247D01*
X144129040Y-78036009D02*
X143795707Y-78036009D01*
X143652850Y-78559819D02*
X144129040Y-78559819D01*
X144129040Y-78559819D02*
X144129040Y-77559819D01*
X144129040Y-77559819D02*
X143652850Y-77559819D01*
X143033802Y-78083628D02*
X143033802Y-78559819D01*
X143367135Y-77559819D02*
X143033802Y-78083628D01*
X143033802Y-78083628D02*
X142700469Y-77559819D01*
X141938564Y-77559819D02*
X142129040Y-77559819D01*
X142129040Y-77559819D02*
X142224278Y-77607438D01*
X142224278Y-77607438D02*
X142271897Y-77655057D01*
X142271897Y-77655057D02*
X142367135Y-77797914D01*
X142367135Y-77797914D02*
X142414754Y-77988390D01*
X142414754Y-77988390D02*
X142414754Y-78369342D01*
X142414754Y-78369342D02*
X142367135Y-78464580D01*
X142367135Y-78464580D02*
X142319516Y-78512200D01*
X142319516Y-78512200D02*
X142224278Y-78559819D01*
X142224278Y-78559819D02*
X142033802Y-78559819D01*
X142033802Y-78559819D02*
X141938564Y-78512200D01*
X141938564Y-78512200D02*
X141890945Y-78464580D01*
X141890945Y-78464580D02*
X141843326Y-78369342D01*
X141843326Y-78369342D02*
X141843326Y-78131247D01*
X141843326Y-78131247D02*
X141890945Y-78036009D01*
X141890945Y-78036009D02*
X141938564Y-77988390D01*
X141938564Y-77988390D02*
X142033802Y-77940771D01*
X142033802Y-77940771D02*
X142224278Y-77940771D01*
X142224278Y-77940771D02*
X142319516Y-77988390D01*
X142319516Y-77988390D02*
X142367135Y-78036009D01*
X142367135Y-78036009D02*
X142414754Y-78131247D01*
D11*
%TO.C,KEY4*%
X134800018Y-44269979D02*
X134800018Y-59870030D01*
X134800018Y-44269979D02*
X119199967Y-44269979D01*
X134800018Y-59870030D02*
X119199967Y-59870030D01*
X119199967Y-44269979D02*
X119199967Y-59870030D01*
D12*
X134030015Y-59870081D02*
G75*
G03*
X134030015Y-59870081I-29997J0D01*
G01*
D11*
%TO.C,KEY1*%
X184330025Y-44269974D02*
X184330025Y-59870025D01*
X184330025Y-44269974D02*
X168729974Y-44269974D01*
X184330025Y-59870025D02*
X168729974Y-59870025D01*
X168729974Y-44269974D02*
X168729974Y-59870025D01*
D12*
X183560022Y-59870076D02*
G75*
G03*
X183560022Y-59870076I-29997J0D01*
G01*
D11*
%TO.C,KEY8*%
X184330018Y-60779979D02*
X184330018Y-76380030D01*
X184330018Y-60779979D02*
X168729967Y-60779979D01*
X184330018Y-76380030D02*
X168729967Y-76380030D01*
X168729967Y-60779979D02*
X168729967Y-76380030D01*
D12*
X183560015Y-76380081D02*
G75*
G03*
X183560015Y-76380081I-29997J0D01*
G01*
D11*
%TO.C,KEY3*%
X151310025Y-44269974D02*
X151310025Y-59870025D01*
X151310025Y-44269974D02*
X135709974Y-44269974D01*
X151310025Y-59870025D02*
X135709974Y-59870025D01*
X135709974Y-44269974D02*
X135709974Y-59870025D01*
D12*
X150540022Y-59870076D02*
G75*
G03*
X150540022Y-59870076I-29997J0D01*
G01*
D11*
%TO.C,KEY7*%
X167820018Y-60779979D02*
X167820018Y-76380030D01*
X167820018Y-60779979D02*
X152219967Y-60779979D01*
X167820018Y-76380030D02*
X152219967Y-76380030D01*
X152219967Y-60779979D02*
X152219967Y-76380030D01*
D12*
X167050015Y-76380081D02*
G75*
G03*
X167050015Y-76380081I-29997J0D01*
G01*
D11*
%TO.C,KEY5*%
X134800018Y-60779979D02*
X134800018Y-76380030D01*
X134800018Y-60779979D02*
X119199967Y-60779979D01*
X134800018Y-76380030D02*
X119199967Y-76380030D01*
X119199967Y-60779979D02*
X119199967Y-76380030D01*
D12*
X134030015Y-76380081D02*
G75*
G03*
X134030015Y-76380081I-29997J0D01*
G01*
D11*
%TO.C,KEY2*%
X167820026Y-44269975D02*
X167820026Y-59870026D01*
X167820026Y-44269975D02*
X152219975Y-44269975D01*
X167820026Y-59870026D02*
X152219975Y-59870026D01*
X152219975Y-44269975D02*
X152219975Y-59870026D01*
D12*
X167050023Y-59870077D02*
G75*
G03*
X167050023Y-59870077I-29997J0D01*
G01*
D11*
%TO.C,KEY6*%
X151310018Y-60779979D02*
X151310018Y-76380030D01*
X151310018Y-60779979D02*
X135709967Y-60779979D01*
X151310018Y-76380030D02*
X135709967Y-76380030D01*
X135709967Y-60779979D02*
X135709967Y-76380030D01*
D12*
X150540015Y-76380081D02*
G75*
G03*
X150540015Y-76380081I-29997J0D01*
G01*
%TD*%
%LPC*%
D13*
%TO.C,REF\u002A\u002A*%
X201930000Y-44196000D03*
%TD*%
%TO.C,REF\u002A\u002A*%
X201930000Y-75692000D03*
%TD*%
%TO.C,REF\u002A\u002A*%
X114046000Y-44196000D03*
%TD*%
%TO.C,REF\u002A\u002A*%
X114046000Y-75692000D03*
%TD*%
D14*
%TO.C,KEY4*%
X126999993Y-52070005D03*
D15*
X130810000Y-49530000D03*
X124459988Y-46989994D03*
%TD*%
D14*
%TO.C,KEY1*%
X176530000Y-52070000D03*
D15*
X180340007Y-49529995D03*
X173989995Y-46989989D03*
%TD*%
D14*
%TO.C,KEY8*%
X176529993Y-68580005D03*
D15*
X180340000Y-66040000D03*
X173989988Y-63499994D03*
%TD*%
D14*
%TO.C,KEY3*%
X143510000Y-52070000D03*
D15*
X147320007Y-49529995D03*
X140969995Y-46989989D03*
%TD*%
D14*
%TO.C,KEY7*%
X160019993Y-68580005D03*
D15*
X163830000Y-66040000D03*
X157479988Y-63499994D03*
%TD*%
D14*
%TO.C,KEY5*%
X126999993Y-68580005D03*
D15*
X130810000Y-66040000D03*
X124459988Y-63499994D03*
%TD*%
D14*
%TO.C,KEY2*%
X160020001Y-52070001D03*
D15*
X163830008Y-49529996D03*
X157479996Y-46989990D03*
%TD*%
D14*
%TO.C,KEY6*%
X143509993Y-68580005D03*
D15*
X147320000Y-66040000D03*
X140969988Y-63499994D03*
%TD*%
D16*
%TO.C,J1*%
X190241000Y-59944000D03*
D17*
X192781000Y-59944000D03*
X190241000Y-62484000D03*
X192781000Y-62484000D03*
X190241000Y-65024000D03*
X192781000Y-65024000D03*
X190241000Y-67564000D03*
X192781000Y-67564000D03*
X190241000Y-70104000D03*
X192781000Y-70104000D03*
X190241000Y-72644000D03*
X192781000Y-72644000D03*
X190241000Y-75184000D03*
X192781000Y-75184000D03*
%TD*%
%LPD*%
M02*
